<svg width="32" height="32" viewBox="0 0 32 32" fill="none" xmlns="http://www.w3.org/2000/svg">
<g clip-path="url(#clip0_109_2)">
<path d="M8.67476 5.37677C10.9676 3.29017 13.9689 1.63427 16.8988 1.78278C19.8329 1.91524 22.6955 3.85212 25.1599 6.25002C27.6244 8.64793 29.6543 11.5143 29.5501 14.2734C29.4299 17.0282 27.1393 19.6831 25.087 22.2814C23.0187 24.8755 21.1844 27.429 18.5855 28.6078C15.991 29.7706 12.6158 29.5544 9.58429 28.312C6.53244 27.0814 3.82421 24.8246 2.80683 22.0231C1.79376 19.2055 2.47154 15.8431 3.61644 12.9156C4.76564 9.9721 6.38195 7.46338 8.67476 5.37677Z" fill="#FFDBB4"/>
<g clip-path="url(#clip1_109_2)">
<path fill-rule="evenodd" clip-rule="evenodd" d="M15.6747 5.99509C18.1244 5.99509 20.6583 7.91029 21.5562 9.13243C22.5946 10.5456 23.4137 17.3295 23.0294 19.6315C22.6452 21.9334 20.7365 24.4424 17.4231 24.4424C14.1097 24.4424 12.0933 24.0307 12.0124 23.4328C11.9585 23.0342 11.2301 21.7256 9.82701 19.5069C8.39203 19.0998 7.67172 18.4101 7.66608 17.4377C7.66051 16.4653 8.045 15.8022 8.81956 15.4484C8.5434 11.6109 8.75308 9.19267 9.44861 8.19358C10.4919 6.69494 13.2249 5.99509 15.6747 5.99509Z" fill="#EDB98A"/>
<path fill-rule="evenodd" clip-rule="evenodd" d="M14.4277 5.41812L14.4713 5.41831C17.1818 5.43598 19.9385 6.69396 21.5511 8.89149L21.5996 8.95837C21.6023 8.96185 21.6505 9.0343 21.6619 9.05495C21.7288 9.17593 21.8075 9.28913 21.8679 9.41216C21.9189 9.5166 21.9528 9.63327 21.9903 9.7445L22.0016 9.77769C22.0979 10.0553 22.179 10.3356 22.2506 10.6206C22.3895 11.1754 22.4978 11.7389 22.6031 12.3012C22.9794 14.3144 23.2254 16.3563 23.3493 18.401L23.3738 18.8121C23.3988 19.2385 23.4177 19.6667 23.3702 20.0917C23.3154 20.5865 23.1743 21.0508 22.9608 21.499C22.764 21.9124 22.5103 22.2954 22.22 22.6474C22.0647 22.8358 21.8999 23.019 21.6971 23.1569C21.5357 23.2666 21.3472 23.3389 21.1655 23.4085C20.87 23.7061 20.4908 23.9311 20.1202 24.1108C19.5093 24.4063 18.847 24.5695 18.177 24.6513C17.4918 24.7344 16.7998 24.7144 16.1203 24.5956C15.471 24.4824 14.775 24.1931 14.3751 23.6417C14.3406 23.5943 14.4048 23.5495 14.4471 23.5691C15.6077 24.1108 16.9119 24.2523 18.177 24.0812C18.7671 24.0016 19.3479 23.8371 19.8868 23.5817C20.3415 23.3663 20.725 23.053 21.1332 22.7692C21.2126 22.6626 21.2928 22.5578 21.3843 22.4603L21.5271 22.3093C21.6338 22.1959 21.7385 22.0809 21.8338 21.9568C22.1281 21.5743 22.3718 21.1405 22.5328 20.684C22.8458 19.7954 22.7612 18.8309 22.7058 17.9049L22.7011 17.8233C22.6441 16.8329 22.5513 15.8459 22.4228 14.8625C22.2942 13.8777 22.1306 12.8969 21.9374 11.923C21.8421 11.443 21.735 10.9661 21.6406 10.4861C21.5918 10.2385 21.5577 9.98744 21.5206 9.73722C21.4982 9.58492 21.4986 9.43827 21.4982 9.28945C21.4939 9.29641 21.4887 9.30294 21.4835 9.30947C21.4991 9.34646 21.4883 9.39389 21.4503 9.41565C21.3066 9.49832 21.141 9.47047 20.9792 9.47091C20.8074 9.47178 20.6357 9.47222 20.464 9.47265C20.2852 9.4733 20.1063 9.4733 19.9275 9.47303L19.391 9.47178L17.245 9.46525C15.8396 9.461 14.4104 9.51736 13.0095 9.38374L12.9026 9.37309C12.7925 9.36031 11.5502 9.20708 11.2142 9.1675L11.204 9.1663C10.59 9.09494 9.98477 8.98919 9.38809 8.8308C9.58306 8.90956 9.77078 9.01574 9.96402 9.09624C10.2134 9.19981 10.4692 9.29032 10.7251 9.37692C11.2502 9.55489 11.7761 9.72765 12.299 9.91129C12.4489 9.96384 12.7896 11.2592 12.8754 11.4641L12.878 11.47C12.9215 11.5688 12.9816 11.6771 12.9483 11.7894C12.875 12.0375 12.4862 12.2211 12.2934 12.3612L12.0951 12.5055L11.8359 12.6947C11.7295 12.7715 11.6313 12.8303 11.4922 12.7864C11.4918 12.7859 11.4914 12.7859 11.4909 12.7859C11.61 13.3434 11.6678 15.1462 11.6855 15.4626C11.701 15.738 11.7812 16.0909 11.6535 16.342C11.6233 16.4016 11.5449 16.4486 11.4779 16.4438C11.1863 16.4216 10.8947 16.3999 10.603 16.3781C10.5249 16.372 10.4537 16.3272 10.4321 16.2471L10.4313 16.2428C10.4218 16.2454 10.411 16.2437 10.402 16.2341C10.386 16.218 10.3696 16.2023 10.3527 16.1871C9.96881 15.8416 9.36824 15.7563 8.89448 15.936C8.64601 16.03 8.36342 16.1884 8.18821 16.3938C7.99363 16.6218 7.95182 16.9403 7.95135 17.2315C7.95049 17.7928 8.15158 18.3611 8.56184 18.7506C8.93883 19.1081 9.42525 19.2121 9.91464 19.3145L9.96708 19.3254C10.0788 19.3489 10.1142 19.5169 10.0301 19.5874C10.254 19.8085 10.4473 20.0722 10.6358 20.3154C10.8862 20.6381 11.1256 20.9736 11.3585 21.3098L11.4709 21.4725C11.8716 22.0492 12.4516 22.8437 12.1994 23.5647C12.1657 23.6617 12.0251 23.6966 11.9702 23.5947C11.7903 23.2597 11.6898 22.8907 11.5189 22.5517C11.3511 22.2192 11.1423 21.9111 10.9352 21.603L10.8157 21.4245C10.6168 21.1263 10.4198 20.8249 10.2371 20.5178L10.1099 20.3051C9.99044 20.1043 9.87217 19.8967 9.78411 19.681C9.19519 19.8241 8.55493 19.5056 8.14118 19.0813C7.62091 18.5469 7.37628 17.7597 7.44354 17.0195C7.47896 16.6323 7.59243 16.2576 7.87369 15.9791C7.90216 15.9512 7.93198 15.9247 7.96261 15.8981C7.95182 15.8925 7.94276 15.8838 7.9384 15.8733C7.74987 15.4217 7.70974 14.8834 7.69378 14.3969C7.67699 13.8938 7.68778 13.3895 7.7257 12.8873C7.79521 11.9665 7.95998 11.0505 8.22147 10.1654C8.60843 8.85734 9.27333 7.57668 10.3355 6.69897C11.4682 5.76284 12.9858 5.41569 14.4277 5.41812ZM8.78926 16.8594C8.94922 16.7862 9.19878 16.9166 9.34119 16.9997L9.35052 17.0052C9.77118 17.2519 10.0706 17.6723 10.2091 18.1379C10.298 18.4381 9.79879 18.5578 9.75651 18.2637C9.72204 18.0239 9.64261 17.7993 9.51192 17.5987C9.48082 17.6092 9.45062 17.6227 9.42348 17.6401C9.3195 17.708 9.25906 17.8246 9.11457 17.8072C9.00753 17.7946 8.89794 17.7197 8.90528 17.5961C8.91697 17.392 9.08001 17.3107 9.25479 17.3002C9.22984 17.2777 9.20467 17.2554 9.1789 17.2339L9.15069 17.2111C9.11871 17.1878 8.77682 16.9499 8.76699 17.0111L8.76678 17.0148C8.76722 17.0391 8.73486 17.053 8.71846 17.0348C8.65245 16.9634 8.71376 16.8942 8.78926 16.8594Z" fill="black"/>
<path fill-rule="evenodd" clip-rule="evenodd" d="M17.5604 19.3558C17.8022 18.9553 18.3178 19.9363 18.3725 20.1049C18.4211 20.2543 18.4531 20.4074 18.4694 20.5622C18.6569 20.6045 18.8516 20.6046 19.0437 20.5675C19.3293 20.5124 19.5038 20.3579 19.752 20.2252C19.9234 20.1335 20.1395 20.241 20.2286 20.3931C20.3335 20.572 20.2666 20.7578 20.1287 20.8912C19.8672 21.1442 19.3526 21.2023 19.0113 21.1351C18.8157 21.0966 18.6364 21.0228 18.4781 20.9155C18.477 20.9356 18.4763 20.9556 18.4748 20.9756L18.4717 21.0103C18.4455 21.2908 18.3689 21.6437 18.1524 21.8262C17.7972 22.1257 17.3589 21.5497 17.704 21.2506L17.7147 21.2416C17.9292 21.0672 17.976 20.5992 17.9644 20.3414C17.9569 20.1731 17.9264 20.0027 17.8736 19.8425L17.8628 19.8106C17.8469 19.7653 17.6737 19.3359 17.6111 19.3906L17.6081 19.3937C17.5823 19.4247 17.5405 19.3886 17.5604 19.3558ZM19.4915 17.0962C19.8179 17.296 20.3154 17.7617 19.9642 18.2569C19.5508 18.6935 18.9555 18.1929 18.6622 17.9665C18.3902 17.791 18.0846 18.2423 18.337 18.4472C20.4565 20.0266 21.3167 17.1485 19.6566 16.8614C19.4738 16.8297 19.4059 17.0344 19.4915 17.0962ZM16.0051 15.25C16.3242 15.193 16.6511 15.2729 16.9151 15.4608L16.9351 15.4753C17.1895 15.6625 17.4741 15.9913 17.3281 16.314C17.2696 16.4436 17.0941 16.4639 16.9828 16.4052C16.7974 16.3074 16.7638 16.0667 16.5985 15.9335C16.4628 15.8243 16.2802 15.7581 16.1055 15.7741C15.6952 15.8116 15.4428 16.2189 15.3153 16.57C15.299 16.6149 15.2335 16.6323 15.2079 16.5841C14.9074 16.0187 15.4394 15.351 16.0051 15.25ZM21.116 15.0366C21.7272 14.9859 22.4427 15.6237 22.2817 16.273C22.2046 16.5846 21.7454 16.5757 21.6637 16.273C21.6188 16.1065 21.6233 15.9592 21.5042 15.8209C21.4059 15.7067 21.2662 15.6404 21.116 15.6506C20.9505 15.6618 20.7978 15.745 20.6818 15.862C20.5771 15.9677 20.5144 16.1223 20.4059 16.2158C20.3792 16.2388 20.3434 16.2403 20.3171 16.2158C20.1303 16.0425 20.2424 15.6817 20.3608 15.5007C20.5303 15.2418 20.8063 15.0624 21.116 15.0366ZM14.8412 14.0984C15.2333 13.749 15.9458 13.4116 16.4745 13.5836C16.7785 13.6824 16.911 14.1754 16.5717 14.3316C16.1787 14.5126 15.7256 14.4389 15.3257 14.6265C15.1577 14.7053 14.9997 14.8038 14.8828 14.9482C14.7906 15.062 14.6969 15.2118 14.5636 15.2774C14.5286 15.2947 14.4812 15.2952 14.4531 15.2631C14.161 14.9306 14.5862 14.3255 14.8412 14.0984ZM20.4421 13.5662C20.6844 13.4978 20.9533 13.4992 21.1994 13.5422C21.4455 13.5852 21.6954 13.6878 21.8963 13.8375L21.9196 13.8551C22.139 14.0214 22.4007 14.2635 22.3867 14.5582C22.375 14.8042 22.1178 14.9707 21.8957 14.8417C21.7147 14.7365 21.6295 14.5258 21.4762 14.3855C21.3498 14.2697 21.2012 14.1784 21.0427 14.1145C20.8667 14.0434 20.6903 14.0101 20.5014 14.0069C20.3559 14.0045 20.2095 14.0526 20.0668 14.0679C20.0785 14.0922 19.9657 14.0809 19.901 14.0593C19.8531 14.0388 19.8528 13.9778 19.8694 13.9383C19.9518 13.7423 20.2515 13.62 20.4421 13.5662Z" fill="black"/>
<path fill-rule="evenodd" clip-rule="evenodd" d="M24.5122 13.7831C24.4767 13.7772 24.441 13.7716 24.4054 13.7663C24.3776 13.7504 24.345 13.7382 24.307 13.7308C24.2203 13.7087 24.1342 13.6938 24.0483 13.6857C22.8147 13.4063 19.9609 13.803 19.8431 14.8625C19.4503 14.9945 19.1103 14.8763 18.655 14.8881C18.3085 13.4301 12.3168 13.6359 12.0286 14.5149C12.0275 14.5146 12.0265 14.5143 12.0253 14.514C11.7485 14.4277 11.3403 14.4485 11.0234 14.4349C10.3467 14.4206 9.66923 14.4813 9.00716 14.6249C7.76739 14.8232 6.07538 15.0554 6.93762 16.6136C6.93779 16.6139 6.93792 16.6142 6.93814 16.6144L6.93827 16.6143C7.08687 16.7676 7.33906 16.6441 7.34844 16.4366C7.05855 15.6984 7.71331 15.6098 8.21708 15.3976C9.4706 14.9444 10.7468 14.8816 12.0433 15.0218C12.1408 15.1373 12.2888 15.2381 12.4452 15.2909C13.3121 15.4357 12.8552 16.0828 13.4032 16.177C13.3025 18.4329 16.0238 19.6643 17.6005 18.1813C18.2301 17.5618 18.3801 16.6441 18.5261 15.817C18.6033 15.7995 18.6524 15.757 18.681 15.7008C18.8666 15.5143 18.9832 15.3421 19.3503 15.2909C19.7173 15.2397 19.9998 15.3424 20.038 15.3739C20.0477 15.3934 20.058 15.413 20.07 15.4326C20.0868 15.4618 20.1096 15.4851 20.1356 15.5034C19.7731 17.7498 21.5059 19.1705 23.2551 18.0054C24.0152 17.2858 24.1758 16.1841 24.2076 15.2007C24.3106 15.1381 24.3758 15.0168 24.3402 14.8644C24.291 14.6542 24.4063 14.4722 24.5899 14.3808C24.8284 14.2622 24.7862 13.8288 24.5122 13.7831ZM16.9959 14.8489C16.7788 14.8008 16.686 15.1377 16.9039 15.1859C17.0581 15.2201 17.1888 15.2984 17.2771 15.431L17.2864 15.4454C17.405 15.6352 17.7046 15.46 17.5853 15.269C17.451 15.054 17.2424 14.9034 16.9959 14.8489ZM23.3552 14.64C23.2787 14.5857 23.1628 14.626 23.1184 14.7027C23.0695 14.7871 23.1015 14.8811 23.1732 14.9364L23.1805 14.9418C23.2463 14.9884 23.3103 15.072 23.3184 15.1577L23.3191 15.1684C23.3277 15.3926 23.6739 15.3938 23.6652 15.1684C23.6568 14.948 23.53 14.7638 23.3552 14.64Z" fill="black"/>
</g>
</g>
<defs>
<clipPath id="clip0_109_2">
<rect width="32" height="32" fill="white"/>
</clipPath>
<clipPath id="clip1_109_2">
<rect width="19.082" height="20.0128" fill="white" transform="translate(6.30957 5.05038)"/>
</clipPath>
</defs>
</svg>
