<svg width="343" height="502" viewBox="0 0 343 502" fill="none" xmlns="http://www.w3.org/2000/svg">
<path fill-rule="evenodd" clip-rule="evenodd" d="M44.731 296.607C50.5012 269.271 70.9649 248.058 98.4869 237.491C103.777 234.499 108.905 221.66 116.015 219.309C117.155 218.932 115.356 221.931 116.015 222.11C118.366 222.749 121.001 222.816 123.597 220.509C128.237 216.385 129.693 204.337 132.514 198.891C147.392 170.173 184.539 181.41 189.515 213.157C192.985 215.419 197.891 217.411 201.668 219.234C205.557 221.111 208.979 225.656 212.987 227.282C216.563 228.732 222.456 227.704 226.06 228.968C242.635 234.783 256.674 242.119 267.68 256.984C269.999 260.119 272.614 263.974 274.724 267.141C285.604 279.666 293.162 293.705 300.122 308.766C319.595 352.975 324.892 401.924 329.644 449.557C329.536 457.891 335.066 481.001 326.887 484.996C327.376 485.503 327.199 486.521 326.292 486.512C305.552 486.303 284.86 488.159 264.442 491.767C254.59 493.509 244.792 495.896 234.757 496.289C213.926 496.145 193.17 492.654 172.367 495.957C147.358 495.957 116.965 495.229 89.143 494.159C63.1407 493.16 36.9989 495.417 11.3187 490.995C9.28598 490.674 8.2933 488.194 8.71939 486.418C11.7323 475.439 13.2113 464.14 14.9019 452.904C14.5652 445.696 15.1676 438.172 17.8338 431.459C24.7999 386.142 33.7327 341.12 44.731 296.607Z" fill="#FFDBB4"/>
<path fill-rule="evenodd" clip-rule="evenodd" d="M116.015 222.277C115.356 222.097 117.155 219.098 116.015 219.475C108.905 221.826 103.777 234.665 98.4869 237.657C70.9649 248.224 50.5012 269.437 44.731 296.773C33.7327 341.286 24.7999 386.308 17.8338 431.626C15.1676 438.339 14.5652 445.863 14.9019 453.07L14.6365 454.844C13.0514 465.495 11.5738 476.183 8.71939 486.584C8.29333 488.361 9.28598 490.84 11.3187 491.161C36.7071 495.533 62.5466 493.376 88.2565 494.292L93.6153 494.493C120.192 495.47 148.692 496.124 172.367 496.124C193.17 492.82 213.926 496.311 234.757 496.455C244.792 496.062 254.59 493.675 264.442 491.933C284.86 488.325 305.552 486.469 326.292 486.678C327.199 486.687 327.376 485.669 326.887 485.162C335.066 481.167 329.536 458.057 329.644 449.723L329.215 445.432C324.561 399.158 319.011 351.815 300.122 308.932L299.556 307.713C292.751 293.113 285.31 279.494 274.724 267.307L274.077 266.338C272.094 263.376 269.767 259.972 267.68 257.15C256.674 242.286 242.635 234.949 226.06 229.135C222.456 227.87 216.563 228.898 212.987 227.448C209.238 225.928 206.003 221.853 202.417 219.796L202.417 235.135L150.539 286.24L121.115 241.122L118.122 222.644C117.401 222.599 116.696 222.462 116.015 222.277Z" fill="#8FA7DF"/>
<path fill-rule="evenodd" clip-rule="evenodd" d="M53.1227 356.174C53.6714 358.839 54.4404 361.503 55.463 364.027C56.4482 366.463 57.9323 368.645 58.9544 371.052C59.0916 371.376 59.3161 371.621 59.5867 371.808L59.5023 372.463L59.4246 373.118C58.9147 377.536 58.3413 381.942 57.8447 386.359L57.6034 388.569C56.627 397.793 55.0847 406.972 53.8876 416.171C52.7153 425.179 51.5219 434.187 50.2461 443.182C48.9284 452.456 47.5857 461.718 46.0186 470.954C45.3569 474.855 44.6664 478.753 43.9471 482.648L43.3914 485.628C37.6715 487.004 36.1085 494.977 41.9323 497.92C44.5757 499.25 47.9719 498.93 50.1505 496.84C52.4145 494.661 52.5084 490.732 53.0339 487.781L53.54 485.039C57.3275 464.419 60.6147 443.562 62.1515 422.651C62.5464 417.252 62.8789 411.848 63.0951 406.439C63.3005 401.352 63.2023 396.266 63.2809 391.179L63.3071 389.791C63.4272 384.366 63.3279 378.95 63.1866 373.525C63.1699 372.864 63.1408 372.203 63.1075 371.538C63.2984 371.314 63.4359 371.048 63.4937 370.79L63.569 370.449C63.756 369.572 63.544 368.545 62.8702 367.917C62.5797 364.222 62.1972 360.531 62.0933 356.839C62.085 356.536 61.6485 356.545 61.6231 356.839C61.3779 359.982 60.8878 363.133 60.3972 366.28C57.2422 363.744 54.9102 359.562 53.5342 356.062C53.4345 355.808 53.0641 355.9 53.1227 356.174ZM127.772 209.261C127.249 211.655 126.213 213.805 124.825 215.804C124.164 216.76 123.412 217.65 122.51 218.394C121.736 219.03 120.855 219.445 120.032 219.999C118.835 219.811 117.584 220.265 116.744 221.146L116.877 219.857C116.919 219.442 116.228 219.359 116.149 219.761C112.512 238.102 109.196 256.455 106.325 274.929L105.066 283.087L103.882 290.746C101.916 303.508 100.014 316.265 98.5822 329.121C96.6742 346.277 95.07 363.478 93.8978 380.704C92.7214 398.051 91.9977 415.41 91.4822 432.79C91.3537 437.172 91.2162 441.549 91.0836 445.93L90.1956 440.692C89.3095 435.453 88.4405 430.209 87.6957 424.946C85.0228 406.111 82.8857 387.143 81.8428 368.146C80.8863 350.762 81.2063 333.033 85.6293 316.097C86.7437 311.837 88.1072 307.642 89.7529 303.556C91.3496 299.582 93.5274 295.899 95.2446 291.984C97.2399 287.428 97.8385 283.129 96.8113 278.224C95.9135 273.951 94.338 269.931 94.0557 265.533C93.5274 257.369 96.1841 249.462 99.9373 242.317C100.927 240.434 101.97 238.576 103.06 236.734C106.356 231.168 110.072 225.805 113.929 220.664C114.137 220.389 113.697 220.086 113.472 220.31C109.956 223.786 106.111 227.203 102.947 230.998C101.409 232.843 99.9086 234.726 98.487 236.66C82.8899 239.266 69.488 248.98 60.3267 261.809C49.9303 276.366 44.6718 293.888 40.7805 311.142C36.4532 330.319 32.8035 349.669 28.9168 368.94C24.8933 388.881 20.8902 408.822 16.8414 428.758C14.8295 438.655 12.8171 448.553 10.8098 458.455C9.79129 463.468 8.72256 468.469 7.6048 473.465C7.03073 476.026 6.4155 478.583 5.88342 481.152C5.28525 484.049 5.84225 485.902 7.80389 488.031C8.52762 488.821 9.67078 488.808 10.5687 488.389L10.8493 488.256L11.1206 488.125C12.2317 487.579 13.1027 487.014 13.794 485.798C14.5551 484.465 14.6757 482.985 14.9371 481.501C15.4197 478.769 15.8974 476.038 16.3796 473.303C17.1001 469.213 17.8835 465.134 18.6808 461.057L22.6813 440.678C23.7481 435.245 24.8164 429.812 25.891 424.381C29.7278 404.96 33.5688 385.543 37.4093 366.126C41.0969 347.482 44.36 328.71 48.5581 310.174L48.7968 309.13L49.0395 308.087C52.7935 292.107 58.0385 276.65 67.5555 263.11C74.88 252.697 85.0515 243.398 97.0321 238.692C96.1878 239.906 95.3772 241.145 94.604 242.409C89.7488 250.34 86.2033 259.755 87.0347 269.2C87.4417 273.814 89.1959 278.349 89.03 283.001C88.8763 287.133 86.3193 290.762 84.5527 294.357C80.5417 302.505 77.6397 311.164 75.7691 320.046C72.0155 337.884 72.0279 356.237 73.3211 374.344C74.7262 394.027 77.3945 413.706 80.4332 433.197C81.992 443.194 84.0663 453.109 85.6546 463.09C86.4399 468.011 87.5086 472.921 88.4439 477.818L88.8897 480.157C89.1392 481.456 89.3982 482.75 89.6973 484.03L89.8818 484.797V484.934C89.8901 485.878 90.1483 486.659 90.5639 487.283C91.133 489.107 91.8397 490.887 92.7791 492.595C93.2614 493.468 93.9601 493.958 94.7208 494.138C95.4857 495.888 97.2191 497.234 99.2888 497.226L126.513 497.122C142.326 497.06 158.138 496.956 173.951 496.868C177.941 496.848 181.928 496.773 185.914 496.669C189.651 496.565 193.235 496.116 196.93 495.651C201.104 495.127 203.365 492.171 202.741 488.002C202.604 487.083 202.455 486.169 202.313 485.254C203.145 485.529 204.134 485.4 204.803 484.747L205.431 484.133C206.301 483.273 207.078 482.428 207.63 481.28C208.199 480.1 208.661 478.853 209.164 477.647C210.249 475.053 211.305 472.451 212.332 469.836C214.389 464.607 216.447 459.357 218.359 454.073C222.146 443.61 225.497 432.989 228.41 422.248C233.606 403.085 237.365 383.552 239.734 363.844L240.301 359.147L240.465 357.759C241.364 350.121 242.12 342.364 241.763 334.741C241.542 329.969 240.802 325.16 239.019 320.703C237.373 316.592 234.833 313.076 232.418 309.401L232.142 308.977L231.864 308.542C229.752 305.205 228.071 301.715 227.987 297.662C227.901 293.549 229.1 289.546 230.44 285.695L230.774 284.745L230.998 284.116C233.848 276.158 237.092 268.312 236.022 259.651C234.442 246.898 226.711 236.618 216.983 228.691C225.634 230.403 234.197 233.787 241.754 238.077C250.679 243.148 258.714 249.841 265.644 257.394C278.738 271.668 288.087 288.795 295.74 306.479C303.75 324.985 309.69 344.377 314.167 364.023C318.669 383.78 321.683 403.854 323.741 424.007C324.767 434.037 325.574 444.092 326.243 454.152C326.584 459.307 326.841 464.47 327.24 469.616C327.64 474.758 327.819 479.979 329.074 484.984C329.66 487.316 333.613 487.553 334.037 484.984C334.977 479.247 334.714 473.314 334.452 467.504L334.428 466.976C334.17 461.19 333.833 455.408 333.435 449.626C332.62 437.808 331.531 426.006 330.109 414.242C325.125 372.947 315.934 331.869 297.905 294.174C289.417 276.42 278.522 259.169 263.366 246.349C256.15 240.251 248.015 235.383 239.248 231.858C231.407 228.703 223.443 227.211 215.112 227.215C210.935 224.014 206.449 221.225 201.969 218.843C201.699 218.698 201.416 219.047 201.64 219.271C201.756 219.383 201.869 219.499 201.985 219.608C201.478 219.641 200.954 219.878 200.485 220.373C198.838 222.098 197.45 224.255 196.207 226.495C194.316 228.857 192.512 231.297 190.624 233.633C187.602 237.374 184.51 241.061 181.379 244.719C176.122 250.867 170.693 256.898 165.032 262.687L164.087 263.65C161.152 266.622 158.18 270.18 154.709 272.533L154.524 272.656C153.059 273.61 152.021 273.784 150.772 272.359C149.637 271.062 148.692 269.557 147.721 268.127L147.496 267.799C142.537 260.595 137.94 253.125 133.779 245.435C131.882 241.935 130.078 238.384 128.366 234.795L127.855 233.716C126.924 231.738 125.914 229.796 125.145 227.759C124.966 227.282 124.792 226.804 124.621 226.33C127.24 224.613 129.268 220.897 130.004 217.987C130.769 214.965 130.382 211.863 129.019 209.099C128.762 208.58 127.897 208.708 127.772 209.261ZM256.964 332.068C257.326 343.558 257.546 355.06 258.087 366.542L258.273 370.461C257.43 371.401 256.935 372.486 257.33 373.974C257.484 374.544 257.937 375.059 258.502 375.251L258.679 378.895C259.481 395.292 260.421 411.654 262.14 428.01C264.289 448.478 266.775 468.913 269.256 489.345C269.609 492.238 271.622 494.532 274.752 494.109C277.919 493.68 279.203 490.924 278.788 488.052C277.154 476.783 275.583 465.505 274.207 454.198L272.64 441.317C270.675 425.214 268.663 409.114 266.346 393.062C265.378 386.354 264.372 379.648 263.362 372.943L263.715 372.486C265.158 370.611 266.65 368.778 268.126 366.933C270.96 363.374 273.758 359.845 276.356 356.12C276.485 355.933 276.223 355.659 276.036 355.8C272.395 358.49 268.948 361.366 265.481 364.289L262.447 366.857C260.701 355.272 258.972 343.683 257.43 332.068C257.392 331.778 256.956 331.756 256.964 332.068ZM204.583 222.11C206.774 224.176 209.014 226.197 211.222 228.25L212.031 229.006L212.836 229.765C216.715 233.444 220.433 237.274 223.53 241.673C229.217 249.75 232.605 259.597 230.24 269.457C228.277 277.625 223.775 285.029 222.566 293.401C221.959 297.595 222.254 301.811 223.834 305.772C225.447 309.813 228.024 313.275 230.34 316.921C235.369 324.844 236.055 333.54 235.556 342.719C235.032 352.304 233.931 361.894 232.571 371.393C229.82 390.639 225.671 409.686 220.18 428.338C217.432 437.679 214.186 446.82 210.956 455.998C209.347 460.567 207.472 465.027 205.539 469.466C204.521 471.803 203.477 474.126 202.417 476.445C202.808 473.17 202.808 469.807 203 466.552C203.274 461.888 203.623 457.233 203.943 452.573C204.595 443.116 205.177 433.651 205.697 424.185C207.539 390.431 208.894 356.648 208.794 322.84C208.744 305.934 208.399 289.028 207.672 272.138C207.331 264.185 206.67 256.239 206.073 248.296L205.946 246.595C205.419 239.465 204.787 232.32 203.702 225.253C204.023 224.528 204.302 223.795 204.509 223.042L204.583 222.759L204.529 222.767C204.579 222.546 204.595 222.327 204.583 222.11ZM185.636 193.062C185.59 192.867 185.312 192.883 185.262 193.062C184.027 197.219 184.464 201.791 185.528 205.973C186.101 208.239 186.916 210.438 187.901 212.558L188.246 213.3C189.09 215.105 190.041 216.965 191.684 218.091C192.37 218.56 193.597 218.589 194.283 218.091L194.632 217.825C194.69 217.78 194.747 217.734 194.802 217.687C195.442 217.151 195.758 215.966 195.463 215.185C194.702 213.169 192.977 211.689 191.784 209.893C190.728 208.297 189.793 206.613 189.016 204.863C187.341 201.076 186.588 197.057 185.636 193.062Z" fill="black"/>
<path fill-rule="evenodd" clip-rule="evenodd" d="M156.562 42.3835C133.008 42.3835 108.646 60.6789 100.013 72.3536C90.0294 85.8531 82.1543 150.658 85.8487 172.647C89.5431 194.637 107.894 218.604 139.751 218.604C171.608 218.604 190.995 214.672 191.773 208.961C192.291 205.153 199.295 192.652 212.784 171.457C226.581 167.569 233.507 160.98 233.561 151.691C233.614 142.402 229.918 136.068 222.471 132.688C225.126 96.03 223.11 72.929 216.423 63.385C206.392 49.069 180.115 42.3835 156.562 42.3835Z" fill="#FFDBB4"/>
<path fill-rule="evenodd" clip-rule="evenodd" d="M172.443 6.87766C169.275 3.14198 163.688 6.67305 163.814 10.7552C162.55 11.0982 161.058 12.2818 160.482 13.8247C159.237 13.7438 157.982 13.9917 156.852 14.6397L156.614 14.3454C152.696 9.55203 147.511 5.43873 142.161 8.9687C140.705 9.92937 140.053 11.517 140.374 13.2379L140.399 13.3597L140.28 12.8284C140.16 12.3236 140.34 13.3337 140.407 13.5474L140.416 13.5717C140.557 13.9316 140.698 14.1128 140.826 14.3849C135.349 10.4853 127.008 12.768 131.403 20.3167L129.616 19.6183C123.433 17.2237 115.744 14.6524 110.108 18.9576C107.588 21.3865 110.385 24.6252 112.952 25.4103L112.511 25.3363C107.584 24.4979 97.3064 22.4258 95.8379 28.8527C95.3098 31.1652 96.8498 32.8552 98.793 33.7857C94.6817 33.7705 90.627 34.4497 87.0695 36.4603C83.6856 38.8701 86.4205 42.858 89.9593 42.6841C88.8622 44.0437 88.4981 46.3445 89.5573 47.8131C87.5463 48.3421 85.691 49.0225 83.981 50.0832L83.511 50.1438C80.0927 50.5711 76.1929 50.8255 74.3125 54.1896C71.545 61.4892 81.3997 61.1985 85.6297 58.6347C85.3787 59.0435 85.1925 59.4899 85.0881 59.9666L83.7175 60.352C78.5464 61.7933 72.6941 63.3856 69.3648 67.7468C67.8388 70.2566 69.9625 74.5217 73.1532 73.7595C64.5071 77.8858 67.8209 88.7559 76.2766 83.1013C76.672 83.4681 77.1531 83.7406 77.6569 83.8609L75.8727 84.8302C71.3408 87.3166 65.8907 90.7204 66.837 96.3652C67.737 99.3525 71.8722 98.8066 73.9741 97.6634C70.3017 100.828 66.8366 104.254 63.6889 107.959L62.8178 108.997C60.3698 111.937 56.111 117.35 60.7243 120.178C66.4115 123.079 69.246 114.513 72.5538 111.456C69.909 117.692 78.5073 122.041 81.5084 115.76C82.0126 115.849 82.5194 115.858 83.0161 115.791C80.4287 118.539 73.4308 137.345 82.1353 133.221C83.5214 131.752 84.738 130.145 85.8563 128.459C84.4589 139.234 83.4368 150.06 82.7758 160.893L82.5406 164.82C82.3001 168.894 82.1183 172.984 82.5749 177.044C83.1021 181.771 84.4581 186.206 86.5114 190.488C88.4034 194.437 90.8425 198.095 93.6338 201.458C95.1271 203.258 96.7117 205.008 98.6613 206.325C100.213 207.373 102.026 208.063 103.772 208.728C106.613 211.571 110.259 213.721 113.823 215.437C119.696 218.26 126.064 219.819 132.506 220.6C139.093 221.394 145.747 221.203 152.28 220.068C158.523 218.987 165.214 216.223 169.059 210.956C169.391 210.503 168.773 210.075 168.367 210.262C157.208 215.437 144.669 216.788 132.506 215.155C126.832 214.394 121.248 212.823 116.067 210.383C111.695 208.325 108.007 205.332 104.083 202.622C103.32 201.603 102.548 200.601 101.669 199.67L100.296 198.228C99.2702 197.144 98.2628 196.046 97.3468 194.861C94.5173 191.207 92.174 187.062 90.6264 182.702C87.6167 174.214 88.4306 165 88.9625 156.154L89.0086 155.374C89.5562 145.913 90.4484 136.485 91.6841 127.091C92.1981 123.181 92.7699 119.278 93.3962 115.384C94.3999 113.747 95.472 112.164 96.6719 110.681C95.6953 114.483 99.0766 119.769 103.223 117.26C107.97 113.193 107.741 106.628 111.72 101.648C115.844 95.263 144.304 82.8457 152.765 81.102C151.402 83.0892 148.912 84.4734 148.331 86.8188C137.925 96.0321 154.887 100.937 160.184 87.8064C160.067 92.1779 159.625 96.5114 158.655 100.778C157.241 104.697 156.132 116.052 163.219 112.625C166.611 113.607 169.198 110.711 169.624 107.444C172.074 114.827 169.757 126.623 174.25 132.064C175.628 133.495 177.758 132.542 178.474 130.908C182.63 129.817 182.275 124.962 182.78 121.487C186.57 135.338 191.314 144.953 191.967 159.402C189.034 163.586 195.467 166.663 198.228 163.31C202.103 157.7 198.53 150.03 197.618 143.888C198.708 143.832 199.787 143.347 200.687 142.288C201.178 144.215 200.896 146.754 200.731 148.845C203.188 158.472 212.53 152.306 212.143 144.496C212.547 146.7 212.852 148.925 213.046 151.167C211.242 153.247 209.905 155.737 209.114 158.38C208.545 160.289 210.482 161.434 211.96 161.157C212.747 163.847 216.159 165.788 218.403 163.217C220.621 160.969 221.006 157.72 221.183 154.486C221.492 154.157 221.68 153.726 221.649 153.204C221.621 152.714 221.501 152.299 221.31 151.949C221.348 151.288 221.395 150.639 221.467 150.012C223.184 155.364 222.067 160.972 221.917 166.454C218.884 168.165 215.422 168.897 211.945 169.619L211.44 169.724C210.367 169.948 210.026 171.553 210.835 172.226C208.682 174.338 206.824 176.857 205.011 179.181C202.604 182.264 200.302 185.469 198.063 188.68L196.748 190.567C192.909 196.047 187.601 203.47 189.978 210.22C190.302 211.147 191.654 211.48 192.181 210.507C193.911 207.306 194.877 203.781 196.52 200.543C198.133 197.367 200.141 194.424 202.132 191.481L203.281 189.776C205.194 186.927 207.088 184.048 208.844 181.114L210.067 179.082C211.216 177.164 212.353 175.182 213.2 173.12C216.215 173.849 219.371 173.326 222.263 172.066L222.3 172.267L222.373 172.63C222.786 174.372 225.185 175.563 226.717 174.423C230.385 171.652 231.878 167.528 232.268 163.118C233.007 161.872 233.633 160.557 234.144 159.195C234.385 161.911 235.431 164.544 238.653 164.463C244.244 164.003 244.793 158.711 243.281 153.448C249.9 155.474 250.676 146.093 248.587 141.15C249.362 140.918 250.081 140.455 250.492 139.831L250.835 140.434C252.107 142.641 253.549 144.784 255.559 145.93C258.367 147.53 262.449 145.548 262.263 142.023C261.661 136.281 256.638 131.906 253.58 127.304C254.124 127.381 254.69 127.361 255.245 127.258C261.358 130.675 264.275 122.633 262.122 117.973C260.545 113.787 257.689 110.188 254.629 107.014L255.526 107.551C257.145 108.507 258.95 109.429 260.73 109.054C272.374 116.722 276.196 103.826 263.13 99.7959L263.134 99.7358C264.445 98.4684 265.014 96.4625 263.995 94.4589C268.788 96.1459 275.63 92.3289 271.406 87.1121C268.65 84.5119 265.399 82.2751 261.795 81.1046C261.975 80.1473 262.033 79.1731 261.958 78.1929L262.174 78.2222C264.449 78.5505 267.254 79.4815 268.657 77.0263C269.369 75.79 269.285 73.7526 268.119 72.7914C264.102 69.4818 259.519 66.729 254.541 65.6129C254.358 65.0056 254.168 64.4017 253.966 63.8009C258.213 63.7217 262.981 58.0693 258.103 54.8666C253.814 52.6769 249.396 51.2685 244.554 51.3991C247.393 48.5939 245.717 43.509 241.942 42.7274C244.414 37.4522 238.307 34.7304 233.751 35.5623C233.918 33.2186 232.666 30.6063 230.257 30.018C231.521 22.6016 223.684 23.3032 218.774 25.0612C220.418 22.2019 218.728 18.8382 215.828 17.8355C211.078 16.758 206.533 21.2922 202.916 24.0728C204.149 21.1719 203.109 18.4974 200.172 17.3415C197.146 16.155 193.886 18.448 191.361 20.0062C189.988 18.2785 187.644 17.7153 185.541 17.8221C185.317 17.1733 184.987 16.6321 184.564 16.2043C184.576 12.2065 177.784 10.0086 175.413 13.7326C175.01 11.1432 173.947 8.65163 172.443 6.87766ZM87.4658 79.3881L87.3875 79.8185C87.287 79.9076 87.1926 80.0015 87.0961 80.0928C86.7933 80.1646 86.501 80.2403 86.2239 80.3177C86.6276 79.9903 87.0434 79.687 87.4658 79.3881ZM82.2227 68.8966L82.315 69.0245C82.3307 69.0457 82.3468 69.0664 82.3636 69.0865C82.1076 69.1836 81.8522 69.2829 81.5979 69.3854L81.217 69.5415L81.0826 69.6008C81.461 69.3629 81.8408 69.1271 82.2227 68.8966ZM143.365 16.0802L143.594 16.1371C143.667 16.1549 143.736 16.1714 143.8 16.1866C143.823 16.1926 143.845 16.1952 143.866 16.2039L143.806 16.1909C143.914 16.2735 144.057 16.3708 144.175 16.4487C144.059 16.4392 143.943 16.4279 143.827 16.4215C143.674 16.3073 143.52 16.1935 143.365 16.0802Z" fill="black"/>
<path fill-rule="evenodd" clip-rule="evenodd" d="M121.471 180.431C120.834 179.322 119.366 178.295 118.022 178.453C112.003 179.158 112.014 186.455 114.338 190.715C116.398 194.493 120.663 196.71 124.931 196.386C129.415 196.046 133.236 193.41 134.917 189.215C136.029 186.44 136.543 181.318 133.585 179.453C133.53 179.418 133.44 179.427 133.396 179.477C131.978 181.127 131.922 183.604 130.68 185.441C129.525 187.15 127.731 188.561 125.63 188.778C124.06 188.941 122.472 188.375 121.858 186.966C121.526 186.204 121.564 185.79 121.689 185.265L121.802 184.809C122.195 183.212 122.372 181.997 121.471 180.431ZM119.863 148.429C116.724 150.337 111.941 154.786 115.317 159.517C119.292 163.687 125.015 158.905 127.836 156.742C130.451 155.066 133.389 159.377 130.962 161.334C110.584 176.422 102.314 148.928 118.275 146.186C120.032 145.883 120.685 147.839 119.863 148.429ZM153.011 135.345C151.084 132.455 146.686 132.88 145.625 136.311C145.05 138.169 145.844 139.839 145.803 141.695C145.768 143.262 145.871 145.009 146.351 146.527C147.447 149.989 150.561 152.434 154.244 152.333C157.916 152.232 161.149 149.908 162.687 146.635C164.23 143.35 163.903 139.95 162.777 136.61C162.723 136.449 162.512 136.371 162.385 136.506C161.054 137.922 160.079 139.415 159.07 141L158.037 142.624C157.247 143.847 156.099 145.409 154.624 145.311L154.402 145.29C153.992 145.254 154.055 145.336 153.739 144.777C153.593 144.518 153.619 144.038 153.549 143.733L153.524 143.63L153.538 143.574C153.569 143.426 153.6 143.148 153.625 142.665L153.63 142.558C153.737 140.298 154.376 137.394 153.011 135.345ZM104.171 137.27C104.516 133.573 99.3184 132.752 97.5904 135.487C96.6891 136.914 96.4267 138.706 96.2274 140.404L96.1342 141.21C95.9297 142.954 95.8487 144.768 96.6056 146.394C97.7978 148.956 100.39 150.31 103.187 150.096C105.858 149.891 108.295 148.342 109.579 145.991C110.725 143.894 111.863 139.798 110.472 137.611C110.388 137.478 110.22 137.461 110.105 137.563C108.791 138.73 108.577 140.858 107.795 142.379C106.989 143.947 105.767 145.475 103.914 145.713C102.141 145.941 101.464 144.973 101.916 143.283C102.5 141.101 103.951 139.617 104.171 137.27ZM151.607 113.365L150.757 113.04C147.844 111.939 143.846 110.668 141.478 113.036C140.017 114.496 139.739 116.647 140.782 118.429C142.045 120.588 144.311 120.641 146.499 120.959C148.988 121.321 151.519 122.009 153.836 122.989C156.446 124.093 158.869 125.47 161.242 127.008C163.497 128.469 165.745 130.857 168.445 131.307C168.555 131.325 168.68 131.278 168.709 131.157C169.322 128.517 167.618 125.92 166.097 123.86C164.258 121.367 162.028 119.321 159.537 117.486C157.132 115.715 154.384 114.435 151.607 113.365ZM98.7032 122.75L98.4436 122.704C96.6775 122.41 95.0771 122.478 93.7461 123.877C92.7302 124.944 92.3386 126.327 92.8229 127.738C93.2697 129.039 94.269 130.362 95.7194 130.634C100.616 131.556 106.039 131.403 110.96 130.706C113.212 130.387 115.483 129.996 117.676 129.38L118.685 129.087C120.516 128.564 122.612 128.018 123.942 126.672C124.42 126.188 124.144 125.495 123.572 125.271C121.252 124.362 118.071 124.846 115.597 124.775C112.719 124.692 109.836 124.477 106.972 124.18C104.172 123.889 101.464 123.256 98.7032 122.75Z" fill="black"/>
<path fill-rule="evenodd" clip-rule="evenodd" d="M82.6601 150.961C87.707 156.176 96.1322 157.672 102.847 154.875C120.088 147.672 111.649 125.204 98.3524 119.17C96.6913 118.756 94.4727 117.774 92.4496 117.551C92.2667 117.461 91.8685 117.721 91.3858 117.475C76.7241 119.112 73.3852 141.872 82.6601 150.961ZM138.27 152.296C143.931 159.803 154.454 162.12 163.052 158.629C180.038 151.94 174.014 132.017 162.392 124.206C137.843 114.981 127.705 138.453 138.27 152.296ZM175.092 135.661C175.108 135.653 175.124 135.649 175.14 135.642C175.05 135.602 174.96 135.563 174.871 135.523C174.9 135.599 174.932 135.674 174.96 135.75C175.004 135.72 175.043 135.684 175.092 135.661ZM70.9742 127.545C72.3602 127.548 74.3621 127.776 75.5094 128.737C78.3386 119.196 88.7816 110.365 97.8635 116.804C105.015 119.104 110.323 124.205 113.339 130.987C118.777 127.752 127.329 129.133 132.045 133.411C135.133 123.206 142.735 119.632 151.782 119.104C161.657 117.487 171.5 127.077 174.571 134.771C177.125 134.48 180.94 133.668 183.343 135.244C198.934 131.155 226.193 128.901 229.362 131.172C231.621 132.039 232.861 137.371 229.706 137.658C226.956 137.268 230.027 133.752 227.255 133.368C212.489 132.453 198.154 135.427 183.543 136.674C182.239 138.429 178.024 139.016 175.776 138.311C179.317 151.362 171.673 160.241 160.218 162.901C142.482 166.975 127.051 151.109 131.689 134.606C126.316 131.933 120.136 132.048 114.283 133.456C124.064 169.45 66.0928 167.835 75.1469 129.971C69.1215 132.968 67.8129 128.15 70.9742 127.545Z" fill="black"/>
</svg>
