<svg width="69" height="73" viewBox="0 0 69 73" fill="none" xmlns="http://www.w3.org/2000/svg">
<path d="M18.6388 13.7013C23.5652 9.21797 30.014 5.66005 36.3091 5.97915C42.6135 6.26376 48.7642 10.4254 54.0593 15.5776C59.3545 20.7298 63.716 26.8886 63.4922 32.8168C63.234 38.7358 58.3123 44.4402 53.9027 50.0231C49.4587 55.5968 45.5174 61.0834 39.9334 63.6162C34.3586 66.1146 27.1067 65.65 20.5931 62.9806C14.0358 60.3364 8.2168 55.4874 6.03084 49.468C3.85412 43.414 5.31042 36.1896 7.77038 29.8995C10.2396 23.5749 13.7124 18.1846 18.6388 13.7013Z" fill="#FFDBB4"/>
<path fill-rule="evenodd" clip-rule="evenodd" d="M33.6803 15.0298C38.9439 15.0298 44.3882 19.1449 46.3176 21.7708C48.5486 24.8072 50.3085 39.3833 49.4829 44.3293C48.6573 49.2753 44.5563 54.6661 37.437 54.6661C30.3178 54.6661 25.9852 53.7817 25.8115 52.497C25.6957 51.6406 24.1304 48.8288 21.1158 44.0616C18.0326 43.187 16.4849 41.705 16.4728 39.6157C16.4608 37.5264 17.287 36.1016 18.9512 35.3415C18.3578 27.0962 18.8083 21.9002 20.3028 19.7535C22.5445 16.5335 28.4167 15.0298 33.6803 15.0298Z" fill="#EDB98A"/>
<path fill-rule="evenodd" clip-rule="evenodd" d="M31.0004 13.7901L31.0943 13.7905C36.9181 13.8285 42.8413 16.5314 46.3061 21.2531L46.4103 21.3968C46.416 21.4043 46.5197 21.56 46.5442 21.6043C46.6878 21.8643 46.857 22.1075 46.9867 22.3718C47.0963 22.5962 47.1692 22.8469 47.2497 23.0859L47.2741 23.1572C47.4809 23.7538 47.6551 24.3559 47.8091 24.9683C48.1075 26.1604 48.3402 27.3712 48.5665 28.5792C49.3748 32.9049 49.9034 37.2923 50.1698 41.6854L50.2223 42.5688C50.2761 43.485 50.3167 44.4051 50.2147 45.3183C50.0968 46.3813 49.7938 47.379 49.3349 48.342C48.9121 49.2302 48.3671 50.053 47.7433 50.8094C47.4096 51.2143 47.0554 51.6079 46.6197 51.9042C46.273 52.1399 45.8678 52.2951 45.4776 52.4447C44.8427 53.0843 44.0278 53.5676 43.2315 53.9538C41.9189 54.5886 40.4959 54.9393 39.0563 55.115C37.5842 55.2935 36.0973 55.2506 34.6373 54.9954C33.2421 54.7523 31.7468 54.1305 30.8875 52.9459C30.8134 52.844 30.9514 52.7477 31.0423 52.7897C33.536 53.9538 36.3382 54.2577 39.0563 53.8902C40.3244 53.7191 41.5721 53.3657 42.73 52.8168C43.7071 52.354 44.5311 51.6808 45.4081 51.0712C45.5787 50.8422 45.751 50.6168 45.9477 50.4074L46.2544 50.083C46.4837 49.8393 46.7088 49.5923 46.9135 49.3256C47.5458 48.5038 48.0695 47.5716 48.4154 46.5908C49.088 44.6816 48.9061 42.6092 48.7872 40.6195L48.7769 40.4442C48.6545 38.3162 48.4551 36.1956 48.179 34.0825C47.9026 31.9667 47.5513 29.8592 47.1361 27.7667C46.9312 26.7354 46.7012 25.7107 46.4983 24.6794C46.3935 24.1474 46.3203 23.6079 46.2406 23.0703C46.1923 22.743 46.1932 22.4279 46.1923 22.1082C46.1831 22.1231 46.1719 22.1372 46.1608 22.1512C46.1942 22.2307 46.1711 22.3326 46.0895 22.3793C45.7808 22.557 45.4248 22.4971 45.0772 22.4981C44.7082 22.4999 44.3392 22.5009 43.9703 22.5018C43.586 22.5032 43.2018 22.5032 42.8175 22.5026L41.6648 22.4999L37.0539 22.4859C34.0342 22.4768 30.9633 22.5979 27.9534 22.3108L27.7236 22.2879C27.4871 22.2604 24.8178 21.9312 24.096 21.8462L24.074 21.8436C22.7548 21.6902 21.4543 21.463 20.1723 21.1227C20.5912 21.2919 20.9945 21.5201 21.4097 21.693C21.9456 21.9156 22.4953 22.11 23.0451 22.2961C24.1732 22.6785 25.3032 23.0497 26.4267 23.4443C26.7488 23.5572 27.4808 26.3405 27.6653 26.7808L27.6707 26.7934C27.7644 27.0056 27.8933 27.2384 27.8218 27.4797C27.6643 28.0126 26.829 28.4072 26.4147 28.7082L25.9887 29.0183L25.4316 29.4248C25.2031 29.5899 24.9922 29.7162 24.6932 29.6217C24.6923 29.6208 24.6914 29.6208 24.6905 29.6208C24.9464 30.8185 25.0706 34.6922 25.1086 35.3719C25.1419 35.9637 25.3143 36.722 25.0399 37.2615C24.975 37.3896 24.8064 37.4906 24.6626 37.4803C24.0359 37.4326 23.4094 37.3858 22.7827 37.3391C22.6148 37.326 22.4619 37.2297 22.4155 37.0577L22.4137 37.0483C22.3934 37.0539 22.3702 37.0502 22.3507 37.0296C22.3164 36.995 22.2812 36.9614 22.245 36.9286C21.42 36.1863 20.1296 36.003 19.1117 36.3892C18.5778 36.5911 17.9706 36.9314 17.5942 37.3728C17.1761 37.8627 17.0863 38.5471 17.0853 39.1726C17.0834 40.3787 17.5155 41.5998 18.397 42.4366C19.207 43.2048 20.2521 43.4283 21.3036 43.6482L21.4163 43.6718C21.6563 43.7222 21.7324 44.0831 21.5517 44.2346C22.0328 44.7096 22.4481 45.2762 22.8532 45.7988C23.3911 46.4922 23.9055 47.2131 24.406 47.9355L24.6475 48.285C25.5085 49.5242 26.7546 51.2312 26.2126 52.7804C26.1403 52.9889 25.8381 53.0637 25.7203 52.8449C25.3338 52.125 25.1178 51.3321 24.7507 50.6037C24.3902 49.8894 23.9415 49.2274 23.4964 48.5655L23.2397 48.1818C22.8124 47.5412 22.389 46.8936 21.9965 46.2336L21.7233 45.7767C21.4665 45.3452 21.2124 44.8993 21.0232 44.4356C19.7578 44.7432 18.3821 44.0588 17.4931 43.1472C16.3753 41.9991 15.8497 40.3077 15.9942 38.7173C16.0703 37.8851 16.3141 37.0801 16.9184 36.4817C16.9796 36.4219 17.0436 36.3648 17.1095 36.3078C17.0863 36.2957 17.0668 36.277 17.0575 36.2545C16.6524 35.284 16.5661 34.1274 16.5318 33.0821C16.4958 32.0013 16.519 30.9176 16.6004 29.8386C16.7498 27.8602 17.1038 25.8921 17.6657 23.9903C18.4971 21.1797 19.9257 18.4281 22.208 16.5422C24.6417 14.5308 27.9023 13.7849 31.0004 13.7901ZM18.8856 38.3732C19.2293 38.2159 19.7655 38.4961 20.0715 38.6747L20.0916 38.6864C20.9954 39.2165 21.6388 40.1197 21.9363 41.1202C22.1273 41.7653 21.0547 42.0224 20.9639 41.3904C20.8898 40.8752 20.7192 40.3928 20.4384 39.9617C20.3715 39.9842 20.3066 40.0132 20.2483 40.0506C20.0249 40.1964 19.895 40.447 19.5846 40.4096C19.3546 40.3825 19.1191 40.2217 19.1349 39.9561C19.16 39.5176 19.5103 39.3428 19.8859 39.3203C19.8323 39.2719 19.7782 39.2241 19.7228 39.1779L19.6622 39.1288C19.5935 39.0788 18.8589 38.5677 18.8378 38.6992L18.8373 38.707C18.8383 38.7593 18.7687 38.7893 18.7335 38.75C18.5917 38.5967 18.7234 38.448 18.8856 38.3732Z" fill="black"/>
<path fill-rule="evenodd" clip-rule="evenodd" d="M37.732 43.7369C38.2517 42.8766 39.3593 44.9842 39.477 45.3466C39.5813 45.6676 39.6501 45.9965 39.6851 46.3292C40.0879 46.4201 40.5063 46.4202 40.9191 46.3406C41.5327 46.2221 41.9077 45.8901 42.441 45.6051C42.8093 45.4081 43.2735 45.6391 43.465 45.9657C43.6903 46.3503 43.5468 46.7494 43.2505 47.036C42.6885 47.5796 41.5829 47.7045 40.8494 47.5601C40.4291 47.4774 40.044 47.3188 39.7038 47.0883C39.7016 47.1313 39.7001 47.1743 39.6967 47.2173L39.6902 47.2918C39.6338 47.8947 39.4692 48.6528 39.0039 49.045C38.2409 49.6885 37.2991 48.451 38.0406 47.8082L38.0636 47.7889C38.5244 47.4141 38.625 46.4086 38.6002 45.8547C38.5839 45.4932 38.5185 45.1271 38.4051 44.7828L38.3817 44.7142C38.3476 44.6169 37.9754 43.6944 37.8409 43.8118L37.8345 43.8185C37.779 43.8851 37.6894 43.8075 37.732 43.7369ZM41.8812 38.882C42.5827 39.3112 43.6515 40.3119 42.8969 41.3759C42.0086 42.314 40.7296 41.2384 40.0994 40.7519C39.515 40.3749 38.8584 41.3445 39.4006 41.7847C43.9547 45.1783 45.8029 38.9942 42.236 38.3774C41.8432 38.3095 41.6974 38.7493 41.8812 38.882ZM34.3904 34.9152C35.076 34.7928 35.7783 34.9644 36.3456 35.3681L36.3886 35.3992C36.9351 35.8015 37.5467 36.5079 37.233 37.2014C37.1072 37.4798 36.7302 37.5235 36.491 37.3973C36.0927 37.1871 36.0205 36.67 35.6652 36.3838C35.3738 36.1492 34.9814 36.0069 34.6061 36.0412C33.7244 36.1218 33.1821 36.997 32.9082 37.7513C32.8732 37.8478 32.7325 37.8852 32.6775 37.7817C32.0317 36.5669 33.1747 35.1323 34.3904 34.9152ZM45.3718 34.4567C46.685 34.3478 48.2222 35.7181 47.8764 37.1133C47.7106 37.7828 46.724 37.7636 46.5486 37.1133C46.452 36.7555 46.4617 36.4389 46.2058 36.1418C45.9945 35.8964 45.6944 35.7539 45.3718 35.7758C45.0161 35.8 44.6881 35.9788 44.4389 36.2302C44.2138 36.4572 44.0792 36.7894 43.846 36.9904C43.7886 37.0397 43.7118 37.0429 43.6551 36.9904C43.2538 36.618 43.4947 35.8427 43.7491 35.4539C44.1133 34.8976 44.7062 34.512 45.3718 34.4567ZM31.8895 32.4407C32.732 31.6901 34.2629 30.9652 35.3989 31.3346C36.052 31.547 36.3368 32.6062 35.6076 32.942C34.7633 33.3307 33.7898 33.1725 32.9304 33.5755C32.5695 33.7448 32.2301 33.9564 31.9788 34.2667C31.7808 34.5113 31.5794 34.8332 31.2931 34.9742C31.2179 35.0113 31.116 35.0122 31.0557 34.9434C30.4281 34.2289 31.3415 32.9289 31.8895 32.4407ZM43.9237 31.2974C44.4444 31.1503 45.022 31.1533 45.551 31.2457C46.0797 31.338 46.6166 31.5586 47.0483 31.8803L47.0984 31.918C47.5697 32.2754 48.1321 32.7955 48.1019 33.4287C48.0767 33.9574 47.5241 34.315 47.047 34.0379C46.658 33.8119 46.475 33.3592 46.1457 33.0578C45.874 32.809 45.5548 32.6128 45.2142 32.4754C44.836 32.3227 44.457 32.2511 44.0511 32.2443C43.7385 32.2391 43.424 32.3423 43.1173 32.3753C43.1425 32.4275 42.9001 32.4032 42.7611 32.3569C42.6582 32.3128 42.6576 32.1818 42.6933 32.0968C42.8703 31.6758 43.5141 31.4129 43.9237 31.2974Z" fill="black"/>
<path fill-rule="evenodd" clip-rule="evenodd" d="M52.6686 31.7634C52.5922 31.7506 52.5156 31.7386 52.4391 31.7273C52.3793 31.6931 52.3092 31.6669 52.2276 31.651C52.0414 31.6035 51.8564 31.5714 51.6718 31.5541C49.0212 30.9537 42.8894 31.8062 42.6364 34.0827C41.7923 34.3662 41.062 34.1123 40.0837 34.1376C39.339 31.0049 26.4651 31.447 25.846 33.3357C25.8436 33.3351 25.8413 33.3345 25.8389 33.3337C25.244 33.1484 24.367 33.1931 23.686 33.1638C22.2321 33.1331 20.7765 33.2635 19.354 33.5722C16.6902 33.9982 13.0547 34.4971 14.9073 37.8451C14.9077 37.8456 14.908 37.8463 14.9084 37.8468L14.9087 37.8465C15.228 38.1759 15.7699 37.9107 15.79 37.4648C15.1671 35.8787 16.574 35.6882 17.6564 35.2324C20.3497 34.2585 23.0919 34.1235 25.8775 34.4248C26.087 34.6731 26.405 34.8897 26.7411 35.003C28.6036 35.3141 27.6221 36.7047 28.7993 36.9069C28.5831 41.754 34.4301 44.3999 37.8179 41.2135C39.1706 39.8825 39.493 37.9107 39.8066 36.1334C39.9725 36.0959 40.0779 36.0046 40.1395 35.8838C40.5383 35.4831 40.7888 35.113 41.5774 35.003C42.366 34.893 42.9731 35.1138 43.0552 35.1814C43.0759 35.2234 43.0982 35.2654 43.124 35.3075C43.16 35.3702 43.2091 35.4203 43.2648 35.4596C42.4861 40.2864 46.2091 43.3389 49.9676 40.8355C51.6007 39.2893 51.9458 36.9221 52.014 34.8092C52.2354 34.6748 52.3755 34.4142 52.2989 34.0866C52.1933 33.635 52.4409 33.244 52.8354 33.0476C53.3479 32.7927 53.2572 31.8615 52.6686 31.7634ZM36.5188 34.0533C36.0523 33.95 35.853 34.674 36.321 34.7775C36.6525 34.8509 36.9333 35.0191 37.1231 35.304L37.1431 35.335C37.3977 35.7429 38.0416 35.3664 37.7852 34.9559C37.4967 34.494 37.0484 34.1705 36.5188 34.0533ZM50.1826 33.6045C50.0181 33.4879 49.7692 33.5744 49.6738 33.7392C49.5687 33.9206 49.6376 34.1226 49.7916 34.2413L49.8073 34.2529C49.9486 34.3531 50.0862 34.5328 50.1034 34.7169L50.105 34.7399C50.1235 35.2216 50.8673 35.2241 50.8487 34.7399C50.8306 34.2662 50.5581 33.8705 50.1826 33.6045Z" fill="black"/>
</svg>
