<svg width="30" height="28" viewBox="0 0 30 28" fill="none" xmlns="http://www.w3.org/2000/svg">
<path d="M26.6667 22.5556H3.33333C3.11232 22.5556 2.90036 22.4736 2.74408 22.3278C2.5878 22.1819 2.5 21.9841 2.5 21.7778C2.5 21.5715 2.5878 21.3737 2.74408 21.2278C2.90036 21.0819 3.11232 21 3.33333 21H26.6667C26.8877 21 27.0996 21.0819 27.2559 21.2278C27.4122 21.3737 27.5 21.5715 27.5 21.7778C27.5 21.9841 27.4122 22.1819 27.2559 22.3278C27.0996 22.4736 26.8877 22.5556 26.6667 22.5556Z" fill="#222222"/>
<path d="M26.6667 14.7778H3.33333C3.11232 14.7778 2.90036 14.6958 2.74408 14.55C2.5878 14.4041 2.5 14.2063 2.5 14C2.5 13.7937 2.5878 13.5959 2.74408 13.45C2.90036 13.3042 3.11232 13.2222 3.33333 13.2222H26.6667C26.8877 13.2222 27.0996 13.3042 27.2559 13.45C27.4122 13.5959 27.5 13.7937 27.5 14C27.5 14.2063 27.4122 14.4041 27.2559 14.55C27.0996 14.6958 26.8877 14.7778 26.6667 14.7778Z" fill="#222222"/>
<path d="M26.6667 7.00001H3.33333C3.11232 7.00001 2.90036 6.91807 2.74408 6.77221C2.5878 6.62635 2.5 6.42852 2.5 6.22224C2.5 6.01596 2.5878 5.81813 2.74408 5.67226C2.90036 5.5264 3.11232 5.44446 3.33333 5.44446H26.6667C26.8877 5.44446 27.0996 5.5264 27.2559 5.67226C27.4122 5.81813 27.5 6.01596 27.5 6.22224C27.5 6.42852 27.4122 6.62635 27.2559 6.77221C27.0996 6.91807 26.8877 7.00001 26.6667 7.00001Z" fill="#222222"/>
</svg>
