<svg viewBox="165.0270270270271 229.95000000000005 805.9459459459459 1149.7500000000002" xmlns="http://www.w3.org/2000/svg" xmlns:blush="http://design.blush" overflow="visible" xmlns:xlink="http://www.w3.org/1999/xlink" width="805.9459459459459px" height="1149.7500000000002px"><g id="Master/Character/Bust" stroke="none" stroke-width="1" fill="none" fill-rule="evenodd" blush:has-customizable-colors="true" blush:viewBox="166.11320754716974 76.65000000000009 788.4636118598385 1272.3900000000003" blush:i="0"><g id="Body" transform="translate(147.000000, 639.000000) scale(1 1)" blush:width="818" blush:height="733" blush:component="Body" blush:i="0.0" blush:value="Shirt and Coat" blush:viewBox="36.81000000000006 -42.540178571428555 773.0099999999998 777.1763392857142"><g id="Body/Shirt and Coat" stroke="none" stroke-width="1" fill="none" fill-rule="evenodd" blush:viewBox="36.81000000000006 -42.540178571428555 773.0099999999998 777.1763392857142" blush:i="0.0.0"><path d="M386.475701,23.649702 L374.241405,53.8956502 L380.982187,149.765818 L385.998303,150.547543 C438.973002,158.758968 474.970296,162.907007 493.990184,162.99166 L494.579029,162.992983 C513.732771,162.992983 536.684265,158.714559 563.433512,150.157712 L564.652002,149.765818 L567.739382,77.9806822 L560.457331,77.9806822 L547.284764,47.0979896 L547.296966,47.0878343 C547.441992,47.3351512 547.592951,47.5751989 547.750114,47.8076447 C553.242114,55.9306447 556.424933,49.3704374 569.327533,52.2435072 C584.775947,55.6834631 591.63339,71.2962803 605.233705,82.9645117 C611.548567,88.3822741 624.801936,90.9357789 631.144329,94.6602938 L637.806553,98.574829 C658.681753,110.887713 682.675374,125.84455 695.273331,145.3288 C710.041331,168.1708 720.221331,189.8478 729.621331,215.2578 C749.883331,270.0268 763.947331,325.9158 773.996331,383.3918 C784.182331,441.6448 790.303331,500.6208 794.978331,559.5508 C797.143869,586.860031 798.980508,614.191415 800.504765,641.542594 L800.879331,648.3808 C801.680331,663.2628 800.984331,677.8248 787.453331,686.9888 C777.758599,693.553443 764.892247,694.553282 753.518224,695.227326 L752.899331,695.2638 C668.805998,700.1958 584.709998,705.090911 500.615183,709.99743 L374.474331,717.3718 C353.485664,718.602467 332.496998,719.822467 311.508035,721.036244 L260.275235,723.99517 C236.128816,725.36932 211.953117,726.558443 187.774331,726.4178 C157.354045,726.240029 127.063043,723.993725 96.9233246,719.939235 L94.2643309,719.5768 C75.3023309,716.9588 47.8083309,710.3348 44.4023309,687.5938 C43.9133309,684.3288 46.7873309,682.2888 49.2003309,682.7578 C48.4063309,679.0568 47.9133309,675.3488 47.4423309,672.1298 C45.4213309,658.3698 44.1523309,644.5218 43.5253309,630.6298 C42.2673309,602.8318 43.3273309,574.9048 46.1063309,547.2288 C50.7037792,501.440524 57.148432,455.731996 63.8076389,410.183114 L65.2903309,400.0638 C72.3733309,351.8058 80.8063309,303.6288 94.0023309,256.6218 C106.192331,213.1978 125.209148,168.023917 151.37596,140.565507 C177.542773,113.107096 214.851015,89.251238 253.186015,74.638238 C256.506015,73.372238 322.465846,58.930892 326.909846,61.033892 L327.707931,60.4083507 C340.858512,50.0264513 359.618404,31.7896024 378.933331,37.5328 L378.977712,37.4604573 C379.433147,36.6227176 381.217379,31.0198774 383.682162,23.649702 L386.475701,23.649702 Z" id="Top" fill="#8FA7DF" blush:i="0.0.0.0"/><path d="M400.425752,-16.606103 C416.401752,-36.860103 433.241923,-43.2988944 458.125923,-41.7898944 C475.000923,-42.3928944 491.830923,-38.0128944 506.119923,-28.3368944 C519.211923,-21.4958944 530.821923,-12.0788944 539.108923,0.043105619 C546.196193,10.4071375 540.811555,36.0168647 547.284764,47.0979896 C547.221645,48.3036665 547.189496,49.403271 547.189496,50.396056 C547.189496,59.984881 553.862692,70.6854161 567.209085,82.4976614 L567.739382,82.9645117 L567.739382,152.6441 C545.301128,159.543355 517.520611,162.992983 484.397831,162.992983 C451.76942,162.992983 417.83188,157.51459 382.58521,146.557804 L380.982187,146.055995 L374.241405,70.3267258 L380.982187,49.3704374 L380.981301,31.8182494 L383.585954,23.9673611 C388.198415,10.1638797 395.258883,-10.0548341 400.425752,-16.606103 Z" id="Skin" fill="#694d3d" blush:color="Skin-500" blush:i="0.0.0.1"/><path d="M380.982187,146.055995 C420.47883,157.557153 453.708711,163.307732 480.671831,163.307732 C507.63495,163.307732 535.628341,157.557153 564.652002,146.055995 L557.589331,713.967698 L443.915331,715.3569 L380.982187,146.055995 Z" id="Top" fill="#9FD8E5" blush:i="0.0.0.2"/><path d="M185.955631,394.0248 C185.517631,393.2048 186.533631,392.4678 187.207631,393.0588 C202.520631,406.4968 210.537631,428.0778 212.218631,448.0258 C213.999631,469.1788 211.474631,491.0798 210.509631,512.2238 C209.435631,535.7758 208.470631,559.3368 207.159631,582.8778 C205.828631,606.7618 204.394631,630.6378 203.165631,654.5268 L200.400631,708.2648 L200.400631,708.2648 C200.106631,713.9918 200.743631,721.0348 198.545631,726.3798 C195.139652,734.665735 185.022365,733.38282 182.896114,726.457617 L182.829631,726.2298 L182.635631,726.3798 C180.759631,720.1388 182.163631,712.7268 182.481631,706.2738 L185.378631,647.5608 L185.378631,647.5608 C187.425231,606.0609 189.250701,564.56019 191.449176,523.068147 L192.196631,509.2378 C193.224431,490.6195 194.012471,472.04818 194.645315,453.435631 L194.850631,447.2298 C195.451631,428.5418 194.974631,410.8988 185.955631,394.0248 Z M557.165431,49.5109 C565.696431,48.7009 572.138431,51.5299 579.883431,54.5099 C583.257431,55.8069 586.452431,57.3059 589.689431,58.8579 C593.741795,60.8009303 596.347826,64.2363683 598.843446,67.8686081 L600.177431,69.8259 C610.568431,85.0499 617.558431,102.6139 625.445431,119.1889 C634.671431,138.5779 643.989431,157.9249 653.018431,177.4059 L657.474283,187.003789 C659.701727,191.802956 661.922588,196.605122 664.110491,201.422289 L667.890867,209.806347 C671.688407,218.309181 675.093085,227.304332 669.680431,236.0759 C664.647431,244.2339 655.724431,250.5459 648.659431,256.8519 C642.765431,262.1139 636.870431,267.3749 630.973431,272.6349 C643.162431,284.8409 651.345431,300.2099 656.155431,316.6919 C662.989431,313.8449 671.330431,313.2989 678.396431,312.0669 C688.287431,310.3429 689.499431,325.3169 680.164431,325.1339 C673.270431,324.9989 665.182431,325.7029 658.110431,324.2509 C659.339431,329.6669 660.231431,335.1649 660.798431,340.6779 C663.770018,369.573247 657.276353,398.636279 650.50354,426.593558 L649.946431,428.8889 C642.591431,459.1489 635.617431,489.4879 629.378431,519.9989 C623.125431,550.5749 617.500431,581.2799 612.507431,612.0869 C607.425431,643.4439 603.829431,674.9739 599.964431,706.4969 C599.379431,711.2679 596.377431,715.3569 591.105431,715.3569 C586.713431,715.3569 581.693431,711.2579 582.245431,706.4969 C586.233431,672.1689 591.889431,638.0209 597.508431,603.9279 C607.186739,545.214977 619.3676,487.012818 633.381291,429.192843 L635.829244,419.123796 C642.134066,393.009152 647.853734,366.100926 644.691431,339.1639 C642.115451,317.22946 632.944378,293.842512 614.818445,280.218742 L614.266431,279.8089 C610.032431,276.7039 608.403431,270.7659 612.573431,266.6769 C615.227098,264.074567 617.883875,261.475344 620.542209,258.877752 L636.498431,243.2999 L639.715341,240.153638 C642.397615,237.534716 645.092717,234.931757 647.868431,232.4089 C649.548431,230.8829 654.103431,227.9729 654.436431,225.4629 C654.652777,223.824438 652.713058,220.947072 651.927008,219.438226 L648.325431,212.1689 L648.325431,212.1689 C646.280431,208.0239 644.298431,203.8489 642.301431,199.6799 C638.163431,191.0439 633.965431,182.4339 629.917431,173.7549 L605.596431,121.6429 L605.596431,121.6429 C598.735431,106.9409 592.623431,91.4199 583.653431,77.8279 L581.884819,75.1788877 C580.408514,72.9479432 579.104542,70.8004556 578.171431,68.0719 C577.274431,65.4469 576.148431,62.5649 574.490431,60.3249 C570.605431,55.0679 563.179431,52.0859 556.966431,50.9849 C556.068431,50.8249 556.394431,49.5849 557.165431,49.5109 Z M370.111931,35.8235654 C370.651931,35.8235654 370.733931,36.5946 370.235931,36.7446 C362.739931,38.9986 355.576931,42.6356 349.732931,47.8856 C346.936931,50.3976 344.121931,53.2486 342.395931,56.6306 C341.735331,57.9248 341.369571,59.2919 341.101821,60.709301 L341.015931,61.1836 C340.570668,63.7443368 339.933338,65.1697274 338.632042,67.2198301 L338.408931,67.5676 C330.981931,79.0366 325.776931,91.7756 321.017931,104.5306 L310.654056,132.3421 L310.654056,132.3421 L300.296931,160.1566 C296.959931,169.1186 293.620931,178.0816 290.282931,187.0436 C288.438931,191.9916 286.542931,196.9186 284.647931,201.8466 C283.827931,203.9816 282.945931,206.1006 282.195931,208.2616 C282.092931,208.5566 281.764931,210.3356 281.518931,210.7676 L281.602931,210.9146 L281.602931,210.9146 C283.691931,214.4286 289.262931,217.3646 292.420931,219.9176 L303.294931,228.7086 L303.294931,228.7086 C311.047931,234.9776 318.999931,241.0706 326.519931,247.6196 C331.243931,251.7316 328.304931,259.0956 323.036931,260.8126 C314.208931,263.6886 305.559931,267.1306 296.863931,270.3846 C293.351231,271.6986 289.693541,272.8425 286.221827,274.291608 L284.108455,275.204939 C283.282988,275.576092 283.67984,275.57263 283.712931,277.0956 C283.745931,278.6936 284.198931,280.3586 284.458931,281.9286 C287.387931,299.6386 290.492931,317.3186 293.769931,334.9676 C305.361931,397.3786 319.210931,459.3336 335.005931,520.8126 C342.983931,551.8596 351.539931,582.7536 359.692931,613.7546 C367.825931,644.6726 378.526931,675.1476 388.744931,705.4286 C391.627931,713.967698 378.086931,717.6446 375.274931,709.1416 C363.498931,673.5276 352.725931,637.6026 341.600931,601.7866 C321.834931,538.1466 306.258931,473.1246 292.482931,407.9456 C285.654931,375.6416 279.409931,343.2136 273.753931,310.6836 C272.682931,304.52535 271.632743,298.363163 270.604212,292.197459 L269.105112,283.128265 C268.077479,276.663967 267.492357,269.930403 272.516931,264.8146 C277.423264,259.821386 285.845975,258.051994 292.302119,255.710039 L292.770931,255.5376 C296.878931,254.0046 301.016931,252.5276 305.138931,251.0046 C299.066931,246.2246 293.069931,241.3386 287.012931,236.5616 C282.126931,232.7076 277.163931,228.9316 272.347931,224.9896 C268.376931,221.7376 265.138931,217.5626 264.724931,212.2746 C264.302556,206.869944 266.618655,201.854755 268.486662,196.898104 L268.665931,196.4186 C270.499931,191.4696 272.338931,186.5236 274.224931,181.5936 L285.894931,151.0746 L285.894931,151.0746 C293.310931,131.6816 300.413931,112.1316 308.213931,92.8896 C311.299931,85.2746 314.662931,77.7796 318.636931,70.5816 C320.552931,67.1106 322.607931,63.7136 324.840931,60.4376 C327.342931,56.7636 329.613931,54.9726 333.490931,52.9456 C339.689931,49.7046 344.554931,44.2706 350.779931,40.9296 C356.889931,37.6496 363.175931,35.8996 370.111931,35.8235654 Z M390.236331,1.2251 C390.473331,0.8181 391.101331,0.999074259 391.109331,1.4621 C391.271331,11.1001 388.981331,20.9491 387.572331,30.4791 C386.157331,40.0431 385.703331,50.1381 383.656331,59.6001 C383.613931,60.0409 383.528651,60.4753 383.408171,60.901764 L383.310331,61.2261 L383.310331,61.2261 C382.446331,63.8771 380.199331,66.1241 377.442331,66.8261 C378.309331,71.6301 379.126331,76.4421 379.813331,81.2801 C380.993331,89.5958143 382.07027,97.9237735 383.129424,106.254502 L384.397331,116.2521 C385.594331,125.6741 386.758331,135.1001 387.909331,144.5271 C390.836331,145.7511 393.823331,146.7611 396.882331,147.6361 C403.927331,149.6521 411.143331,150.4721 418.413331,151.1851 C433.218798,152.637367 448.137509,153.309989 462.995474,154.134707 L466.178331,154.3141 C482.882331,155.2711 499.677331,155.4411 516.339331,153.7271 C524.601331,152.8771 532.798331,151.4511 540.855331,149.4301 C544.949331,148.4031 548.928331,146.8691 553.014331,145.8651 C554.369331,145.5321 555.580331,144.7641 556.938331,143.9441 C557.541331,143.1821 558.387331,142.6051 559.489331,142.3821 L559.787831,142.3301 L559.787831,142.3301 L560.083331,142.2871 L560.185331,142.2411 L560.177331,142.2731 C561.013331,142.1601 561.807331,142.1611 562.556331,142.2631 C562.854331,134.9131 563.177331,127.5631 563.582331,120.2151 C564.669331,100.4791 567.670331,79.8911 563.664331,60.3271 C563.530331,59.6691 564.425331,59.4371 564.658331,60.0531 C572.519331,80.7641 571.636331,103.4111 572.032331,125.2091 C572.419331,146.5261 572.185331,167.8581 572.079331,189.1801 C573.606331,189.8301 574.968331,190.7111 576.047331,191.9471 C578.202331,194.4171 578.822331,198.7111 576.047331,201.0951 C574.817331,202.1521 573.456331,202.8861 572.012331,203.3951 C571.935331,221.9181 571.804331,240.4431 571.618331,258.9671 C575.141331,261.6881 575.470331,268.1491 571.485331,270.8341 C570.822331,330.8221 569.732331,390.8121 568.828331,450.7911 L566.934331,576.6291 L566.934331,576.6291 C566.682331,593.3951 566.264331,610.1601 566.114331,626.9241 L566.233331,626.9711 L566.233331,626.9711 L566.652521,627.165439 C567.358374,627.496768 568.408581,628.032663 568.626331,628.5811 C568.683331,628.7251 568.698331,628.8231 568.691331,628.8971 C569.847331,629.0591 570.992331,629.6051 571.983331,630.5451 C574.429331,632.8691 573.932331,636.3721 571.983331,638.7391 L571.462331,639.3721 L571.462331,639.3721 C570.247331,640.8471 567.940331,641.4151 566.056331,641.1151 C566.075331,651.5781 566.142331,662.0431 566.109331,672.5061 C566.098531,675.7017 566.050291,678.89766 565.995067,682.093548 L565.863283,689.756637 C565.775777,694.129447 565.388422,699.686555 560.909331,701.6511 C555.856331,703.8681 551.325331,702.0521 549.279331,696.9201 C548.725331,695.5301 548.844331,694.2351 549.046331,692.8611 C548.983331,690.7961 548.660331,688.4031 548.700331,686.4871 L548.867331,678.4981 L548.867331,678.4981 C548.893331,677.2661 548.943331,676.0351 548.978331,674.8031 L548.832331,674.8181 L548.832331,674.8181 C530.877805,675.689679 512.797627,675.26436 494.813719,675.253737 L486.815463,675.265367 C480.141942,675.271095 473.454141,675.23547 466.790141,674.98039 L464.292331,674.8741 C459.303331,674.6401 454.056331,674.5651 448.884331,674.1191 C449.543331,679.4281 450.159331,684.7411 450.708331,690.0591 C451.228331,695.1021 446.023331,699.3871 441.380331,699.3871 C435.866331,699.3871 432.712331,695.0531 432.052331,690.0591 C428.936331,666.5031 427.661331,642.7271 424.684331,619.1561 C422.017631,598.0439 419.705711,576.88391 417.35564,555.731534 L416.570331,548.6811 C407.970023,471.704792 399.620224,394.699514 391.633408,317.6574 L387.914699,281.642296 C384.15894,245.342424 380.381198,209.0403 377.195331,172.6871 C375.373331,151.9031 373.694331,131.1151 372.114331,110.3111 C370.955331,95.0271 370.227331,79.8281 369.753331,64.5741 C367.884331,62.6511 366.947331,59.8431 367.775331,56.9431 C368.259331,55.2511 368.822331,53.5681 369.416331,51.8881 C369.379331,50.2371 369.340331,48.5871 369.308331,46.9341 C369.278331,45.3701 370.866331,44.5651 372.137331,44.8241 C374.447331,39.2311 376.991331,33.6861 379.114331,28.1471 C382.550331,19.1811 385.382331,9.5201 390.236331,1.2251 Z M198.341231,98.1264 C234.260231,75.6164 277.016231,59.4184 319.839231,61.1624 C320.813231,61.2024 321.087231,62.6864 320.076231,62.9114 C297.234231,68.0114 274.141231,74.2234 252.516231,83.2644 C230.828231,92.3324 210.206231,104.5424 191.839231,119.2154 C157.951231,146.2874 131.611231,181.5004 114.267231,221.1934 C104.108231,244.4454 96.9872309,268.9934 90.7692309,293.5504 C84.1892309,319.5394 78.7662309,345.8084 74.2572309,372.2354 C65.3512309,424.4364 60.1662309,477.2124 57.4072309,530.0794 C54.6002309,583.8574 55.7572309,637.6734 53.7552309,691.4594 C53.4092309,700.7784 40.0892309,700.5964 39.4122309,691.4594 C34.8762309,630.3084 37.3892309,568.1814 41.5842309,507.0734 C45.3562309,452.1394 51.9432309,397.3204 62.5502309,343.2704 L63.4741576,338.58605 C73.3900215,288.579465 85.3503521,237.361188 109.322231,192.0744 C129.788231,153.4114 161.384231,121.2884 198.341231,98.1264 Z M697.130531,337.1236 C697.317531,336.5876 698.025531,336.5946 698.214531,337.1236 C702.309531,348.5857 702.456585,361.519368 703.544877,373.601893 L703.630531,374.5296 C704.674086,385.550044 705.460062,396.583921 706.190728,407.627016 L706.462531,411.7686 C709.395531,456.8186 713.061531,501.8186 718.586531,546.6316 C724.091531,591.2756 731.534531,635.6086 739.583531,679.8536 C740.480531,684.7796 738.298531,689.7976 733.132531,691.2166 C728.578531,692.4676 722.732531,689.6626 721.769531,684.7656 C716.772531,659.3696 712.731531,633.9396 709.126531,608.3236 C702.780531,563.2166 698.044531,517.9016 694.999531,472.4516 C693.471531,449.6246 692.530531,426.8066 692.156531,403.9306 C691.983817,393.317029 692.25947,382.67759 692.82496,372.074735 L692.960531,369.6286 C693.584531,358.7916 693.520531,347.4586 697.130531,337.1236 Z M309.003531,624.0661 C309.483531,623.8061 310.077531,624.3401 309.773531,624.8361 C302.818531,636.1391 293.409531,645.8851 284.315531,655.4911 C274.808531,665.5321 265.536531,675.8761 255.837531,685.7201 C248.829531,692.8311 237.556531,681.3601 244.952531,674.8351 C255.351531,665.6631 266.220531,656.9471 276.804531,647.9791 L281.43318,644.055711 C290.111167,636.724568 299.046561,629.45907 309.003531,624.0661 Z M639.344831,618.4052 C638.825831,617.4162 640.011831,616.6142 640.817831,617.2692 C646.427831,621.8312 651.455831,627.2732 656.872831,632.0872 C662.237831,636.8562 667.802831,641.3042 673.519831,645.6422 C679.260831,649.9982 685.126831,654.1802 691.150831,658.1372 C696.147831,661.4192 701.297831,664.0482 706.530831,666.7732 C708.953831,667.0852 711.197831,668.2742 712.993831,670.5292 C715.833831,674.0952 716.135831,680.8192 712.196831,683.9152 L711.489831,684.4702 L711.489831,684.4702 C706.892831,688.0832 701.435831,688.5232 696.910831,684.4702 C691.858104,679.945655 687.082236,674.966564 682.23011,670.185069 L680.771831,668.7572 C675.557831,663.6892 670.470831,658.4572 665.674831,652.9902 L661.333085,648.051342 C653.278511,638.866307 644.894754,628.966892 639.344831,618.4052 Z M613.502531,88.8713 C612.569531,88.2533 613.144531,86.5893 614.296531,86.9863 L616.409529,87.7165994 C625.237228,90.7841628 634.323716,94.1861519 642.338531,98.9093 C650.951531,103.9843 658.904531,110.0303 666.502531,116.5163 C682.229531,129.9413 695.609531,146.4503 706.980531,163.6573 C729.796531,198.1863 743.906531,237.7303 755.298531,277.2973 C767.445531,319.4853 776.797531,362.5813 784.433531,405.7993 C792.192531,449.7203 798.178531,494.0373 802.112531,538.4663 C804.050531,560.3523 805.351531,582.2513 806.005531,604.2133 C806.342531,615.5113 806.331531,626.8013 806.237531,638.1033 C806.213531,641.0098 806.232781,643.9148 806.265781,646.8198 L806.376531,655.5363 C806.435531,661.0473 807.095531,666.8383 805.785531,672.2223 C803.677531,680.8893 789.347531,679.2723 789.818531,670.4143 C789.386531,667.4673 789.369531,664.4213 789.481531,661.3693 C789.413531,660.9753 789.339531,660.5753 789.257531,660.1663 C789.022531,658.9953 789.222531,657.9113 789.682531,656.9793 C789.756531,655.5153 789.823531,654.0603 789.847531,652.6303 C789.941531,646.8113 789.935531,641.0153 789.774531,635.1983 C789.435531,622.9323 788.947531,610.6663 788.454531,598.4063 C787.469531,573.9063 786.099531,549.3953 784.113531,524.9553 C777.203531,439.8853 762.612531,354.3303 738.103531,272.4873 C726.720531,234.4813 711.027531,197.1723 688.522531,164.3303 C678.532531,149.7503 667.261531,136.2833 654.766531,123.7843 C642.192531,111.2073 628.336531,98.6953 613.502531,88.8713 Z M443.915331,637.2711 L445.613587,649.555836 C446.462491,655.69926 447.303331,661.8447 448.101331,667.9941 C453.522331,667.2521 459.068331,666.9411 464.292331,666.4781 C473.437331,665.6681 482.645331,665.2761 491.817331,664.8971 C510.784331,664.1151 529.846331,662.7581 548.832331,662.8531 C549.027331,662.8541 549.211331,662.8671 549.395331,662.8821 L550.337331,638.6431 L550.337331,638.6431 L536.997331,638.6221 L536.997331,638.6221 C525.695331,638.6041 514.395331,638.5081 503.093331,638.4111 C492.914456,638.3236 482.731753,638.3096 472.5546,638.097782 L468.193331,637.9941 C460.475331,637.7861 451.953331,638.2151 443.915331,637.2711 Z M551.456331,602.0881 C550.912331,602.1521 550.358331,602.2061 549.769331,602.2311 C547.127331,602.3421 544.464331,602.2651 541.820331,602.2871 C536.190331,602.3361 530.561331,602.3741 524.930331,602.3731 C513.670331,602.3721 502.411331,602.4401 491.153331,602.5761 C479.563331,602.7161 467.981331,602.9171 456.390331,602.9401 C450.774331,602.9501 445.176331,602.8011 439.562331,602.6441 C440.470331,610.6221 441.419331,618.5941 442.467331,626.5471 C451.185289,625.369308 460.561742,625.963116 469.081976,625.881744 L470.188331,625.8671 C481.817331,625.6681 493.456331,625.8151 505.088331,625.8291 C517.054331,625.8431 529.019331,625.8821 540.986331,625.9801 L550.817331,626.0611 L550.817331,626.0611 L550.836331,625.5661 L550.836331,625.5661 C551.124331,617.7481 551.310331,609.9201 551.456331,602.0881 Z M435.237331,563.9221 C436.327331,573.3391 437.350331,582.7721 438.393331,592.2021 C439.086331,592.0951 439.788331,592.0031 440.503331,591.9281 C446.127331,591.3401 451.739331,590.8361 457.383331,590.4861 C468.634331,589.7891 479.884331,589.4211 491.153331,589.1191 C502.741331,588.8081 514.331331,588.5701 525.923331,588.4061 C531.555331,588.3271 537.182331,588.3351 542.814331,588.3741 C545.456331,588.3921 548.125331,588.3091 550.762331,588.4861 C551.076331,588.5071 551.377331,588.5401 551.675331,588.5741 L551.873331,574.416026 C551.907442,572.056767 551.942998,569.697767 551.981331,567.3391 C543.276902,567.875814 534.427617,567.670998 525.729716,567.673428 L523.725331,567.6781 C512.796331,567.7281 501.863331,567.5781 490.936331,567.3511 C479.663331,567.1161 468.413331,566.7481 457.160331,566.0261 C452.601188,565.734671 448.075106,565.346263 443.541153,564.846392 L441.273331,564.5871 C439.300331,564.3541 437.268331,564.1661 435.237331,563.9221 Z M552.879331,523.9681 C531.916474,525.63191 511.065181,526.327012 490.046434,526.5337 L486.892331,526.5611 C468.318331,526.7021 449.591331,527.4681 430.973331,526.9761 C432.086331,536.6271 433.196331,546.2781 434.315331,555.9271 C436.981331,555.8031 439.660331,555.8021 442.266331,555.7081 C447.567331,555.5171 452.850331,555.4691 458.154331,555.4571 C469.081331,555.4321 480.008331,555.5271 490.936331,555.5051 C502.198331,555.4811 513.458331,555.2911 524.718331,555.0791 C533.847331,554.9081 543.073331,554.2211 552.227331,554.2461 L552.879331,523.9681 L552.879331,523.9681 Z M553.766331,482.7941 C551.337154,483.600688 548.4695,483.652564 545.325108,483.796772 L537.209979,484.200956 C533.448771,484.3853 529.687131,484.5587 525.923331,484.6961 C513.382331,485.1551 500.841331,485.5841 488.298331,485.9831 C475.445331,486.3911 462.530331,486.6281 449.675331,486.2231 C443.378331,486.0241 437.134331,485.6941 430.856331,485.1691 C429.304331,485.0391 427.722331,484.9541 426.137331,484.8421 C427.598331,497.6291 429.065331,510.4141 430.537331,523.1991 C449.066331,520.9251 467.738331,519.5091 486.244331,517.1571 L502.977675,515.020381 C519.703143,512.886163 536.414831,510.7916 553.201331,509.0261 L553.766331,482.7941 L553.766331,482.7941 Z M554.659331,441.1651 C551.095096,442.0451 547.033033,442.001197 543.61032,442.217254 L542.976331,442.2611 C536.491331,442.7531 529.989331,442.9991 523.489331,443.1591 C510.749331,443.4731 498.001331,443.6301 485.257331,443.7081 L477.593899,443.75574 C467.377771,443.81558 457.167531,443.8415 446.948331,443.6031 C440.393331,443.4511 433.853331,443.1301 427.303331,442.8021 C425.341331,442.7031 423.335331,442.6381 421.323331,442.5371 C422.692331,454.6431 424.075331,466.7461 425.455331,478.8501 C427.607331,478.5081 429.769331,478.2481 431.830331,477.9001 C437.109331,477.0081 442.378331,476.2961 447.695331,475.6591 C459.211331,474.2791 470.787331,473.2861 482.357331,472.4481 C494.235331,471.5871 506.123331,470.8591 518.003331,470.0261 L526.417081,469.432975 C529.221581,469.23835 532.026331,469.0501 534.832331,468.8781 C539.624331,468.5841 545.194331,468.9161 549.947331,467.8731 C551.234331,467.3371 552.663331,467.2141 554.094331,467.5201 L554.659331,441.1651 L554.659331,441.1651 Z M555.738331,392.4381 C554.505331,394.0041 552.663331,394.8251 550.467331,395.1091 C539.02822,396.592822 527.294757,396.831347 515.758916,397.530577 L513.725331,397.6591 C501.814331,398.4441 489.896331,399.0601 477.976331,399.6931 C465.731331,400.3431 453.488331,400.8731 441.233331,401.3001 C436.030581,401.481225 430.8018,401.502334 425.591202,401.43578 L423.359331,401.4021 C421.219331,401.3661 418.978331,401.3711 416.732331,401.2981 C417.975331,412.6181 419.230331,423.9371 420.503331,435.2531 C422.793331,435.0041 425.082331,434.8141 427.303331,434.5791 C433.849331,433.8871 440.387331,433.2031 446.948331,432.6861 C459.380331,431.7061 471.821331,431.1171 484.276331,430.5011 C497.019331,429.8701 509.769331,429.4501 522.514331,428.8551 C528.693331,428.5661 534.870331,428.2071 541.031331,427.6391 C545.349331,427.2421 550.478331,425.7721 554.983331,426.3121 C555.229331,415.0201 555.485331,403.7291 555.738331,392.4381 Z M556.743331,348.7881 C556.548331,349.0901 556.320331,349.3821 556.043331,349.6541 C551.007111,354.62956 544.800163,354.245988 538.1265,354.767958 L537.717331,354.8011 C531.176331,355.3511 524.632331,355.8741 518.084331,356.3461 C504.995331,357.2911 491.880331,357.9521 478.772331,358.5411 C465.357331,359.1441 451.856331,359.5591 438.428331,359.2851 C429.829331,359.1091 420.823331,359.1401 412.052331,358.3021 C413.399331,370.7691 414.754331,383.2351 416.119331,395.7001 C418.585331,395.2351 421.067331,394.8791 423.418331,394.5091 C429.343331,393.5771 435.274331,392.6401 441.233331,391.9541 C453.141331,390.5831 465.052331,389.3011 476.983331,388.1441 C487.186664,387.154933 497.386525,386.150489 507.597382,385.246507 L513.725331,384.7171 C525.908331,383.6921 538.245331,382.0021 550.467331,381.7521 C552.481331,381.7111 554.759331,382.8071 555.913331,384.5371 C556.183331,372.6201 556.463331,360.7041 556.743331,348.7881 Z M557.589331,313.4511 C554.478331,313.8291 551.126331,313.6141 548.255331,313.7081 C540.996331,313.9451 533.736331,314.1651 526.476331,314.3791 L482.915331,315.6651 L482.915331,315.6651 C468.084331,316.1021 453.201331,316.4301 438.364331,316.2201 C431.837531,316.1283 425.282381,316.1175 418.75793,315.762693 L416.584331,315.6311 C413.899331,315.4521 410.604331,315.4271 407.386331,315.1001 L411.185331,350.2871 L411.185331,350.2871 C419.913864,349.026167 428.908958,348.55446 437.563272,347.815032 L439.412331,347.6521 C452.176331,346.4891 465.001331,345.7201 477.788331,344.8541 C490.905331,343.9661 504.003331,342.8881 517.102331,341.7851 C523.649331,341.2351 530.195331,340.6861 536.737331,340.0841 L537.545484,340.00453 C543.725275,339.359249 549.536289,337.986517 555.009331,341.6301 C555.810331,342.1621 556.437331,342.8741 556.866331,343.6711 C557.105331,333.5981 557.339331,323.5241 557.589331,313.4511 Z M558.604331,272.3861 C532.075331,273.4541 505.542331,274.2641 478.993331,274.6201 C464.049331,274.8201 449.124331,274.6791 434.182331,274.3671 C427.70322,274.2311 421.17038,273.921273 414.696185,273.424977 L412.271331,273.2301 C409.193331,272.9711 405.959331,272.7831 402.739331,272.4731 C404.070331,284.5711 405.390331,296.6711 406.700331,308.7731 C409.867688,308.184386 413.178178,307.912978 415.953645,307.557747 L416.584331,307.4741 C423.481331,306.5251 430.443331,305.9721 437.374331,305.3621 C450.870331,304.1731 464.433331,303.4071 477.965331,302.7561 C491.822331,302.0891 505.686331,301.5241 519.545331,300.9081 L533.405553,300.287656 C535.715442,300.185433 538.025331,300.084767 540.335331,299.9871 C543.636331,299.8481 546.936331,299.7151 550.236331,299.5781 C551.864331,299.5111 553.556331,299.2901 555.186331,299.3741 L555.650187,299.31178 C555.864051,299.28454 556.052931,299.2627 556.226331,299.2441 C556.669664,298.9066 557.147025,298.626739 557.652627,298.414355 L557.959331,298.2951 L558.604331,272.3861 Z M398.389331,233.4701 C399.621331,244.3611 400.839331,255.2551 402.041331,266.1501 C405.825331,265.7181 409.654331,265.4791 413.267331,265.1541 C420.552331,264.5011 427.871331,263.9291 435.178331,263.5931 L449.781998,262.914915 C459.516886,262.464767 469.251331,262.029433 478.993331,261.6741 C505.655331,260.7011 532.316331,259.5861 558.962331,258.2251 C559.150331,250.8361 559.344331,243.4471 559.542331,236.0581 C558.263331,237.4281 556.415331,238.3291 553.987331,238.3231 C526.013331,238.2481 498.017331,238.4101 470.046331,237.9501 C456.045331,237.7191 442.060331,237.3801 428.075331,236.6621 C421.232331,236.3111 414.351331,235.5951 407.560331,234.6541 C404.664331,234.2531 401.495331,233.9671 398.389331,233.4701 Z M393.912331,194.6611 C395.227331,205.8171 396.517331,216.9771 397.786331,228.1391 C401.260331,227.5191 404.849331,227.1891 408.090331,226.7481 C415.054331,225.8011 422.061331,225.0471 429.075331,224.6511 C442.723331,223.8791 456.379331,223.4901 470.046331,223.2001 C498.015331,222.6061 526.012331,222.6101 553.987331,222.3891 C556.615331,222.3681 558.566331,223.4081 559.847331,224.9601 C560.041331,217.9931 560.246331,211.0261 560.457331,204.0581 C557.755331,203.7731 555.076331,203.3691 552.597331,203.1961 C544.978331,202.6641 537.356331,202.1781 529.731331,201.7411 C513.819331,200.8281 497.892331,200.0491 481.969331,199.3561 C466.042331,198.6631 450.110331,197.9861 434.178331,197.3961 L427.210534,197.141645 C416.131161,196.72955 404.863766,196.209187 393.912331,194.6611 Z M388.902331,152.6441 C390.271331,163.9431 391.619331,175.2441 392.964331,186.5471 L393.373331,190.0451 L393.373331,190.0451 C406.698331,187.4551 420.741331,186.6961 434.178331,186.1251 C450.113331,185.4471 466.020331,185.0981 481.969331,185.1471 C497.902331,185.1951 513.811331,185.5721 529.731331,186.2301 C537.686331,186.5581 545.640331,186.9381 553.590331,187.3701 C555.776331,187.4881 558.339331,187.4251 560.977331,187.4631 C561.034331,185.6871 561.083331,183.9111 561.144331,182.1361 C561.386331,174.9421 561.623331,167.7481 561.870331,160.5551 C556.493146,163.316878 549.501535,164.430848 544.09763,165.607908 L543.481331,165.7441 C534.558331,167.7481 525.447331,169.0471 516.339331,169.8411 C498.453331,171.4011 480.381331,170.8181 462.512331,169.3071 L459.382185,169.03931 C443.690647,167.678756 427.423206,165.954225 412.211331,162.0711 C404.965331,160.2221 397.474331,157.6341 390.981331,153.8831 C390.306331,153.4931 389.609331,153.0801 388.902331,152.6441 Z M539.989731,18.3683 C540.144731,17.7573 541.059731,17.6183 541.360731,18.1893 C543.473731,22.2033 544.259731,27.0213 545.726731,31.3223 C547.305731,35.9463 548.778731,40.6043 550.520731,45.1723 C554.159731,54.7163 558.452731,63.8873 563.570731,72.7283 C568.639731,81.4823 554.446731,87.7313 550.716731,78.1473 C546.865731,68.2573 543.700731,58.0313 541.785731,47.5803 C540.850731,42.4813 540.017731,37.3123 539.747731,32.1313 C539.514731,27.6813 538.888731,22.7093 539.989731,18.3683 Z" id="Ink" fill="#000" blush:i="0.0.0.3"/></g></g><g id="Head" transform="translate(372.000000, 180.000000) scale(0.9978902953586498 1)" blush:width="473" blush:height="567" blush:component="Head" blush:i="0.1" blush:value="Senior" blush:viewBox="-20.978468899521545 53.86500000000001 450.75358851674633 453.6000000000001"><g id="Head/Senior" stroke="none" stroke-width="1" fill="none" fill-rule="evenodd" blush:viewBox="-20.978468899521545 53.86500000000001 450.75358851674633 453.6000000000001" blush:i="0.1.0"><path d="M398.851323,192.083773 C363.670323,99.526773 300.253,31.7598 193.341,74.3238 C190.274,72.2358 186.272,71.6758 182.437,74.1208 C124.198,110.6898 82.259,169.3188 64.084,235.4298 C53.023,237.5328 42.275,241.2008 32.675,247.2158 C11.811,260.2888 -2.226,281.0908 -15.384,301.3508 C-19.341,307.4418 -15.677,317.5258 -8.241,318.9088 C-5.011,319.5108 -1.81,319.8688 1.373,319.9628 C0.598,322.7758 -0.422,325.4938 -1.721,327.9868 C-6.424,337.0108 2.461,346.5918 10.788,344.1248 C11.712,344.6138 12.68,345.0158 13.683,345.3178 C13.797,350.4298 16.424,357.2728 21.623,358.3058 C30.031,360.1098 41.205,353.6748 39.221,344.2708 C41.761,344.7178 44.292,344.7738 46.759,344.4638 C47.035,349.3608 46.949,354.4708 47.625,358.9878 C49.835,380.2758 71.105,394.5758 91.389,388.0998 C92.633,394.7328 94.094,404.0528 100.627,407.6508 C108.265,429.0778 121.454,453.5308 143.056,463.2938 C141.133,468.2208 142.176,474.2148 147.968,477.5118 C187.509,500.0548 234.969,507.6828 279.673,499.3018 C297.539,498.2378 314.946,494.2008 331.654,485.5998 C343.838,479.3278 355.039,471.3628 365.973,463.1518 C376.913,454.9378 388.61,446.9398 397.342,436.2748 C406.826,424.6918 411.241,411.0638 414.106,396.5588 C427.235,330.7198 422.700323,266.072944 398.851323,203.354944 C369.329985,125.719854 428.362028,269.722906 398.851323,192.083773 Z" id="Skin" fill="#694d3d" blush:color="Skin-500" blush:i="0.1.0.0"/><path d="M32.5714312,243.430014 C65.4104187,224.05952 107.290189,229.07317 127.019531,259.078614 C130.425279,264.258559 132.77701,269.956888 134.438059,276.553225 L134.706144,277.649928 L134.973731,278.803534 C135.834322,282.617283 136.397876,286.206251 137.162474,292.308187 L138.009677,299.232083 L138.251568,301.118546 C139.073421,307.385492 139.794456,311.343734 140.917834,315.378821 L141.140421,316.161406 L142.438001,320.630282 L137.539806,322.44015 C128.15394,325.830102 126.189022,326.132727 120.77291,323.30187 C116.543663,321.091357 114.336046,318.115343 111.397962,312.084077 L110.97297,311.201436 L110.035658,309.233922 L109.527247,308.197279 C107.612901,304.375128 106.079968,300.299547 103.914493,298.819677 C100.973055,296.809518 91.7015931,296.009142 85.253754,296.801512 L84.9176696,296.844032 L84.6397312,296.902019 L84.1622781,297.009339 C73.3194218,299.572229 63.4366973,308.325291 56.9182611,317.574596 C51.6697151,325.022563 48.6536626,334.404314 48.2838097,344.153155 L48.2630777,344.803604 L48.1346413,349.779416 L37.6240418,349.555611 L37.727,347.619 L37.5695138,347.963139 C34.2582791,354.944345 25.9384632,359.593083 18.9776545,354.971815 L18.7296428,354.802816 L18.4769905,354.621555 C12.600602,350.296646 11.8929667,341.540278 16.7161106,336.222843 L16.9391548,335.983537 L17.156,335.763 L17.111655,335.742398 L17.0616779,335.725553 L17.0306979,335.722226 C15.3876405,336.024255 13.9444412,336.866973 11.9919882,338.660594 L11.4896696,339.131032 L10.4812686,340.222187 L9.43777652,341.335906 L8.98940656,341.796102 C8.70286806,342.085138 8.43985686,342.339494 8.19303923,342.564221 C7.85954612,342.867867 7.55086613,343.123339 7.21480463,343.355958 C6.90420909,343.570949 6.58337022,343.759223 6.19536267,343.927577 C5.2377203,344.343091 4.21410077,344.539922 2.9041299,344.217796 C1.10740467,343.777287 0.0946933192,342.691282 -0.518361964,341.411827 C-0.756452372,340.914929 -0.892574346,340.457514 -0.989051195,339.974671 C-1.08979522,339.470472 -1.13971505,338.955619 -1.16562003,338.361691 C-1.18254986,337.973538 -1.18855708,337.549683 -1.18519775,337.086148 L-1.17332835,336.360587 L-1.14857617,335.572522 L-1.122037,334.943792 L-1.00301318,332.611333 C-0.577441463,324.954624 1.4350579,317.434393 4.88055075,310.335823 L5.22987098,309.627382 L5.36,309.37 L4.99982853,309.852932 C2.65007008,312.94958 0.380931437,315.09636 -2.45087534,316.513871 L-2.84057884,316.702668 L-3.22159296,316.875524 C-7.15075639,318.601259 -11.1080957,317.931624 -13.4988472,314.731827 C-15.1527891,312.51818 -15.6407597,309.604222 -15.3019436,306.538824 C-14.644012,300.591684 -12.2920214,295.146536 -7.68686429,287.201023 L-7.04155535,286.095719 L-4.51361251,281.808827 C5.22752117,265.415001 17.7489801,252.171813 32.5714312,243.430014 Z" id="hair" fill="#E8E1E1" blush:i="0.1.0.1"/><path d="M228.769,56.2876 C246.774,55.0166 265.107,58.0516 282.253,63.4806 C309.599,72.1366 334.713,87.4126 355.346,107.2996 C376.611,127.7946 392.338,153.0636 401.901,180.9726 C413.433,214.6306 415.159,250.5686 418.405,285.7036 C420.0447,303.4553 422.746642,320.93625 425.555712,338.515979 L426,341.2926 C428.744,358.4206 430.288,375.7436 426.497,392.8446 C420.195,421.2666 401.303,445.3926 378.878,463.2196 C332.811,499.8416 261.097,522.1686 207.46,488.4696 C199.162,483.2556 207.025,469.9226 215.126,475.3556 C220.827,479.1806 226.867,482.5336 233.344,484.8486 C260.406,494.5196 290.127,491.0746 316.873,482.0786 C343.23,473.2136 368.521,458.2346 387.969,438.2466 C408.397,417.2516 419.718,391.3186 418.082,361.8106 C417.107,344.2536 413.107,327.0216 410.887,309.6076 C408.920467,294.184267 407.741418,278.677307 406.382339,263.191602 L405.884197,257.621514 C403.00272,226.070834 398.864209,193.654716 384.509,165.0156 C372.434,140.9216 354.753,119.4866 333.493,102.9326 C311.235,85.6016 284.65,73.4806 256.756,68.9596 C223.954,63.6436 192.554,73.3106 165.191,91.3066 C140.923,107.2666 120.059,128.5946 104.061,152.7946 C96.303,164.5286 89.694,177.0596 83.987,189.9106 C78.609,202.0186 74.901,214.7086 70.576,227.1886 C74.135,227.0826 77.753,227.2196 81.427,227.6256 C100.271,229.7136 117.828,239.4796 129.005,254.8786 C142.664,273.6956 138.972,296.7936 144.307,318.1936 C144.72,319.8546 144.018,321.4806 142.595,322.3996 C134.506,327.6276 123.68,327.8016 115.851,321.9146 C109.056,316.8056 105.866,307.5686 108.617,299.4976 C108.976,298.4456 110.508,298.6316 110.551,299.7596 C111.068,313.4946 123.811,324.0716 136.302,317.5356 C130.944,299.0826 133.764,278.4736 122.805,261.8056 C103.408,232.3056 63.268,231.0866 35.075,247.7166 C20.2374833,256.467283 8.49322194,269.625299 -0.251916208,284.342916 L-2.77135019,288.615433 C-6.12350875,294.324082 -9.673525,300.7821 -10.369,307.0686 C-10.77,310.6966 -9.431,314.1056 -5.269,312.2776 C-1.902,310.7996 0.705,307.3506 2.705,304.3856 C6.11592473,299.328568 13.9540822,303.697509 11.1366683,309.082648 L11.041,309.2586 C6.9406,316.522943 4.41613469,324.528069 3.9525444,332.868793 L3.83473437,335.178476 C3.75743359,336.86183 3.701875,339.254287 4.058,339.3416 C4.485,339.4466 7.452,336.0216 7.946,335.5476 C10.326,333.2616 12.777,331.3936 16.09,330.7846 C20.4451467,329.986387 24.8392338,335.374836 21.0587611,338.907424 L20.901,339.0496 C17.527,341.9826 17.677,347.8316 21.404,350.5746 C26.664061,354.445807 33.139917,348.127169 33.9033497,342.92475 L33.929,342.7326 C34.604,337.1116 42.411,336.9126 42.835,342.7326 C43.756,355.3626 28.719,365.9486 17.278,359.5766 C12.754,357.0586 9.878,352.4476 8.977,347.5056 C7.533,348.2686 5.975,348.7976 4.328,348.9436 C-1.034,349.4186 -4.846,345.6486 -5.713,340.5886 C-6.723,334.6936 -6.124,328.3816 -4.571,322.2596 C-7.483,322.9616 -10.546,322.6936 -13.625,320.9166 C-22.94,315.5416 -20.265,303.5856 -16.748,295.5136 C-1.733,261.0596 29.375,229.7966 67.915,227.3146 C68.126,221.2356 68.95,215.4886 70.298,209.4016 C83.48,149.8626 126.184,94.7306 181.779,68.9626 C196.635,62.0766 212.39,57.4446 228.769,56.2876 Z M82.9754,294.1234 L83.5037501,294.00433 C89.5100584,292.710242 105.31648,291.19 103.4114,301.2974 C103.3214,301.7724 102.6304,301.7144 102.5074,301.2974 C100.6414,294.9424 87.9654,300.0244 84.2644,301.5544 C79.1624,303.6624 74.1294,306.7724 69.9634,310.3874 C60.8424,318.3034 54.7284,329.4594 53.7984,341.5754 C52.8764,353.5944 56.3634,366.5764 65.0334,375.2704 C69.2834,379.5314 74.7084,382.4244 80.8024,382.6374 C86.2774,382.8274 92.3264,378.5654 97.3784,381.0614 C98.3744,381.5534 99.1634,382.9044 99.0734,384.0164 C98.9034,386.1214 97.9614,387.7604 96.5594,389.0314 C105.0174,404.4444 111.9394,420.7584 122.7284,434.7744 C128.1424,441.8064 134.2774,448.3184 141.2244,453.8604 C144.5264,456.4954 148.1164,458.8094 151.8184,460.8424 C156.1564,463.2274 159.9104,464.7194 163.0064,468.7594 C165.6464,472.2044 163.0054,478.8654 158.6534,479.4594 C148.4044,480.8554 138.4444,472.5694 130.9204,466.3624 C123.4034,460.1604 116.9064,452.5104 111.5374,444.3934 C101.2274,428.8064 94.1744,410.4184 91.3544,391.8154 C88.0804,392.8534 84.3944,393.1704 81.6214,393.1764 C74.2434,393.1934 67.1984,390.5394 61.4004,386.0544 C40.1744,369.6374 37.8154,335.9304 52.7944,314.6744 C59.9624,304.5034 70.8544,296.9884 82.9754,294.1234 Z M83.1084,333.2174 C88.0304,332.7854 92.9484,333.5624 97.5744,335.2404 L99.4814118,335.931725 C103.509867,337.404646 107.797917,339.136572 110.7074,342.1564 C115.1524,346.7724 110.7264,354.7704 104.3944,353.0014 C97.3934,351.0454 91.7034,345.1494 84.7044,342.6764 C78.4484,340.4664 71.3624,340.7794 65.8104,344.5854 C65.0774,345.0884 64.1134,344.0964 64.5924,343.3664 C68.8394,336.8994 75.5444,333.8804 83.1084,333.2174 Z" id="Ink" fill="#000" blush:i="0.1.0.2"/></g></g><g id="Face" transform="translate(531.000000, 366.000000) scale(1 1)" fill="#000" blush:width="289" blush:height="293" blush:component="Face" blush:i="0.2" blush:value="Cheeky" blush:viewBox="52.90517241379308 55.670000000000016 184.65517241379308 205.10000000000002"><g id="Face/Cheeky" stroke="none" stroke-width="1" fill="none" fill-rule="evenodd" blush:viewBox="52.90517241379308 55.670000000000016 184.65517241379308 205.10000000000002" blush:i="0.2.0"><path d="M166.9438,221.352 C168.4778,218.685 172.0098,216.214 175.2418,216.593 C189.7208,218.291 189.6958,235.845 184.1048,246.093 C179.1478,255.18 168.8888,260.514 158.6208,259.735 C147.8338,258.916 138.6428,252.574 134.5978,242.483 C131.9228,235.808 130.6868,223.485 137.8028,219 C137.9348,218.916 138.1528,218.937 138.2578,219.058 C141.6698,223.027 141.8038,228.986 144.7908,233.405 C147.5688,237.515 151.8848,240.909 156.9408,241.433 C160.7168,241.825 164.5368,240.463 166.0138,237.073 C166.812891,235.239364 166.721899,234.243744 166.421516,232.981708 L166.148563,231.885055 C165.202801,228.043565 164.778057,225.118714 166.9438,221.352 Z M170.814304,144.367155 C178.365682,148.9572 189.871664,159.660291 181.748119,171.039573 C172.185929,181.073062 158.418535,169.568982 151.634201,164.366134 C145.343449,160.333898 138.275437,170.704507 144.112,175.412823 C193.135736,211.708059 213.030606,145.567387 174.633685,138.970386 C170.406047,138.243425 168.835891,142.947174 170.814304,144.367155 Z M91.0715,112.8926 C95.7065,105.9386 106.2865,106.9626 108.8395,115.2146 C110.2225,119.6846 108.3125,123.7026 108.4115,128.1666 C108.4945,131.9376 108.2475,136.1396 107.0915,139.7916 C104.4555,148.1196 96.9655,154.0016 88.1045,153.7576 C79.2725,153.5146 71.4935,147.9246 67.7945,140.0516 C64.0825,132.1486 64.8685,123.9696 67.5785,115.9336 C67.7085,115.5476 68.2145,115.3606 68.5195,115.6856 C71.7228333,119.089767 74.0678333,122.683517 76.4943148,126.495785 L78.9809333,130.40279 C80.8812656,133.344819 83.6431037,137.103142 87.1914615,136.867072 L87.7238987,136.814547 C88.7099852,136.729908 88.5588846,136.9256 89.3195,135.5816 C89.6715,134.9596 89.6075,133.8036 89.7775,133.0696 L89.8365,132.8216 L89.8365,132.8216 L89.8043384,132.68798 C89.7292832,132.332503 89.6547866,131.66266 89.5942529,130.500284 L89.5815,130.2436 C89.3245,124.8066 87.7875,117.8196 91.0715,112.8926 Z M208.5632,117.5221 C207.7322,108.6281 220.2362,106.6531 224.3932,113.2341 C226.561303,116.665997 227.192546,120.977055 227.67203,125.0615 L227.8962,127.0001 C228.3882,131.1951 228.5832,135.5591 226.7622,139.4721 C223.8942,145.6351 217.6572,148.8931 210.9292,148.3771 C204.5042,147.8831 198.6422,144.1581 195.5522,138.5031 C192.7972,133.4571 190.0582,123.6051 193.4042,118.3421 C193.6062,118.0231 194.0102,117.9821 194.2872,118.2281 C197.4492,121.0351 197.9642,126.1551 199.8442,129.8121 C201.7832,133.5841 204.7242,137.2601 209.1812,137.8331 C213.4452,138.3811 215.0742,136.0521 213.9862,131.9871 C212.5832,126.7391 209.0912,123.1691 208.5632,117.5221 Z M94.4489,60.0159 L96.4937284,59.2327124 C103.499922,56.5860716 113.118768,53.5268605 118.8149,59.2239 C122.3289,62.7369 122.9979,67.9119 120.4899,72.1989 C117.4509,77.3919 111.9999,77.5199 106.7359,78.2849 C100.7489,79.1549 94.6599,80.8089 89.0859,83.1669 C82.8069,85.8239 76.9799,89.1359 71.2709,92.8349 C65.8449,96.3499 60.4379,102.0949 53.9429,103.1779 C53.6779,103.2219 53.3769,103.1079 53.3079,102.8169 C51.8329,96.4669 55.9319,90.2179 59.5899,85.2639 C64.0159,79.2659 69.3789,74.3429 75.3729,69.9289 C81.1579,65.6679 87.7679,62.5889 94.4489,60.0159 Z M221.7162,82.5925 L222.340762,82.4830541 C226.589355,81.7757704 230.439386,81.9386395 233.6412,85.3035 C236.0852,87.8705 237.0272,91.1975 235.8622,94.5915 C234.7872,97.7225 232.3832,100.9035 228.8942,101.5595 C217.1152,103.7755 204.0682,103.4095 192.2302,101.7315 C186.814067,100.963367 181.349151,100.023624 176.073673,98.5415284 L173.646557,97.8379125 C169.242357,96.5798884 164.200291,95.2655909 161.0012,92.0265 C159.8512,90.8625 160.5142,89.1965 161.8902,88.6575 C167.4722,86.4715 175.1232,87.6345 181.0752,87.4635 C187.9992,87.2655 194.9342,86.7465 201.8252,86.0315 C208.5592,85.3315 215.0752,83.8105 221.7162,82.5925 Z" id="Ink" fill="#000" blush:i="0.2.0.0"/></g></g><g id="Beard" transform="translate(494.999934, 517.999659) scale(1 1)" fill="#000" blush:width="280" blush:height="230" blush:component="Beard" blush:i="0.3" blush:value="None" blush:viewBox="490 402.5 0 0"><g id="Beard/None" stroke="none" stroke-width="1" fill="none" fill-rule="evenodd" fill-opacity="0" blush:viewBox="490 402.5 0 0" blush:i="0.3.0"/></g><g id="Mask" transform="translate(400.000000, 480.000000) scale(1 1)" fill="#000" blush:width="397" blush:height="228" blush:component="Mask" blush:i="0.4" blush:value="None" blush:viewBox="694.75 399 0 0"><g id="Mask/None" stroke="none" stroke-width="1" fill="none" fill-rule="evenodd" fill-opacity="0" blush:viewBox="694.75 399 0 0" blush:i="0.4.0"/></g><g id="Accessories" transform="translate(419.000000, 421.000000) scale(1 1)" fill="#000" blush:width="392" blush:height="138" blush:component="Accessories" blush:i="0.5" blush:value="Sunglasses 2" blush:viewBox="-13.720000000000027 8.232954545454547 419.43999999999994 121.53409090909092"><g id="Accessories/Sunglasses 2" stroke="none" stroke-width="1" fill="none" fill-rule="evenodd" blush:viewBox="-13.720000000000027 8.232954545454547 419.43999999999994 121.53409090909092" blush:i="0.5.0"><path d="M398.9346,13.2313 C398.1116,13.0943 397.2876,12.9653 396.4636,12.8443 C395.8206,12.4793 395.0656,12.1983 394.1876,12.0293 C392.1826,11.5203 390.1916,11.1773 388.2036,10.9923 C359.6716,4.5713 293.6646,13.6883 290.9406,38.0363 C281.8546,41.0693 273.9926,38.3533 263.4616,38.6233 C255.4456,5.1183 116.8626,9.8473 110.1976,30.0473 C110.1726,30.0403 110.1476,30.0343 110.1216,30.0263 C103.7176,28.0443 94.2766,28.5223 86.9466,28.2083 C71.2956,27.8803 55.6266,29.2753 40.3136,32.5763 C11.6386,37.1333 -27.4964,42.4683 -7.5534,78.2763 C-7.5494,78.2823 -7.5464,78.2893 -7.5414,78.2953 L-7.5384,78.2923 C-4.1014,81.8153 1.7316,78.9783 1.9486,74.2093 C-4.7564,57.2453 10.3876,55.2083 22.0396,50.3333 C51.0326,39.9173 80.5506,38.4733 110.5366,41.6953 C112.7926,44.3513 116.2156,46.6673 119.8336,47.8793 C139.8826,51.2073 129.3166,66.0793 141.9896,68.2423 C139.6616,120.0843 202.6026,148.3823 239.0716,114.3033 C253.6326,100.0673 257.1036,78.9783 260.4796,59.9693 C262.2646,59.5683 263.3996,58.5923 264.0626,57.3003 C268.3556,53.0143 271.0526,49.0563 279.5416,47.8793 C288.0306,46.7033 294.5656,49.0643 295.4496,49.7873 C295.6726,50.2363 295.9116,50.6863 296.1896,51.1363 C296.5776,51.8073 297.1056,52.3423 297.7056,52.7633 C289.3226,104.3873 329.3996,137.0353 369.8586,110.2603 C387.4386,93.7233 391.1536,68.4053 391.8876,45.8073 C394.2706,44.3693 395.7796,41.5823 394.9546,38.0783 C393.8176,33.2483 396.4836,29.0663 400.7296,26.9663 C406.2466,24.2393 405.2706,14.2803 398.9346,13.2313 M225.086988,37.7223618 C220.065054,36.6178235 217.920374,44.3606372 222.95832,45.4681879 C226.525804,46.252514 229.549376,48.0515396 231.592155,51.0993468 L231.807252,51.4306867 C234.548399,55.792609 241.479828,51.7660647 238.719666,47.3760269 C235.614234,42.4357281 230.788453,38.9755108 225.086988,37.7223618 Z M372.1732,32.9216366 C370.402814,31.6745124 367.723715,32.6003163 366.69591,34.362557 C365.564701,36.303111 366.306135,38.4637159 367.964208,39.7331967 L368.133036,39.8571332 C369.653907,40.9290575 371.135119,42.8505012 371.321131,44.8192514 L371.337546,45.0655335 C371.536702,50.2177028 379.543974,50.24381 379.343817,45.0655335 C379.148664,39.999719 376.215367,35.767329 372.1732,32.9216366 Z" id="Ink" fill="#000" blush:i="0.5.0.0"/></g></g></g></svg>