<svg viewBox="165.0270270270271 191.625 825.1351351351352 1168.9125000000001" xmlns="http://www.w3.org/2000/svg" xmlns:blush="http://design.blush" overflow="visible" xmlns:xlink="http://www.w3.org/1999/xlink" width="825.1351351351352px" height="1168.9125000000001px"><g id="Master/Character/Bust" stroke="none" stroke-width="1" fill="none" fill-rule="evenodd" blush:has-customizable-colors="true" blush:viewBox="166.11320754716974 76.65000000000009 788.4636118598385 1272.3900000000003" blush:i="0"><g id="Body" transform="translate(147.000000, 639.000000) scale(1 1)" blush:width="818" blush:height="733" blush:component="Body" blush:i="0.0" blush:value="Blazer Black Tee" blush:viewBox="36.81000000000006 -50.72098214285717 793.4599999999998 764.9051339285717"><g id="Body/Blazer Black Tee" stroke="none" stroke-width="1" fill="none" fill-rule="evenodd" blush:viewBox="36.81000000000006 -50.72098214285717 793.4599999999998 764.9051339285717" blush:i="0.0.0"><path d="M735.554827,227.830846 C721.673827,162.068846 672.445327,111.039046 606.237327,85.6180462 C593.510842,78.4200005 581.174315,47.5341921 564.070668,41.877879 C561.328952,40.9711714 565.65651,48.1871104 564.070668,48.6180462 C558.414208,50.1551301 552.076298,50.3156366 545.831031,44.7648132 C534.669338,34.8442468 531.167613,5.86101292 524.381248,-7.23844877 C488.590248,-76.3244488 399.227827,-49.2931538 387.255827,27.0798462 C378.908197,32.520741 367.107734,37.3137447 358.021128,41.6981656 C348.664352,46.2129474 340.433923,57.1482465 330.791376,61.0578428 C322.187776,64.5461953 308.011514,62.0749875 299.342116,65.1160554 C259.468039,79.1031601 225.695912,96.7523794 199.218827,132.511846 C193.639827,140.053846 187.350827,149.325846 182.273827,156.944846 C156.099827,187.075846 137.919827,220.847846 121.175827,257.080846 C74.3298273,363.431846 61.5878273,481.185846 50.1558273,595.771846 C50.4158273,615.820846 37.1118273,671.414846 56.7888273,681.026846 C55.6128273,682.245846 56.0388273,684.694846 58.2208273,684.673846 C108.113827,684.169846 157.890827,688.634846 207.009827,697.315846 C230.708827,701.504846 254.280827,707.248846 278.420827,708.192846 C328.531827,707.846846 378.462827,699.449846 428.507827,707.395846 C488.670056,707.395846 561.785612,705.642806 628.715338,703.06989 C691.267754,700.665247 754.155368,706.096156 815.932827,695.458846 C820.822827,694.684846 823.210827,688.720846 822.185827,684.446846 C814.937827,658.036846 811.379827,630.854846 807.312827,603.823846 C808.122827,586.485846 806.673827,568.385846 800.259827,552.236846 C783.501827,443.218846 762.012827,334.911846 735.554827,227.830846 Z" id="Skin" fill="#ffdbb4" blush:color="Skin-500" blush:i="0.0.0.0"/><path d="M564.070764,49.0177925 C565.656606,48.5868566 561.329048,41.3709176 564.070764,42.2776253 C581.174411,47.9339383 593.510938,78.8197467 606.237423,86.0177925 C672.445423,111.438792 721.673923,162.468592 735.554923,228.230592 C762.012923,335.311592 783.501923,443.618592 800.259923,552.636592 C806.673923,568.785592 808.122923,586.885592 807.312923,604.223592 L807.951463,608.492765 C811.764671,634.113717 815.319397,659.826592 822.185923,684.846592 C823.210923,689.120592 820.822923,695.084592 815.932923,695.858592 C754.85748,706.375024 692.69697,701.186348 630.848031,703.39066 L617.956796,703.874165 C554.02356,706.224557 485.4615,707.795592 428.507923,707.795592 C378.462923,699.849592 328.531923,708.246592 278.420923,708.592592 C254.280923,707.648592 230.708923,701.904592 207.009923,697.715592 C157.890923,689.034592 108.113923,684.569592 58.2209232,685.073592 C56.0389232,685.094592 55.6129232,682.645592 56.7889232,681.426592 C37.1119232,671.814592 50.4159232,616.220592 50.1559232,596.171592 L51.1892257,585.850692 C62.3831368,474.530615 75.7353032,360.641062 121.175923,257.480592 L122.536821,254.548198 C138.908465,219.424739 156.807329,186.661241 182.273923,157.344592 L183.831461,155.012685 C188.601623,147.888492 194.197823,139.699392 199.218923,132.911592 C225.696008,97.1521256 259.468135,79.5029063 299.342212,65.5158017 C308.01161,62.4747337 322.187872,64.9459415 330.791472,61.4575891 C339.810065,57.8009766 347.593379,47.9984878 356.218298,43.0513536 L356.218327,79.9515681 L481.019592,202.890134 L551.802936,94.3540389 L559.001545,49.9017146 C560.735935,49.7929034 562.43195,49.463123 564.070764,49.0177925 Z" id="Jacket" fill="#8FA7DF" blush:i="0.0.0.1"/><path d="M715.367527,371.127646 C714.047527,377.537646 712.197527,383.947646 709.737527,390.018646 C707.367527,395.877646 703.797527,401.127646 701.338527,406.917646 C701.008527,407.697646 700.468527,408.287646 699.817527,408.737646 L700.020402,410.312646 L700.020402,410.312646 L700.207527,411.887646 C701.434099,422.516218 702.813486,433.115401 704.008151,443.742503 L704.588527,449.058646 C706.937527,471.247646 710.647527,493.327646 713.527527,515.457646 C716.347527,537.127646 719.218527,558.797646 722.287527,580.437646 C725.457527,602.747646 728.687527,625.027646 732.457527,647.247646 C734.049194,656.631813 735.710305,666.008341 737.440861,675.37723 L738.777527,682.547646 C752.537527,685.857646 756.297527,705.037646 742.287527,712.117646 C735.928527,715.317646 727.758527,714.547646 722.517527,709.518646 C717.071287,704.277535 716.8452,694.825814 715.581216,687.726914 L714.363561,681.130206 C705.252238,631.526622 697.344487,581.351646 693.647527,531.047646 C692.697527,518.058646 691.897527,505.058646 691.377527,492.047646 C690.883444,479.810146 691.119562,467.573487 690.9305,455.335356 L690.867527,451.997646 C690.578527,438.947646 690.817527,425.917646 691.157527,412.867646 C691.197527,411.277646 691.267527,409.687646 691.347527,408.087646 C690.888527,407.547646 690.557527,406.907646 690.418527,406.287646 L690.237527,405.467646 C689.787527,403.357646 690.297527,400.887646 691.918527,399.377646 C692.617527,390.487646 693.537527,381.607646 693.787527,372.727646 C693.807527,371.997646 694.857527,372.018646 694.918527,372.727646 C695.508527,380.287646 696.687527,387.867646 697.867527,395.437646 C705.457527,389.337646 711.067527,379.277646 714.377527,370.857646 C714.617527,370.247646 715.508527,370.467646 715.367527,371.127646 Z M535.787327,17.7070462 C537.047327,23.4670462 539.537327,28.6380462 542.877327,33.4480462 C544.468327,35.7480462 546.277327,37.8880462 548.447327,39.6780462 C550.308327,41.2070462 552.428327,42.2070462 554.407327,43.5380462 C557.287327,43.0870462 560.297327,44.1780462 562.317327,46.2970462 L561.998327,43.1980462 C561.897327,42.1980462 563.558327,41.9980462 563.748327,42.9670462 C572.496952,87.0887129 580.475956,131.23885 587.382571,175.679738 L590.409962,195.305515 L593.258526,213.729991 C597.98819,244.431683 602.563142,275.12112 606.008327,306.047046 C610.598327,347.318046 614.457327,388.698046 617.277327,430.137046 C620.107327,471.868046 621.848327,513.627046 623.088327,555.438046 C623.397327,565.978046 623.728327,576.508046 624.047327,587.047046 L626.183359,574.446374 C628.31514,561.843046 630.405577,549.228046 632.197327,536.568046 C638.627327,491.258046 643.768327,445.627046 646.277327,399.928046 C648.578327,358.108046 647.808327,315.458046 637.168327,274.717046 C634.487327,264.467046 631.207327,254.377046 627.248327,244.547046 C623.407327,234.988046 618.168327,226.127046 614.037327,216.708046 C609.237327,205.748046 607.797327,195.408046 610.268327,183.608046 C612.428327,173.328046 616.218327,163.658046 616.897327,153.078046 C618.168327,133.438046 611.777327,114.417046 602.748327,97.2280462 C600.367327,92.6980462 597.857327,88.2280462 595.237327,83.7970462 C587.308327,70.4080462 578.367327,57.5070462 569.088327,45.1380462 C568.588327,44.4780462 569.647327,43.7480462 570.188327,44.2880462 C578.647327,52.6480462 587.897327,60.8680462 595.508327,69.9980462 C599.207327,74.4380462 602.817327,78.9670462 606.237327,83.6180462 C643.758327,89.8880462 675.998327,113.257046 698.037327,144.118046 C723.047327,179.138046 735.697327,221.288046 745.058327,262.797046 C755.468327,308.928046 764.248327,355.478046 773.598327,401.837046 C783.277327,449.808046 792.907327,497.778046 802.647327,545.738046 C807.487327,569.547046 812.328327,593.358046 817.157327,617.178046 C819.607327,629.238046 822.178327,641.268046 824.867327,653.288046 C826.248327,659.448046 827.728327,665.598046 829.008327,671.778046 C830.447327,678.748046 829.107327,683.207046 824.388327,688.328046 C822.647327,690.228046 819.897327,690.198046 817.737327,689.188046 L817.062093,688.870113 L816.409471,688.555003 C813.73671,687.24147 811.641258,685.880322 809.978327,682.957046 C808.147327,679.748046 807.857327,676.188046 807.228327,672.618046 C806.067327,666.047046 804.918327,659.478046 803.758327,652.898046 C802.025077,643.058046 800.140515,633.246171 798.222343,623.436687 L788.598577,574.413796 C786.032327,561.342546 783.462327,548.272546 780.877327,535.208046 C771.647327,488.488046 762.407327,441.778046 753.168327,395.068046 C744.297327,350.217046 736.447327,305.058046 726.348327,260.467046 L725.774148,257.954967 L725.19021,255.446244 C716.159567,217.005928 703.541911,179.821796 680.647327,147.248046 C663.027327,122.198046 638.558327,99.8280462 609.737327,88.5070462 C611.768327,91.4280462 613.718327,94.4080462 615.578327,97.4480462 C627.258327,116.528046 635.787327,139.178046 633.787327,161.898046 C632.808327,172.998046 628.588327,183.908046 628.987327,195.098046 C629.357327,205.038046 635.508327,213.768046 639.758327,222.417046 C649.407327,242.018046 656.388327,262.848046 660.888327,284.217046 C669.918327,327.127046 669.888327,371.278046 666.777327,414.837046 C663.397327,462.188046 656.978327,509.528046 649.668327,556.417046 C645.918327,580.467046 640.928327,604.318046 637.107327,628.328046 C635.218327,640.167046 632.647327,651.978046 630.397327,663.758046 L629.324994,669.386083 C628.724624,672.509478 628.101722,675.622791 627.382216,678.703045 L626.938327,680.547046 L626.938327,680.877046 C626.918327,683.148046 626.297327,685.028046 625.297327,686.528046 C623.928327,690.917046 622.228327,695.198046 619.968327,699.308046 C618.808327,701.408046 617.127327,702.587046 615.297327,703.018046 C613.457327,707.228046 609.287327,710.467046 604.308327,710.448294 L538.817327,710.198046 C500.777327,710.047046 462.737327,709.797046 424.697327,709.587046 C415.098327,709.538046 405.508327,709.358046 395.918327,709.108046 C386.928327,708.858046 378.308327,707.778046 369.418327,706.658046 C359.377327,705.398046 353.938327,698.288046 355.438327,688.258046 C355.768327,686.047046 356.127327,683.848046 356.468327,681.648046 C354.468327,682.308046 352.088327,681.998046 350.478327,680.428046 L348.968883,678.950775 C346.876525,676.880892 345.005137,674.848332 343.678327,672.087046 C342.308327,669.248046 341.197327,666.248046 339.987327,663.348046 C337.377327,657.108046 334.838327,650.848046 332.367327,644.558046 C327.418327,631.978046 322.468327,619.348046 317.867327,606.637046 C308.758327,581.467046 300.697327,555.917046 293.688327,530.078046 C281.188327,483.978046 272.147327,436.988046 266.447327,389.578046 L265.084545,378.278536 L264.688294,374.940794 C262.526802,356.565177 260.707705,337.904293 261.567327,319.568046 C262.098327,308.087046 263.877327,296.518046 268.168327,285.797046 C272.127327,275.908046 278.237327,267.448046 284.047327,258.608046 L284.712186,257.587624 L285.3806,256.542324 C290.461737,248.513112 294.504762,240.118806 294.707327,230.368046 C294.912625,220.472911 292.029863,210.842845 288.806657,201.579169 L288.003329,199.294562 L287.464161,197.782446 C280.607172,178.636621 272.803777,159.761546 275.377327,138.928046 C279.178327,108.248046 297.777327,83.5180462 321.178327,64.4480462 C300.367327,68.5680462 279.768327,76.7070462 261.588327,87.0280462 C240.117327,99.2280462 220.787327,115.328046 204.117327,133.498046 C172.617327,167.837046 150.127327,209.038046 131.718327,251.578046 C112.447327,296.098046 98.1573273,342.748046 87.3883273,390.008046 C76.5583273,437.538046 69.3083273,485.828046 64.3573273,534.308046 C61.8883273,558.438046 59.9473273,582.627046 58.3383273,606.828046 C57.5183273,619.228046 56.8983273,631.648046 55.9383273,644.028046 C54.9783273,656.398046 54.5473273,668.957046 51.5273273,680.998046 C50.1173273,686.608046 40.6073273,687.178046 39.5883273,680.998046 C37.3268567,667.196282 37.9588756,652.923496 38.5900323,638.947731 L38.6473273,637.678046 C39.2683273,623.758046 40.0783273,609.848046 41.0373273,595.938046 C42.9983273,567.508046 45.6173273,539.118046 49.0373273,510.818046 C61.0273273,411.478046 83.1383273,312.658046 126.508327,221.978046 C146.928327,179.268046 173.138327,137.768046 209.598327,106.928046 C226.957327,92.2570462 246.527327,80.5470462 267.617327,72.0680462 C286.478327,64.4780462 305.638327,60.8880462 325.678327,60.8980462 C335.728327,53.1980462 346.518327,46.4880462 357.297327,40.7570462 C357.947327,40.4080462 358.627327,41.2480462 358.088327,41.7880462 C357.808327,42.0580462 357.537327,42.3370462 357.258327,42.5980462 C358.478327,42.6780462 359.737327,43.2480462 360.867327,44.4380462 C364.828327,48.5870462 368.168327,53.7780462 371.157327,59.1670462 C375.707327,64.8480462 380.047327,70.7170462 384.588327,76.3370462 C391.857327,85.3370462 399.297327,94.2070462 406.828327,103.007046 C419.475696,117.796415 432.53502,132.305761 446.153396,146.231539 L448.428327,148.547046 C455.487327,155.698046 462.638327,164.257046 470.987327,169.917046 L471.433089,170.213549 C474.955606,172.508453 477.453487,172.925246 480.457327,169.498046 C483.188256,166.378046 485.461332,162.757944 487.797784,159.318298 L488.338327,158.528046 C500.268327,141.198046 511.328327,123.228046 521.338327,104.728046 C525.901055,96.3089553 530.241468,87.7675504 534.359567,79.13163 L535.588327,76.5380462 C537.828327,71.7780462 540.258327,67.1080462 542.107327,62.2070462 C542.537327,61.0580462 542.957327,59.9080462 543.367327,58.7680462 C537.067327,54.6380462 532.188327,45.6980462 530.418327,38.6980462 C528.578327,31.4280462 529.508327,23.9670462 532.787327,17.3180462 C533.407327,16.0680462 535.487327,16.3770462 535.787327,17.7070462 Z M224.99925,313.137246 C224.127427,340.778246 223.598427,368.448246 222.297427,396.068246 L221.848427,405.497246 C223.877427,407.758246 225.067427,410.367246 224.117427,413.948246 C223.748427,415.318246 222.657427,416.558246 221.297427,417.018246 L220.873413,425.785121 C218.943538,465.229875 216.68122,504.592729 212.547427,543.938246 C207.377427,593.178246 201.397427,642.337246 195.428427,691.488246 C194.578427,698.448246 189.737427,703.967246 182.207427,702.948246 C174.588427,701.917246 171.498427,695.287246 172.498427,688.377246 C176.428427,661.268246 180.207427,634.137246 183.518427,606.938246 L187.288338,575.949408 C192.01556,537.212315 196.853954,498.481194 202.428427,459.867246 C204.758427,443.728246 207.178427,427.598246 209.607427,411.467246 L208.758427,410.367246 C205.287427,405.858246 201.697427,401.448246 198.147427,397.008246 C191.328427,388.448246 184.598427,379.957246 178.348427,370.997246 C178.037427,370.547246 178.668427,369.887246 179.117427,370.228246 C187.877427,376.698246 196.168427,383.617246 204.508427,390.648246 L211.808427,396.827246 C216.008427,368.957246 220.168427,341.077246 223.877427,313.137246 C223.968427,312.438246 225.018427,312.387246 224.99925,313.137246 Z M351.008327,48.6180462 C345.737327,53.5870462 340.348327,58.4480462 335.037327,63.3880462 L333.092013,65.2061167 L331.155696,67.0325552 C321.822062,75.8837487 312.87957,85.0974402 305.428327,95.6780462 C291.748327,115.108046 283.598327,138.797046 289.287327,162.518046 C294.008327,182.167046 304.838327,199.978046 307.748327,220.118046 C309.207327,230.208046 308.498327,240.348046 304.697327,249.877046 C300.817327,259.598046 294.617327,267.928046 289.047327,276.698046 C276.947327,295.758046 275.297327,316.678046 276.498327,338.758046 C277.758327,361.818046 280.407327,384.887046 283.678327,407.738046 C290.297327,454.038046 300.277327,499.858046 313.487327,544.728046 C320.098327,567.198046 327.907327,589.188046 335.678327,611.268046 C339.547327,622.258046 344.058327,632.988046 348.707327,643.667046 C351.157327,649.288046 353.668327,654.877046 356.218327,660.457046 C355.277327,652.578046 355.277327,644.488046 354.817327,636.658046 C354.157327,625.438046 353.317327,614.238046 352.547327,603.028046 C350.978327,580.278046 349.578327,557.508046 348.328327,534.738046 C343.898327,453.538046 340.638327,372.268046 340.877327,290.938046 C340.998327,250.268046 341.828327,209.598046 343.578327,168.967046 C344.398727,149.833713 345.987447,130.718673 347.423316,111.61217 L347.728327,107.518046 C348.998327,90.3680462 350.518327,73.1780462 353.127327,56.1780462 C352.354883,54.4349351 351.684364,52.6697006 351.186707,50.8591656 L351.008327,50.1780462 L351.138327,50.1980462 C351.018327,49.6670462 350.978327,49.1380462 351.008327,48.6180462 Z M396.588527,-21.2621538 C396.697527,-21.7321538 397.367527,-21.6921538 397.487527,-21.2621538 C400.457527,-11.2621538 399.407527,-0.262153771 396.848527,9.79784623 C395.468527,15.2478462 393.508527,20.5378462 391.138527,25.6378462 L390.309157,27.4226118 C388.278519,31.7660189 385.992073,36.2411796 382.037527,38.9478462 C380.388527,40.0778462 377.437527,40.1478462 375.787527,38.9478462 L374.946046,38.3093277 C374.807527,38.2011796 374.670861,38.0911796 374.537527,37.9778462 C372.998527,36.6878462 372.237527,33.8378462 372.947527,31.9578462 C374.777527,27.1078462 378.928527,23.5478462 381.797527,19.2278462 C384.338527,15.3878462 386.588527,11.3378462 388.457527,7.12784623 C392.487527,-1.98215377 394.297527,-11.6521538 396.588527,-21.2621538 Z" id="Ink" fill="#000" blush:i="0.0.0.2"/></g></g><g id="Head" transform="translate(372.000000, 180.000000) scale(0.9978902953586498 1)" blush:width="473" blush:height="567" blush:component="Head" blush:i="0.1" blush:value="Cornrows 2" blush:viewBox="-49.327751196172244 22.680000000000007 487.6076555023924 558.4949999999999"><g id="Head/Cornrows 2" stroke="none" stroke-width="1" fill="none" fill-rule="evenodd" blush:viewBox="-49.327751196172244 22.680000000000007 487.6076555023924 558.4949999999999" blush:i="0.1.0"><path d="M154.012273,59.3368084 L162.6492,69.6084 C157.866656,72.9785856 153.352072,76.3650077 149.105449,79.7676665 L149.101501,79.7574477 C168.772333,66.9232668 190.557824,59.3368084 214.092229,59.3368084 C259.420488,59.3368084 351.492512,98.2737499 372.306108,126.358976 C382.63519,140.296721 401.829756,183.084374 411.786376,229.602142 C419.786376,266.978497 431.684994,372.572264 419.786376,412.249578 C404.558147,463.029869 354.457078,509.963551 302.796771,509.963551 C251.136464,509.963551 170.932706,472.667686 113.850306,390.935886 C111.240138,387.198591 81.2662975,382.866523 59.8837667,368.839219 L65.4977424,430.687175 L69.7645361,466.664661 L68.8229558,469.22514 C53.5086813,510.642032 41.3730655,532.249378 32.4161085,534.04718 C23.2763564,535.881671 4.66320274,520.899571 -23.4233526,489.100881 L-27.0121741,474.037505 C-36.1277921,435.612003 -40.6856012,414.986233 -40.6856012,412.160195 L-40.6793035,411.645463 C-40.5449254,405.142273 -38.3045967,368.333489 -38.2584329,358.427928 L-38.2577094,209.9639 C-8.05157467,109.545839 20.7735199,59.3368084 48.2175743,59.3368084 L154.012273,59.3368084 Z" id="Skin" fill="#ffdbb4" blush:color="Skin-500" blush:i="0.1.0.0"/><path d="M82.4392,25.1384 C91.3202,21.6984 101.6092,22.3484 110.0392,27.5284 C126.5902,26.8184 143.0502,36.4984 151.6792,50.6284 C151.8592,50.8284 152.0502,51.0284 152.2202,51.2284 L154.049014,53.359888 C155.780796,55.3953378 157.607333,57.6388 159.0542,59.9554 C151.9662,60.1174 146.0612,63.0064 141.9392,68.8414 C138.998212,73.0048353 145.735419,76.9612295 148.741451,73.0234059 L148.8472,72.8794 C151.3222,69.3764 155.0582,68.0194 159.2172,67.9484 C160.4112,67.9284 161.3172,67.4714 161.9572,66.7974 C162.2122,67.7264 162.4402,68.6654 162.6492,69.6084 C183.5912,61.4634 206.1672,59.3064 228.6522,61.2384 C227.6662,62.8344 226.8422,64.5444 226.2082,66.3414 C225.4892,68.3784 227.0232,70.7174 229.0022,71.2614 C231.142169,71.8494312 233.076611,70.595233 233.850921,68.6570613 L233.9222,68.4674 C234.7862,66.0194 236.1972,63.9184 238.0912,62.2894 C248.6762,63.7244 259.1862,66.0064 269.4392,68.9484 C281.7622,72.4874 293.9692,76.8064 305.9072,81.7514 C303.8852,82.5444 302.1382,83.8844 300.9152,86.1214 C298.473617,90.5866024 305.186124,94.5860943 307.732982,90.3173078 L307.8232,90.1594 C308.072978,89.7016222 308.294311,89.426363 308.456297,89.26971 L308.5142,89.2164 L308.8662,89.0544 L309.5222,88.8664 L309.5222,88.8664 L309.774065,88.8045716 C309.996277,88.7545124 310.088585,88.7577077 310.6732,88.7254 C311.4512,88.6814 312.2302,88.6854 313.0092,88.6844 C314.8412,88.6834 316.0102,87.6624 316.5392,86.3564 C322.4302,89.0154 328.2462,91.8154 333.9592,94.7484 L335.3174,95.4514975 C352.951538,104.66515 369.6577,116.7649 379.3492,134.5684 C379.9902,135.7584 380.1892,137.0584 380.0302,138.2984 C382.0992,140.7784 384.0992,143.3384 386.0192,145.9384 C391.8792,153.8984 396.1692,162.9484 400.2292,171.9184 C408.3992,189.9584 413.8992,208.4884 418.1892,227.8084 C422.3402,246.4284 425.6892,265.2484 428.8002,284.0684 C432.2492,304.9784 435.1192,326.0684 435.7202,347.2784 C436.7802,385.0884 429.3892,423.1184 408.1592,454.9484 C389.2202,483.3484 360.7002,505.8984 326.8792,513.1184 C292.4792,520.4584 256.0792,513.2984 228.9702,490.3784 C224.5992,486.6884 225.2002,479.2384 228.9702,475.4584 C233.2402,471.1984 239.5392,471.7884 243.8892,475.4584 C269.4192,497.0484 306.5792,500.3784 337.3402,489.3784 C365.7802,479.1984 388.0592,455.7184 401.7292,429.3484 C418.4092,397.1884 421.2202,360.2484 418.6592,324.6684 C417.2602,305.1284 414.3492,285.7484 411.3492,266.3984 L409.538403,254.750755 C407.562761,242.134801 405.487259,229.536047 402.7802,217.0484 L402.1465,214.139043 C398.837964,199.080126 394.962594,183.635067 388.9702,169.4784 C385.8292,162.0484 382.0502,154.8884 378.1802,147.8184 C377.4302,146.4484 376.6592,145.0584 375.8692,143.6584 C374.8092,144.0284 373.5992,144.0884 372.3292,143.6884 C361.3992,140.2884 350.1692,138.0084 338.7402,137.2484 C333.5332,136.9004 328.3182,136.8464 323.1092,137.0494 C314.1922,136.5304 305.0262,137.3144 296.5322,140.0484 C295.7012,139.3354 294.8592,138.6374 294.0162,137.9394 C293.7892,137.9214 293.5622,137.8974 293.3342,137.8524 C291.1672,137.4264 289.6432,135.8864 288.7252,133.9414 C288.6772,133.8384 288.6342,133.7354 288.5932,133.6324 C287.5062,132.8014 286.4102,131.9834 285.3042,131.1764 C282.6082,131.8754 280.2462,129.6324 279.6102,127.1744 C279.0102,126.7694 278.4002,126.3774 277.7942,125.9804 C277.3192,126.0964 276.8472,126.1924 276.3872,126.2264 C274.4022,126.3694 272.4852,126.0654 270.7262,125.1184 C268.4992,123.9194 267.0762,121.9854 266.1242,119.7884 C262.7562,119.9954 259.3482,118.9024 256.3372,116.9264 C253.8932,115.3234 252.0212,113.1104 250.1602,110.9014 C227.4822,100.7864 202.8302,94.8144 178.1202,93.2844 C175.6862,93.7524 173.2692,94.3094 170.8822,94.9574 C170.3172,95.1114 169.5152,95.4134 168.5922,95.7754 C174.1012,95.1094 179.6812,95.0434 185.3402,95.8584 C212.1942,99.7414 233.1092,119.8474 251.1102,138.8264 C255.3922,137.9614 259.7202,143.5064 255.7572,147.1784 L224.8602,175.8094 L224.8602,175.8094 C225.6182,179.0114 221.9462,182.1674 218.7292,181.3984 C213.3352,180.1024 207.9322,178.8424 202.5252,177.6034 C196.8852,180.3324 189.7942,179.8654 184.6782,175.9094 C184.4402,175.7254 183.9232,175.4314 183.4742,175.1394 C183.0542,175.4864 182.4892,175.8344 182.2642,175.9824 C180.4452,177.1864 178.2292,177.5404 176.1042,177.2024 C173.9182,176.8554 171.9452,175.7464 170.2442,174.3654 C169.161297,173.485723 166.638019,169.815202 165.233797,169.54487 L165.0972,169.5294 C166.0342,169.5564 163.0222,172.3554 162.2132,172.9344 C160.3252,174.2814 158.2382,174.9894 155.8892,174.7314 C151.795175,174.28095 148.275327,170.549893 146.2732,167.104784 L146.1222,166.8404 L146.0592,166.6764 L146.006015,166.853807 C145.996089,166.885178 145.984867,166.918733 145.9712,166.9564 C145.6712,167.7674 144.7292,168.6894 144.0892,169.2564 C142.2652,170.8694 140.0072,171.5784 137.5952,171.1574 C135.55365,170.8021 133.837,169.568667 132.457253,168.076127 L132.2422,167.8384 C131.833958,167.377794 129.144518,163.764321 129.569107,162.898355 L129.6182,162.8254 L129.4842,162.7974 C127.8482,163.1994 126.4752,162.7964 125.4692,161.9534 C119.8552,160.7234 114.3142,159.2904 108.9502,157.4684 C108.5302,158.6484 108.1192,159.8284 107.7202,161.0184 C110.6492,162.8284 113.3592,165.4084 115.8492,167.2484 C120.5702,170.7284 125.2892,174.2084 129.9992,177.6984 L148.6612,191.4644 L148.6612,191.4644 L150.7952,190.8914 L150.7952,190.8914 C153.522283,190.159317 155.861828,191.746794 156.862711,194.173386 L156.9452,194.3834 C157.3422,195.4464 157.8202,196.4294 158.3822,197.3704 C163.0472,197.1844 166.9972,200.0484 168.2742,204.1564 C169.4262,204.1304 170.5902,204.1744 171.7802,204.3054 C175.039133,204.663267 177.235896,207.083332 176.645774,210.406439 L176.6012,210.6344 L176.5222,211.0044 C178.4112,211.8064 179.7812,213.3554 180.0852,215.6974 C180.5912,216.4584 180.9992,217.2864 181.2602,218.2084 C182.623328,222.992503 179.971548,228.906362 178.559043,233.489392 L178.4502,233.8484 C177.5436,236.8604 176.60532,239.858 175.656096,242.85416 L173.291676,250.292987 C166.735572,271.025151 160.343586,292.883855 165.6492,314.6184 C166.7802,319.2184 160.8992,321.2984 158.3492,317.6984 C152.1672,308.9824 145.4882,300.7694 138.4752,292.8854 L138.1352,292.8314 L138.1352,292.8314 C133.2242,291.8444 131.3172,288.3754 129.0632,284.8394 C127.7352,285.2304 126.3072,285.3224 124.9272,285.0564 C122.9292,284.6714 121.1392,283.5304 119.7262,282.0894 C118.5292,280.8674 117.4322,277.7334 116.0172,276.9564 C114.2472,275.9854 110.6892,277.3734 108.5752,277.0614 C106.8562,276.8084 105.2512,276.2184 103.6942,275.4774 C100.8322,279.3784 98.9352,283.9644 98.4702,288.9084 C98.2892,290.7884 97.7292,292.3784 96.9192,293.6984 C99.8992,293.5884 102.8892,293.7984 105.8402,294.3484 C116.7602,296.3784 124.5902,303.1184 128.9902,313.1584 C129.1792,313.5984 128.6092,313.9584 128.3492,313.5384 C121.8202,303.4884 107.6092,302.9784 97.2892,306.5184 C86.3292,310.2784 80.1792,319.9284 77.9902,330.9384 C75.5902,343.0084 78.6692,356.0184 85.2402,366.2984 C88.2892,371.0784 92.4502,375.4384 97.9792,377.1984 C104.5502,379.2884 110.6192,375.5484 117.3492,377.4784 C121.9292,378.7884 123.9502,383.2184 123.1192,387.6484 C122.7892,389.3884 122.1792,390.9084 121.3592,392.2284 C123.7802,397.0284 126.0192,401.9684 128.8692,406.5084 C133.2692,413.5184 138.5902,419.3184 144.3892,425.1684 C150.3792,431.2084 156.4792,437.1284 162.8892,442.7284 C169.0302,448.0984 176.0702,451.9184 182.5102,456.8384 C187.0302,460.2884 189.2692,465.1284 187.0392,470.6684 C185.2002,475.2484 178.9992,479.1484 173.9792,477.0784 C164.3692,473.1184 155.9592,466.3784 148.3002,459.4384 C141.2002,452.9984 135.0192,445.2984 130.3492,436.9384 C125.94376,429.0568 122.697693,420.106144 119.958948,411.484315 L119.6192,410.4084 C118.3292,406.3084 116.9702,401.6984 116.0902,397.0484 C110.8202,399.9284 103.6692,400.3484 98.0302,399.5684 C88.9192,398.3184 80.6092,393.7284 74.3292,387.0384 C71.4022,383.9254 68.8152,380.3744 66.5812,376.5254 C66.7842,378.8684 66.9052,381.1354 67.0352,383.1984 C72.2562,388.9164 74.3502,397.1684 72.4972,404.6974 C76.8652,409.1934 78.0892,415.9424 75.8092,421.6884 C80.5902,426.4304 80.4102,433.9764 78.3432,440.8294 C83.9952,447.1464 84.5302,456.9874 80.1172,464.1154 L79.9842,464.6274 L79.9842,464.6274 C84.4402,472.0834 83.4352,481.7194 77.8522,488.3034 C81.6652,495.6994 81.0752,505.6474 71.5462,508.5174 C68.0732,509.5624 64.7072,508.6704 62.1882,506.7244 C64.4882,518.1634 65.5172,529.7764 62.4502,541.2684 C61.2292,545.8284 56.7692,549.1584 52.0792,549.1584 C48.1592,549.1584 45.3092,547.1884 43.3402,544.2884 C43.5702,550.0584 43.2202,555.8584 41.9902,561.7084 C41.2482,565.2414 37.9712,567.9964 34.4922,568.8494 C35.7472,570.2644 36.2472,572.3114 35.0442,574.4424 C29.9432,583.4724 17.6182,579.7274 16.7852,571.0764 C13.3042,568.4784 11.6862,564.2124 11.0162,559.6034 C10.0402,552.8814 9.6862,546.2704 8.5802,539.6344 L8.15738519,540.029881 L8.15738519,540.029881 L7.9392,540.2184 L7.8692,540.6984 C7.2352,543.9784 5.3852,546.2754 2.9842,547.6454 C3.5062,553.3674 2.5402,559.1944 -1.0898,563.5394 C-3.5078,566.4354 -7.6268,567.5754 -11.1578,566.9474 C-11.3798,566.9584 -11.6068,566.9574 -11.8428,566.9264 C-19.8398,565.8634 -24.4668,558.2784 -22.3618,551.3164 C-25.5818,547.3704 -26.9378,542.3634 -25.9848,537.4154 C-32.2158,533.2894 -32.0888,524.2274 -29.9308,516.9484 C-36.4628,511.7934 -38.9198,502.1564 -35.6378,494.4974 C-41.5248,487.1864 -42.3438,476.9984 -38.3438,468.6734 C-44.8208,463.3524 -44.7838,453.0794 -38.3598,447.6374 C-41.7808,440.8464 -43.8438,432.7094 -40.4248,426.4944 C-42.8368,423.8324 -44.1608,420.0384 -43.8818,416.3724 C-43.4728,410.9884 -39.9108,407.2684 -35.4908,404.7894 L-35.1848,403.1054 L-35.1848,403.1054 C-34.1468,403.2344 -33.0408,402.9444 -32.0658,402.0084 C-31.1008,401.0814 -30.1078,400.3344 -29.0808,399.7184 C-27.9178,399.7034 -26.9168,399.1854 -26.2128,398.3884 C-24.2868,397.7344 -22.2158,397.4454 -19.9188,397.4194 C-14.9578,397.3654 -14.7828,389.9464 -19.3998,389.4654 C-20.1288,388.7304 -21.1328,388.2674 -22.2218,388.2674 L-23.0745344,388.270832 C-25.0682219,388.289822 -27.08105,388.41265 -28.9308,389.2054 C-30.1328,389.7194 -31.0598,390.4944 -31.7388,391.4424 C-31.8658,392.8764 -32.6458,394.3064 -34.3348,395.4874 C-36.2858,396.8514 -38.9538,397.0104 -41.0418,395.7764 C-43.9648,394.0484 -43.9948,391.3514 -43.6578,388.4194 C-42.9198,382.0054 -46.6078,375.9694 -45.7298,369.4074 C-45.3408,366.5064 -44.3748,364.0014 -42.7998,361.9784 C-46.1208,357.0074 -46.7068,350.5904 -44.1498,345.1334 C-49.4768,339.4024 -50.3978,330.5684 -47.0008,323.6714 C-46.9518,323.5044 -46.9138,323.3334 -46.8608,323.1684 C-46.4768,321.9964 -45.9478,320.9394 -45.3648,319.9284 C-48.3468,314.7624 -48.3248,308.4234 -45.2938,303.2794 C-49.8848,297.9274 -50.0308,289.4104 -45.9478,283.6444 C-45.9238,283.1664 -45.8738,282.6884 -45.8328,282.2104 C-47.7068,277.3454 -47.2568,271.8144 -44.8798,267.2904 C-45.7278,265.3354 -46.3818,263.2304 -46.7998,260.9884 C-47.8708,255.2084 -47.3198,249.5884 -45.7198,243.9484 C-45.4608,243.0584 -45.1708,242.1684 -44.8608,241.2784 C-44.8088,237.4154 -44.6618,233.5694 -44.4678,229.7304 C-45.228175,226.48065 -45.3507844,222.909337 -45.3675461,219.593935 L-45.3723419,217.444063 C-45.4095807,211.972936 -45.7909111,203.962089 -42.3318,199.3114 C-44.5528,194.2874 -43.6398,187.9574 -39.9328,183.9754 C-42.5348,179.5004 -43.0808,174.0054 -40.4658,169.0404 C-40.0458,168.2414 -39.5588,167.4974 -39.0248,166.7934 C-39.2408,162.2464 -38.2838,157.5574 -35.8608,153.0384 C-34.2868,150.0964 -31.9358,147.5494 -29.1408,145.5114 C-29.1878,144.9084 -29.2168,144.3064 -29.2068,143.7134 C-29.1578,141.0674 -28.5708,138.4104 -27.5828,135.9314 C-29.3558,132.9054 -30.1778,129.4944 -29.1408,125.8184 C-27.9808,121.6584 -24.9298,118.0784 -21.1208,116.0584 C-20.8138,112.1364 -20.2008,108.2374 -19.3248,104.3904 C-21.6658,99.1774 -19.8018,92.2974 -14.5108,89.2264 C-15.2008,85.0604 -14.5788,80.7404 -11.5468,77.4864 C-10.3978,76.2534 -9.0438,75.3184 -7.5868,74.6984 C-8.2888,70.5094 -7.4968,66.1514 -4.5998,62.7404 C-2.2338,59.9554 1.2722,58.2634 4.8402,58.0144 C6.2142,50.7284 13.1752,45.2804 20.5192,45.7144 C21.4372,42.5064 23.6302,39.7094 27.0322,38.2914 C27.9032,37.9284 28.7832,37.6894 29.6602,37.5564 C35.6322,31.5324 44.5232,27.4494 52.2202,25.3584 C59.9408905,23.2693524 67.7673582,23.0671415 74.3963107,25.4959742 L74.8792,25.6784 L75.4192,25.6084 C77.7602,25.3484 80.0992,25.1984 82.4392,25.1384 Z M23.7692,518.8744 C21.7072,518.2314 19.4072,519.6354 18.8482,521.6674 C18.2582,523.8154 19.5722,525.9434 21.6422,526.5884 C24.2212,527.3924 26.9302,527.5934 29.6182,527.595403 C31.7792,527.5974 33.6182,525.7554 33.6182,523.5954 C33.6182,521.4244 31.7872,519.5974 29.6182,519.5954 C27.4322,519.5934 25.8182,519.5134 23.7692,518.8744 Z M5.4262,476.395397 C2.3432,476.3984 -0.3008,477.1344 -2.5868,479.2944 C-4.1108,480.7354 -4.1488,483.5184 -2.5868,484.9524 C-1.00914483,486.39971 1.27979691,486.48411 2.8993057,485.10569 L3.2112,484.826025 C3.2487,484.7919 3.2777,484.7649 3.3012,484.7424 C3.4312,484.6584 3.5622,484.5724 3.7002,484.5004 L3.43928868,484.67089 C3.24070292,484.814323 3.70144665,484.580159 3.95981675,484.469508 L4.0412,484.4364 L4.0672,484.4304 L4.2742,484.4144 C4.6572,484.3944 5.0422,484.395397 5.4262,484.395397 C7.5182,484.3934 9.5222,482.5574 9.4262,480.395397 C9.3282,478.2294 7.6682,476.3934 5.4262,476.395397 Z M63.6042,451.0174 C67.9340333,448.362388 64.0665815,441.571633 59.7243417,444.016969 L59.5672,444.1094 C57.3412,445.4754 54.6032,445.2904 52.0812,445.2914 C46.9342,445.2944 46.9252,453.2944 52.0812,453.291402 L52.9333793,453.288255 C56.6304959,453.2599 60.3699857,453.001757 63.6042,451.0174 Z M29.5292,421.8184 C26.2579368,421.202611 22.5935657,420.653237 19.1516817,421.0282 L18.5802,421.0994 L17.5212,421.0994 C16.6012,421.0994 15.7102,421.4694 14.9952,422.0514 C13.8632,422.5214 12.7912,423.1514 11.8132,423.9984 C7.9162,427.3774 13.5952,433.0154 17.4702,429.6564 C17.6854,429.4692 17.93516,429.31528 18.212824,429.189008 L18.4262,429.0994 L22.7052,429.0994 C23.0942,429.0994 23.4732,429.0184 23.8422,428.9014 C25.2312,429.0924 26.5252,429.3674 27.4022,429.5324 C32.4342,430.4794 34.5902,422.7704 29.5292,421.8184 Z M25.8762,345.0384 C19.6062,342.1304 12.6622,342.1514 6.8632,346.1894 C2.71656471,349.077024 6.56835709,355.886709 10.7507029,353.197504 L10.9002,353.0974 C11.4202,352.7354 11.9542,352.4324 12.4942,352.1574 C15.4382,353.0084 18.4014865,353.04845 21.2476383,352.002068 L21.6182,351.8594 L21.8392,351.9454 C26.4792,354.0974 30.5472,347.2044 25.8762,345.0384 Z M94.1533,332.5037 C87.8193,331.7937 87.7683,321.7877 94.1533,322.5037 C107.6343,324.0157 119.8663,330.0087 128.8253,340.3007 C132.992341,345.087353 126.129965,352.090078 121.884746,347.516846 L121.7543,347.3717 C114.6303,339.1877 105.0163,333.7217 94.1533,332.5037 Z M23.1942,281.1314 C21.7862,280.9774 20.3812,280.9004 18.9982,280.9674 C15.6762,281.1274 11.6302,283.3434 13.0882,287.3474 C14.2572,290.5554 18.0892,290.6824 19.9812,288.9714 C20.7682,288.9904 21.5542,289.0424 22.3372,289.1224 C24.4262,289.3374 26.4952,289.7354 28.5542,290.1414 C33.5832,291.1304 35.7362,283.4214 30.6812,282.4264 L28.445325,281.984025 C27.69195,281.83665 26.9317,281.6924 26.1682,281.5604 C25.7113429,281.333257 25.2214245,281.180318 24.6978152,281.141257 L24.4332,281.1314 L23.1942,281.1314 Z M-16.5508,219.0664 L-17.0206479,219.00272 C-23.7756298,218.138502 -34.6190874,218.933722 -35.4388,227.5324 C-35.8918,232.2944 -29.0118,232.5934 -27.6538,228.5214 C-22.6658,227.6224 -17.6368,227.4504 -12.6828,227.9964 C-10.7928,226.0764 -10.7778,222.3854 -13.9238,221.4644 C-14.3678,220.2704 -15.2948,219.2474 -16.5508,219.0664 Z M137.8542,204.5434 C136.2932,203.1104 133.7332,202.9204 132.1972,204.5434 C131.3122,205.4774 130.5732,206.5154 129.9882,207.6574 L129.598941,208.428511 C129.532978,208.556511 129.465533,208.683733 129.3952,208.8094 C129.2642,209.0424 129.1172,209.2644 128.9742,209.4904 L128.87795,209.5849 C128.8397,209.62365 128.7947,209.6704 128.7412,209.7274 C127.3022,211.2484 127.1192,213.8954 128.7412,215.3844 C130.3022,216.8174 132.8612,217.0074 134.3982,215.3844 C135.2822,214.4504 136.0212,213.4134 136.6072,212.2704 L136.995719,211.50003 C137.061533,211.372178 137.128867,211.245067 137.1992,211.1194 C137.3302,210.8854 137.4782,210.6634 137.6202,210.4374 L137.779528,210.278494 C137.802387,210.254837 137.8272,210.2289 137.8542,210.2004 C139.2932,208.6804 139.4752,206.0324 137.8542,204.5434 Z M55.8282,194.1264 C50.1922,190.1324 43.4902,189.9464 38.3092,194.7514 C34.5701884,198.219598 40.0636639,203.776363 43.8338674,200.526766 L43.9662,200.4084 C44.1032,200.2804 44.2422,200.1684 44.3802,200.0614 C45.0562,200.6374 45.9152,201.0024 46.8972,201.0034 C47.1538667,201.004067 47.4100889,201.0034 47.666163,201.008807 L48.0502,201.0224 L48.2562,201.0394 L48.2822,201.0444 L48.4621234,201.120874 C48.7910809,201.269271 49.2450696,201.498313 48.6222,201.1084 C48.7612,201.1814 48.8912,201.2674 49.0232,201.3514 L49.2532,201.5604 C50.7612,202.9864 53.3702,203.1744 54.8672,201.5974 C57.5182,200.7014 58.9252,196.3194 55.8282,194.1264 Z M110.930894,181.021659 L111.0332,180.9894 C115.9752,179.5784 113.8742,171.8574 108.9062,173.2744 C103.6352,174.7794 101.1182,179.6844 100.0642,184.7084 C99.6212,186.8214 100.6842,189.0324 102.8582,189.6294 C104.8442,190.1744 107.3332,188.9594 107.7792,186.8354 C108.091927,185.341764 108.452588,184.074574 109.023467,182.898593 L109.368963,182.227309 C109.530567,181.921334 109.586914,181.870543 110.1322,181.3944 C110.223756,181.3144 110.640052,181.120622 110.930894,181.021659 Z M27.2252,140.7304 L26.4522536,140.554109 C21.6377342,139.49948 15.2476138,138.948728 12.3402,143.7214 C9.6902,148.0694 16.3752,152.0274 19.1282,147.9174 C19.1702,147.916067 19.2184222,147.916511 19.2746444,147.921104 L19.3652,147.9314 L20.5992,147.8314 C22.1362,147.8204 23.6072,148.0924 25.0982,148.4454 C30.1042,149.6304 32.2412,141.9184 27.2252,140.7304 Z M200.0612,109.9764 C203.7062,106.3314 198.0512,100.6724 194.4052,104.3204 C191.5222,107.2034 188.7412,110.1064 186.8672,113.7694 C185.8842,115.6914 186.3652,118.1094 188.3022,119.2424 C190.0892,120.2874 192.7872,119.7374 193.7752,117.8074 C195.3992,114.6324 197.4492,112.5904 200.0612,109.9764 Z M154.0672,100.4084 C150.4662,102.5404 148.1352,106.0524 146.7202,110.1174 C146.0102,112.1574 147.5292,114.4924 149.5142,115.0374 C151.647387,115.623494 153.596634,114.373927 154.363692,112.43332 L154.4342,112.2434 C154.8132,111.1564 155.4192,109.8724 156.1682,108.9034 C156.8082,108.0764 157.8032,107.2484 158.5532,106.9734 C160.3562,106.3114 161.6342,104.6774 161.4672,102.7694 C158.5022,103.7944 155.7492,102.5614 154.0672,100.4084 Z M46.2702,83.0084 C42.6372,79.6364 37.7632,79.1894 33.3592,81.2304 C31.3982,82.1384 30.9072,84.9654 31.9242,86.7034 C33.1002,88.7144 35.4292,89.0504 37.3962,88.1384 C36.8912,88.3724 37.8032,88.0634 38.1972,87.9504 C38.2476,87.9738 38.90793,87.94374 39.13572,87.946971 L39.4097,87.964275 C39.41195,87.96615 39.3447,87.9649 39.2082,87.9604 C39.4002,88.0037333 39.5899778,88.0555111 39.7769407,88.1151407 L40.0152818,88.1976545 C39.8951849,88.1726521 40.4356151,88.5249079 40.5859182,88.6418655 L40.6132,88.6644 C44.3832,92.1634 50.0542,86.5194 46.2702,83.0084 Z" id="Ink" fill="#000" blush:i="0.1.0.1"/></g></g><g id="Face" transform="translate(531.000000, 366.000000) scale(1 1)" fill="#000" blush:width="289" blush:height="293" blush:component="Face" blush:i="0.2" blush:value="Cheeky" blush:viewBox="52.90517241379308 55.670000000000016 184.65517241379308 205.10000000000002"><g id="Face/Cheeky" stroke="none" stroke-width="1" fill="none" fill-rule="evenodd" blush:viewBox="52.90517241379308 55.670000000000016 184.65517241379308 205.10000000000002" blush:i="0.2.0"><path d="M166.9438,221.352 C168.4778,218.685 172.0098,216.214 175.2418,216.593 C189.7208,218.291 189.6958,235.845 184.1048,246.093 C179.1478,255.18 168.8888,260.514 158.6208,259.735 C147.8338,258.916 138.6428,252.574 134.5978,242.483 C131.9228,235.808 130.6868,223.485 137.8028,219 C137.9348,218.916 138.1528,218.937 138.2578,219.058 C141.6698,223.027 141.8038,228.986 144.7908,233.405 C147.5688,237.515 151.8848,240.909 156.9408,241.433 C160.7168,241.825 164.5368,240.463 166.0138,237.073 C166.812891,235.239364 166.721899,234.243744 166.421516,232.981708 L166.148563,231.885055 C165.202801,228.043565 164.778057,225.118714 166.9438,221.352 Z M170.814304,144.367155 C178.365682,148.9572 189.871664,159.660291 181.748119,171.039573 C172.185929,181.073062 158.418535,169.568982 151.634201,164.366134 C145.343449,160.333898 138.275437,170.704507 144.112,175.412823 C193.135736,211.708059 213.030606,145.567387 174.633685,138.970386 C170.406047,138.243425 168.835891,142.947174 170.814304,144.367155 Z M91.0715,112.8926 C95.7065,105.9386 106.2865,106.9626 108.8395,115.2146 C110.2225,119.6846 108.3125,123.7026 108.4115,128.1666 C108.4945,131.9376 108.2475,136.1396 107.0915,139.7916 C104.4555,148.1196 96.9655,154.0016 88.1045,153.7576 C79.2725,153.5146 71.4935,147.9246 67.7945,140.0516 C64.0825,132.1486 64.8685,123.9696 67.5785,115.9336 C67.7085,115.5476 68.2145,115.3606 68.5195,115.6856 C71.7228333,119.089767 74.0678333,122.683517 76.4943148,126.495785 L78.9809333,130.40279 C80.8812656,133.344819 83.6431037,137.103142 87.1914615,136.867072 L87.7238987,136.814547 C88.7099852,136.729908 88.5588846,136.9256 89.3195,135.5816 C89.6715,134.9596 89.6075,133.8036 89.7775,133.0696 L89.8365,132.8216 L89.8365,132.8216 L89.8043384,132.68798 C89.7292832,132.332503 89.6547866,131.66266 89.5942529,130.500284 L89.5815,130.2436 C89.3245,124.8066 87.7875,117.8196 91.0715,112.8926 Z M208.5632,117.5221 C207.7322,108.6281 220.2362,106.6531 224.3932,113.2341 C226.561303,116.665997 227.192546,120.977055 227.67203,125.0615 L227.8962,127.0001 C228.3882,131.1951 228.5832,135.5591 226.7622,139.4721 C223.8942,145.6351 217.6572,148.8931 210.9292,148.3771 C204.5042,147.8831 198.6422,144.1581 195.5522,138.5031 C192.7972,133.4571 190.0582,123.6051 193.4042,118.3421 C193.6062,118.0231 194.0102,117.9821 194.2872,118.2281 C197.4492,121.0351 197.9642,126.1551 199.8442,129.8121 C201.7832,133.5841 204.7242,137.2601 209.1812,137.8331 C213.4452,138.3811 215.0742,136.0521 213.9862,131.9871 C212.5832,126.7391 209.0912,123.1691 208.5632,117.5221 Z M94.4489,60.0159 L96.4937284,59.2327124 C103.499922,56.5860716 113.118768,53.5268605 118.8149,59.2239 C122.3289,62.7369 122.9979,67.9119 120.4899,72.1989 C117.4509,77.3919 111.9999,77.5199 106.7359,78.2849 C100.7489,79.1549 94.6599,80.8089 89.0859,83.1669 C82.8069,85.8239 76.9799,89.1359 71.2709,92.8349 C65.8449,96.3499 60.4379,102.0949 53.9429,103.1779 C53.6779,103.2219 53.3769,103.1079 53.3079,102.8169 C51.8329,96.4669 55.9319,90.2179 59.5899,85.2639 C64.0159,79.2659 69.3789,74.3429 75.3729,69.9289 C81.1579,65.6679 87.7679,62.5889 94.4489,60.0159 Z M221.7162,82.5925 L222.340762,82.4830541 C226.589355,81.7757704 230.439386,81.9386395 233.6412,85.3035 C236.0852,87.8705 237.0272,91.1975 235.8622,94.5915 C234.7872,97.7225 232.3832,100.9035 228.8942,101.5595 C217.1152,103.7755 204.0682,103.4095 192.2302,101.7315 C186.814067,100.963367 181.349151,100.023624 176.073673,98.5415284 L173.646557,97.8379125 C169.242357,96.5798884 164.200291,95.2655909 161.0012,92.0265 C159.8512,90.8625 160.5142,89.1965 161.8902,88.6575 C167.4722,86.4715 175.1232,87.6345 181.0752,87.4635 C187.9992,87.2655 194.9342,86.7465 201.8252,86.0315 C208.5592,85.3315 215.0752,83.8105 221.7162,82.5925 Z" id="Ink" fill="#000" blush:i="0.2.0.0"/></g></g><g id="Beard" transform="translate(494.999934, 517.999659) scale(1 1)" fill="#000" blush:width="280" blush:height="230" blush:component="Beard" blush:i="0.3" blush:value="None" blush:viewBox="490 402.5 0 0"><g id="Beard/None" stroke="none" stroke-width="1" fill="none" fill-rule="evenodd" fill-opacity="0" blush:viewBox="490 402.5 0 0" blush:i="0.3.0"/></g><g id="Mask" transform="translate(400.000000, 480.000000) scale(1 1)" fill="#000" blush:width="397" blush:height="228" blush:component="Mask" blush:i="0.4" blush:value="None" blush:viewBox="694.75 399 0 0"><g id="Mask/None" stroke="none" stroke-width="1" fill="none" fill-rule="evenodd" fill-opacity="0" blush:viewBox="694.75 399 0 0" blush:i="0.4.0"/></g><g id="Accessories" transform="translate(419.000000, 421.000000) scale(1 1)" fill="#000" blush:width="392" blush:height="138" blush:component="Accessories" blush:i="0.5" blush:value="None" blush:viewBox="686 241.5 0 0"><g id="Accessories/None" stroke="none" stroke-width="1" fill="none" fill-rule="evenodd" fill-opacity="0" blush:viewBox="686 241.5 0 0" blush:i="0.5.0"/></g></g></svg>