<svg viewBox="184.21621621621625 229.95000000000005 805.9459459459459 1149.7500000000002" xmlns="http://www.w3.org/2000/svg" xmlns:blush="http://design.blush" overflow="visible" xmlns:xlink="http://www.w3.org/1999/xlink" width="805.9459459459459px" height="1149.7500000000002px"><g id="Master/Character/Bust" stroke="none" stroke-width="1" fill="none" fill-rule="evenodd" blush:has-customizable-colors="true" blush:viewBox="166.11320754716974 76.65000000000009 788.4636118598385 1272.3900000000003" blush:i="0"><g id="Body" transform="translate(147.000000, 639.000000) scale(1 1)" blush:width="818" blush:height="733" blush:component="Body" blush:i="0.0" blush:value="Tee Arms Crossed" blush:viewBox="40.89999999999998 -42.540178571428555 801.6399999999998 777.1763392857142"><g id="Body/Tee Arms Crossed" stroke="none" stroke-width="1" fill="none" fill-rule="evenodd" blush:viewBox="40.89999999999998 -42.540178571428555 801.6399999999998 777.1763392857142" blush:i="0.0.0"><path d="M659.933269,217.976991 C651.249269,214.880991 642.879269,211.304991 635.253269,206.044991 C613.270269,189.681991 598.936269,165.056991 585.392269,141.725991 C566.314269,107.792991 552.723269,71.6349913 543.328269,33.9149913 C539.291269,17.7089913 537.920269,-1.08100866 528.748269,-15.4490087 C507.956269,-45.5340087 446.987269,-41.6360087 414.612269,-36.3550087 C392.932269,-32.5190087 388.451269,-8.25700866 383.527269,9.69599134 C379.427269,24.6129913 376.743269,39.6989913 374.490269,54.9869913 C369.130269,58.5109913 363.079269,61.3729913 357.311269,63.8659913 C294.452269,83.1409913 283.404269,118.874991 259.395269,174.072991 C218.844269,254.301991 108.809269,285.714991 92.1882694,380.663991 C81.4792694,443.348991 111.932269,502.321991 143.329269,554.433991 C172.569269,611.354991 213.390269,638.674991 278.399269,625.226991 C339.374269,611.548991 397.974269,588.667991 457.876269,570.986991 C486.889269,563.853991 515.856269,545.299991 546.375269,551.768991 C609.260269,565.891991 673.871269,572.531991 738.317269,570.698991 C828.801269,574.357991 828.787269,487.512991 819.500269,420.259991 C812.995269,315.598991 760.205269,248.394991 659.933269,217.976991 L659.933269,217.976991 Z" id="Skin" fill="#ae5d29" blush:color="Skin-500" blush:i="0.0.0.0"/><path d="M665.982669,369.421691 C673.543669,374.421691 679.902669,382.002691 685.007669,389.980691 C663.695669,387.763691 642.420669,385.207691 621.192669,382.297691 C623.971669,380.521691 626.776669,378.784691 629.645669,377.144691 C640.112669,371.246691 654.294669,361.693691 665.982669,369.421691 Z M311.897669,432.419691 C307.992669,430.890691 306.481669,424.936691 304.959669,421.523691 C300.187669,410.820691 295.832669,399.935691 291.301669,389.128691 C308.505669,384.224691 325.235669,378.783691 343.057669,376.169691 C362.220669,373.361691 381.666669,372.681691 401.006669,373.312691 C440.180669,374.590691 478.990669,380.992691 517.504669,387.857691 C555.973669,394.714691 594.440669,401.302691 633.178669,406.472691 C671.131669,411.537691 709.204669,415.244691 747.348669,418.498691 C754.759669,419.131691 767.116669,421.796691 773.076669,415.964691 C777.795669,411.345691 777.948669,402.826691 772.043669,399.071691 C768.365669,396.730691 763.036669,396.696691 758.834669,396.156691 C753.542669,395.475691 748.229669,395.022691 742.905669,394.669691 C740.736669,394.526691 738.567669,394.394691 736.397669,394.262691 C753.814669,387.695691 772.005669,384.114691 790.887669,385.112691 C791.955669,391.599691 796.766669,398.273691 799.399669,403.623691 C803.997669,412.963691 807.581669,422.416691 809.934669,432.572691 C814.852669,453.800691 815.066669,475.832691 813.677669,497.483691 C812.401669,515.535691 809.660669,535.503691 795.500669,548.288691 C784.779669,557.968691 769.653669,561.552691 755.620669,562.679691 C739.310669,563.989691 722.748669,562.590691 706.575669,560.404691 C683.891669,557.337691 661.101669,553.281691 638.863669,547.845691 C595.792669,537.317691 554.508669,520.565691 516.419669,497.853691 C497.844669,486.778691 480.120669,474.318691 461.290669,463.664691 C442.103669,452.806691 421.687669,444.383691 400.249669,439.153691 C376.258669,433.300691 351.178669,430.802691 326.520669,432.246691 C322.241669,432.496691 316.059669,434.048691 311.897669,432.419691 Z M284.095669,421.551691 C286.616669,429.732691 288.545669,439.073691 293.926669,445.947691 C299.256669,452.759691 307.297669,455.163691 315.627669,455.769691 C325.671669,456.498691 335.833669,456.031691 345.899669,456.405691 C366.544669,457.172691 386.906669,460.525691 406.642669,466.676691 C425.034669,472.409691 442.107669,481.351691 458.553669,491.271691 C473.761669,500.445691 488.523669,510.294691 503.736669,519.440691 C499.687669,521.296691 495.684669,523.304691 491.659669,525.052691 C483.217669,528.718691 474.723669,532.255691 466.191669,535.704691 C449.366669,542.504691 432.470669,549.139691 415.401669,555.303691 C380.983669,567.732691 345.999669,578.591691 310.594669,587.841691 C293.708669,592.253691 276.582669,597.406691 259.039669,598.140691 C243.483669,598.790691 229.074669,594.393691 216.528669,585.144691 C190.506669,565.960691 169.803669,538.270691 153.067669,510.957691 C143.124669,494.730691 134.447669,477.680691 127.270669,460.051691 C123.640669,451.136691 120.348669,442.084691 117.385669,432.926691 C115.995669,428.626691 114.677669,424.302691 113.429669,419.958691 C112.880669,418.048691 112.354669,416.132691 111.833669,414.214691 C138.442669,406.094691 165.367669,398.764691 192.924669,394.695691 C207.637669,392.522691 222.546669,391.422691 237.420669,391.582691 C244.803669,391.661691 252.182669,392.060691 259.526669,392.822691 C263.479669,393.232691 267.416669,393.760691 271.336669,394.414691 C272.956669,394.683691 274.621669,395.081691 276.291669,395.374691 C278.842669,404.115691 281.414669,412.849691 284.095669,421.551691 Z M834.137669,386.797691 C835.571669,383.896691 836.176669,381.042691 836.690669,377.884691 C837.082669,375.475691 838.122669,372.084691 837.211669,368.956691 C836.191669,365.453691 833.412669,362.320691 831.417669,359.332691 C829.214669,356.030691 827.013669,352.726691 824.815669,349.420691 C820.418669,342.809691 816.031669,336.192691 811.651669,329.570691 C793.764669,302.529691 775.999669,275.410691 758.206669,248.308691 C742.416669,224.257691 726.892669,199.990691 710.621669,176.262691 C696.708669,155.972691 681.543669,136.017691 662.499669,120.237691 C638.420669,100.285691 609.748669,90.8866913 579.799669,83.5526913 C576.528669,80.1576913 572.159669,78.3036913 567.489669,78.6796913 C560.891669,71.1966913 555.647669,65.9696913 553.270669,56.4536913 C552.131669,51.8956913 552.488669,39.0886913 548.049669,36.3916913 C542.776669,33.1876913 540.022804,37.4283269 538.568669,42.2076913 C533.703669,58.1976913 539.287669,79.6956913 552.137669,95.7126913 C546.723669,114.423691 539.545669,141.015691 526.740669,156.005691 C513.028669,172.056691 494.065669,177.052691 473.605669,177.381691 C434.587669,178.009691 395.610669,163.508691 365.849669,138.376691 C356.803669,130.738691 348.402669,122.207691 340.801669,113.134691 C335.100669,106.327691 328.356669,95.8226913 323.896669,87.8826913 C323.896669,84.7884677 320.243364,81.5526913 357.436669,79.0526913 C394.629975,76.5526913 397.450669,25.6256913 398.277669,18.6946913 C398.949669,13.0666913 401.807669,4.33069134 397.841669,-0.25830866 C396.158669,-2.20730866 392.704669,-2.52130866 390.570669,-1.19730866 C386.546669,1.30169134 385.224669,7.69169134 383.959669,12.0306913 C382.187669,18.1096913 376.394669,55.8366913 365.417669,60.2046913 C360.278669,62.2496913 354.384669,62.2876913 348.948669,62.6656913 C342.235669,63.1346913 335.508669,63.4776913 328.822669,64.2586913 C326.356669,64.5466913 323.666669,65.3446913 321.233669,65.3676913 C319.650669,65.3826913 318.017669,64.6136913 316.487669,64.0736913 C311.323669,62.2486913 306.163669,63.6176913 300.843669,64.3326913 C253.807669,70.6536913 205.376669,85.0806913 165.256669,111.039691 C129.894669,133.919691 104.981669,166.824691 88.5426694,205.296691 C71.7696694,244.558691 62.1556694,287.015691 54.0986694,328.811691 C51.3996694,342.815691 49.0426694,356.884691 47.0176694,371.001691 C45.0606694,384.642691 42.6126694,398.588691 42.0266694,412.367691 C41.7946694,417.819691 43.0976694,422.884691 45.1026694,427.864691 C47.3606694,433.469691 52.6976694,435.679691 57.8166694,438.296691 C69.0536694,444.044691 80.9076694,448.502691 93.1206694,451.659691 C100.581669,465.232691 106.860669,479.335691 111.906669,493.972691 C110.034669,497.681691 109.995669,503.220691 109.635669,506.825691 C108.742669,515.802691 108.360669,524.826691 108.280669,533.844691 C108.119669,551.919691 109.206669,569.976691 110.058669,588.023691 C110.922669,606.327691 113.794669,678.546691 114.262669,687.365691 C114.626669,694.216691 114.136669,703.799691 117.745669,709.881691 C123.291669,719.230691 136.979669,718.915691 143.319669,711.335691 C300.843669,745.199492 596.944369,734.999691 716.198669,717.961691 C731.714856,715.744876 726.842669,718.203691 730.788669,714.283691 C733.749669,711.339691 736.269669,706.298691 737.088669,702.247691 C738.182669,696.839691 736.416669,691.945691 733.320669,687.569691 C730.065669,682.969691 729.472669,675.519691 728.263669,670.049691 C725.404669,657.118691 723.983669,600.328691 722.647669,594.035691 C722.231669,592.074691 721.828669,590.001691 721.342669,587.927691 C743.217669,589.999691 766.010669,589.999691 786.821669,582.683691 C798.622669,578.534691 809.628669,572.017691 818.100669,562.712691 C828.358669,551.445691 834.065669,537.261691 837.000669,522.456691 C840.787669,503.365691 841.591669,483.590691 840.847669,464.183691 C839.813669,441.247691 836.009669,417.988691 826.567669,396.929691 C829.674669,394.044691 832.278669,390.563691 834.137669,386.797691 Z" id="Ink" fill="#000" blush:i="0.0.0.1"/></g></g><g id="Head" transform="translate(372.000000, 180.000000) scale(0.9978902953586498 1)" blush:width="473" blush:height="567" blush:component="Head" blush:i="0.1" blush:value="Short 1" blush:viewBox="49.89473684210526 59.535000000000025 371.37559808612446 447.93000000000006"><g id="Head/Short 1" stroke="none" stroke-width="1" fill="none" fill-rule="evenodd" blush:viewBox="49.89473684210526 59.535000000000025 371.37559808612446 447.93000000000006" blush:i="0.1.0"><path d="M242.041161,75.2596156 C298.821805,75.2596156 357.551668,119.271611 378.365264,147.356837 C402.432055,179.831825 421.416954,335.7285 412.510727,388.627648 C403.6045,441.526795 359.365264,499.183765 282.566771,499.183765 C205.768277,499.183765 159.031094,489.72438 157.157053,475.984472 C155.907692,466.824533 139.023041,436.751409 106.5031,385.7651 C73.2430134,376.410121 56.5475248,360.55971 56.4166341,338.213866 C56.2876114,315.868022 65.1995229,300.630067 83.1523686,292.5 C76.7512999,204.313833 81.6113554,148.741029 97.7325351,125.781589 C121.914305,91.3424282 185.260516,75.2596156 242.041161,75.2596156 Z" id="Skin" fill="#ae5d29" blush:color="Skin-500" blush:i="0.1.0.0"/><path d="M213.131911,62.0006544 L214.1441,62.0051 C276.96851,62.411 340.86433,91.3199108 378.24079,141.819932 L379.365264,143.356837 C379.426264,143.436837 380.54442,145.101688 380.808846,145.576157 C382.358288,148.356371 384.183034,150.957633 385.5831,153.7851 C386.764918,156.1851 387.550869,158.866092 388.419539,161.422365 L388.6831,162.1851 C390.9141,168.5651 392.7931,175.0051 394.4541,181.5551 C397.6731,194.3051 400.1831,207.2551 402.6241,220.1751 C411.344526,266.439355 417.04661,313.364561 419.919731,360.350706 L420.486794,369.798471 C421.066435,379.597307 421.504814,389.438314 420.4041,399.2051 C419.1331,410.5751 415.8641,421.2451 410.9141,431.5451 C406.3531,441.0451 400.4731,449.8451 393.7441,457.9351 C390.1441,462.2651 386.3241,466.4751 381.6241,469.6441 C377.8831,472.1651 373.5131,473.8251 369.3031,475.4251 C362.4541,482.2651 353.6641,487.4351 345.0741,491.5651 C330.9141,498.3551 315.5641,502.1051 300.0341,503.9851 C284.1541,505.8941 268.1141,505.4351 252.3641,502.7051 C237.3141,500.1051 221.1831,493.4551 211.9141,480.7851 C211.1141,479.6951 212.6031,478.6651 213.5831,479.1151 C240.4841,491.5651 270.7131,494.8151 300.0341,490.8851 C313.7131,489.0551 327.1731,485.2751 339.6641,479.4051 C350.2041,474.4551 359.0931,467.2551 368.5531,460.7351 C370.3941,458.2851 372.2531,455.8751 374.3741,453.6351 L377.682932,450.165223 C380.156183,447.558828 382.584638,444.917408 384.7931,442.0651 C391.6141,433.2751 397.2631,423.3051 400.9941,412.8151 C408.2497,392.395671 406.287498,370.230447 405.005225,348.950388 L404.8941,347.0751 C403.5741,324.3151 401.4231,301.6351 398.4441,279.0351 C395.4631,256.4051 391.6731,233.8651 387.1941,211.4851 C384.9841,200.4551 382.5031,189.4951 380.3141,178.4651 C379.1831,172.7751 378.3941,167.0051 377.5341,161.2551 C377.0131,157.7551 377.0231,154.3851 377.0131,150.9651 C376.9141,151.1251 376.7931,151.2751 376.6731,151.4251 C377.0341,152.2751 376.7841,153.3651 375.9041,153.8651 C372.5741,155.7651 368.7341,155.1251 364.9841,155.1351 C361.0031,155.1551 357.0231,155.1651 353.0431,155.1751 C348.8981,155.1901 344.7531,155.1901 340.6081,155.18385 L328.1731,155.1551 L278.4331,155.0051 C245.858681,154.907426 212.73188,156.202634 180.262227,153.131938 L177.783241,152.887188 C175.231932,152.593371 146.437335,149.07211 138.650545,148.162663 L138.4141,148.1351 C124.1831,146.4951 110.1541,144.0651 96.3241,140.4251 C100.8431,142.2351 105.1941,144.6751 109.6731,146.5251 C115.4541,148.9051 121.3831,150.9851 127.3141,152.9751 C139.4841,157.0651 151.6731,161.0351 163.7931,165.2551 C167.268,166.4629 175.164131,196.230814 177.154601,200.940119 L177.2131,201.0751 C178.2231,203.3451 179.6141,205.8351 178.8431,208.4151 C177.1441,214.1151 168.1331,218.3351 163.6641,221.5551 L159.0686,224.87135 L159.0686,224.87135 L153.059075,229.219137 C150.594086,230.984712 148.318363,232.335626 145.0931,231.3251 C145.0831,231.3151 145.0741,231.3151 145.0641,231.3151 C147.8241,244.1251 149.1641,285.5551 149.5741,292.8251 C149.9331,299.1551 151.7931,307.2651 148.8331,313.0351 C148.1331,314.4051 146.3141,315.4851 144.7631,315.3751 C138.0031,314.8651 131.2441,314.3651 124.4841,313.8651 C122.6731,313.7251 121.0231,312.6951 120.5231,310.8551 L120.5031,310.7551 L120.5031,310.7551 C120.2841,310.8151 120.0341,310.7751 119.8241,310.5551 C119.4541,310.1851 119.0741,309.8251 118.6831,309.4751 C109.7841,301.5351 95.8641,299.5751 84.8831,303.7051 C79.1241,305.8651 72.5741,309.5051 68.5131,314.2251 C64.0031,319.4651 63.0341,326.7851 63.0231,333.4751 C63.0031,346.3751 67.6641,359.4351 77.1731,368.3851 C85.911031,376.600686 97.1855423,378.99174 108.52862,381.343061 L109.7441,381.5951 C112.3331,382.1351 113.1541,385.9951 111.2041,387.6151 C116.3941,392.6951 120.8741,398.7551 125.2441,404.3451 C131.0466,411.760933 136.596176,419.470864 141.994503,427.1976 L144.600655,430.93532 C153.887812,444.189372 167.3305,462.4455 161.4841,479.0151 C160.7041,481.2451 157.4441,482.0451 156.1731,479.7051 C152.0031,472.0051 149.6731,463.5251 145.7131,455.7351 C141.8241,448.0951 136.9841,441.0151 132.1831,433.9351 L129.414095,429.832137 C124.803794,422.979822 120.236433,416.053433 116.0031,408.9951 L113.055323,404.107864 C110.285593,399.492967 107.544153,394.724047 105.5031,389.7651 C91.8531,393.0551 77.0131,385.7351 67.4231,375.9851 C55.3641,363.7051 49.6941,345.6151 51.2531,328.6051 C52.0741,319.7051 54.7041,311.0951 61.2231,304.6951 C61.8831,304.0551 62.5741,303.4451 63.2841,302.8351 C63.0341,302.7051 62.8241,302.5051 62.7231,302.2651 C58.3531,291.8851 57.4231,279.5151 57.0531,268.3351 C56.6641,256.7751 56.9141,245.1851 57.7931,233.6451 C59.4041,212.4851 63.2231,191.4351 69.2841,171.0951 C78.2531,141.0351 93.6641,111.6051 118.2841,91.4351 C144.53791,69.9224 179.71161,61.944881 213.131911,62.0006544 Z M82.4444,324.9251 C86.1520087,323.242491 91.9362951,326.239585 95.2370772,328.14945 L95.4534,328.2751 C105.2034,333.9451 112.1444,343.6051 115.3534,354.3051 C117.4134,361.2051 105.8434,363.9551 104.8634,357.1951 C104.0644,351.6851 102.2234,346.5251 99.1944,341.9151 C98.4734,342.1551 97.7734,342.4651 97.1444,342.8651 C94.7344,344.4251 93.3334,347.1051 89.9844,346.7051 C87.5034,346.4151 84.9634,344.6951 85.1334,341.8551 C85.4044,337.1651 89.1834,335.2951 93.2344,335.0551 C92.65615,334.5376 92.0728375,334.025725 91.4756031,333.532131 L90.8217493,333.006821 C90.0805155,332.471445 82.1560075,327.005825 81.9281084,328.411539 L81.9234,328.4951 C81.9334,329.0551 81.1834,329.3751 80.8034,328.9551 C79.2734,327.3151 80.6944,325.7251 82.4444,324.9251 Z" id="Ink" fill="#000" blush:i="0.1.0.1"/></g></g><g id="Face" transform="translate(531.000000, 366.000000) scale(1 1)" fill="#000" blush:width="289" blush:height="293" blush:component="Face" blush:i="0.2" blush:value="Smile" blush:viewBox="52.90517241379308 51.27499999999998 184.65517241379308 193.38"><g id="Face/Smile" stroke="none" stroke-width="1" fill="none" fill-rule="evenodd" blush:viewBox="52.90517241379308 51.27499999999998 184.65517241379308 193.38" blush:i="0.2.0"><path d="M146.586567,240.926554 C139.864291,238.184203 133.866322,233.609781 129.481228,227.766254 C127.956691,225.734803 127.561405,223.589624 127.881219,221.627583 C128.240828,219.421406 129.546036,217.4219 131.326046,216.080693 C133.111571,214.735331 135.345035,214.071832 137.504329,214.410065 C139.380629,214.703969 141.248396,215.731287 142.726594,217.861908 L143.035427,218.287981 C145.642441,221.814933 149.039621,224.708755 152.91047,226.573991 C156.641339,228.371775 160.813939,229.21087 165.131898,228.722919 C173.355732,227.793938 179.024012,223.346401 185.048774,217.30672 C185.795561,216.544195 186.542826,215.757766 187.293714,214.958678 C187.767915,214.234308 188.425986,213.768756 189.156624,213.524488 C189.967867,213.253272 190.885573,213.268617 191.726122,213.56195 C192.536835,213.844871 193.261572,214.380994 193.747527,215.094538 C194.209389,215.772704 194.47125,216.610486 194.386283,217.574143 C193.834826,223.833283 190.562474,229.419299 185.914235,233.805502 C180.751772,238.67694 173.908551,242.047034 167.465957,243.229031 C160.36811,244.531047 153.135593,243.598228 146.586567,240.926554 L146.586567,240.926554 Z M170.814304,144.367155 C178.365682,148.9572 189.871664,159.660291 181.748119,171.039573 C172.185929,181.073062 158.418535,169.568982 151.634201,164.366134 C145.343449,160.333898 138.275437,170.704507 144.112,175.412823 C193.135736,211.708059 213.030606,145.567387 174.633685,138.970386 C170.406047,138.243425 168.835891,142.947174 170.814304,144.367155 Z M82.9633,102.1464 C83.7976284,91.7901242 99.5703,89.4384 101.1393,99.6864 C102.5443,108.8664 100.8903,117.2994 96.7553,125.5644 C92.8043,133.4604 82.8737826,129.776544 82.1227826,122.586544 C81.1160984,112.948648 82.4443,108.588596 82.9633,102.1464 Z M203.027,97.5615 C205.226,94.6815 208.401,92.7155 212.205,93.8265 C224.09,97.2995 220.587,114.1725 216.413,122.3855 C214.145,126.8455 206.814,127.9765 203.501,124.0495 C198.101,117.6455 195.515,104.8565 202.38,98.5485 C202.566,98.2225 202.773,97.8935 203.027,97.5615 Z M96.5879,56.8305 L98.465271,56.501905 C104.27307,55.49746 111.4944,54.5323 115.6029,59.2015 C117.7819,61.6775 118.5319,66.2795 115.6029,68.6495 C110.4509,72.8195 104.7549,71.2035 98.5809,71.5565 C93.4929,71.8485 88.6029,72.6905 83.7019,74.0915 C72.9499,77.1645 64.1889,82.7745 55.0059,88.9345 C53.8009,89.7425 52.5709,88.2015 53.1459,87.0745 C58.4469,76.6915 68.7199,68.1625 79.0099,62.9635 C84.5019,60.1885 90.5119,57.8865 96.5879,56.8305 Z M192.192876,52.1793876 L193.629806,52.4734684 C209.267042,55.742077 229.583473,62.2713911 236.988459,77.6308459 C237.270623,79.8027272 236.97249,80.2682047 236.730054,80.5723213 L236.649336,80.6735209 C236.449568,80.9332186 236.290169,81.2912104 235.348782,81.5868073 C235.087547,81.5245653 234.823712,81.4586426 234.557082,81.3887687 C231.162766,80.499243 228.477205,79.2737961 225.877298,78.0022488 L223.058339,76.6134493 C219.787784,75.0098309 216.488352,73.4645766 212.991711,72.3238115 C205.52958,69.8898666 197.854137,68.1753043 190.059777,67.259767 C188.37041,67.0615005 186.743655,66.4913394 185.460262,65.5141761 C184.242065,64.5866523 183.311441,63.3024737 182.887128,61.5955207 C182.33722,59.3864508 182.495251,57.7140037 183.680513,55.7210991 C184.571756,54.2244705 185.846982,53.1871113 187.311265,52.5914244 C188.804038,51.9841473 190.503545,51.840982 192.192876,52.1793876 Z" id="Ink" fill="#000" blush:i="0.2.0.0"/></g></g><g id="Beard" transform="translate(494.999934, 517.999659) scale(1 1)" fill="#000" blush:width="280" blush:height="230" blush:component="Beard" blush:i="0.3" blush:value="None" blush:viewBox="490 402.5 0 0"><g id="Beard/None" stroke="none" stroke-width="1" fill="none" fill-rule="evenodd" fill-opacity="0" blush:viewBox="490 402.5 0 0" blush:i="0.3.0"/></g><g id="Mask" transform="translate(400.000000, 480.000000) scale(1 1)" fill="#000" blush:width="397" blush:height="228" blush:component="Mask" blush:i="0.4" blush:value="None" blush:viewBox="694.75 399 0 0"><g id="Mask/None" stroke="none" stroke-width="1" fill="none" fill-rule="evenodd" fill-opacity="0" blush:viewBox="694.75 399 0 0" blush:i="0.4.0"/></g><g id="Accessories" transform="translate(419.000000, 421.000000) scale(1 1)" fill="#000" blush:width="392" blush:height="138" blush:component="Accessories" blush:i="0.5" blush:value="None" blush:viewBox="686 241.5 0 0"><g id="Accessories/None" stroke="none" stroke-width="1" fill="none" fill-rule="evenodd" fill-opacity="0" blush:viewBox="686 241.5 0 0" blush:i="0.5.0"/></g></g></svg>