<svg viewBox="165.0270270270271 191.625 786.7567567567567 1168.9125000000001" xmlns="http://www.w3.org/2000/svg" xmlns:blush="http://design.blush" overflow="visible" xmlns:xlink="http://www.w3.org/1999/xlink" width="786.7567567567567px" height="1168.9125000000001px"><g id="Master/Character/Bust" stroke="none" stroke-width="1" fill="none" fill-rule="evenodd" blush:has-customizable-colors="true" blush:viewBox="166.11320754716974 76.65000000000009 788.4636118598385 1272.3900000000003" blush:i="0"><g id="Body" transform="translate(147.000000, 639.000000) scale(1 1)" blush:width="818" blush:height="733" blush:component="Body" blush:i="0.0" blush:value="Gym Shirt" blush:viewBox="20.450000000000045 -38.44977678571428 781.1899999999998 756.7243303571429"><g id="Body/Gym Shirt" stroke="none" stroke-width="1" fill="none" fill-rule="evenodd" blush:viewBox="20.450000000000045 -38.44977678571428 781.1899999999998 756.7243303571429" blush:i="0.0.0"><path d="M56.5731995,653.859318 C55.2121995,653.903318 55.6411995,653.506318 56.1411995,653.410318 C56.2851995,653.559318 56.4291995,653.710318 56.5731995,653.859318 Z M96.7581995,683.732318 C134.7852,688.240318 172.8592,684.116318 210.6992,679.981318 C287.3592,674.298318 363.4802,690.854318 440.2912,685.805318 C536.2832,681.760318 632.5362,674.164318 728.2092,686.965318 C754.6722,687.573318 796.8802,694.714318 787.2832,653.750318 C774.6772,548.431318 757.8232,443.643318 739.7692,339.135318 C724.4682,280.546318 723.3622,179.206318 681.4642,138.463318 C675.3382,132.870318 653.3672,114.778318 647.5582,112.349318 C618.6792,101.597318 566.6172,93.2073184 545.1382,70.4153184 C527.7402,40.9773184 535.8332,0.8063184 508.7802,-22.8936816 C485.0702,-42.2516816 433.3202,-38.1596816 407.9712,-23.6236816 C387.9712,-10.6556816 384.8382,14.5323184 372.3762,33.1593184 C369.3022,37.6223184 362.000292,48.3811233 357.877292,51.8521233 C347.840643,61.5148925 312.589499,71.6665544 302.409499,73.5315544 C244.962499,85.3035544 216.3182,92.5773184 171.1352,130.751318 C53.0771995,251.276318 69.8121995,464.446318 37.1451995,622.052318 C35.8081995,639.378318 25.2751995,662.890318 44.0671995,674.045318 C60.2521995,681.798318 79.2821995,680.954318 96.7581995,683.732318 Z" id="Skin" fill="#ae5d29" blush:color="Skin-500" blush:i="0.0.0.0"/><path d="M531.968186,30.3479 C532.109186,29.9379 532.768186,29.8679 532.868186,30.3479 C534.479186,37.7169 537.498186,45.7979 540.558186,52.7079 C543.668186,59.7079 547.918186,66.1379 553.288186,71.5979 C564.538186,83.0379 579.008186,88.2579 594.878186,88.2679 L595.258186,88.2779 C595.331519,87.7445667 595.413742,87.2112333 595.490038,86.6779 L595.598186,85.8779 C597.048186,74.9179 610.058186,75.2379 612.598186,83.5079 C613.888186,83.9179 615.178186,84.3279 616.458186,84.7579 L616.714024,84.8499243 C618.868756,85.6700865 626.167761,89.3049213 627.508186,88.3379 C630.458186,86.2169 633.828186,88.6479 634.948186,91.3579 C636.778603,95.7949833 637.084471,101.279046 637.67887,106.092942 L637.758186,106.7169 L637.848186,107.4669 C679.598186,118.3179 703.028186,160.0879 714.988186,198.5679 C721.468186,219.4279 725.708186,240.9479 729.968186,262.3479 C734.528186,285.2379 738.729186,308.1879 743.178186,331.0879 C751.948186,376.2169 760.248186,421.4479 767.458186,466.8479 L769.548757,480.032258 C776.153991,521.779306 782.58771,563.502186 787.998186,605.4379 C790.918186,628.0479 793.658186,650.6779 796.298186,673.3279 C796.771519,677.367233 797.240408,681.407456 797.705149,685.450641 L798.399186,691.5179 C799.018186,696.9579 800.068186,702.3379 797.378186,707.4279 C791.548186,718.4669 773.888186,718.3869 772.888186,704.2479 C772.689186,701.4379 773.638186,699.2879 775.208186,697.7879 L775.186445,697.550493 C775.170964,697.409011 775.155186,697.304567 775.149186,697.2579 C774.628186,694.4479 774.488186,691.4779 774.168186,688.6369 C773.468186,682.5779 772.788186,676.5179 772.098186,670.4479 C770.768186,658.8869 769.428186,647.3279 768.038186,635.7779 C765.229186,612.3479 762.258186,588.9479 759.109186,565.5679 L755.987405,542.450875 C745.54736,465.39385 734.666368,388.353355 720.348186,311.9079 C716.448186,291.0979 712.439186,270.3179 708.328186,249.5479 C704.428186,229.8779 700.048186,210.2979 693.508186,191.3079 C682.828186,160.2879 664.158186,131.2379 638.238186,110.8779 C638.638186,114.7679 638.928186,118.6779 639.298186,122.5679 C640.248186,132.5579 641.258186,142.5379 642.278186,152.5179 C645.988186,188.6779 651.018186,224.7779 659.598186,260.1369 C663.848186,277.6579 669.028186,294.9479 675.338186,311.8379 C678.448186,320.1579 681.838186,328.3679 685.558186,336.4279 C689.238186,344.3979 695.689186,352.9179 696.078186,361.7979 C696.258186,365.9079 691.958186,369.5579 687.979186,369.1179 C689.838186,385.4779 690.888186,402.0079 691.998186,418.3279 C693.618186,441.9669 694.908186,465.6479 696.798186,489.2679 C700.178186,531.5779 704.418186,573.8279 708.858186,616.0379 C709.738186,624.4059 710.694986,632.7675 711.641546,641.12782 L712.434013,648.147585 C712.967715,652.69826 713.773976,658.152111 711.358186,662.1879 C713.518186,667.3979 714.998186,672.7479 715.859186,678.3279 C716.948186,685.2679 712.979186,693.0479 704.878186,692.7479 C703.958186,692.7169 703.038186,692.6369 702.118186,692.5379 C694.608186,694.2779 687.118186,695.8079 679.318186,695.8579 C669.358186,695.9279 659.378186,695.7279 649.418186,695.6579 C630.149186,695.5279 610.878186,695.3979 591.608186,695.2379 C521.848186,694.6779 452.058186,694.7079 382.308186,693.5879 L354.400868,693.144937 C328.816986,692.733456 303.229519,692.259233 277.658186,691.3279 C260.048186,690.6879 242.439186,690.0379 224.838186,689.3279 L221.254811,689.191366 C205.725023,688.625553 190.176757,688.335043 174.818186,685.9579 C174.433186,685.892817 174.266658,685.493303 174.326305,685.142175 L174.348186,685.0479 L173.678186,684.8979 C173.288186,686.5779 165.188186,679.5179 165.248186,674.8279 C161.888186,670.4579 163.458186,663.4779 163.818186,658.4179 C164.168186,653.4879 164.608186,648.5479 164.998186,643.6179 C165.828186,633.0879 166.538186,622.5479 167.388186,612.0179 C170.818186,569.5579 173.778186,526.9879 175.698186,484.4379 C176.668186,462.9879 177.448186,441.5279 178.268186,420.0779 C178.637417,410.311746 179.1515,400.537072 180.109315,390.816012 L180.358186,388.3869 C181.408186,378.5279 181.308186,367.9279 184.938186,358.6369 C184.988186,358.5079 185.158186,358.5079 185.208186,358.6369 C188.878186,367.6779 189.228186,378.1879 189.968186,388.1079 C190.098186,388.0679 190.228186,388.0479 190.368186,388.0179 C195.438186,385.6079 200.558186,383.4379 205.358186,380.4579 C206.008186,380.0579 206.638186,379.6369 207.278186,379.2279 C214.828186,356.1279 223.578186,333.4079 231.628186,310.4579 C257.638186,236.2479 271.998186,157.2169 275.178186,78.6379 C255.338186,91.428203 233.730399,101.378763 212.725552,112.063907 L210.758186,113.0679 C190.068186,123.6479 170.258186,135.6579 155.528186,154.0079 C142.688186,169.9879 134.298186,189.4579 126.448186,208.2279 C118.018186,228.3979 110.418186,248.9279 103.468186,269.6479 C89.3681861,311.6879 78.4481861,354.7579 69.9281861,398.2679 C61.5181861,441.2079 55.5081861,484.4669 51.4881861,528.0279 C49.4381861,550.2479 47.5681861,572.4879 45.9981861,594.7579 C45.1981861,606.0279 44.4881861,617.3079 43.8281861,628.5979 C43.5081861,634.0779 43.2681861,639.5679 42.9081861,645.0479 C42.6881861,648.2079 42.6481861,651.4669 41.6081861,654.4669 C40.7381861,656.9669 39.1981861,659.0579 37.7581861,661.2679 C35.1281861,665.2979 28.4881861,666.0279 26.0181861,661.2679 L24.9486661,659.2063 C23.5329861,656.4607 22.2401861,653.6959 22.0481861,650.5279 C21.8681861,647.5279 22.2381861,644.3979 22.4081861,641.3869 C22.7381861,635.2979 23.1181861,629.1979 23.4981861,623.1079 C24.2981861,610.2979 25.1881861,597.4879 26.1881861,584.6879 C28.1781861,559.0479 30.7381861,533.4779 33.9581861,507.9579 C45.2881861,418.3279 61.6481861,329.1679 92.8681861,244.1079 C100.588186,223.0779 109.198186,202.2169 118.918186,182.0279 C128.318186,162.5079 140.208186,144.0779 157.468186,130.6379 C173.356186,118.2635 191.824666,109.981004 210.175181,101.94181 L212.468186,100.9379 C233.038186,91.9479 253.568186,82.2679 275.048186,75.5879 C274.568186,75.6479 274.098186,75.7079 273.689186,75.8479 C273.218186,75.9979 272.939186,75.3879 273.229186,75.0579 C274.448186,73.7079 274.958186,72.3179 276.359186,70.9879 C277.326386,70.0679 278.332626,69.1991 279.367666,68.36102 L280.857168,67.1756562 C283.582221,65.012508 286.447506,62.8023 289.878186,62.0479 C294.729186,60.9879 297.109186,65.3979 295.748186,68.8479 C296.448186,67.9379 298.328186,68.2079 298.818186,69.4579 C314.778186,110.6179 325.258186,154.1879 346.738186,193.0779 C362.598186,221.8079 383.878186,248.3379 412.118186,265.6879 C427.288186,275.0079 444.649186,282.1679 462.578186,283.2979 C478.678186,284.3079 494.168186,280.2169 507.859186,271.7679 C534.399186,255.3979 551.729186,226.6579 564.088186,198.8079 C577.678186,168.1479 587.378186,135.4779 593.078186,102.3579 C575.018186,102.6079 555.958186,94.3679 543.948186,80.9379 C537.628186,73.8679 532.918186,65.2579 530.528186,56.0779 C528.118186,46.8179 528.888186,39.2079 531.968186,30.3479 Z M380.457886,6.2976 C382.658886,2.3676 387.538886,1.0676 391.528886,2.6676 C395.957886,4.4476 397.288886,8.7476 396.658886,13.1176 C395.927886,18.2376 392.637886,23.7686 390.078886,28.2376 C387.398886,32.9176 383.948886,37.2286 380.377886,41.2576 C373.658886,48.8576 366.467886,55.7076 357.938886,61.3086 C349.448886,66.8776 339.847886,71.0476 329.978886,73.3776 L327.632545,73.9251136 C319.955347,75.6805147 309.032725,77.6915032 302.637886,73.5186 C302.328886,73.3176 302.337886,72.9076 302.637886,72.7076 C306.097886,70.2976 310.728886,69.8676 314.707886,68.7286 C319.047886,67.4786 323.398886,66.0586 327.547886,64.2776 C335.738886,60.7576 343.578886,56.1176 350.557886,50.5776 C357.568886,45.0186 364.347886,38.3886 369.038886,30.7376 C371.398886,26.8986 373.408886,22.8676 375.337886,18.8086 C377.288886,14.7376 378.267886,10.2176 380.457886,6.2976 Z" id="Ink" fill="#000" blush:i="0.0.0.1"/></g></g><g id="Head" transform="translate(372.000000, 180.000000) scale(0.9978902953586498 1)" blush:width="473" blush:height="567" blush:component="Head" blush:i="0.1" blush:value="Hat" blush:viewBox="-63.50239234449759 17.00999999999999 583.9952153110048 498.96000000000015"><g id="Head/Hat" stroke="none" stroke-width="1" fill="none" fill-rule="evenodd" blush:viewBox="-63.50239234449759 17.00999999999999 583.9952153110048 498.96000000000015" blush:i="0.1.0"><path d="M418.885851,283.398022 C418.487525,260.972176 418.047165,238.097854 414.714438,215.89024 C411.455771,194.179155 402.491435,174.554288 387.086829,158.788524 C354.367053,125.299916 306.93824,117.120218 262.790111,109.624248 L187.309342,96.8076199 C164.281497,92.8984632 139.714393,86.6498191 116.448353,92.1937139 C104.983972,94.9256187 95.2480043,101.272367 86.3497225,108.781352 C77.7727035,116.019047 68.5511571,123.791312 62.7394011,133.528665 C56.9176369,143.280034 54.914998,154.679155 53.0224493,165.707882 C50.8877023,178.142103 49.2293452,190.673427 48.0513812,203.234784 C45.6904492,228.401544 45.3681854,253.757505 47.0805868,278.97632 C47.9102657,291.208326 49.230346,303.405295 50.9157252,315.548207 C51.7514091,321.569609 52.6961823,327.575996 53.7630553,333.56136 C54.0773125,335.326237 54.3165083,337.280315 54.638772,339.254414 C52.2578235,346.027616 50.9047162,353.042074 51.0138055,360.026501 C51.3350684,380.600377 68.6962759,393.55315 86.1985988,400.507544 C96.3469036,404.539832 106.956586,407.279745 116.927746,411.784535 C127.41733,416.522573 134.557173,424.20374 141.729042,432.966057 C155.407235,449.677827 170.842867,464.697798 188.468291,477.229122 C225.836871,503.798373 273.167604,516.364735 318.508708,506.826593 C329.387611,504.53816 340.362592,500.984381 350.141595,495.629688 C360.466044,489.976677 368.229397,481.784966 374.748732,472.099668 C386.853638,454.11955 395.534742,433.873022 402.102117,413.270115 C408.800598,392.253768 413.555489,371.199381 416.148611,349.285079 C418.732726,327.441853 419.277172,305.376391 418.885851,283.398022 L418.885851,283.398022 Z" id="Skin" fill="#ae5d29" blush:color="Skin-500" blush:i="0.1.0.0"/><path d="M177.792475,18.7642714 C208.987019,14.4714829 252.042686,28.4237956 267.577988,56.5564099 C341.747239,39.0632715 435.293889,38.4902998 496.4246,96.7244313 C560.211995,165.803029 480.091693,256.883542 426.965016,277.418531 C430.833099,296.224604 424.802088,416.70367 382.128231,470.444023 C348.261012,515.97778 269.393089,536.991745 232.898171,482.605424 L232.613497,482.156674 C228.703599,475.875719 232.070968,476.077404 236.084593,480.749515 C271.820886,512.189967 320.409812,512.72694 357.85226,479.546574 C428.02549,418.899562 420.790075,270.196887 387.39862,184.170124 C292.315731,173.722639 190.512173,202.554218 124.839712,274.159691 L129.280512,300.906374 C130.037137,305.463149 130.896711,310.015925 131.552386,314.5887 C131.972178,317.518556 132.019155,320.432412 129.99016,322.804295 C123.29048,330.63391 111.999074,318.868489 102.708677,314.18872 C99.9660362,313.802739 97.2183976,313.653746 94.5237328,313.843737 C49.8878488,319.595453 58.6824913,406.221186 107.740184,391.036934 C111.862142,388.468061 115.403387,389.252022 117.002595,392.979839 C128.695801,403.695311 136.405981,422.806369 155.833355,441.213463 C162.687959,448.118123 168.925868,453.894838 176.636048,459.433565 C181.164804,464.01534 194.830033,468.687109 190.49818,476.527723 C182.306239,494.368844 133.999174,438.326605 125.458405,422.828368 C98.6986642,433.399848 69.0433577,429.809024 41.3120979,427.225152 C-104.985415,419.615527 -85.4550919,265.333126 34.4614922,167.926924 C57.0343079,151.301743 81.9389682,137.739411 107.827141,127.302925 C111.36139,125.877995 109.817155,120.072281 106.232931,121.51721 C89.1034184,128.42387 72.4046922,136.644465 56.4865793,146.158996 L56.4624801,140.470693 C56.4391584,130.889915 56.5893617,120.915406 58.2527042,112.161671 C59.0842922,106.09597 60.4825994,99.6172888 62.6355326,94.7435289 C65.2972138,79.8012649 106.991555,28.5117913 177.792475,18.7642714 Z M92.5713002,333.731357 C94.8301809,331.584463 99.0470916,334.144337 101.058095,334.08034 C106.200547,334.784305 111.086127,336.957198 114.896239,339.639066 C117.411992,341.048997 119.175119,342.372931 120.648389,343.590871 L120.688369,343.579872 C120.677374,343.579872 120.663381,343.590871 120.651387,343.593871 L120.790058,343.687615 C122.935267,345.212459 130.788252,353.801267 125.826823,351.491482 C125.457006,351.010506 125.078194,350.548529 124.696383,350.095551 C124.655403,350.157548 124.598431,350.218545 124.530465,350.277542 L124.809152,350.691309 C129.026056,357.037483 121.745498,350.351538 120.6254,348.575626 C120.572426,348.618624 120.512456,348.647622 120.453485,348.678621 L121.912196,350.454773 C122.11613,350.706943 122.276457,350.908261 122.409516,351.078502 L122.717113,351.375583 C127.592706,356.17004 127.745024,360.484878 122.080679,353.396388 C122.303569,353.730372 122.48248,354.084354 122.507467,354.398339 L122.84315,354.826446 C127.290584,360.559942 123.673124,358.523742 121.463126,356.074987 L121.27819,355.864358 L121.31603,355.921547 C123.371992,359.090184 119.292687,356.866898 118.571852,355.171963 L118.541433,355.095305 C117.755955,354.454136 117.272603,353.734572 117.106818,353.552863 L117.076159,353.522382 C113.252053,349.602575 107.7088,346.285739 103.000133,344.778813 C102.317471,344.648819 101.626813,344.544824 100.929159,344.470828 C98.097562,343.838859 95.2349804,343.40588 92.3424136,343.171892 C91.9885889,343.129894 91.6297667,342.869907 91.3618994,342.533923 C86.9878974,342.386346 88.3380949,340.592676 90.1528348,340.259594 L90.1845961,340.254127 L89.8245722,340.223808 C87.0175201,339.949732 85.1004664,338.942117 87.9387558,338.323679 L88.2984173,338.252134 C88.2544391,338.183138 88.2154584,338.114141 88.1774772,338.045144 C85.7466816,337.778158 87.3328957,335.414274 88.6822271,335.986246 C88.1145084,334.129337 90.7092228,335.056292 91.0330623,334.780305 C91.27994,334.506319 91.586788,334.264331 91.7637003,334.251331 C92.545313,333.699359 92.1665007,333.749356 92.5713002,333.731357 Z M107.444331,303.667238 L106.874613,304.000221 C106.413842,304.269208 105.940076,304.448199 105.464312,304.553194 C106.135979,304.83918 106.79965,305.148165 107.456325,305.478149 C107.445664,305.074835 107.438112,304.671966 107.438112,304.269838 L107.444331,303.667238 Z" id="Ink" fill="#000" blush:i="0.1.0.1"/></g></g><g id="Face" transform="translate(531.000000, 366.000000) scale(1 1)" fill="#000" blush:width="289" blush:height="293" blush:component="Face" blush:i="0.2" blush:value="Eating Happy" blush:viewBox="51.43965517241378 61.53000000000003 187.58620689655172 193.38"><g id="Face/Eating Happy" stroke="none" stroke-width="1" fill="none" fill-rule="evenodd" blush:viewBox="51.43965517241378 61.53000000000003 187.58620689655172 193.38" blush:i="0.2.0"><path d="M126.149889,196.292214 C131.744002,187.090211 143.667824,209.632062 144.934713,213.508101 C146.056772,216.941676 146.797464,220.458991 147.173947,224.017014 C151.510872,224.989057 156.01445,224.990851 160.458249,224.139019 C167.062878,222.871873 171.100325,219.321223 176.840498,216.27243 C180.80528,214.165719 185.802087,216.636182 187.863888,220.130132 C190.289134,224.242684 188.744036,228.511189 185.554301,231.577101 C179.505319,237.390824 167.603613,238.726425 159.707644,237.182493 C155.183676,236.298273 151.03744,234.601718 147.375949,232.136142 C147.351679,232.596242 147.335471,233.056465 147.299179,233.515885 L147.229265,234.312833 C146.622587,240.760805 144.850336,248.868644 139.841994,253.064289 C131.627701,259.946669 121.490148,246.710667 129.471775,239.836072 L129.719209,239.629726 C134.680373,235.621175 135.762718,224.866141 135.495556,218.942309 C135.320385,215.075928 134.616096,211.160035 133.395334,207.477648 L133.144299,206.744368 C132.776832,205.704151 128.770187,195.83676 127.322375,197.093402 L127.253261,197.164261 C126.656242,197.877109 125.691416,197.04675 126.149889,196.292214 Z M170.814304,144.367155 C178.365682,148.9572 189.871664,159.660291 181.748119,171.039573 C172.185929,181.073062 158.418535,169.568982 151.634201,164.366134 C145.343449,160.333898 138.275437,170.704507 144.112,175.412823 C193.135736,211.708059 213.030606,145.567387 174.633685,138.970386 C170.406047,138.243425 168.835891,142.947174 170.814304,144.367155 Z M90.1787,101.9403 C97.5587,100.6313 105.1187,102.4663 111.2257,106.7843 L111.688541,107.117181 C117.57206,111.42005 124.154854,118.975479 120.7787,126.3923 C119.4237,129.3703 115.3657,129.8373 112.7907,128.4873 C108.5037,126.2393 107.7267,120.7083 103.9017,117.6473 C100.7647,115.1383 96.5407,113.6163 92.5007,113.9833 C83.0097,114.8453 77.1717,124.2063 74.2237,132.2733 C73.8467,133.3053 72.3317,133.7063 71.7397,132.5983 C64.7887,119.6063 77.0927,104.2623 90.1787,101.9403 Z M208.3893,97.0373 C222.5263,95.8723 239.0733,110.5283 235.3513,125.4503 C233.5663,132.6103 222.9453,132.4053 221.0573,125.4503 C220.0183,121.6233 220.1223,118.2373 217.3673,115.0593 C215.0933,112.4353 211.8623,110.9113 208.3893,111.1453 C204.5613,111.4033 201.0303,113.3163 198.3473,116.0053 C195.9243,118.4333 194.4753,121.9863 191.9653,124.1353 C191.3473,124.6633 190.5203,124.6973 189.9103,124.1353 C185.5903,120.1523 188.1833,111.8603 190.9223,107.7023 C194.8423,101.7523 201.2253,97.6283 208.3893,97.0373 Z M63.2578,75.4751 C72.3268,67.4471 88.8058,59.6941 101.0348,63.6451 C108.0658,65.9161 111.1308,77.2451 103.2818,80.8361 C94.1928,84.9941 83.7138,83.3021 74.4628,87.6121 C70.5778,89.4231 66.9238,91.6861 64.2188,95.0051 C62.0878,97.6211 59.9198,101.0631 56.8378,102.5711 C56.0278,102.9681 54.9308,102.9781 54.2818,102.2421 C47.5258,94.6001 57.3588,80.6961 63.2578,75.4751 Z M192.8016,63.2466 C198.4066,61.6736 204.6246,61.7056 210.3186,62.6936 C216.0106,63.6816 221.7896,66.0406 226.4366,69.4816 L226.976058,69.8845105 C232.049154,73.7073503 238.103014,79.2694621 237.7786,86.0416 C237.5076,91.6966 231.5586,95.5216 226.4226,92.5576 C222.2356,90.1406 220.2656,85.2986 216.7206,82.0746 C213.7956,79.4136 210.3596,77.3156 206.6936,75.8456 C202.6216,74.2126 198.5426,73.4476 194.1726,73.3746 C190.8076,73.3186 187.4226,74.4226 184.1206,74.7756 C184.3926,75.3336 181.7826,75.0736 180.2866,74.5786 C179.1786,74.1066 179.1726,72.7056 179.5566,71.7966 C181.4616,67.2936 188.3926,64.4826 192.8016,63.2466 Z" id="Ink" fill="#000" blush:i="0.2.0.0"/></g></g><g id="Beard" transform="translate(494.999934, 517.999659) scale(1 1)" fill="#000" blush:width="280" blush:height="230" blush:component="Beard" blush:i="0.3" blush:value="None" blush:viewBox="490 402.5 0 0"><g id="Beard/None" stroke="none" stroke-width="1" fill="none" fill-rule="evenodd" fill-opacity="0" blush:viewBox="490 402.5 0 0" blush:i="0.3.0"/></g><g id="Mask" transform="translate(400.000000, 480.000000) scale(1 1)" fill="#000" blush:width="397" blush:height="228" blush:component="Mask" blush:i="0.4" blush:value="None" blush:viewBox="694.75 399 0 0"><g id="Mask/None" stroke="none" stroke-width="1" fill="none" fill-rule="evenodd" fill-opacity="0" blush:viewBox="694.75 399 0 0" blush:i="0.4.0"/></g><g id="Accessories" transform="translate(419.000000, 421.000000) scale(1 1)" fill="#000" blush:width="392" blush:height="138" blush:component="Accessories" blush:i="0.5" blush:value="None" blush:viewBox="686 241.5 0 0"><g id="Accessories/None" stroke="none" stroke-width="1" fill="none" fill-rule="evenodd" fill-opacity="0" blush:viewBox="686 241.5 0 0" blush:i="0.5.0"/></g></g></svg>