<svg viewBox="165.0270270270271 191.625 805.9459459459459 1149.7500000000002" xmlns="http://www.w3.org/2000/svg" xmlns:blush="http://design.blush" overflow="visible" xmlns:xlink="http://www.w3.org/1999/xlink" width="805.9459459459459px" height="1149.7500000000002px"><g id="Master/Character/Bust" stroke="none" stroke-width="1" fill="none" fill-rule="evenodd" blush:has-customizable-colors="true" blush:viewBox="166.11320754716974 76.65000000000009 788.4636118598385 1272.3900000000003" blush:i="0"><g id="Body" transform="translate(147.000000, 639.000000) scale(1 1)" blush:width="818" blush:height="733" blush:component="Body" blush:i="0.0" blush:value="Coffee" blush:viewBox="20.450000000000045 -17.997767857142776 789.3699999999998 719.9107142857142"><g id="Body/Coffee" stroke="none" stroke-width="1" fill="none" fill-rule="evenodd" blush:viewBox="20.450000000000045 -17.997767857142776 789.3699999999998 719.9107142857142" blush:i="0.0.0"><rect id="Cup" fill="#FDEA6B" x="461" y="279" width="229" height="282" blush:i="0.0.0.0"/><path d="M394.207017,3.17338772 C418.892017,-15.6236123 480.865017,-24.0766123 507.211017,-5.97761228 C533.233017,12.1973877 536.069855,41.5888511 548.195855,68.6268511 C559.636855,63.2318511 578.530447,70.9583877 581.847447,81.5743877 C585.961447,86.5813877 586.146216,100.648748 588.983216,107.379748 C712.425216,127.028748 731.166017,223.267388 746.024017,332.525388 C765.680017,443.394388 810.301017,554.021388 790.930017,668.107388 C793.454017,671.759388 795.444017,675.309388 797.284017,679.525388 C801.693017,687.027388 796.014017,697.646388 787.121017,697.235388 C775.610017,696.224388 764.213017,694.844388 752.648017,694.413388 C720.588278,693.299996 688.499261,693.432745 656.42735,693.840212 L652.054017,693.897388 C490.421017,695.909388 328.797017,699.874388 167.157017,700.92591 C161.293017,700.934388 158.422017,695.675388 159.205017,690.487388 C160.782017,680.042388 162.245017,669.592388 163.772017,659.142388 C125.540017,669.240388 84.8960175,671.781388 46.7720175,660.204388 C44.1050175,657.487388 52.9860175,658.960388 54.3950175,658.547388 C19.3090175,634.572388 29.7870175,584.065388 32.8950175,547.687388 C52.2210175,423.036388 59.0340175,285.118388 133.703017,178.751388 C166.006017,135.343388 213.365017,100.975388 267.784017,93.2423877 L269.293764,93.0356767 C285.205828,90.9140296 302.939679,90.2305877 316.852017,81.5743877 C332.49923,69.08308 339.167105,46.00245 355.628632,45.7863847 C361.06431,45.7150388 368.458807,52.5915618 376.416017,57.2603877 C377.01004,46.9897486 382.545009,38.3222537 383.767065,30.358889 L383.86599,29.6778754 C385.14118,20.3936924 383.394763,12.0408852 394.207017,3.17338772 Z M659.495297,335.818614 C624.804565,311.719109 535.1916,323.828161 533.140143,325.177637 C528.623143,328.148637 526.678017,328.411388 524.235017,332.269388 C521.823017,332.589388 519.413017,332.921388 517.005017,333.263388 C512.174017,334.841388 515.754017,340.783388 521.334017,338.663388 C517.977768,353.137685 527.854893,363.431367 531.787017,377.740773 C533.063751,382.386936 531.833098,390.743134 531.787017,395.490388 C532.168342,401.543287 538.860548,408.693008 537.745186,414.765623 C533.779882,436.354816 512.261842,457.414706 521.334017,478.351576 C527.344017,490.176576 545.420017,496.206388 557.438017,500.226388 C582.337017,509.782388 625.721229,499.866576 640.188229,478.351576 C647.904711,466.875795 656.844613,437.928116 661.445613,428.949116 L662.465404,414.705533 C664.980344,379.298715 667.217404,341.183129 659.495297,335.818614 Z" id="Skin" fill="#edb98a" blush:color="Skin-500" blush:i="0.0.0.1"/><path d="M354.34521,45.8506711 L364.273041,51.9428436 L421.931257,80.4449923 C433.109106,83.5746757 438.69803,87.3255981 438.69803,91.6977595 L438.69803,136.216897 C438.69803,142.174517 449.187526,155.676664 470.166517,176.723337 L489.548223,157.401666 L489.114881,154.872008 C487.270547,143.971712 486.34838,136.680179 486.34838,132.997409 C486.34838,129.036695 505.310106,114.001208 543.233559,87.8909498 L559.824515,72.2711686 L558.055625,66.8913501 C568.28536,67.3748239 579.379133,73.6745929 581.847447,81.5743877 C585.961447,86.5813877 586.146216,100.648748 588.983216,107.379748 C712.425216,127.028748 731.166017,223.267388 746.024017,332.525388 C765.680017,443.394388 810.301017,554.021388 790.930017,668.107388 C793.454017,671.759388 795.444017,675.309388 797.284017,679.525388 C801.693017,687.027388 796.014017,697.646388 787.121017,697.235388 C775.610017,696.224388 764.213017,694.844388 752.648017,694.413388 C720.588278,693.299996 688.499261,693.432745 656.42735,693.840212 L652.054017,693.897388 C490.421017,695.909388 328.797017,699.874388 167.157017,700.92592 C161.293017,700.934388 158.422017,695.675388 159.205017,690.487388 C160.782017,680.042388 162.245017,669.592388 163.772017,659.142388 C125.540017,669.240388 84.8960175,671.781388 46.7720175,660.204388 C44.1050175,657.487388 52.9860175,658.960388 54.3950175,658.547388 C19.3090175,634.572388 29.7870175,584.065388 32.8950175,547.687388 C52.2210175,423.036388 59.0340175,285.118388 133.703017,178.751388 C166.006017,135.343388 213.365017,100.975388 267.784017,93.2423877 L269.293764,93.0356767 L270.814526,92.8376623 C286.327935,90.8626014 303.381341,89.9557877 316.852017,81.5743877 C332.086209,69.4127984 338.808841,47.2135369 354.34521,45.8506711 Z M492.502284,307.156233 C486.847075,307.156233 475.265223,315.938335 457.756729,333.50254 L456.214298,334.215475 C435.049475,344.046356 421.028345,352.574236 414.150907,359.799118 L413.905436,360.059691 C406.957776,367.51318 393.19938,387.333028 372.630249,419.519233 L342.843581,437.134242 L331.573175,437.134242 L323.549046,495.337988 L342.843581,536.897302 L386.547386,522.175978 L457.756729,503.406604 L498.618679,461.951208 L521.668835,454.213052 C518.872405,462.292506 517.858643,470.331068 521.334017,478.351576 C527.344017,490.176576 545.420017,496.206388 557.438017,500.226388 C582.337017,509.782388 625.721229,499.866576 640.188229,478.351576 C647.904711,466.875795 656.844613,437.928116 661.445613,428.949116 L662.765244,410.445982 C665.143374,376.30187 666.90852,340.968548 659.495297,335.818614 C624.804565,311.719109 535.1916,323.828161 533.140143,325.177637 C528.623143,328.148637 526.678017,328.411388 524.235017,332.269388 L522.970432,332.438671 L530.082173,322.793608 L527.564018,321.449107 C509.596157,311.920524 497.908912,307.156233 492.502284,307.156233 Z M521.334017,338.663388 C518.120877,352.520508 527.036641,362.54593 531.253086,375.931601 L520.479517,355.307747 L520.479408,338.930764 C520.75825,338.862334 521.043421,338.773793 521.334017,338.663388 Z" id="Top" fill="#9DDADB" blush:i="0.0.0.2"/><path d="M349.584517,43.6984877 C351.979517,41.5774877 355.523517,44.2424877 354.001517,47.1074877 C350.581517,53.5464877 347.073517,59.6474877 342.483517,65.3394877 C339.700517,68.7904877 336.719517,72.0544877 333.698517,75.2824877 C341.451517,81.9894877 348.100517,90.3164877 354.379517,98.1204877 C362.408517,108.101488 369.999517,118.505488 379.012517,127.638488 C387.901283,136.645679 397.729749,142.942015 409.613561,147.140633 L412.013721,147.974286 C423.951928,152.165365 436.711387,157.82527 443.440517,169.128488 C444.767517,171.357488 442.095517,174.111488 439.849517,172.720488 C428.156517,165.480488 414.417517,164.024488 401.689517,159.240488 C389.394517,154.619488 378.676517,147.507488 369.206517,138.430488 C359.752517,129.368488 351.814517,119.058488 343.534517,108.966488 C335.346517,98.9874877 326.530517,90.4644877 316.845517,82.0214877 C301.899991,92.0758737 284.840037,96.4508198 267.492975,100.74777 L265.599517,101.216488 C248.231517,105.516488 230.956517,110.510488 214.662517,117.998488 C200.296517,124.599488 186.166517,132.482488 174.464517,143.224488 C162.042517,154.624488 152.374517,169.184488 143.525517,183.423488 C123.731517,215.279488 109.815517,250.179488 97.5645175,285.503488 C84.8225175,322.245488 74.1645175,359.723488 65.5605175,397.646488 C61.1845175,416.936488 57.6305175,436.363488 54.7095175,455.926488 C53.3035175,465.348488 52.0545175,474.790488 50.9575175,484.253488 C49.7865175,494.358488 49.5175175,504.754488 46.4175175,514.470488 C45.0885175,518.634488 41.9505175,520.362488 38.8095175,520.215488 L38.1715415,528.194256 C37.3255575,538.832208 36.5369175,549.473488 36.2705175,560.177488 C35.8286044,577.975488 36.0289749,595.722251 37.3092061,613.48254 L37.4905175,615.904488 C38.4965175,628.866488 40.7445175,643.430488 50.4915175,652.921488 C60.5855175,662.751488 76.1085175,665.842488 89.7135175,666.019488 C121.400517,666.432488 151.902517,651.460488 179.942517,638.325488 C208.820517,624.798488 236.909517,609.783488 264.325517,593.499488 C278.287517,585.206488 292.098517,576.637488 305.733517,567.818488 C312.424517,563.489488 319.068517,559.087488 325.662517,554.614488 C329.439517,552.052488 333.018517,549.243488 336.863517,546.970488 C334.979517,545.216488 334.138517,542.458488 335.716517,540.050488 C324.601517,530.402488 319.975517,513.185488 319.434517,499.254488 C318.997517,488.009488 320.652517,476.796488 321.958517,465.657488 C322.617517,460.040488 323.431517,454.433488 324.276517,448.841488 C324.610517,446.632488 324.865517,444.269488 325.255517,441.937488 C295.242517,458.430488 264.388517,473.118488 232.717517,486.167488 C216.483517,492.856488 200.041517,498.870488 183.372517,504.381488 L179.993972,505.493103 C164.200055,510.662985 148.028251,515.546621 131.700517,518.502488 C130.827517,518.660488 130.118517,517.371488 131.050517,516.960488 C146.962517,509.939488 163.425517,504.017488 179.576517,497.551488 L182.230517,496.470488 L182.230517,496.470488 C181.925517,496.453488 181.609517,496.411488 181.279517,496.332488 C171.807517,494.046488 162.409517,490.523488 153.119517,487.557488 C144.497517,484.804488 134.810517,483.075488 126.751517,478.919488 C126.131517,478.599488 126.478517,477.737488 127.082517,477.696488 C136.140517,477.068488 145.973517,479.708488 154.854517,481.261488 L158.190814,481.84589 C163.779795,482.831377 169.492851,483.890821 175.054517,485.272488 C175.255517,483.409488 176.296517,481.538488 177.777517,480.441488 C194.074517,468.372488 192.419517,443.996488 194.162517,426.021488 L195.455006,412.676462 C197.728429,389.321229 200.133517,365.969128 203.787517,342.788488 C203.982517,341.550488 205.897517,341.905488 205.905517,343.074488 C206.093979,371.809103 203.924822,400.411507 202.837574,429.101281 L202.669216,433.807744 C202.068138,451.510533 201.597052,469.892813 190.447517,483.514488 C192.006517,482.603488 194.114517,482.603488 195.377517,484.105488 C196.929517,485.952488 197.825517,488.026488 197.797517,490.061488 C207.872517,485.837488 217.903517,481.503488 227.885517,477.081488 C259.978517,462.863488 291.398517,446.952488 321.987517,429.736488 C325.279517,427.883488 328.408517,429.339488 330.036517,431.782488 L330.27148,431.748784 C330.31074,431.743488 330.350517,431.739488 330.391517,431.738488 L330.624517,431.728488 C330.633517,431.728488 330.642517,431.729488 330.650517,431.729488 C334.956517,429.363488 340.822517,431.048488 344.517517,434.499488 C344.626517,434.603488 344.719517,434.715488 344.816517,434.825488 C349.494517,432.725488 353.862517,429.890488 357.826517,426.297488 C365.938517,418.945488 372.809517,409.854488 378.799517,400.738488 C389.830517,383.948488 399.200517,365.277488 414.101517,351.456488 C426.208517,340.227488 441.218517,333.236488 456.965517,328.847488 C456.899517,328.387488 457.075517,327.897488 457.393517,327.571488 C458.202517,326.742488 458.779517,326.455488 459.824517,326.958488 C459.907517,326.999488 459.957517,327.055488 459.991517,327.115488 L461.528134,324.490015 C462.366879,323.065413 463.228138,321.630419 463.526517,321.253488 C465.314517,319.002488 467.154517,316.768488 469.022517,314.581488 C472.189517,310.878488 475.798517,307.224488 479.977517,304.656488 C489.127517,299.035488 498.746517,302.216488 508.153517,305.288488 C513.837517,307.145488 519.502517,309.062488 525.176517,310.947488 L525.761817,311.138618 C529.992678,312.497968 534.943517,313.686977 536.835517,318.169488 C537.584517,319.943488 537.700517,321.784488 537.351517,323.570488 C577.535517,313.351488 622.167517,318.046488 661.380517,330.042488 C662.885517,330.502488 664.388517,331.740488 664.705517,333.366488 C669.198517,356.407488 671.199517,380.036488 669.166517,403.470488 C667.412517,423.698488 662.930517,443.521488 654.484517,462.040488 L654.00433,463.086094 C646.066795,480.248597 633.486417,501.405268 614.273517,506.784488 C602.672517,510.032488 589.841517,508.117488 578.009517,507.522488 C566.510517,506.943488 554.756517,506.859488 543.366517,505.051488 C533.222517,503.441488 524.334517,498.894488 518.065517,490.646488 C512.657517,483.530488 509.809517,474.930488 507.476517,466.375488 C506.408517,466.715488 505.347517,467.076488 504.303517,467.485488 C499.896517,469.206488 496.162517,471.984488 492.786517,475.253488 C485.657517,482.157488 480.127517,490.542488 472.668517,497.130488 C465.916517,503.094488 458.222517,507.732488 449.969517,511.298488 C432.868222,518.687647 414.522481,521.640543 396.43313,525.556641 L395.171517,525.831488 C381.553517,528.819488 367.653517,532.488488 355.633517,539.578488 C355.398517,541.665488 354.447517,543.629488 352.923517,544.915488 C355.043517,546.906488 355.941517,550.059488 354.078517,553.017488 C348.874645,561.275956 339.911017,565.974869 331.863977,571.256186 L331.340517,571.601488 C323.424517,576.849488 315.439517,581.993488 307.389517,587.032488 C291.024517,597.278488 274.317517,606.960488 257.374517,616.216488 C230.123517,631.103488 202.287517,645.146488 173.947517,657.884488 C175.648517,666.252988 175.026978,674.882079 176.305491,683.306449 L176.501517,684.508488 C177.047684,687.634688 176.309924,690.250681 174.156356,692.293237 L173.928517,692.502488 L173.932517,692.474488 L173.730517,692.659488 L173.663,692.716038 L173.685517,692.698488 C173.437267,692.925738 173.181142,693.137238 172.920096,693.318644 L172.587517,693.532488 L172.587517,693.532488 C170.513295,694.793006 167.842821,694.77849 165.719074,693.665745 L165.476517,693.532488 L165.068517,693.298488 C162.262517,691.684488 160.327517,687.685488 161.491517,684.508488 C164.352517,676.700488 165.433517,668.367488 168.075517,660.507488 L165.979517,661.444488 L165.979517,661.444488 L163.216955,662.648558 C133.339024,675.568296 100.150687,686.448088 67.5965175,677.640488 C53.2125175,673.747488 39.7685175,665.513488 32.5715175,652.092488 C25.4895175,638.886488 24.4885175,623.552488 24.1125175,608.862488 C23.6485175,590.731488 24.6205175,572.323488 27.0115175,554.348488 C28.6165175,542.282488 30.5575175,529.988488 33.5515175,518.047488 C32.0115175,516.688488 30.8795175,514.739488 30.5805175,512.325488 C29.1675175,500.920488 31.6405175,489.063488 33.1545175,477.717488 C34.6335175,466.639488 36.2675175,455.583488 38.1155175,444.561488 C41.8465175,422.302488 46.1815175,400.090488 51.2285175,378.092488 C60.2105175,338.941488 72.0715175,300.486488 86.3515175,262.950488 L87.6020569,259.680864 C100.79753,225.372121 116.075902,191.794657 137.350517,161.654488 C147.527517,147.234488 158.285517,134.160488 172.665517,123.769488 C186.137517,114.033488 201.333517,107.023488 217.015517,101.665488 C232.714517,96.3034877 248.850517,92.7104877 265.271517,90.4754877 C281.948517,88.2054877 299.551517,86.8134877 315.108517,79.9734877 C313.140517,76.4454877 314.829517,71.6824877 318.141517,69.4944877 C329.287517,62.1304877 339.594517,52.5504877 349.584517,43.6984877 Z M706.390217,363.919788 C706.857217,363.210788 707.966217,363.658788 707.761217,364.497788 C702.340217,386.706788 697.251217,408.960788 693.928217,431.593788 C687.929641,472.443483 689.033057,513.826624 689.523439,554.978455 L689.548217,557.106788 C689.800217,579.272788 690.150217,601.440788 690.883217,623.597788 C691.253217,634.795788 691.985217,646.103788 691.587217,657.307788 C691.370217,663.385788 689.750217,669.134788 689.176217,675.139788 C688.673217,680.390788 689.121217,685.722788 689.372217,690.980788 C689.540217,694.476788 684.380217,694.327788 684.029217,690.980788 L683.580418,686.65163 C682.997365,681.17297 682.276717,675.727788 680.481217,670.483788 C678.322217,664.176788 677.286217,657.982788 676.537217,651.360788 C675.389967,641.213475 674.879768,630.964499 674.436987,620.745807 L674.134217,613.677788 C672.285241,570.973555 672.350047,528.068976 675.343411,485.409472 L675.562217,482.362788 C678.526217,442.038788 683.669217,398.469788 706.390217,363.919788 Z M590.835317,109.773088 C589.419317,109.191088 589.915317,107.050088 591.483317,107.423088 L594.334869,108.103285 C615.229442,113.107995 635.744796,118.530392 655.247317,127.843088 C674.762317,137.161088 691.284317,151.072088 704.412317,168.178088 C729.932317,201.429088 740.537317,241.839088 748.909317,282.211088 C758.213317,327.072088 766.684317,372.097088 776.069317,416.944088 L777.812091,425.297826 C786.496103,467.067431 794.695067,508.860713 800.736317,551.125088 L801.170284,554.190421 C807.26247,597.651926 810.926904,642.618375 804.279317,686.193088 C802.964317,694.814088 788.618317,692.667088 789.179317,684.150088 C790.799317,659.527088 791.959317,635.033088 790.838317,610.355088 C789.716317,585.672088 787.401317,561.097088 783.950317,536.630088 C781.046167,516.039788 776.71697,495.705798 772.885817,475.279166 L772.285317,472.053088 C769.077317,454.679488 765.770117,437.323168 762.470213,419.965696 L757.538852,393.977767 C750.147827,355.064728 742.612217,316.117588 734.097317,277.449088 L733.592008,275.173709 C725.259184,237.971574 712.974217,199.002188 687.979317,169.460088 C662.614317,139.479088 626.303317,124.380088 590.835317,109.773088 Z M498.668317,504.370788 C499.278317,503.011788 501.412317,503.160788 502.068317,504.370788 C504.638684,509.113254 504.924334,515.166747 505.410236,520.520527 L505.461317,521.071788 C506.079317,527.604788 506.626317,534.159788 506.961317,540.713788 C507.596317,553.152788 507.900317,565.575788 507.861317,578.030788 C507.821317,590.794788 507.564317,603.543788 506.876317,616.288788 L506.689611,619.703854 C506.06153,630.779499 505.00811,643.133373 499.745317,652.815788 C497.832317,656.336788 492.629317,655.301788 491.521317,651.741788 C487.891317,640.085788 489.755317,626.265788 490.686317,614.327788 L491.409255,605.012647 C492.12513,595.696475 492.807817,586.376788 493.349317,577.049788 C494.091317,564.288788 494.703317,551.516788 495.292317,538.749788 C495.483651,534.603121 495.69054,530.455121 495.909132,526.308454 L496.245317,520.089788 C496.532317,514.887788 496.508317,509.179788 498.668317,504.370788 Z M90.5205365,520.890299 L92.1274775,519.338025 C97.0604764,514.510543 103.294284,507.075588 110.586817,507.536688 C113.494817,507.720688 115.347817,510.134688 114.744817,512.995688 C113.456817,519.111688 107.217817,522.285688 102.726817,526.019688 C97.8068175,530.108688 93.1698175,534.479688 88.5418175,538.892688 C84.4360397,542.805577 80.4874965,546.829873 76.6336803,550.979623 L75.1928175,552.541688 C73.8114021,554.049134 63.9742916,562.94683 65.0379029,565.255355 L65.0958175,565.358688 C65.3918175,565.800688 64.8988175,566.408688 64.4078175,566.253688 C60.1598175,564.911688 60.4248175,561.270688 62.0308175,557.581688 C65.1168175,550.493688 70.5208175,543.936688 75.2398175,537.883688 C79.9460675,531.84525 85.0399151,526.222535 90.5205365,520.890299 L90.5205365,520.890299 Z M514.061517,343.137488 C510.776517,335.373488 498.675517,335.536488 491.805517,336.000488 C474.505517,337.169488 455.787517,341.546488 440.394517,349.632488 C424.435871,358.015503 413.686174,371.447505 404.067576,386.300239 L403.617517,386.997488 C394.242517,401.570488 385.213517,418.821488 370.533517,428.841488 C363.056517,433.946488 354.325517,438.607488 345.253517,440.626488 C344.630517,441.721488 343.621517,442.588488 342.298517,442.903488 L341.683508,443.044224 C339.099701,443.614713 335.085594,444.246026 331.618517,443.868488 C331.641517,445.564488 331.623517,447.247488 331.666517,448.854488 C331.788517,453.459488 331.840517,458.084488 331.840517,462.692488 C331.842517,472.347488 331.323517,482.021488 331.726517,491.675488 C332.083517,500.214488 333.289517,509.136488 337.389517,516.769488 C340.396517,522.369488 344.365517,526.075488 349.156517,529.613488 C360.942517,522.430488 374.269517,518.052488 387.795517,514.760488 C404.153517,510.779488 420.902517,508.122488 436.888517,502.724488 C444.582517,500.125488 451.979517,496.724488 458.681517,492.105488 C465.794517,487.200488 471.227517,480.564488 476.817517,474.073488 L477.691264,473.065009 C483.396131,466.522234 489.620981,460.261585 497.683517,456.714488 C504.626517,453.658488 513.777517,453.114488 519.848517,448.386488 C523.022517,445.912488 523.288517,442.322488 523.622517,438.646488 C519.734517,439.202488 515.618517,438.311488 511.743517,437.857488 L509.73583,437.621835 C506.071618,437.186482 502.491671,436.707949 498.884517,435.775488 C498.214517,435.602488 498.214517,434.592488 498.884517,434.419488 C503.147517,433.318488 507.372517,432.849488 511.743517,432.337488 L512.770172,432.209455 C516.724458,431.690867 520.880797,430.908168 524.759517,431.778488 C525.455517,429.130488 526.460517,426.602488 527.870517,424.070488 C529.849517,420.513488 533.594517,416.480488 534.100517,412.325488 C534.251517,411.084488 533.962517,409.621488 533.377517,408.524488 L533.175877,408.150556 C532.930061,407.708932 532.63874,407.264821 532.212517,406.989488 C532.165517,407.044488 532.065517,407.107488 531.848517,407.175488 C528.863517,408.115488 526.259517,406.654488 524.877517,404.402488 C519.010517,405.130488 512.607517,404.885488 507.105517,405.128488 L501.542543,405.397555 C495.598418,405.670072 489.384242,405.789384 483.798517,404.588488 C483.018517,404.421488 482.782517,403.123488 483.563517,402.789488 C490.430517,399.852488 498.760517,398.915488 506.112517,397.787488 C510.218517,397.156488 514.354517,396.676488 518.472517,396.121488 C521.214517,395.751488 524.124517,395.140488 526.965517,394.993488 C534.088517,386.126488 530.250517,372.138488 520.337517,368.320488 C516.726517,369.907488 513.479517,368.984488 509.534517,368.645488 C505.596517,368.307488 501.648517,368.078488 497.694517,368.095488 C489.771517,368.130488 481.375517,370.214488 473.529517,369.317488 C472.253517,369.170488 471.067517,367.472488 472.336517,366.436488 C478.342496,361.535422 486.949832,359.937391 494.573457,358.892943 L496.153517,358.681488 C498.709517,358.346488 501.817517,357.857488 505.041517,357.566488 C505.770517,356.144488 507.078517,355.069488 509.043517,354.802488 C509.627517,354.722488 510.214517,354.675488 510.800517,354.625488 L510.791517,354.567488 L510.791517,354.567488 C515.583517,354.337488 515.375517,346.243488 514.061517,343.137488 Z M185.992517,494.562488 C185.907851,494.693154 185.815184,494.817599 185.716592,494.937303 L185.564517,495.113488 L186.352517,494.793488 L185.992517,494.562488 L185.992517,494.562488 Z M597.683517,325.788488 C577.513517,323.621488 557.314517,324.078488 537.084517,324.660488 C535.466517,329.952488 529.834517,334.462488 524.377517,334.632488 C528.651517,341.137488 529.092517,349.941488 526.095517,356.840488 C532.458517,359.373488 537.940517,363.923488 541.268517,370.403488 C545.883517,379.386488 545.279517,389.382488 540.718517,397.684488 C544.611517,401.208488 546.908517,406.931488 546.678517,412.325488 C546.421517,418.340488 542.836517,423.478488 539.857517,428.458488 C536.638517,433.844488 536.530517,438.586488 535.541517,444.618488 C534.094517,453.446488 528.140517,458.800488 520.479517,462.144488 L520.886789,463.746442 C522.861903,471.43454 525.319365,479.546705 530.964517,485.168488 C538.22639,492.400837 549.492067,492.333557 559.086594,492.791868 L559.549517,492.814488 C568.335117,493.253688 577.116877,493.768408 585.899405,494.265976 L592.486517,494.634488 C602.598517,495.190488 612.309517,495.257488 620.564517,488.572488 C634.041517,477.660488 643.280517,459.601488 649.128517,443.614488 C661.402517,410.058488 661.549517,373.233488 655.915517,338.285488 C637.020517,332.195488 617.415517,327.908488 597.683517,325.788488 Z M429.944732,381.459854 L430.093017,381.470688 C434.246017,381.944688 437.099017,385.307688 438.115017,389.296688 C439.591017,395.094688 438.867017,400.336688 442.418017,405.570688 C446.071017,410.952688 448.317017,415.261688 448.848017,421.910688 C449.066017,424.646688 448.966017,427.375688 449.575017,430.053688 L450.016608,431.929954 C450.48555,433.930615 450.869253,435.857629 450.636017,438.005688 C450.423017,439.964688 449.469017,441.490688 447.504017,442.118688 C441.101017,444.166688 436.157017,439.448688 434.503017,433.481688 C433.074017,428.327688 434.982017,422.185688 432.966017,417.345688 C431.849017,414.662688 429.789017,412.418688 428.625017,409.717688 C427.472017,407.040688 426.893017,404.243688 426.708017,401.333688 C426.357017,395.829688 431.225017,389.216688 428.509017,384.229688 C427.930673,383.165688 428.58566,381.42769 429.944732,381.459854 Z M344.892017,324.661788 C349.228017,323.780788 354.147017,321.761788 358.423017,323.439788 C360.621017,324.303788 361.707017,326.983788 359.850017,328.846788 C356.625846,332.078731 351.939924,332.258833 347.597257,333.02094 L347.215017,333.089788 C342.080017,334.039788 336.936017,334.940788 331.785017,335.794788 C322.094017,337.399788 312.380017,338.818788 302.632017,340.024788 C292.620017,341.263788 282.580017,342.366788 272.526017,343.196788 L268.633799,343.516126 C260.141013,344.195339 251.304017,344.707654 242.971017,343.406788 C241.760017,343.217788 241.955017,341.454788 242.971017,341.145788 C252.100017,338.382788 262.114017,337.641788 271.552017,336.472788 C281.586017,335.227788 291.603017,333.912788 301.594017,332.352788 C311.569017,330.794788 321.531017,329.122788 331.456017,327.274788 C335.942017,326.440788 340.421017,325.569788 344.892017,324.661788 Z M501.346517,315.790488 C497.541517,314.443488 493.355517,312.447488 489.232517,313.115488 C482.122517,314.267488 475.794517,321.194488 470.166517,325.756488 L472.992403,325.207213 C487.451736,322.428152 506.599705,319.434363 518.737517,328.627488 C518.768517,328.574488 518.792517,328.521488 518.827517,328.468488 C519.807517,326.980488 520.942517,325.819488 522.181517,324.546488 C522.299851,324.434821 522.414406,324.319488 522.527073,324.202265 L523.195517,323.490488 L521.66661,322.960847 C518.391849,321.803308 514.512301,320.308533 513.89901,320.090349 L513.856517,320.075488 C509.681517,318.661488 505.501517,317.263488 501.346517,315.790488 Z M382.544817,12.7161877 C381.949817,5.06318772 393.860817,5.12618772 394.450817,12.7161877 C395.737817,29.2861877 392.008817,45.6991877 383.982817,60.2261877 C383.923817,60.3321877 383.858817,60.4261877 383.796817,60.5261877 C388.816817,63.1381877 393.893817,65.6441877 399.083817,67.8841877 C405.722817,70.7501877 412.486817,73.3601877 419.371817,75.5741877 C425.599817,77.5781877 433.272817,78.3691877 438.508817,82.5391877 C449.549817,91.3311877 445.401817,109.577188 443.277817,121.404188 L442.946452,123.271221 C441.888878,129.35725 441.12398,135.601257 443.689817,141.442188 C446.429817,147.681188 451.970817,152.309188 456.913817,156.773188 L457.912177,157.678409 C462.291215,161.667647 467.294889,166.515188 470.506817,171.923188 C473.438817,165.861188 477.435817,160.907188 481.661817,155.330188 C484.676817,151.350188 482.530817,150.038188 480.364817,146.150188 C478.279817,142.408188 477.261817,138.419188 477.913817,134.150188 C479.116817,126.266188 485.417817,120.571188 491.689817,116.292188 C499.096817,111.241188 507.363817,107.499188 515.020817,102.800188 C530.754817,93.1461877 546.077817,82.1081877 559.882817,69.8491877 C560.263817,69.5101877 560.923817,69.9541877 560.618817,70.4171877 C549.713817,87.0041877 536.926817,101.337188 521.211817,113.503188 C514.83963,118.436313 508.145763,122.528324 501.407071,126.829791 L499.469717,128.072992 C496.764036,129.825707 493.389197,132.168222 492.165817,135.152188 C490.934817,138.153188 493.559817,140.419188 494.972817,142.905188 C499.459787,150.799733 497.295001,158.165669 491.975557,164.860665 L491.727817,165.169188 C486.441817,171.683188 482.435817,177.741188 480.519817,186.063188 C476.402986,203.939967 482.137211,222.561031 488.139757,239.343676 L488.376817,240.005188 C491.623817,249.051188 495.074817,258.031188 497.895817,267.222188 L498.672014,269.763136 C501.228032,278.219808 503.32109,286.560551 500.453817,295.254188 C499.478817,298.211188 495.445817,298.910188 493.770817,296.127188 C487.861817,286.313188 486.388817,274.503188 482.684817,263.713188 C479.074817,253.197188 474.929817,242.871188 471.442817,232.312188 C466.952817,218.717188 463.947817,204.083188 465.578817,189.823188 C465.530817,189.740188 465.477817,189.662188 465.437817,189.574188 L464.294841,187.074065 C461.178094,180.30434 458.16779,174.392134 452.499817,168.996188 C446.587817,163.367188 440.170817,158.384188 435.518817,151.570188 C425.414182,136.76899 431.663442,120.304003 432.883971,104.120161 L433.02363,102.135607 C433.245343,98.7754127 433.366845,94.2088093 431.171817,91.8831877 C428.702817,89.2651877 422.912817,88.5971877 419.636817,87.4381877 C411.170817,84.4421877 402.827817,80.9511877 394.881817,76.7591877 C387.317817,72.7691877 379.990817,68.3611877 373.168817,63.1971877 L369.711068,60.5959551 C364.255451,56.479596 358.598288,51.9844818 354.941817,46.3811877 C354.519817,45.7361877 355.236817,44.6951877 356.000817,45.0041877 C362.104817,47.4811877 367.681817,51.4211877 373.392817,54.8491877 C373.481817,54.6401877 373.584817,54.4291877 373.701817,54.2171877 C380.767817,41.4291877 383.673817,27.2611877 382.544817,12.7161877 Z M577.528217,100.331388 C579.960217,93.6623877 591.044217,94.1773877 590.602217,102.101388 C590.263321,108.188974 587.678698,113.683666 585.315462,119.211018 L585.063217,119.803388 C582.623217,125.562388 579.805217,130.969388 576.433217,136.247388 C569.990217,146.337388 562.443217,155.701388 554.382217,164.538388 C547.074217,172.550388 537.482217,177.449388 526.429217,176.635388 C521.772217,176.292388 517.071217,175.107388 512.990217,172.781388 C508.143217,170.017388 502.879217,161.718388 496.695217,163.728388 C496.097217,163.922388 495.539217,163.046388 496.056217,162.631388 C503.195217,156.882388 511.298217,165.796388 518.133217,167.944388 C528.432217,171.179388 539.001217,167.602388 545.630217,159.276388 C552.551217,150.583388 558.921217,140.850388 564.738217,131.385388 C567.692217,126.579388 570.387217,121.591388 572.715217,116.450388 C575.064217,111.261388 575.598217,105.622388 577.528217,100.331388 Z M560.926917,59.2889877 C560.626917,58.3679877 561.770917,57.4919877 562.579917,58.0179877 C567.270917,61.0719877 571.335917,65.1069877 575.662917,68.6439877 C580.463917,72.5679877 585.299917,76.4119877 590.210917,80.1969877 C597.369917,85.7159877 589.066917,95.8759877 582.764917,89.8469877 C574.140917,81.5999877 564.695917,70.8159877 560.926917,59.2889877 Z M535.171817,27.0094877 C537.077567,19.6607177 548.349153,22.6912067 546.706569,29.9541106 L546.652817,30.1754877 C543.541757,42.1721865 547.972626,54.3855681 557.431522,62.1629374 L557.779817,62.4454877 C563.763817,67.2344877 555.285817,75.6064877 549.360817,70.8634877 C536.425817,60.5114877 531.044817,42.9264877 535.171817,27.0094877 Z" id="Ink" fill="#000" blush:i="0.0.0.3"/></g></g><g id="Head" transform="translate(372.000000, 180.000000) scale(0.9978902953586498 1)" blush:width="473" blush:height="567" blush:component="Head" blush:i="0.1" blush:value="Cornrows 2" blush:viewBox="-49.327751196172244 22.680000000000007 487.6076555023924 558.4949999999999"><g id="Head/Cornrows 2" stroke="none" stroke-width="1" fill="none" fill-rule="evenodd" blush:viewBox="-49.327751196172244 22.680000000000007 487.6076555023924 558.4949999999999" blush:i="0.1.0"><path d="M154.012273,59.3368084 L162.6492,69.6084 C157.866656,72.9785856 153.352072,76.3650077 149.105449,79.7676665 L149.101501,79.7574477 C168.772333,66.9232668 190.557824,59.3368084 214.092229,59.3368084 C259.420488,59.3368084 351.492512,98.2737499 372.306108,126.358976 C382.63519,140.296721 401.829756,183.084374 411.786376,229.602142 C419.786376,266.978497 431.684994,372.572264 419.786376,412.249578 C404.558147,463.029869 354.457078,509.963551 302.796771,509.963551 C251.136464,509.963551 170.932706,472.667686 113.850306,390.935886 C111.240138,387.198591 81.2662975,382.866523 59.8837667,368.839219 L65.4977424,430.687175 L69.7645361,466.664661 L68.8229558,469.22514 C53.5086813,510.642032 41.3730655,532.249378 32.4161085,534.04718 C23.2763564,535.881671 4.66320274,520.899571 -23.4233526,489.100881 L-27.0121741,474.037505 C-36.1277921,435.612003 -40.6856012,414.986233 -40.6856012,412.160195 L-40.6793035,411.645463 C-40.5449254,405.142273 -38.3045967,368.333489 -38.2584329,358.427928 L-38.2577094,209.9639 C-8.05157467,109.545839 20.7735199,59.3368084 48.2175743,59.3368084 L154.012273,59.3368084 Z" id="Skin" fill="#edb98a" blush:color="Skin-500" blush:i="0.1.0.0"/><path d="M82.4392,25.1384 C91.3202,21.6984 101.6092,22.3484 110.0392,27.5284 C126.5902,26.8184 143.0502,36.4984 151.6792,50.6284 C151.8592,50.8284 152.0502,51.0284 152.2202,51.2284 L154.049014,53.359888 C155.780796,55.3953378 157.607333,57.6388 159.0542,59.9554 C151.9662,60.1174 146.0612,63.0064 141.9392,68.8414 C138.998212,73.0048353 145.735419,76.9612295 148.741451,73.0234059 L148.8472,72.8794 C151.3222,69.3764 155.0582,68.0194 159.2172,67.9484 C160.4112,67.9284 161.3172,67.4714 161.9572,66.7974 C162.2122,67.7264 162.4402,68.6654 162.6492,69.6084 C183.5912,61.4634 206.1672,59.3064 228.6522,61.2384 C227.6662,62.8344 226.8422,64.5444 226.2082,66.3414 C225.4892,68.3784 227.0232,70.7174 229.0022,71.2614 C231.142169,71.8494312 233.076611,70.595233 233.850921,68.6570613 L233.9222,68.4674 C234.7862,66.0194 236.1972,63.9184 238.0912,62.2894 C248.6762,63.7244 259.1862,66.0064 269.4392,68.9484 C281.7622,72.4874 293.9692,76.8064 305.9072,81.7514 C303.8852,82.5444 302.1382,83.8844 300.9152,86.1214 C298.473617,90.5866024 305.186124,94.5860943 307.732982,90.3173078 L307.8232,90.1594 C308.072978,89.7016222 308.294311,89.426363 308.456297,89.26971 L308.5142,89.2164 L308.8662,89.0544 L309.5222,88.8664 L309.5222,88.8664 L309.774065,88.8045716 C309.996277,88.7545124 310.088585,88.7577077 310.6732,88.7254 C311.4512,88.6814 312.2302,88.6854 313.0092,88.6844 C314.8412,88.6834 316.0102,87.6624 316.5392,86.3564 C322.4302,89.0154 328.2462,91.8154 333.9592,94.7484 L335.3174,95.4514975 C352.951538,104.66515 369.6577,116.7649 379.3492,134.5684 C379.9902,135.7584 380.1892,137.0584 380.0302,138.2984 C382.0992,140.7784 384.0992,143.3384 386.0192,145.9384 C391.8792,153.8984 396.1692,162.9484 400.2292,171.9184 C408.3992,189.9584 413.8992,208.4884 418.1892,227.8084 C422.3402,246.4284 425.6892,265.2484 428.8002,284.0684 C432.2492,304.9784 435.1192,326.0684 435.7202,347.2784 C436.7802,385.0884 429.3892,423.1184 408.1592,454.9484 C389.2202,483.3484 360.7002,505.8984 326.8792,513.1184 C292.4792,520.4584 256.0792,513.2984 228.9702,490.3784 C224.5992,486.6884 225.2002,479.2384 228.9702,475.4584 C233.2402,471.1984 239.5392,471.7884 243.8892,475.4584 C269.4192,497.0484 306.5792,500.3784 337.3402,489.3784 C365.7802,479.1984 388.0592,455.7184 401.7292,429.3484 C418.4092,397.1884 421.2202,360.2484 418.6592,324.6684 C417.2602,305.1284 414.3492,285.7484 411.3492,266.3984 L409.538403,254.750755 C407.562761,242.134801 405.487259,229.536047 402.7802,217.0484 L402.1465,214.139043 C398.837964,199.080126 394.962594,183.635067 388.9702,169.4784 C385.8292,162.0484 382.0502,154.8884 378.1802,147.8184 C377.4302,146.4484 376.6592,145.0584 375.8692,143.6584 C374.8092,144.0284 373.5992,144.0884 372.3292,143.6884 C361.3992,140.2884 350.1692,138.0084 338.7402,137.2484 C333.5332,136.9004 328.3182,136.8464 323.1092,137.0494 C314.1922,136.5304 305.0262,137.3144 296.5322,140.0484 C295.7012,139.3354 294.8592,138.6374 294.0162,137.9394 C293.7892,137.9214 293.5622,137.8974 293.3342,137.8524 C291.1672,137.4264 289.6432,135.8864 288.7252,133.9414 C288.6772,133.8384 288.6342,133.7354 288.5932,133.6324 C287.5062,132.8014 286.4102,131.9834 285.3042,131.1764 C282.6082,131.8754 280.2462,129.6324 279.6102,127.1744 C279.0102,126.7694 278.4002,126.3774 277.7942,125.9804 C277.3192,126.0964 276.8472,126.1924 276.3872,126.2264 C274.4022,126.3694 272.4852,126.0654 270.7262,125.1184 C268.4992,123.9194 267.0762,121.9854 266.1242,119.7884 C262.7562,119.9954 259.3482,118.9024 256.3372,116.9264 C253.8932,115.3234 252.0212,113.1104 250.1602,110.9014 C227.4822,100.7864 202.8302,94.8144 178.1202,93.2844 C175.6862,93.7524 173.2692,94.3094 170.8822,94.9574 C170.3172,95.1114 169.5152,95.4134 168.5922,95.7754 C174.1012,95.1094 179.6812,95.0434 185.3402,95.8584 C212.1942,99.7414 233.1092,119.8474 251.1102,138.8264 C255.3922,137.9614 259.7202,143.5064 255.7572,147.1784 L224.8602,175.8094 L224.8602,175.8094 C225.6182,179.0114 221.9462,182.1674 218.7292,181.3984 C213.3352,180.1024 207.9322,178.8424 202.5252,177.6034 C196.8852,180.3324 189.7942,179.8654 184.6782,175.9094 C184.4402,175.7254 183.9232,175.4314 183.4742,175.1394 C183.0542,175.4864 182.4892,175.8344 182.2642,175.9824 C180.4452,177.1864 178.2292,177.5404 176.1042,177.2024 C173.9182,176.8554 171.9452,175.7464 170.2442,174.3654 C169.161297,173.485723 166.638019,169.815202 165.233797,169.54487 L165.0972,169.5294 C166.0342,169.5564 163.0222,172.3554 162.2132,172.9344 C160.3252,174.2814 158.2382,174.9894 155.8892,174.7314 C151.795175,174.28095 148.275327,170.549893 146.2732,167.104784 L146.1222,166.8404 L146.0592,166.6764 L146.006015,166.853807 C145.996089,166.885178 145.984867,166.918733 145.9712,166.9564 C145.6712,167.7674 144.7292,168.6894 144.0892,169.2564 C142.2652,170.8694 140.0072,171.5784 137.5952,171.1574 C135.55365,170.8021 133.837,169.568667 132.457253,168.076127 L132.2422,167.8384 C131.833958,167.377794 129.144518,163.764321 129.569107,162.898355 L129.6182,162.8254 L129.4842,162.7974 C127.8482,163.1994 126.4752,162.7964 125.4692,161.9534 C119.8552,160.7234 114.3142,159.2904 108.9502,157.4684 C108.5302,158.6484 108.1192,159.8284 107.7202,161.0184 C110.6492,162.8284 113.3592,165.4084 115.8492,167.2484 C120.5702,170.7284 125.2892,174.2084 129.9992,177.6984 L148.6612,191.4644 L148.6612,191.4644 L150.7952,190.8914 L150.7952,190.8914 C153.522283,190.159317 155.861828,191.746794 156.862711,194.173386 L156.9452,194.3834 C157.3422,195.4464 157.8202,196.4294 158.3822,197.3704 C163.0472,197.1844 166.9972,200.0484 168.2742,204.1564 C169.4262,204.1304 170.5902,204.1744 171.7802,204.3054 C175.039133,204.663267 177.235896,207.083332 176.645774,210.406439 L176.6012,210.6344 L176.5222,211.0044 C178.4112,211.8064 179.7812,213.3554 180.0852,215.6974 C180.5912,216.4584 180.9992,217.2864 181.2602,218.2084 C182.623328,222.992503 179.971548,228.906362 178.559043,233.489392 L178.4502,233.8484 C177.5436,236.8604 176.60532,239.858 175.656096,242.85416 L173.291676,250.292987 C166.735572,271.025151 160.343586,292.883855 165.6492,314.6184 C166.7802,319.2184 160.8992,321.2984 158.3492,317.6984 C152.1672,308.9824 145.4882,300.7694 138.4752,292.8854 L138.1352,292.8314 L138.1352,292.8314 C133.2242,291.8444 131.3172,288.3754 129.0632,284.8394 C127.7352,285.2304 126.3072,285.3224 124.9272,285.0564 C122.9292,284.6714 121.1392,283.5304 119.7262,282.0894 C118.5292,280.8674 117.4322,277.7334 116.0172,276.9564 C114.2472,275.9854 110.6892,277.3734 108.5752,277.0614 C106.8562,276.8084 105.2512,276.2184 103.6942,275.4774 C100.8322,279.3784 98.9352,283.9644 98.4702,288.9084 C98.2892,290.7884 97.7292,292.3784 96.9192,293.6984 C99.8992,293.5884 102.8892,293.7984 105.8402,294.3484 C116.7602,296.3784 124.5902,303.1184 128.9902,313.1584 C129.1792,313.5984 128.6092,313.9584 128.3492,313.5384 C121.8202,303.4884 107.6092,302.9784 97.2892,306.5184 C86.3292,310.2784 80.1792,319.9284 77.9902,330.9384 C75.5902,343.0084 78.6692,356.0184 85.2402,366.2984 C88.2892,371.0784 92.4502,375.4384 97.9792,377.1984 C104.5502,379.2884 110.6192,375.5484 117.3492,377.4784 C121.9292,378.7884 123.9502,383.2184 123.1192,387.6484 C122.7892,389.3884 122.1792,390.9084 121.3592,392.2284 C123.7802,397.0284 126.0192,401.9684 128.8692,406.5084 C133.2692,413.5184 138.5902,419.3184 144.3892,425.1684 C150.3792,431.2084 156.4792,437.1284 162.8892,442.7284 C169.0302,448.0984 176.0702,451.9184 182.5102,456.8384 C187.0302,460.2884 189.2692,465.1284 187.0392,470.6684 C185.2002,475.2484 178.9992,479.1484 173.9792,477.0784 C164.3692,473.1184 155.9592,466.3784 148.3002,459.4384 C141.2002,452.9984 135.0192,445.2984 130.3492,436.9384 C125.94376,429.0568 122.697693,420.106144 119.958948,411.484315 L119.6192,410.4084 C118.3292,406.3084 116.9702,401.6984 116.0902,397.0484 C110.8202,399.9284 103.6692,400.3484 98.0302,399.5684 C88.9192,398.3184 80.6092,393.7284 74.3292,387.0384 C71.4022,383.9254 68.8152,380.3744 66.5812,376.5254 C66.7842,378.8684 66.9052,381.1354 67.0352,383.1984 C72.2562,388.9164 74.3502,397.1684 72.4972,404.6974 C76.8652,409.1934 78.0892,415.9424 75.8092,421.6884 C80.5902,426.4304 80.4102,433.9764 78.3432,440.8294 C83.9952,447.1464 84.5302,456.9874 80.1172,464.1154 L79.9842,464.6274 L79.9842,464.6274 C84.4402,472.0834 83.4352,481.7194 77.8522,488.3034 C81.6652,495.6994 81.0752,505.6474 71.5462,508.5174 C68.0732,509.5624 64.7072,508.6704 62.1882,506.7244 C64.4882,518.1634 65.5172,529.7764 62.4502,541.2684 C61.2292,545.8284 56.7692,549.1584 52.0792,549.1584 C48.1592,549.1584 45.3092,547.1884 43.3402,544.2884 C43.5702,550.0584 43.2202,555.8584 41.9902,561.7084 C41.2482,565.2414 37.9712,567.9964 34.4922,568.8494 C35.7472,570.2644 36.2472,572.3114 35.0442,574.4424 C29.9432,583.4724 17.6182,579.7274 16.7852,571.0764 C13.3042,568.4784 11.6862,564.2124 11.0162,559.6034 C10.0402,552.8814 9.6862,546.2704 8.5802,539.6344 L8.15738519,540.029881 L8.15738519,540.029881 L7.9392,540.2184 L7.8692,540.6984 C7.2352,543.9784 5.3852,546.2754 2.9842,547.6454 C3.5062,553.3674 2.5402,559.1944 -1.0898,563.5394 C-3.5078,566.4354 -7.6268,567.5754 -11.1578,566.9474 C-11.3798,566.9584 -11.6068,566.9574 -11.8428,566.9264 C-19.8398,565.8634 -24.4668,558.2784 -22.3618,551.3164 C-25.5818,547.3704 -26.9378,542.3634 -25.9848,537.4154 C-32.2158,533.2894 -32.0888,524.2274 -29.9308,516.9484 C-36.4628,511.7934 -38.9198,502.1564 -35.6378,494.4974 C-41.5248,487.1864 -42.3438,476.9984 -38.3438,468.6734 C-44.8208,463.3524 -44.7838,453.0794 -38.3598,447.6374 C-41.7808,440.8464 -43.8438,432.7094 -40.4248,426.4944 C-42.8368,423.8324 -44.1608,420.0384 -43.8818,416.3724 C-43.4728,410.9884 -39.9108,407.2684 -35.4908,404.7894 L-35.1848,403.1054 L-35.1848,403.1054 C-34.1468,403.2344 -33.0408,402.9444 -32.0658,402.0084 C-31.1008,401.0814 -30.1078,400.3344 -29.0808,399.7184 C-27.9178,399.7034 -26.9168,399.1854 -26.2128,398.3884 C-24.2868,397.7344 -22.2158,397.4454 -19.9188,397.4194 C-14.9578,397.3654 -14.7828,389.9464 -19.3998,389.4654 C-20.1288,388.7304 -21.1328,388.2674 -22.2218,388.2674 L-23.0745344,388.270832 C-25.0682219,388.289822 -27.08105,388.41265 -28.9308,389.2054 C-30.1328,389.7194 -31.0598,390.4944 -31.7388,391.4424 C-31.8658,392.8764 -32.6458,394.3064 -34.3348,395.4874 C-36.2858,396.8514 -38.9538,397.0104 -41.0418,395.7764 C-43.9648,394.0484 -43.9948,391.3514 -43.6578,388.4194 C-42.9198,382.0054 -46.6078,375.9694 -45.7298,369.4074 C-45.3408,366.5064 -44.3748,364.0014 -42.7998,361.9784 C-46.1208,357.0074 -46.7068,350.5904 -44.1498,345.1334 C-49.4768,339.4024 -50.3978,330.5684 -47.0008,323.6714 C-46.9518,323.5044 -46.9138,323.3334 -46.8608,323.1684 C-46.4768,321.9964 -45.9478,320.9394 -45.3648,319.9284 C-48.3468,314.7624 -48.3248,308.4234 -45.2938,303.2794 C-49.8848,297.9274 -50.0308,289.4104 -45.9478,283.6444 C-45.9238,283.1664 -45.8738,282.6884 -45.8328,282.2104 C-47.7068,277.3454 -47.2568,271.8144 -44.8798,267.2904 C-45.7278,265.3354 -46.3818,263.2304 -46.7998,260.9884 C-47.8708,255.2084 -47.3198,249.5884 -45.7198,243.9484 C-45.4608,243.0584 -45.1708,242.1684 -44.8608,241.2784 C-44.8088,237.4154 -44.6618,233.5694 -44.4678,229.7304 C-45.228175,226.48065 -45.3507844,222.909337 -45.3675461,219.593935 L-45.3723419,217.444063 C-45.4095807,211.972936 -45.7909111,203.962089 -42.3318,199.3114 C-44.5528,194.2874 -43.6398,187.9574 -39.9328,183.9754 C-42.5348,179.5004 -43.0808,174.0054 -40.4658,169.0404 C-40.0458,168.2414 -39.5588,167.4974 -39.0248,166.7934 C-39.2408,162.2464 -38.2838,157.5574 -35.8608,153.0384 C-34.2868,150.0964 -31.9358,147.5494 -29.1408,145.5114 C-29.1878,144.9084 -29.2168,144.3064 -29.2068,143.7134 C-29.1578,141.0674 -28.5708,138.4104 -27.5828,135.9314 C-29.3558,132.9054 -30.1778,129.4944 -29.1408,125.8184 C-27.9808,121.6584 -24.9298,118.0784 -21.1208,116.0584 C-20.8138,112.1364 -20.2008,108.2374 -19.3248,104.3904 C-21.6658,99.1774 -19.8018,92.2974 -14.5108,89.2264 C-15.2008,85.0604 -14.5788,80.7404 -11.5468,77.4864 C-10.3978,76.2534 -9.0438,75.3184 -7.5868,74.6984 C-8.2888,70.5094 -7.4968,66.1514 -4.5998,62.7404 C-2.2338,59.9554 1.2722,58.2634 4.8402,58.0144 C6.2142,50.7284 13.1752,45.2804 20.5192,45.7144 C21.4372,42.5064 23.6302,39.7094 27.0322,38.2914 C27.9032,37.9284 28.7832,37.6894 29.6602,37.5564 C35.6322,31.5324 44.5232,27.4494 52.2202,25.3584 C59.9408905,23.2693524 67.7673582,23.0671415 74.3963107,25.4959742 L74.8792,25.6784 L75.4192,25.6084 C77.7602,25.3484 80.0992,25.1984 82.4392,25.1384 Z M23.7692,518.8744 C21.7072,518.2314 19.4072,519.6354 18.8482,521.6674 C18.2582,523.8154 19.5722,525.9434 21.6422,526.5884 C24.2212,527.3924 26.9302,527.5934 29.6182,527.595403 C31.7792,527.5974 33.6182,525.7554 33.6182,523.5954 C33.6182,521.4244 31.7872,519.5974 29.6182,519.5954 C27.4322,519.5934 25.8182,519.5134 23.7692,518.8744 Z M5.4262,476.395397 C2.3432,476.3984 -0.3008,477.1344 -2.5868,479.2944 C-4.1108,480.7354 -4.1488,483.5184 -2.5868,484.9524 C-1.00914483,486.39971 1.27979691,486.48411 2.8993057,485.10569 L3.2112,484.826025 C3.2487,484.7919 3.2777,484.7649 3.3012,484.7424 C3.4312,484.6584 3.5622,484.5724 3.7002,484.5004 L3.43928868,484.67089 C3.24070292,484.814323 3.70144665,484.580159 3.95981675,484.469508 L4.0412,484.4364 L4.0672,484.4304 L4.2742,484.4144 C4.6572,484.3944 5.0422,484.395397 5.4262,484.395397 C7.5182,484.3934 9.5222,482.5574 9.4262,480.395397 C9.3282,478.2294 7.6682,476.3934 5.4262,476.395397 Z M63.6042,451.0174 C67.9340333,448.362388 64.0665815,441.571633 59.7243417,444.016969 L59.5672,444.1094 C57.3412,445.4754 54.6032,445.2904 52.0812,445.2914 C46.9342,445.2944 46.9252,453.2944 52.0812,453.291402 L52.9333793,453.288255 C56.6304959,453.2599 60.3699857,453.001757 63.6042,451.0174 Z M29.5292,421.8184 C26.2579368,421.202611 22.5935657,420.653237 19.1516817,421.0282 L18.5802,421.0994 L17.5212,421.0994 C16.6012,421.0994 15.7102,421.4694 14.9952,422.0514 C13.8632,422.5214 12.7912,423.1514 11.8132,423.9984 C7.9162,427.3774 13.5952,433.0154 17.4702,429.6564 C17.6854,429.4692 17.93516,429.31528 18.212824,429.189008 L18.4262,429.0994 L22.7052,429.0994 C23.0942,429.0994 23.4732,429.0184 23.8422,428.9014 C25.2312,429.0924 26.5252,429.3674 27.4022,429.5324 C32.4342,430.4794 34.5902,422.7704 29.5292,421.8184 Z M25.8762,345.0384 C19.6062,342.1304 12.6622,342.1514 6.8632,346.1894 C2.71656471,349.077024 6.56835709,355.886709 10.7507029,353.197504 L10.9002,353.0974 C11.4202,352.7354 11.9542,352.4324 12.4942,352.1574 C15.4382,353.0084 18.4014865,353.04845 21.2476383,352.002068 L21.6182,351.8594 L21.8392,351.9454 C26.4792,354.0974 30.5472,347.2044 25.8762,345.0384 Z M94.1533,332.5037 C87.8193,331.7937 87.7683,321.7877 94.1533,322.5037 C107.6343,324.0157 119.8663,330.0087 128.8253,340.3007 C132.992341,345.087353 126.129965,352.090078 121.884746,347.516846 L121.7543,347.3717 C114.6303,339.1877 105.0163,333.7217 94.1533,332.5037 Z M23.1942,281.1314 C21.7862,280.9774 20.3812,280.9004 18.9982,280.9674 C15.6762,281.1274 11.6302,283.3434 13.0882,287.3474 C14.2572,290.5554 18.0892,290.6824 19.9812,288.9714 C20.7682,288.9904 21.5542,289.0424 22.3372,289.1224 C24.4262,289.3374 26.4952,289.7354 28.5542,290.1414 C33.5832,291.1304 35.7362,283.4214 30.6812,282.4264 L28.445325,281.984025 C27.69195,281.83665 26.9317,281.6924 26.1682,281.5604 C25.7113429,281.333257 25.2214245,281.180318 24.6978152,281.141257 L24.4332,281.1314 L23.1942,281.1314 Z M-16.5508,219.0664 L-17.0206479,219.00272 C-23.7756298,218.138502 -34.6190874,218.933722 -35.4388,227.5324 C-35.8918,232.2944 -29.0118,232.5934 -27.6538,228.5214 C-22.6658,227.6224 -17.6368,227.4504 -12.6828,227.9964 C-10.7928,226.0764 -10.7778,222.3854 -13.9238,221.4644 C-14.3678,220.2704 -15.2948,219.2474 -16.5508,219.0664 Z M137.8542,204.5434 C136.2932,203.1104 133.7332,202.9204 132.1972,204.5434 C131.3122,205.4774 130.5732,206.5154 129.9882,207.6574 L129.598941,208.428511 C129.532978,208.556511 129.465533,208.683733 129.3952,208.8094 C129.2642,209.0424 129.1172,209.2644 128.9742,209.4904 L128.87795,209.5849 C128.8397,209.62365 128.7947,209.6704 128.7412,209.7274 C127.3022,211.2484 127.1192,213.8954 128.7412,215.3844 C130.3022,216.8174 132.8612,217.0074 134.3982,215.3844 C135.2822,214.4504 136.0212,213.4134 136.6072,212.2704 L136.995719,211.50003 C137.061533,211.372178 137.128867,211.245067 137.1992,211.1194 C137.3302,210.8854 137.4782,210.6634 137.6202,210.4374 L137.779528,210.278494 C137.802387,210.254837 137.8272,210.2289 137.8542,210.2004 C139.2932,208.6804 139.4752,206.0324 137.8542,204.5434 Z M55.8282,194.1264 C50.1922,190.1324 43.4902,189.9464 38.3092,194.7514 C34.5701884,198.219598 40.0636639,203.776363 43.8338674,200.526766 L43.9662,200.4084 C44.1032,200.2804 44.2422,200.1684 44.3802,200.0614 C45.0562,200.6374 45.9152,201.0024 46.8972,201.0034 C47.1538667,201.004067 47.4100889,201.0034 47.666163,201.008807 L48.0502,201.0224 L48.2562,201.0394 L48.2822,201.0444 L48.4621234,201.120874 C48.7910809,201.269271 49.2450696,201.498313 48.6222,201.1084 C48.7612,201.1814 48.8912,201.2674 49.0232,201.3514 L49.2532,201.5604 C50.7612,202.9864 53.3702,203.1744 54.8672,201.5974 C57.5182,200.7014 58.9252,196.3194 55.8282,194.1264 Z M110.930894,181.021659 L111.0332,180.9894 C115.9752,179.5784 113.8742,171.8574 108.9062,173.2744 C103.6352,174.7794 101.1182,179.6844 100.0642,184.7084 C99.6212,186.8214 100.6842,189.0324 102.8582,189.6294 C104.8442,190.1744 107.3332,188.9594 107.7792,186.8354 C108.091927,185.341764 108.452588,184.074574 109.023467,182.898593 L109.368963,182.227309 C109.530567,181.921334 109.586914,181.870543 110.1322,181.3944 C110.223756,181.3144 110.640052,181.120622 110.930894,181.021659 Z M27.2252,140.7304 L26.4522536,140.554109 C21.6377342,139.49948 15.2476138,138.948728 12.3402,143.7214 C9.6902,148.0694 16.3752,152.0274 19.1282,147.9174 C19.1702,147.916067 19.2184222,147.916511 19.2746444,147.921104 L19.3652,147.9314 L20.5992,147.8314 C22.1362,147.8204 23.6072,148.0924 25.0982,148.4454 C30.1042,149.6304 32.2412,141.9184 27.2252,140.7304 Z M200.0612,109.9764 C203.7062,106.3314 198.0512,100.6724 194.4052,104.3204 C191.5222,107.2034 188.7412,110.1064 186.8672,113.7694 C185.8842,115.6914 186.3652,118.1094 188.3022,119.2424 C190.0892,120.2874 192.7872,119.7374 193.7752,117.8074 C195.3992,114.6324 197.4492,112.5904 200.0612,109.9764 Z M154.0672,100.4084 C150.4662,102.5404 148.1352,106.0524 146.7202,110.1174 C146.0102,112.1574 147.5292,114.4924 149.5142,115.0374 C151.647387,115.623494 153.596634,114.373927 154.363692,112.43332 L154.4342,112.2434 C154.8132,111.1564 155.4192,109.8724 156.1682,108.9034 C156.8082,108.0764 157.8032,107.2484 158.5532,106.9734 C160.3562,106.3114 161.6342,104.6774 161.4672,102.7694 C158.5022,103.7944 155.7492,102.5614 154.0672,100.4084 Z M46.2702,83.0084 C42.6372,79.6364 37.7632,79.1894 33.3592,81.2304 C31.3982,82.1384 30.9072,84.9654 31.9242,86.7034 C33.1002,88.7144 35.4292,89.0504 37.3962,88.1384 C36.8912,88.3724 37.8032,88.0634 38.1972,87.9504 C38.2476,87.9738 38.90793,87.94374 39.13572,87.946971 L39.4097,87.964275 C39.41195,87.96615 39.3447,87.9649 39.2082,87.9604 C39.4002,88.0037333 39.5899778,88.0555111 39.7769407,88.1151407 L40.0152818,88.1976545 C39.8951849,88.1726521 40.4356151,88.5249079 40.5859182,88.6418655 L40.6132,88.6644 C44.3832,92.1634 50.0542,86.5194 46.2702,83.0084 Z" id="Ink" fill="#000" blush:i="0.1.0.1"/></g></g><g id="Face" transform="translate(531.000000, 366.000000) scale(1 1)" fill="#000" blush:width="289" blush:height="293" blush:component="Face" blush:i="0.2" blush:value="Eating Happy" blush:viewBox="51.43965517241378 61.53000000000003 187.58620689655172 193.38"><g id="Face/Eating Happy" stroke="none" stroke-width="1" fill="none" fill-rule="evenodd" blush:viewBox="51.43965517241378 61.53000000000003 187.58620689655172 193.38" blush:i="0.2.0"><path d="M126.149889,196.292214 C131.744002,187.090211 143.667824,209.632062 144.934713,213.508101 C146.056772,216.941676 146.797464,220.458991 147.173947,224.017014 C151.510872,224.989057 156.01445,224.990851 160.458249,224.139019 C167.062878,222.871873 171.100325,219.321223 176.840498,216.27243 C180.80528,214.165719 185.802087,216.636182 187.863888,220.130132 C190.289134,224.242684 188.744036,228.511189 185.554301,231.577101 C179.505319,237.390824 167.603613,238.726425 159.707644,237.182493 C155.183676,236.298273 151.03744,234.601718 147.375949,232.136142 C147.351679,232.596242 147.335471,233.056465 147.299179,233.515885 L147.229265,234.312833 C146.622587,240.760805 144.850336,248.868644 139.841994,253.064289 C131.627701,259.946669 121.490148,246.710667 129.471775,239.836072 L129.719209,239.629726 C134.680373,235.621175 135.762718,224.866141 135.495556,218.942309 C135.320385,215.075928 134.616096,211.160035 133.395334,207.477648 L133.144299,206.744368 C132.776832,205.704151 128.770187,195.83676 127.322375,197.093402 L127.253261,197.164261 C126.656242,197.877109 125.691416,197.04675 126.149889,196.292214 Z M170.814304,144.367155 C178.365682,148.9572 189.871664,159.660291 181.748119,171.039573 C172.185929,181.073062 158.418535,169.568982 151.634201,164.366134 C145.343449,160.333898 138.275437,170.704507 144.112,175.412823 C193.135736,211.708059 213.030606,145.567387 174.633685,138.970386 C170.406047,138.243425 168.835891,142.947174 170.814304,144.367155 Z M90.1787,101.9403 C97.5587,100.6313 105.1187,102.4663 111.2257,106.7843 L111.688541,107.117181 C117.57206,111.42005 124.154854,118.975479 120.7787,126.3923 C119.4237,129.3703 115.3657,129.8373 112.7907,128.4873 C108.5037,126.2393 107.7267,120.7083 103.9017,117.6473 C100.7647,115.1383 96.5407,113.6163 92.5007,113.9833 C83.0097,114.8453 77.1717,124.2063 74.2237,132.2733 C73.8467,133.3053 72.3317,133.7063 71.7397,132.5983 C64.7887,119.6063 77.0927,104.2623 90.1787,101.9403 Z M208.3893,97.0373 C222.5263,95.8723 239.0733,110.5283 235.3513,125.4503 C233.5663,132.6103 222.9453,132.4053 221.0573,125.4503 C220.0183,121.6233 220.1223,118.2373 217.3673,115.0593 C215.0933,112.4353 211.8623,110.9113 208.3893,111.1453 C204.5613,111.4033 201.0303,113.3163 198.3473,116.0053 C195.9243,118.4333 194.4753,121.9863 191.9653,124.1353 C191.3473,124.6633 190.5203,124.6973 189.9103,124.1353 C185.5903,120.1523 188.1833,111.8603 190.9223,107.7023 C194.8423,101.7523 201.2253,97.6283 208.3893,97.0373 Z M63.2578,75.4751 C72.3268,67.4471 88.8058,59.6941 101.0348,63.6451 C108.0658,65.9161 111.1308,77.2451 103.2818,80.8361 C94.1928,84.9941 83.7138,83.3021 74.4628,87.6121 C70.5778,89.4231 66.9238,91.6861 64.2188,95.0051 C62.0878,97.6211 59.9198,101.0631 56.8378,102.5711 C56.0278,102.9681 54.9308,102.9781 54.2818,102.2421 C47.5258,94.6001 57.3588,80.6961 63.2578,75.4751 Z M192.8016,63.2466 C198.4066,61.6736 204.6246,61.7056 210.3186,62.6936 C216.0106,63.6816 221.7896,66.0406 226.4366,69.4816 L226.976058,69.8845105 C232.049154,73.7073503 238.103014,79.2694621 237.7786,86.0416 C237.5076,91.6966 231.5586,95.5216 226.4226,92.5576 C222.2356,90.1406 220.2656,85.2986 216.7206,82.0746 C213.7956,79.4136 210.3596,77.3156 206.6936,75.8456 C202.6216,74.2126 198.5426,73.4476 194.1726,73.3746 C190.8076,73.3186 187.4226,74.4226 184.1206,74.7756 C184.3926,75.3336 181.7826,75.0736 180.2866,74.5786 C179.1786,74.1066 179.1726,72.7056 179.5566,71.7966 C181.4616,67.2936 188.3926,64.4826 192.8016,63.2466 Z" id="Ink" fill="#000" blush:i="0.2.0.0"/></g></g><g id="Beard" transform="translate(494.999934, 517.999659) scale(1 1)" fill="#000" blush:width="280" blush:height="230" blush:component="Beard" blush:i="0.3" blush:value="None" blush:viewBox="490 402.5 0 0"><g id="Beard/None" stroke="none" stroke-width="1" fill="none" fill-rule="evenodd" fill-opacity="0" blush:viewBox="490 402.5 0 0" blush:i="0.3.0"/></g><g id="Mask" transform="translate(400.000000, 480.000000) scale(1 1)" fill="#000" blush:width="397" blush:height="228" blush:component="Mask" blush:i="0.4" blush:value="None" blush:viewBox="694.75 399 0 0"><g id="Mask/None" stroke="none" stroke-width="1" fill="none" fill-rule="evenodd" fill-opacity="0" blush:viewBox="694.75 399 0 0" blush:i="0.4.0"/></g><g id="Accessories" transform="translate(419.000000, 421.000000) scale(1 1)" fill="#000" blush:width="392" blush:height="138" blush:component="Accessories" blush:i="0.5" blush:value="None" blush:viewBox="686 241.5 0 0"><g id="Accessories/None" stroke="none" stroke-width="1" fill="none" fill-rule="evenodd" fill-opacity="0" blush:viewBox="686 241.5 0 0" blush:i="0.5.0"/></g></g></svg>