<svg viewBox="184.21621621621625 172.46249999999986 767.5675675675673 1188.0750000000003" xmlns="http://www.w3.org/2000/svg" xmlns:blush="http://design.blush" overflow="visible" xmlns:xlink="http://www.w3.org/1999/xlink" width="767.5675675675673px" height="1188.0750000000003px"><g id="Master/Character/Bust" stroke="none" stroke-width="1" fill="none" fill-rule="evenodd" blush:has-customizable-colors="true" blush:viewBox="166.11320754716974 76.65000000000009 788.4636118598385 1272.3900000000003" blush:i="0"><g id="Body" transform="translate(147.000000, 639.000000) scale(1 1)" blush:width="818" blush:height="733" blush:component="Body" blush:i="0.0" blush:value="Device" blush:viewBox="44.99000000000001 -34.359375 752.5599999999997 744.453125"><g id="Body/Device" stroke="none" stroke-width="1" fill="none" fill-rule="evenodd" blush:viewBox="44.99000000000001 -34.359375 752.5599999999997 744.453125" blush:i="0.0.0"><path d="M743.718416,294.927891 C740.576416,286.301891 745.164416,277.697891 747.709416,269.352891 C756.750416,240.411891 732.021416,167.414891 714.726416,166.347891 C708.401416,149.983891 691.520416,143.195891 678.234416,133.771891 C663.157416,124.361891 648.491416,113.553891 632.811416,105.303891 C631.939416,97.5088912 622.487416,95.5768912 616.707416,101.152891 C600.832416,91.2778912 581.795416,93.1118912 564.778416,86.6418912 C551.847825,65.7413714 550.877658,43.7642547 547.454106,23.6008594 C545.961788,14.8116899 547.547272,6.33128235 541.541416,-1.50510877 C521.366416,-29.8801088 441.650416,-42.1831088 412.259416,-25.3681088 C396.438416,-35.2351088 396.057416,-17.3651088 393.544416,-6.33610877 C390.751416,-0.818108771 389.240416,5.43089123 389.707416,12.0148912 C382.217331,27.6592685 375.866795,47.2267133 360.126063,58.9108191 C340.153178,73.7363868 309.424496,79.3721844 289.951927,86.6418912 C287.039927,83.8398912 285.138756,80.4132246 284.248416,76.3618912 C254.068416,82.9228912 224.777416,94.4558912 199.491416,112.463891 C170.763416,120.865891 150.531416,144.230891 135.901416,169.283891 C134.289416,171.924891 133.909416,174.617891 134.380416,177.090891 C89.3914157,243.037891 67.9194157,321.986891 64.9034157,401.724891 C35.9724157,419.087891 78.6544157,575.065891 88.5904157,607.447891 C88.6004157,607.443891 88.6104157,607.439891 88.6204157,607.434891 C95.0664157,618.846891 102.385416,651.410891 118.517416,648.891891 C129.583416,661.403891 147.218416,658.943891 162.235416,659.904891 C159.789416,669.286891 160.991416,680.021891 163.902416,689.292891 C167.345416,700.328891 184.241416,700.702891 186.637416,688.670891 C336.181416,717.724891 489.620416,694.542891 640.845416,698.903891 C684.569416,699.213891 728.289416,700.566891 771.908416,703.681891 C778.050416,704.119891 784.277416,697.843891 783.859416,691.728891 C774.481416,591.956891 765.674416,460.705891 755.187416,361.910891 C752.700416,339.379891 750.733416,316.601891 743.718416,294.927891 Z" id="Skin" fill="#edb98a" blush:color="Skin-500" blush:i="0.0.0.0"/><path d="M284.248585,76.3619825 C284.297563,76.5848483 284.3496,76.8058237 284.404696,77.0249088 L283.833049,78.3218459 C280.210216,86.6782267 278.398469,93.5972653 278.398469,99.0790147 C278.398469,111.576732 334.02189,235.248792 457.422617,223.883451 C539.689768,216.306556 589.834367,178.932827 607.856414,111.762262 L608.911815,97.248455 C611.576522,98.3073415 614.182067,99.5819909 616.707585,101.152982 C622.487585,95.5769825 631.939585,97.5089825 632.811585,105.303982 C648.491585,113.553982 663.157585,124.361982 678.234585,133.771982 L679.156389,134.417883 C692.291145,143.513135 708.546988,150.360166 714.726585,166.347982 L717.200642,166.505686 C733.715889,167.588468 756.750585,240.411982 747.709585,269.352982 C745.164585,277.697982 740.576585,286.301982 743.718585,294.927982 C750.733585,316.601982 752.700585,339.379982 755.187585,361.910982 C765.674585,460.705982 774.481585,591.956982 783.859585,691.728982 C784.277585,697.843982 778.036856,703.119992 771.908585,703.681982 C645.007334,715.319413 167.345585,706.328982 163.902585,695.292982 C160.991585,686.021982 159.789585,669.286982 162.235585,659.904982 C147.218585,658.943982 129.583585,661.403982 118.517585,648.891982 C102.385585,651.410982 95.0665852,618.846982 88.6205852,607.434982 L88.5905852,607.447982 C78.6545852,575.065982 35.9725852,419.087982 64.9035852,401.724982 C67.9195852,321.986982 89.3915852,243.037982 134.380585,177.090982 C133.92921,174.721024 134.259396,172.149017 135.706474,169.614359 L135.901585,169.283982 C150.531585,144.230982 170.763585,120.865982 199.491585,112.463982 C224.777585,94.4559825 254.068585,82.9229825 284.248585,76.3619825 Z M649.711613,285.137544 C643.25341,280.12914 592.510844,290.145949 555.636199,299.14841 C531.053102,305.150051 513.928473,313.264686 504.26231,323.492316 L504.26231,323.492316 L460.989492,370.986791 L450.039553,378.065847 C450.039553,392.850879 450.884098,408.399665 452.573189,424.712204 C454.26228,441.024744 461.706162,458.286609 474.904836,476.497799 C513.796029,465.812389 537.051052,459.7486 544.669904,458.306432 C556.098182,456.143181 565.150856,437.38131 570.522081,430.932064 C575.893306,424.482818 596.4937,423.764452 612.189816,418.796305 C622.653893,415.484207 629.931672,407.023033 634.023152,393.412783 C656.894581,388.476416 672.014005,385.184456 679.381425,383.536903 C686.748845,381.88935 686.748845,377.705979 679.381425,370.986791 L679.381425,370.986791 L593.726906,367.989771 C627.913858,360.683784 648.668728,356.527719 655.991516,355.521575 C666.975698,354.012359 696.481555,344.851811 696.481555,337.754054 C696.481555,330.798251 651.563702,330.924346 627.620874,330.932172 L625.693562,330.932912 C609.974118,330.962972 584.914432,332.435929 550.514504,335.351783 L550.514504,335.351783 L570.522081,325.770275 C615.661138,317.029684 641.240064,312.659389 647.258856,312.659389 C653.277649,312.659389 657.54159,308.155729 660.050679,299.14841 C657.463437,293.146769 654.017081,288.476481 649.711613,285.137544 Z" id="Top" fill="#FFCF77" blush:i="0.0.0.1"/><path d="M594.296955,286.799037 L638.250669,187.238409 C642.678432,175.961087 648.65148,170.322426 656.169816,170.322426 C663.688151,170.322426 701.534477,171.389918 769.708793,173.524902 C783.660855,175.304473 788.384374,179.875641 783.879351,187.238409 C779.374327,194.601176 743.627688,266.787213 676.639432,403.796522 L634.023152,403.796522 L634.023152,393.412783 L681.467927,380.148418 C687.22487,374.040667 685.615371,370.986791 676.639432,370.986791 C667.663492,370.986791 637.065007,369.987784 584.843976,367.989771 L659.534966,357.030791 L696.481555,342.821981 L691.046987,335.351783 L659.534966,330.85107 L556.913123,335.351783 L584.843976,325.906697 L647.258856,312.659389 C655.442929,306.896354 659.534966,301.188943 659.534966,295.537156 C659.534966,289.885368 648.573211,285.972661 626.649701,283.799037 L594.296955,286.799037 Z" id="Device" fill="#FFF" blush:i="0.0.0.2"/><path d="M396.010816,-19.2102088 C396.439816,-20.3802088 398.187816,-20.2252088 398.220816,-18.9112088 C398.909816,9.14179123 391.925816,43.4227912 369.477816,62.3717912 C357.954652,72.0987367 342.719894,76.5503337 328.729099,81.6655554 L327.150816,82.2477912 L302.432816,91.4557912 C295.876816,93.8977912 288.804816,97.6547912 283.013816,94.2047912 C287.699816,105.824791 291.633816,117.764791 297.340816,128.963791 C304.444816,142.904791 313.033816,155.659791 323.545816,167.260791 C365.191816,213.219791 431.101816,227.238791 490.248816,213.772791 C520.705816,206.837791 550.342816,193.695791 571.121816,169.725791 C586.913816,151.505791 595.986816,127.051791 598.124816,102.930791 C597.499816,103.030791 596.844816,103.026791 596.171816,102.878791 C588.688222,101.246447 581.133304,97.2350656 574.548038,93.3011668 L573.913816,92.9207912 C567.577816,89.1067912 560.973816,84.7357912 556.426816,78.8097912 C553.416217,74.8865263 550.331169,66.5258171 547.17167,53.7276638 C545.880549,46.5129806 544.669508,32.1397912 544.876816,24.8467912 C544.895816,24.1587912 547.948816,23.7527912 548.274816,24.4677912 C551.095753,30.6590412 552.007902,44.2624983 554.185425,50.7063239 L554.624816,51.9927912 C556.949816,58.7217912 558.943816,66.9147912 563.764816,72.3547912 C572.815816,82.5697912 586.471816,86.8937912 598.660816,92.0167912 C599.535816,80.4717912 617.975816,80.7407912 617.741816,92.7817912 C617.728816,93.4347912 617.699816,94.0847912 617.676816,94.7357912 C619.131066,95.5352912 620.529628,96.4495412 621.837066,97.3317287 L623.112816,98.1977912 C627.940816,101.481791 632.805816,104.602791 637.946816,107.388791 C647.899816,112.783791 658.436816,117.060791 668.634816,121.957791 C678.951816,126.912791 688.600816,132.815791 697.609816,139.880791 C701.841149,143.198208 705.898545,146.731576 709.746572,150.486287 L710.790816,151.515791 C714.453816,155.163791 719.219816,159.242791 721.306816,164.036791 C721.766816,165.093791 724.071265,167.552313 725.321737,167.634294 C744.697758,168.90459 764.032437,170.698359 783.286816,173.387791 C788.271816,174.083791 790.242227,176.652957 788.399643,180.807791 C782.067643,195.085791 757.278816,252.106791 750.686816,267.409791 C751.456816,278.651791 750.416816,291.886791 751.110816,303.131791 C752.125816,319.541791 753.454816,335.945791 755.047816,352.309791 C760.747816,410.846791 769.388816,469.098791 777.196816,527.379791 C781.104816,556.547791 784.667816,585.758791 788.184816,614.975791 C789.960816,629.740791 791.467816,644.520791 792.627816,659.348791 C793.111016,665.527191 793.549416,671.710071 793.935848,677.895383 L794.268887,683.381757 C794.727377,690.28615 795.785424,696.879674 791.512816,702.805791 C789.575816,705.493791 785.151816,707.007791 782.604816,703.953791 C779.402816,700.114791 778.212816,697.246791 777.906816,692.203791 C777.672816,688.343791 777.616816,684.465791 777.440816,680.601791 C777.060816,672.225791 776.582816,663.853791 776.022816,655.486791 C774.905816,638.760791 773.630816,622.037791 772.153816,605.339791 C766.976816,546.786791 757.137816,488.674791 750.590816,430.265791 C747.290816,400.819791 744.946816,371.318791 743.705816,341.709791 C743.084816,326.923791 742.859816,312.138791 743.005816,297.339791 C743.060816,291.811791 743.322816,286.309791 743.701816,280.819791 C733.893816,303.100791 723.582816,325.166791 712.802816,346.939791 L710.247618,352.096268 C703.416061,365.857977 696.400777,379.671404 688.190409,392.645469 L686.779338,394.856825 C683.452528,400.126775 678.908519,408.435754 672.842816,410.098791 C668.617816,411.257791 663.454816,410.441791 659.122816,410.358791 C654.823816,410.276791 650.519816,410.258791 646.223816,410.084791 C641.404816,409.890791 636.806816,409.257791 632.149816,408.001791 C631.375816,407.793791 630.643816,407.567791 629.976816,407.279791 C625.284816,414.957791 617.312816,420.805791 609.161816,424.212791 C602.632921,426.941739 595.790209,428.812492 588.935952,430.544202 L586.516816,431.150791 C579.168816,432.981791 570.762816,433.851791 566.618816,440.947791 L565.656134,442.592506 C562.575189,447.826944 559.619284,452.42401 554.519816,456.176791 C549.030816,460.217791 542.527816,462.758791 536.049816,464.736791 C529.416816,466.760791 522.629205,468.310875 515.894181,469.970894 L514.058816,470.426791 C509.612816,471.539791 505.126816,472.560791 500.706816,473.771791 C498.821816,474.287791 496.902816,474.819791 495.052816,475.455791 C492.886816,476.199791 491.312816,477.361791 489.603816,478.625791 C488.067816,483.991791 481.502816,486.905791 476.104816,486.531791 C473.269816,486.335791 470.726816,485.373791 468.412816,483.963791 C464.373816,487.401791 459.926816,490.481791 455.809816,493.666791 C450.044816,498.126791 444.256816,502.555791 438.436816,506.943791 C426.436816,515.988791 414.345816,524.913791 402.128816,533.662791 C380.443816,549.192791 358.289816,564.011791 335.756816,578.281791 C326.361816,584.231791 316.903816,590.171791 307.352816,595.969791 L308.372112,596.347643 L310.393816,597.111791 C315.172816,598.895791 320.497816,601.778791 321.423816,607.353791 C322.157816,611.775791 319.687816,614.823791 315.321816,615.363791 C310.132816,616.004791 306.094816,612.338791 302.863816,608.838791 C301.437816,607.295791 299.841816,605.861791 298.475816,604.272791 C297.918816,603.623791 297.490816,602.875791 297.113816,602.091791 C287.688277,607.645945 278.162194,613.013495 268.485229,618.032418 L266.062816,619.279791 C242.065816,631.550791 218.708816,644.994791 194.507816,656.916791 C188.194816,660.026791 180.497816,663.390791 172.474816,665.686791 C174.603816,673.938791 174.570816,682.998791 174.624816,691.373791 C174.675816,699.535791 161.704816,699.496791 161.978816,691.373791 L162.110802,687.451314 C162.346982,680.854625 162.732816,674.007125 164.297816,667.588791 C140.659216,671.509191 117.044601,662.989006 112.647816,660.430791 C107.794816,657.608791 103.389816,653.092791 99.7238157,648.903791 C91.8788157,639.936791 86.4348157,629.188791 81.6048157,618.375791 C71.2588157,595.219791 63.9288157,570.467791 58.5698157,545.713791 C38.8128157,454.447791 47.3108157,356.765791 79.3958157,269.279791 C87.4118157,247.420791 96.8758157,226.043791 107.720816,205.440791 L109.06744,202.893779 C119.889499,182.519247 131.917416,162.222351 147.195816,144.883791 C163.109816,126.824791 182.740816,112.779791 204.114816,101.877791 C214.545816,96.5577912 225.278816,91.9467912 236.248816,87.8607912 C238.010816,87.2037912 239.784816,86.6147912 241.562816,86.0537912 C252.994816,78.7657912 266.868816,71.7937912 280.747816,72.0677912 C281.690816,72.0847912 282.454816,72.4427912 283.024816,72.9817912 C283.693816,73.0987912 284.362816,73.2407912 285.032816,73.4357912 C286.511816,73.8647912 288.073816,75.4857912 287.861816,77.1507912 L287.789832,77.7047592 C287.750736,77.9753112 287.701416,78.2367912 287.616816,78.4917912 C288.112816,78.5657912 288.599816,78.6837912 289.076816,78.8467912 C302.355816,75.0967912 315.420816,69.3617912 328.378816,64.7357912 L331.329823,63.6937345 C342.182705,59.8903954 353.317149,56.1625412 362.219816,48.6357912 C371.076816,41.1477912 377.736816,31.4487912 382.551816,20.9637912 C388.483816,8.04579123 391.139816,-5.94820877 396.010816,-19.2102088 Z M661.870016,662.110291 C664.499016,660.154291 667.608016,662.424291 668.592016,664.845291 C671.822016,672.790291 670.226016,685.136291 665.673016,692.161291 C660.955016,699.439291 649.662016,696.566291 649.389016,687.750291 C649.104016,678.557291 654.448016,667.635291 661.870016,662.110291 Z M689.028216,442.723191 C689.264216,441.690191 690.868216,441.700191 691.108216,442.723191 C693.297144,452.045906 693.246072,462.085532 693.888798,471.644162 L693.963216,472.704191 C694.734216,483.245191 695.382216,493.815191 695.844216,504.374191 C696.751216,525.149191 697.835216,545.925191 699.050216,566.684191 C699.653216,576.978191 700.299216,587.271191 700.988216,597.561191 C703.146216,596.358191 705.369216,595.302191 707.673216,594.370191 C711.125216,592.975191 714.486216,592.815191 718.195216,592.853191 C722.712216,592.899191 726.113216,596.872191 725.515216,601.297191 C724.863216,606.116191 720.620216,608.181191 716.214216,607.493191 C711.334216,606.729191 706.433216,605.546191 701.506216,605.056191 C702.055216,613.012191 702.622216,620.966191 703.223216,628.915191 C704.020216,639.440191 705.059216,649.952187 705.789216,660.481191 C705.859216,661.485191 705.934216,662.491191 706.011216,663.500191 C708.949216,661.972191 712.069216,661.190191 715.605216,660.227191 L716.525186,659.9692 C721.658965,658.494806 727.151329,656.456304 731.903216,659.908191 C735.097216,662.229191 735.735216,666.049191 733.089216,669.110191 C729.077367,673.75487 723.14124,672.853895 717.599479,672.617073 L714.618254,672.508323 C711.80842,672.397734 709.216157,672.218074 706.619216,671.509191 C707.096216,678.368191 707.347216,685.253191 706.506216,692.012191 C706.051216,695.665191 701.242216,696.624191 699.969216,692.896191 C696.644216,683.157191 695.957216,672.654191 694.740216,662.453191 C693.603852,652.925919 692.912943,643.329224 692.168615,633.759277 L691.943216,630.889191 C690.269216,609.835191 688.930216,588.770191 687.952216,567.673191 C686.973216,546.579191 686.385216,525.489191 686.151216,504.374191 C686.044852,494.786919 686.203778,485.164935 686.579157,475.578864 L686.698216,472.704191 C687.130216,462.845191 686.828216,452.383191 689.028216,442.723191 Z M249.604616,663.664591 C249.732616,662.317591 250.811616,660.643591 252.416616,660.852591 C253.895616,661.044591 255.419616,660.952591 256.882616,661.196591 C258.813616,661.516591 260.367616,662.657591 262.163616,663.375591 C265.082616,664.542591 268.264616,665.145591 271.259616,666.100591 C276.878616,667.893591 279.940616,673.808591 277.613616,679.332591 C275.166616,685.139591 269.017616,686.457591 263.704616,684.020591 C259.51669,682.100443 256.395156,679.030446 253.579219,675.477636 L252.781404,674.4645 C251.567931,672.938048 250.190733,671.235003 249.681616,669.385591 C249.186616,667.583591 249.430616,665.497591 249.604616,663.664591 Z M522.601916,636.364891 C529.600758,635.379523 535.578538,637.772096 542.054699,640.027399 L542.580916,640.209891 C549.171916,642.484891 558.788916,644.059891 562.166916,650.805891 C564.204916,654.873891 562.621916,660.275891 557.825916,661.479891 C550.230174,663.384477 543.41964,657.832976 537.138988,654.095856 L536.808916,653.900891 C530.746916,650.349891 524.489916,647.364891 520.618916,641.239891 C519.585916,639.605891 520.481916,636.663891 522.601916,636.364891 Z M278.282816,79.7717912 C275.478816,80.3997912 272.674816,80.9547912 269.873816,81.4887912 C259.218816,87.1997912 248.876816,93.1257912 237.875816,98.2137912 C226.203816,103.612791 214.574816,109.188791 203.487816,115.719791 C181.088816,128.914791 162.623816,146.070791 147.365816,167.099791 C121.009816,203.424791 101.404816,245.315791 87.3738157,287.820791 C83.7688157,298.740791 80.5428157,309.783791 77.6888157,320.919791 C82.7348157,316.252791 88.7088157,313.383791 95.4078157,310.926791 C98.2468157,309.885791 101.780816,311.647791 103.219816,314.105791 C103.866816,315.209791 104.231816,316.301791 104.164816,317.596791 C104.015816,320.454791 102.155816,323.701791 99.0858157,324.267791 C91.9288157,325.586791 84.9698157,328.154791 78.0688157,330.414791 C77.0228157,330.757791 76.1238157,330.627791 75.4058157,330.223791 C68.5548157,359.242791 64.2688157,388.858791 62.7508157,418.653791 C61.4668157,443.877791 62.2588157,469.299791 65.0528157,494.488791 C67.1998157,493.523791 69.2998157,492.618791 71.6538157,492.070791 C74.7068157,491.360791 77.7098157,490.496791 80.6878157,489.520791 C89.2818157,486.701791 93.2018157,500.889791 84.4178157,503.051791 C81.1488157,503.856791 77.8598157,504.524791 74.5288157,505.013791 C71.6258157,505.439791 69.0578157,505.251791 66.3208157,504.805791 C68.4118157,520.520791 71.2678157,536.121791 74.9058157,551.500791 L75.7085812,554.866044 C80.4342445,574.50872 85.9419509,594.334494 93.9068157,612.896791 C97.8138157,622.002791 102.986816,630.650791 109.373816,638.242791 C112.511816,641.975791 115.994816,645.175791 119.792816,648.207791 C122.954816,650.732791 133.703113,656.20775 146.432716,656.20775 C159.162318,656.20775 162.608458,655.003404 169.030816,652.792791 C181.731849,648.421525 193.790919,641.442223 205.702129,635.22599 L206.933816,634.585791 C212.200816,631.860791 217.447816,629.096791 222.680816,626.306791 C222.019816,620.971791 223.176816,616.490791 225.956816,611.562791 C228.961778,606.232266 236.407602,608.887296 236.961132,614.339415 L236.978816,614.547791 C237.062816,615.776791 237.268816,617.029791 237.524816,618.278791 C272.515816,599.111791 306.765816,578.601791 340.470816,557.229791 C362.181816,543.461791 383.661816,529.283791 404.827816,514.690791 C415.408816,507.395791 425.897816,499.969791 436.282816,492.397791 C441.722816,488.430791 447.137816,484.432791 452.527816,480.399791 C454.772816,478.719791 456.974816,476.955791 459.224816,475.266791 C458.677816,474.582791 458.144816,473.899791 457.628816,473.223791 C449.226816,462.223791 443.775816,449.111791 441.059816,435.584791 C439.419816,427.422791 438.627816,418.949791 438.386816,410.627791 L438.280834,407.00968 C438.114816,400.912736 438.071482,394.532458 439.194816,388.625791 C437.665816,389.465791 436.103816,390.289791 434.546816,391.171791 C428.959816,394.336791 423.367816,397.494791 417.766816,400.637791 C406.550816,406.928791 395.301816,413.147791 383.909816,419.115791 C363.561816,429.776791 343.013816,439.916791 321.910816,449.004791 L311.642531,453.430705 C293.82132,461.09645 275.85459,468.623436 257.325816,474.320791 C246.874816,477.533791 231.204424,481.511791 220.603424,483.963791 C229.120759,491.989125 230.297426,497.382125 224.133424,500.142791 C214.887421,504.283791 207.227424,488.399791 206.922424,486.960791 C203.666957,487.641858 197.390657,488.805609 188.093524,490.452045 C174.841308,493.009868 161.992445,498.074321 150.146973,504.55592 C146.029065,506.809154 144.881753,502.431613 149.244814,499.381505 C162.002311,490.463053 176.883428,485.416305 192.237591,481.181091 L192.991816,480.973791 C198.624816,479.430791 204.247816,477.822791 209.858816,476.156791 C209.241816,473.924791 208.885816,471.608791 208.956816,469.054791 C209.114816,463.365791 209.617816,457.656791 209.919816,451.971791 C210.553816,440.039791 211.362816,428.145791 212.310816,416.235791 C212.674816,411.647791 213.082816,407.046791 213.549816,402.449791 C210.540974,400.836423 207.945882,398.69532 204.591169,397.641996 L204.024816,397.476791 C200.436816,396.509791 201.647816,391.886791 204.834816,391.490791 C207.721816,391.133791 210.594816,391.297791 213.440816,391.908791 C213.881816,392.004791 214.298816,392.111791 214.696816,392.232791 C215.219816,387.974791 215.799816,383.727791 216.458816,379.504791 C218.201816,368.346791 219.434816,356.590791 223.062816,345.869791 C223.331816,345.075791 224.510816,344.791791 224.947816,345.623791 C230.2257,355.664176 230.40928,367.980818 231.00411,379.161749 L231.077816,380.497791 C231.778816,392.695791 231.818816,405.012791 231.592816,417.227791 C231.360816,429.815791 230.929816,442.371791 230.364816,454.948791 C230.137816,460.012791 230.146816,465.266791 229.283816,470.109791 C260.691816,459.899791 291.544816,447.678791 321.117816,433.207791 C341.978816,423.000791 362.659816,412.384791 383.104816,401.369791 C393.348816,395.851791 403.640816,390.422791 413.873816,384.883791 C417.459149,382.942458 421.041816,380.994902 424.623001,379.044088 L429.993816,376.115791 C435.019816,373.372791 439.214816,370.643791 445.068816,370.451791 C446.813816,370.393791 448.378816,371.211791 449.489816,372.448791 C452.635816,370.217791 456.271816,368.847791 460.087816,368.879791 C465.831816,360.945791 471.663816,353.076791 477.727816,345.378791 L482.207754,339.679331 C489.961728,329.846469 498.175374,319.864442 508.062816,312.379791 C512.475816,309.040791 517.329816,306.535791 522.391816,304.465791 C521.200816,304.174791 520.034816,303.589791 518.995816,302.625791 C514.160816,298.142791 513.494816,289.815791 512.512816,283.559791 C511.493816,277.072791 511.887816,271.266791 512.893816,264.800791 C513.284816,262.287791 517.446816,261.764791 518.462816,264.072791 C520.603725,268.939155 522.87108,273.603039 524.819352,278.524249 L525.393816,280.008791 C527.484816,285.548791 531.938816,291.376791 531.644816,297.386791 C531.564816,299.033791 531.012816,300.468791 530.160816,301.622791 C534.409816,300.211791 538.719816,298.953791 542.963816,297.641791 C556.320816,293.514791 569.728816,289.503791 583.342816,286.301791 C586.966816,285.449791 590.608816,284.658791 594.265816,283.932791 C596.181816,274.836791 598.973816,265.908791 602.265816,257.141791 C599.148816,255.544791 597.130816,252.867791 594.446816,250.486791 C591.934816,248.256791 590.208816,245.541791 588.065816,242.981791 C586.114816,240.652791 587.210816,236.444791 590.716816,236.580791 L591.71015,236.622502 C595.342295,236.791194 598.860232,237.166875 602.153816,238.861791 L603.327072,239.466695 C604.936576,240.302471 606.698016,241.259591 608.266816,242.390791 C610.317649,237.671625 612.450427,232.997597 614.606121,228.371023 L617.403192,222.38821 C624.655465,206.816289 631.887751,190.651791 640.992816,176.151791 C645.040816,169.705791 650.427816,165.680791 658.159816,165.057791 C666.121816,164.416791 674.399816,165.244791 682.372816,165.529791 C691.615816,165.860791 700.855816,166.252791 710.089816,166.737791 C707.722816,164.258791 705.562816,161.498791 703.185816,159.119791 C699.239816,155.174791 695.070816,151.434791 690.688816,147.977791 C682.015816,141.136791 672.479816,135.499791 662.574816,130.645791 C652.667816,125.790791 642.469816,121.557791 633.169816,115.559791 C627.284816,111.764791 622.024816,106.988791 617.225816,101.820791 C614.204816,134.410791 598.467816,164.688791 574.825816,187.436791 C550.269816,211.061791 516.335816,224.041791 483.139816,229.562791 C449.279816,235.194791 413.940816,233.127791 381.549816,221.358791 C364.848816,215.289791 348.830816,206.619791 334.545816,195.744791 C334.388816,196.690791 334.199816,197.625791 333.828816,198.504791 C333.330941,199.686041 332.72205,200.691963 332.023581,201.729563 L330.778454,203.550261 C329.992857,204.694546 329.192244,205.829648 328.300816,206.891791 C326.141816,209.462791 323.082816,210.588791 319.787816,210.576791 C313.478816,210.555791 308.700816,204.369791 310.398816,198.251791 C311.465816,194.406791 313.748816,192.092791 317.312816,190.587791 C318.439216,190.111791 319.587376,189.713231 320.741936,189.320943 L321.608816,189.026791 C322.775816,188.627791 323.933816,188.246791 325.134816,188.025791 C318.370816,182.055791 312.094816,175.563791 306.474816,168.557791 C288.847816,146.586791 271.461816,115.815791 277.354816,86.6367912 C277.456816,86.1357912 277.907816,85.8207912 278.393816,85.7407912 C278.735816,83.6927912 279.825816,81.7117912 281.318816,80.3797912 C280.313816,80.1157912 279.300816,79.9117912 278.282816,79.7717912 Z M461.321616,584.266591 C464.812616,582.325591 468.418616,586.938591 465.581616,589.787591 L461.345896,594.02523 C457.414884,597.975655 453.588774,601.968486 450.223616,606.470591 L449.408804,607.571003 C444.866732,613.750243 440.023069,620.910157 432.580616,623.219591 C423.578616,626.012591 414.927616,615.047591 420.140616,607.037591 C424.694616,600.037591 433.463616,597.396591 441.023616,594.502591 C448.175616,591.764591 454.635616,587.983591 461.321616,584.266591 Z M170.920716,551.963791 C172.971716,549.278791 178.319716,550.692791 176.918716,554.492791 C172.367716,566.830791 170.512716,583.654791 159.018716,591.851791 C155.310716,594.494791 149.485716,593.279791 146.432716,590.227791 C142.963716,586.758791 142.824716,581.873791 144.808716,577.641791 C147.228392,572.479232 153.179782,568.73633 157.351518,564.803856 L157.725716,564.445791 C162.213716,560.086791 167.067716,557.007791 170.920716,551.963791 Z M651.307926,566.163804 C654.968732,564.585825 664.510216,561.517625 667.337716,565.149391 C667.469716,565.282391 667.582716,565.427391 667.673716,565.587391 C668.366716,566.793391 668.469716,568.492391 667.673716,569.688391 C664.378751,574.639998 660.9471,578.336312 656.262446,581.860471 L655.736716,582.251391 C650.636716,586.000391 645.845716,590.404391 639.631716,592.095391 C631.018716,594.439391 625.002716,583.655391 631.051716,577.358391 C635.925049,572.28578 643.364595,569.65183 649.822077,566.823131 L651.307926,566.163804 Z M305.423916,495.664691 C303.982916,493.061691 306.926916,489.866691 309.592916,491.495691 C317.197916,496.143691 326.056916,499.630691 334.598916,502.135691 C338.055916,503.149691 341.174916,506.653691 340.917916,510.434691 L340.87764,511.007183 C340.775853,512.343035 340.591666,513.669316 339.742916,514.779691 C336.767916,518.670691 332.511916,520.169691 327.966916,517.866691 C317.837916,512.734691 310.904916,505.569691 305.423916,495.664691 Z M527.701316,487.779091 C527.516316,486.684091 528.317316,485.839091 529.430316,486.050091 C535.857316,487.268091 541.793316,490.372091 547.312316,493.940091 C550.272316,495.854091 553.127316,497.956091 556.080316,499.889091 C559.728316,502.275091 561.094316,504.246091 561.633316,508.626091 C561.989316,511.516091 559.290316,514.156091 556.815316,514.954091 C550.069525,517.129136 542.340747,509.991521 537.770848,505.354119 L537.565316,505.145091 C532.781316,500.269091 528.835316,494.503091 527.701316,487.779091 Z M720.732416,480.203791 C719.267416,476.247791 724.316416,472.967791 727.618416,474.910791 C730.727416,476.739791 734.100416,478.256791 737.033416,480.352791 C739.728527,482.279902 742.185811,484.562569 744.77048,486.651568 L746.047762,487.662729 C750.787684,491.472971 758.611668,500.897349 751.834416,506.363791 C745.383997,511.566908 736.831852,504.921935 732.502396,500.063593 L732.200416,499.719791 C729.709416,496.842791 726.638416,493.716791 724.831416,490.355791 C723.130416,487.192791 721.976416,483.561791 720.732416,480.203791 Z M657.121816,173.956791 C649.042816,175.524791 645.749816,185.496791 642.347816,191.996791 C634.318816,207.336791 626.934816,222.957791 619.518816,238.598791 C617.235816,243.409791 615.012816,248.257791 612.769816,253.096791 C612.632816,253.475791 612.456816,253.848791 612.249816,254.217791 C607.654816,264.110791 602.922816,273.938791 597.391816,283.329791 C602.453816,282.381791 607.541816,281.573791 612.648816,280.937791 C612.391177,276.12918 615.683769,269.693852 617.312414,265.645825 L617.447816,265.304791 C619.478816,260.116791 621.607816,251.944791 626.835816,249.252791 C628.577816,248.356791 630.440816,249.479791 630.574816,251.397791 C630.970816,257.107791 625.385816,263.642791 622.655816,268.488791 C621.004816,271.420791 619.395816,274.365791 617.827816,277.342791 C617.239816,278.456791 616.748816,279.551791 616.145816,280.533791 C618.779816,280.248791 621.416816,279.994791 624.060816,279.809791 L625.783848,279.691895 C635.585992,279.045711 645.99676,278.861125 654.852816,283.694791 C663.069816,288.177791 667.269816,297.748791 662.755816,306.463791 C657.131816,317.320791 644.747816,318.759791 633.857816,319.639791 C620.255816,320.736791 606.622816,322.717791 593.116816,324.649791 C579.146816,326.647791 565.991816,331.797791 552.229816,334.444791 C550.949816,334.690791 550.152816,333.016791 551.326816,332.301791 C562.182421,325.69437 575.379737,322.058172 587.516172,318.354312 L588.497816,318.053791 C595.080816,316.031791 601.514816,313.721791 608.324816,312.574791 C614.935816,311.461791 621.587816,310.559791 628.255816,309.873791 L628.903403,309.813955 C636.245003,309.198393 654.974336,309.408611 654.182816,298.538791 C653.658816,291.344791 641.964816,290.102791 636.626816,290.016791 C612.152816,289.624791 587.502816,296.120791 564.243816,303.080791 L559.051397,304.637652 C549.52726,307.5033 539.989739,310.45156 530.644816,313.810791 C520.054816,317.616791 511.711816,323.551791 503.998816,331.674791 C495.446816,340.681791 487.163816,349.891791 478.291816,358.594791 C472.698816,364.081791 467.033816,369.470791 461.322816,374.815791 C460.032816,376.485791 459.000816,378.302791 458.285816,380.659791 C457.077816,384.641791 457.355816,388.342791 457.811816,392.432791 C458.961816,402.761791 459.215816,413.197791 460.656816,423.494791 C461.992816,433.033791 463.860816,442.922791 467.821816,451.771791 C469.390253,455.276166 471.431542,458.718139 473.756169,461.796134 L475.632474,464.235362 C476.450407,465.294945 477.3652,466.45433 478.325816,467.544791 C479.735816,465.824791 481.775816,464.705791 484.146816,464.985791 C489.185816,465.578791 493.146816,465.436791 498.089816,464.278791 C501.915816,463.383791 505.711816,462.334791 509.520816,461.363791 C516.999816,459.455791 524.548816,457.719791 531.951816,455.528791 L533.22448,455.145416 C538.741331,453.453256 544.26003,451.333791 548.851816,447.771791 C554.186816,443.632791 555.827816,437.661791 559.779816,432.498791 C568.217816,421.473791 586.451816,421.704791 598.797816,418.684791 C609.290085,416.119099 619.38701,412.070144 626.647989,404.457707 L627.071691,404.004291 C626.749816,402.645791 627.271816,401.112791 628.533816,400.408791 L628.808816,400.255791 C629.300816,399.980791 629.830816,399.866791 630.350816,399.877791 C631.024816,398.887791 631.674816,397.865791 632.265816,396.777791 C632.751816,395.880791 633.966816,396.540791 633.807816,397.426791 C633.712816,397.955791 633.580816,398.471791 633.455816,398.988791 C640.489316,397.179791 648.213692,397.525247 655.354822,397.529813 L664.622079,397.497403 C666.225882,397.477704 668.616316,397.39722 668.828816,397.300791 L669.046719,397.20397 C669.62451,396.953114 668.804179,397.367246 669.207816,396.831791 C669.652816,396.240791 670.088816,395.642791 670.518816,395.039791 C672.054816,392.890791 673.507816,390.676791 674.931816,388.442791 C659.412816,392.395791 643.336816,394.855791 627.490816,396.906791 C610.490816,399.109791 593.266816,400.637791 576.114816,400.653791 C571.386816,400.658791 571.429816,393.520791 576.114816,393.341791 C594.276816,392.648791 612.343816,391.686791 630.383816,389.359791 C639.712816,388.154791 649.002816,386.643791 658.240816,384.875791 C661.807216,384.194991 665.365296,383.471311 668.914544,382.706799 L671.574816,382.125791 C673.243816,381.756791 677.959816,381.225791 680.259816,379.682791 C680.711816,378.905791 681.163816,378.130791 681.611816,377.354791 C681.391816,374.629791 674.463816,374.994791 672.839816,374.990791 C668.234816,374.981791 663.628816,375.018791 659.022816,375.030791 C649.811816,375.057791 640.601816,374.977791 631.389816,374.903791 C612.985816,374.753791 594.511816,374.111791 576.122816,374.897791 C571.658816,375.087791 569.313816,367.928791 573.725816,366.045791 C593.203816,357.729791 614.825816,355.922791 635.623816,353.365791 C646.560816,352.022791 657.503816,350.470791 668.195816,347.750791 L670.839303,347.078343 C677.555978,345.356473 684.972933,343.256732 690.628816,339.153791 C682.127791,335.714966 671.561058,336.109061 662.749131,335.622069 L662.074816,335.582791 C649.735816,334.824791 637.374816,334.436791 625.012816,334.418791 C599.718816,334.383791 574.416816,335.279791 549.150816,336.478791 C548.516816,336.508791 548.385816,335.507791 549.001816,335.373791 C574.970816,329.707791 601.363816,326.977791 627.939816,326.557791 C640.316744,326.361863 652.699709,326.536699 665.06629,327.083903 L669.603788,327.293678 C680.147623,327.748033 691.847392,327.870876 700.668816,334.237791 C702.013816,335.207791 702.722816,336.446791 702.833816,337.757791 C714.664816,314.174791 725.591816,290.098791 736.562816,266.182791 C745.091816,247.586791 753.302816,228.834791 762.142816,210.383791 L765.0046,204.414735 C768.836696,196.449711 772.762616,188.483791 777.121816,180.807791 C760.820816,178.628791 744.428816,177.115791 728.026816,175.957791 C713.081349,174.901258 664.316816,172.561791 657.121816,173.956791 Z M649.903516,429.551691 C651.762516,428.518691 654.610516,429.360691 655.068516,431.652691 C655.409516,433.359691 655.991516,435.254691 655.991516,437.000691 C655.991516,439.092691 655.243516,441.365691 654.844516,443.411691 C653.927516,448.117691 652.798516,451.941691 650.405516,456.133691 C648.908516,458.756691 645.885516,460.537691 642.847516,460.467691 C640.441516,460.412691 638.309516,459.766691 636.658516,457.904691 C634.680516,455.673691 633.322516,452.392691 634.407516,449.388691 C637.249516,441.518691 642.473516,433.677691 649.903516,429.551691 Z M255.606516,421.700291 C259.956516,414.081291 270.267516,407.272291 279.265516,407.946291 C292.776516,408.958291 295.533516,427.150291 282.452516,431.491291 C274.633516,434.085291 263.876516,431.421291 257.036516,427.151291 C255.192516,426.001291 254.516516,423.609291 255.606516,421.700291 Z M116.747416,395.670991 C115.759416,394.234991 117.392416,392.593991 118.864416,392.916991 C122.129416,393.633991 125.649416,393.946991 128.847416,394.920991 C132.122416,395.916991 135.292416,397.568991 138.536416,398.705991 C145.332416,401.085991 152.591416,402.280991 159.168416,405.154991 C161.797416,406.303991 163.865416,410.110991 163.622416,412.917991 L163.560433,413.574449 C163.414887,414.96756 163.173549,416.182858 162.394416,417.455991 C160.301416,420.873991 156.154416,422.639991 152.240416,421.587991 C144.979416,419.637991 137.884416,414.626991 131.693416,410.463991 L130.549384,409.703972 C127.844541,407.92146 124.936041,406.058366 122.756416,403.764991 C120.481416,401.369991 118.611416,398.382991 116.747416,395.670991 Z M366.344916,367.961591 C365.508916,364.951591 369.253916,362.962591 371.436916,364.996591 C375.798916,369.060591 380.359916,372.828591 384.631916,376.995591 L384.918751,377.279592 C387.97799,380.353691 392.428608,386.277868 388.449916,390.255591 C383.351916,395.353591 376.252916,387.789591 373.517916,383.847591 C370.048916,378.847591 367.967916,373.808591 366.344916,367.961591 Z M700.149816,343.074791 C693.678816,349.928791 683.708816,353.079791 674.930816,355.690791 C664.522816,358.783791 653.798816,360.631791 643.063816,362.151791 C632.690816,363.619791 622.397816,364.932791 612.189816,366.617791 C619.911816,366.713791 627.632816,366.770791 635.336816,366.908791 C644.221816,367.069791 653.101816,367.261791 661.983816,367.519791 C668.452816,367.707791 676.042816,366.820791 682.189816,369.224791 C683.297816,369.656791 684.332816,370.256791 685.236816,370.986791 C690.404816,361.797791 695.357816,352.481791 700.149816,343.074791 Z M301.009016,278.980891 C307.763016,276.835891 314.114016,273.988891 321.274016,274.727891 C323.177016,274.922891 324.540016,276.775891 323.501016,278.605891 C320.107816,284.577263 314.590407,287.94787 309.15898,291.941787 L308.680016,292.295891 C302.735016,296.717891 296.352016,300.746891 289.887016,304.375891 C278.756016,310.621891 268.781016,292.744891 280.022016,287.498891 C286.786016,284.341891 293.891016,281.242891 301.009016,278.980891 Z M422.608716,263.460291 C432.941716,264.140291 443.268716,264.602291 453.614716,265.020291 C465.598716,265.505291 461.569716,283.946291 451.558716,280.214291 C441.668716,276.526291 431.777716,272.885291 421.798716,269.445291 C418.76097,268.398673 419.005532,263.40943 422.41599,263.452655 L422.608716,263.460291 Z M157.582216,230.652891 C160.260216,230.464891 162.961216,231.049891 165.643216,231.309891 L168.497053,231.586688 C174.379908,232.172077 179.895871,232.893926 185.506216,235.287891 C195.858216,239.705891 190.298216,256.346891 179.906216,255.964891 C172.225216,255.682891 165.657216,252.383891 159.171216,248.543891 C153.501216,245.186891 150.025216,240.986891 146.196216,235.715891 C144.928216,233.969891 146.695216,232.012891 148.422216,231.836891 C151.464216,231.526891 154.539216,230.865891 157.582216,230.652891 Z M676.499716,196.669191 C674.786716,207.358191 670.534716,217.376191 664.127716,226.098191 C660.907716,230.481191 655.254716,230.647191 652.063716,226.098191 C647.549525,219.662985 650.333027,212.290265 653.733713,206.10933 L654.739883,204.299504 C656.26271,201.585825 658.60144,197.627708 661.273716,194.894191 L661.318716,194.614191 C662.750716,183.423191 678.264716,185.657191 676.499716,196.669191 Z M258.565216,128.071191 C261.141216,125.751191 265.885216,126.448191 266.721216,130.224191 C267.891216,135.512191 268.603216,141.470191 267.837216,146.838191 C267.422216,149.747191 267.266216,153.014191 266.122216,155.725191 C264.892216,158.640191 262.526216,160.882191 260.297216,163.074191 C255.847216,167.450191 246.466216,166.003191 245.274216,159.108191 L245.122822,158.262476 C244.523328,154.999865 243.756416,151.512991 244.644216,148.279191 C245.314349,145.839458 246.812038,143.350942 248.051065,141.087638 L248.312216,140.606191 C250.794216,135.984191 254.663216,131.583191 258.565216,128.071191 Z M620.656516,139.321581 L621.588185,139.331491 C628.778513,139.473518 641.923661,141.223903 641.99379,150.108591 C642.010516,152.202591 640.459516,154.372591 638.380516,154.854591 C634.082516,155.850591 631.304516,153.311591 628.241516,150.745591 C625.736516,148.647591 622.816516,146.972591 619.783516,145.766591 C616.507516,144.463591 616.721516,139.315591 620.656516,139.321581 Z" id="Ink" fill="#000" blush:i="0.0.0.3"/></g></g><g id="Head" transform="translate(372.000000, 180.000000) scale(0.9978902953586498 1)" blush:width="473" blush:height="567" blush:component="Head" blush:i="0.1" blush:value="Pomp" blush:viewBox="35.72009569377991 0 459.2583732057415 501.79500000000013"><g id="Head/Pomp" stroke="none" stroke-width="1" fill="none" fill-rule="evenodd" blush:viewBox="35.72009569377991 0 459.2583732057415 501.79500000000013" blush:i="0.1.0"><path d="M385.414655,173.221564 C381.553655,149.862425 394.225655,145.015818 385.414655,122.81092 C365.832655,81.6673118 312.467655,83.4400723 273.307655,80.2766375 C229.629655,78.6026407 185.421655,84.3688512 145.155655,101.874987 C135.537655,106.055988 126.286655,110.973229 117.418655,116.559869 C109.750655,121.391315 110.804655,130.577347 115.639655,135.588364 C80.7746553,184.960294 100.715655,251.231811 72.8966553,303.201529 C67.7576553,312.491313 60.9606553,320.821392 56.4936553,330.487277 C49.7036553,345.18014 49.2686553,366.232794 64.6666553,375.99046 C86.3536553,387.630623 98.4556553,364.583738 109.111655,397.992843 C162.329655,514.483264 269.328655,521.043576 370.904655,460.309816 C379.692655,455.421506 388.661655,449.896718 395.297655,442.217084 C410.360655,425.265622 408.586655,401.427629 408.919655,380.259251 C409.105655,367.853918 409.136655,355.446589 409.015655,343.03926 C408.541655,292.781448 391.884655,223.065366 385.414655,173.221564 Z" id="Skin" fill="#edb98a" blush:color="Skin-500" blush:i="0.1.0.0"/><path d="M169.0666,33.5077 C230.3966,5.6877 299.9576,-4.8623 366.8576,2.0577 C399.878278,5.46790339 432.464081,12.784251 463.474997,24.6688994 L466.193261,25.7193843 C473.848458,28.6657097 482.100367,31.5902581 487.9176,37.5877 C494.6886,44.5577 496.5876,55.0977 491.7476,63.7077 C487.9876,70.3977 481.2276,75.1967 474.0176,77.7577 C476.5576,79.8377 478.9676,82.1577 481.2276,84.7477 C485.0376,89.0877 485.3276,95.2767 481.2276,99.5577 C473.3276,107.8077 463.0776,113.7767 452.0376,116.6377 C453.2776,122.6277 452.6076,129.2577 449.9476,135.2277 C442.3147,152.3646 420.813385,154.40698 404.267456,153.389458 L403.7676,153.3577 L402.8476,163.8877 C402.3576,169.4977 398.9976,173.8477 393.2976,174.7077 C393.0976,174.7377 392.8966,174.7577 392.6976,174.7767 C401.7176,207.3977 407.1676,241.0267 412.1976,274.4577 C414.8256,291.9087 417.1782,309.4002 419.43036,326.90304 L420.1776,332.7377 C422.5776,351.6077 425.5776,370.6677 426.6176,389.6777 C427.5476,406.9277 424.2576,423.3977 413.6276,437.3177 C404.0876,449.7977 391.0776,459.1477 377.0876,466.0877 C345.4776,481.7767 312.2076,493.4577 277.2476,498.8777 L274.916235,499.236444 C261.421445,501.296219 247.517418,503.032245 234.1676,499.2977 C222.4386,496.0177 210.1376,487.5577 212.7876,473.9677 C213.6776,469.3777 220.0976,469.1777 222.2976,472.7277 L222.80543,473.541144 C225.443517,477.726861 228.33463,481.617033 232.9386,483.7767 C238.3276,486.3177 244.5776,487.0267 250.4676,487.0977 C266.9176,487.2877 284.0476,483.1877 299.8876,479.0777 C329.4676,471.3987 359.8476,458.8777 384.0776,439.9077 C394.3876,431.8477 402.6676,421.7677 405.5876,408.7977 C409.1976,392.8077 405.8776,375.3277 404.2376,359.2577 C400.8626,326.098325 396.845998,293.000473 392.608022,259.939426 L391.7576,253.3277 C388.1886,225.6877 384.4386,198.0377 382.6576,170.2377 C381.9176,169.2277 381.4176,168.0777 381.2176,166.8177 L380.9386,165.0077 L380.9386,165.0077 C380.6976,163.4577 380.6576,162.0377 380.8276,160.7277 C380.8376,155.7077 380.9776,150.7177 381.2676,145.6967 C381.3166,144.7977 381.3576,143.8977 381.3876,143.0077 C376.1676,144.1577 370.9076,145.0877 365.6276,145.8777 C328.5076,151.4677 290.8076,152.8677 253.3876,150.0877 C234.7176,148.6967 216.1886,146.3077 197.7176,143.3177 C188.3166,141.7977 178.9476,140.1177 169.6076,138.2377 C162.8576,136.8877 156.2476,135.0577 149.6076,133.3377 C142.7576,143.3077 139.0576,155.5777 139.7776,167.6277 C140.5876,181.3777 149.7476,193.8477 147.1776,207.8977 C144.7656,221.0467 133.5003,225.1237 122.378289,228.380251 L117.647948,229.746916 C114.008809,230.809438 111.366323,231.834509 110.7076,236.2077 C109.5776,243.7177 110.9676,252.1677 111.2576,259.7177 C111.6076,268.6477 112.0666,277.5777 112.2776,286.5077 C112.3876,291.1277 112.5666,295.7677 112.5576,300.3877 C112.5476,303.6677 112.0576,305.9077 110.7876,308.0267 C111.7676,309.2577 112.6466,310.5877 113.4276,311.9977 C113.6776,312.4577 113.0576,312.9467 112.6886,312.5677 C111.6976,311.5377 110.6466,310.6077 109.5376,309.7767 C108.9776,310.4677 108.3276,311.1677 107.5666,311.9177 L107.5076,311.8377 L107.5076,311.8377 C105.1276,314.2077 101.3476,314.4377 98.3966,311.9177 L97.622266,311.246807 C95.462361,309.353484 93.9782897,307.776666 93.3776,304.6477 C93.3476,304.4877 93.3166,304.3277 93.2976,304.1677 C87.8076,303.9777 82.2276,305.2767 77.2876,308.0077 C69.4576,312.3377 63.9476,318.5077 60.6886,326.1277 C61.9876,327.6477 63.5076,329.0077 65.2776,330.1477 C65.5276,330.3177 65.3076,330.6877 65.0376,330.5577 C63.2276,329.7077 61.6076,328.6577 60.1576,327.4277 C58.9876,330.4277 58.1676,333.6477 57.6676,337.0577 C55.9076,349.0977 59.0476,363.8077 69.9276,370.6677 C74.6376,373.6377 80.0176,375.2477 85.5976,375.2677 C88.3166,375.2767 90.6676,374.8177 93.3076,374.1677 C95.0976,373.7277 96.8776,373.0877 98.7476,373.0877 C100.3476,373.0877 101.8276,373.4877 103.1976,374.2877 L102.817638,374.320971 C101.894271,374.407638 102.071886,374.4467 103.3576,374.4467 C107.3576,374.6177 109.6466,378.6777 107.8076,382.2077 L107.566306,382.753053 C107.515498,382.863292 107.472457,382.954271 107.4386,383.0267 L107.293288,383.963052 C107.2788,384.0521 107.2636,384.1437 107.2476,384.2377 L107.192044,384.42733 C107.182044,384.4577 107.170933,384.4877 107.1576,384.5177 L113.156638,393.666016 C120.511886,404.857394 128.031171,416.005557 136.5876,426.2277 C142.5876,433.3977 148.9476,440.4277 155.6676,446.9377 C161.7076,452.7877 168.9476,455.6077 175.7876,460.2077 C179.4386,462.6477 180.5076,467.7577 177.1886,471.0477 C167.4476,480.7177 153.6576,473.0377 145.6676,465.1777 C138.1076,457.7277 131.5776,448.7677 125.9476,439.7977 C115.9576,423.8477 108.0076,406.8877 104.5276,388.4777 C103.0776,389.8077 101.2276,390.6377 99.3576,391.2877 C95.6076,392.5877 91.4776,393.1277 87.5176,393.2677 C79.9276,393.5177 72.3276,391.6777 65.4976,388.4177 C37.7076,375.1677 33.6276,335.4877 50.6176,312.0877 C48.3266909,305.444064 47.0471661,298.23551 45.65706,292.088454 L45.0246343,289.340608 C37.9999759,258.647793 33.2818,226.33292 45.7376,196.2577 C47.3376,192.3777 49.1376,188.5977 51.2676,184.9777 C52.9776,182.0677 55.9176,178.9677 56.7276,175.6577 C58.5276,168.3877 47.4176,160.7477 44.1776,154.9777 C40.3676,148.2077 39.8276,140.2177 45.0176,134.0267 C45.6776,133.2477 46.3966,132.5267 47.1776,131.8977 C42.2576,122.9777 42.0276,111.7577 48.5076,102.9577 C52.7676,97.1577 59.2676,93.0977 66.3676,91.8677 C70.7076,91.1177 75.9276,91.3977 80.6976,92.7377 C106.8166,68.4877 136.6176,48.2277 169.0666,33.5077 Z M68.7671,336.9378 C75.7381,330.7878 83.4381,327.5678 92.9381,328.3778 C102.4881,329.1968 113.9881,333.1478 119.5971,341.3378 C124.0281,347.8078 114.9981,357.2978 108.4981,352.4378 C102.5781,348.0078 98.6271,343.0078 91.2781,340.6278 C84.6771,338.4978 76.5071,337.1278 69.5971,338.3478 C68.8371,338.4778 68.0781,337.5378 68.7671,336.9378 Z" id="Ink" fill="#000" blush:i="0.1.0.1"/></g></g><g id="Face" transform="translate(531.000000, 366.000000) scale(1 1)" fill="#000" blush:width="289" blush:height="293" blush:component="Face" blush:i="0.2" blush:value="Eating Happy" blush:viewBox="51.43965517241378 61.53000000000003 187.58620689655172 193.38"><g id="Face/Eating Happy" stroke="none" stroke-width="1" fill="none" fill-rule="evenodd" blush:viewBox="51.43965517241378 61.53000000000003 187.58620689655172 193.38" blush:i="0.2.0"><path d="M126.149889,196.292214 C131.744002,187.090211 143.667824,209.632062 144.934713,213.508101 C146.056772,216.941676 146.797464,220.458991 147.173947,224.017014 C151.510872,224.989057 156.01445,224.990851 160.458249,224.139019 C167.062878,222.871873 171.100325,219.321223 176.840498,216.27243 C180.80528,214.165719 185.802087,216.636182 187.863888,220.130132 C190.289134,224.242684 188.744036,228.511189 185.554301,231.577101 C179.505319,237.390824 167.603613,238.726425 159.707644,237.182493 C155.183676,236.298273 151.03744,234.601718 147.375949,232.136142 C147.351679,232.596242 147.335471,233.056465 147.299179,233.515885 L147.229265,234.312833 C146.622587,240.760805 144.850336,248.868644 139.841994,253.064289 C131.627701,259.946669 121.490148,246.710667 129.471775,239.836072 L129.719209,239.629726 C134.680373,235.621175 135.762718,224.866141 135.495556,218.942309 C135.320385,215.075928 134.616096,211.160035 133.395334,207.477648 L133.144299,206.744368 C132.776832,205.704151 128.770187,195.83676 127.322375,197.093402 L127.253261,197.164261 C126.656242,197.877109 125.691416,197.04675 126.149889,196.292214 Z M170.814304,144.367155 C178.365682,148.9572 189.871664,159.660291 181.748119,171.039573 C172.185929,181.073062 158.418535,169.568982 151.634201,164.366134 C145.343449,160.333898 138.275437,170.704507 144.112,175.412823 C193.135736,211.708059 213.030606,145.567387 174.633685,138.970386 C170.406047,138.243425 168.835891,142.947174 170.814304,144.367155 Z M90.1787,101.9403 C97.5587,100.6313 105.1187,102.4663 111.2257,106.7843 L111.688541,107.117181 C117.57206,111.42005 124.154854,118.975479 120.7787,126.3923 C119.4237,129.3703 115.3657,129.8373 112.7907,128.4873 C108.5037,126.2393 107.7267,120.7083 103.9017,117.6473 C100.7647,115.1383 96.5407,113.6163 92.5007,113.9833 C83.0097,114.8453 77.1717,124.2063 74.2237,132.2733 C73.8467,133.3053 72.3317,133.7063 71.7397,132.5983 C64.7887,119.6063 77.0927,104.2623 90.1787,101.9403 Z M208.3893,97.0373 C222.5263,95.8723 239.0733,110.5283 235.3513,125.4503 C233.5663,132.6103 222.9453,132.4053 221.0573,125.4503 C220.0183,121.6233 220.1223,118.2373 217.3673,115.0593 C215.0933,112.4353 211.8623,110.9113 208.3893,111.1453 C204.5613,111.4033 201.0303,113.3163 198.3473,116.0053 C195.9243,118.4333 194.4753,121.9863 191.9653,124.1353 C191.3473,124.6633 190.5203,124.6973 189.9103,124.1353 C185.5903,120.1523 188.1833,111.8603 190.9223,107.7023 C194.8423,101.7523 201.2253,97.6283 208.3893,97.0373 Z M63.2578,75.4751 C72.3268,67.4471 88.8058,59.6941 101.0348,63.6451 C108.0658,65.9161 111.1308,77.2451 103.2818,80.8361 C94.1928,84.9941 83.7138,83.3021 74.4628,87.6121 C70.5778,89.4231 66.9238,91.6861 64.2188,95.0051 C62.0878,97.6211 59.9198,101.0631 56.8378,102.5711 C56.0278,102.9681 54.9308,102.9781 54.2818,102.2421 C47.5258,94.6001 57.3588,80.6961 63.2578,75.4751 Z M192.8016,63.2466 C198.4066,61.6736 204.6246,61.7056 210.3186,62.6936 C216.0106,63.6816 221.7896,66.0406 226.4366,69.4816 L226.976058,69.8845105 C232.049154,73.7073503 238.103014,79.2694621 237.7786,86.0416 C237.5076,91.6966 231.5586,95.5216 226.4226,92.5576 C222.2356,90.1406 220.2656,85.2986 216.7206,82.0746 C213.7956,79.4136 210.3596,77.3156 206.6936,75.8456 C202.6216,74.2126 198.5426,73.4476 194.1726,73.3746 C190.8076,73.3186 187.4226,74.4226 184.1206,74.7756 C184.3926,75.3336 181.7826,75.0736 180.2866,74.5786 C179.1786,74.1066 179.1726,72.7056 179.5566,71.7966 C181.4616,67.2936 188.3926,64.4826 192.8016,63.2466 Z" id="Ink" fill="#000" blush:i="0.2.0.0"/></g></g><g id="Beard" transform="translate(494.999934, 517.999659) scale(1 1)" fill="#000" blush:width="280" blush:height="230" blush:component="Beard" blush:i="0.3" blush:value="None" blush:viewBox="490 402.5 0 0"><g id="Beard/None" stroke="none" stroke-width="1" fill="none" fill-rule="evenodd" fill-opacity="0" blush:viewBox="490 402.5 0 0" blush:i="0.3.0"/></g><g id="Mask" transform="translate(400.000000, 480.000000) scale(1 1)" fill="#000" blush:width="397" blush:height="228" blush:component="Mask" blush:i="0.4" blush:value="None" blush:viewBox="694.75 399 0 0"><g id="Mask/None" stroke="none" stroke-width="1" fill="none" fill-rule="evenodd" fill-opacity="0" blush:viewBox="694.75 399 0 0" blush:i="0.4.0"/></g><g id="Accessories" transform="translate(419.000000, 421.000000) scale(1 1)" fill="#000" blush:width="392" blush:height="138" blush:component="Accessories" blush:i="0.5" blush:value="None" blush:viewBox="686 241.5 0 0"><g id="Accessories/None" stroke="none" stroke-width="1" fill="none" fill-rule="evenodd" fill-opacity="0" blush:viewBox="686 241.5 0 0" blush:i="0.5.0"/></g></g></svg>