<svg viewBox="145.83783783783792 172.46249999999986 825.1351351351352 1188.0750000000003" xmlns="http://www.w3.org/2000/svg" xmlns:blush="http://design.blush" overflow="visible" xmlns:xlink="http://www.w3.org/1999/xlink" width="825.1351351351352px" height="1188.0750000000003px"><g id="Master/Character/Bust" stroke="none" stroke-width="1" fill="none" fill-rule="evenodd" blush:has-customizable-colors="true" blush:viewBox="166.11320754716974 76.65000000000009 788.4636118598385 1272.3900000000003" blush:i="0"><g id="Body" transform="translate(147.000000, 639.000000) scale(1 1)" blush:width="818" blush:height="733" blush:component="Body" blush:i="0.0" blush:value="Tee 1" blush:viewBox="16.360000000000014 -34.359375 789.3699999999998 744.453125"><g id="Body/Tee 1" stroke="none" stroke-width="1" fill="none" fill-rule="evenodd" blush:viewBox="16.360000000000014 -34.359375 789.3699999999998 744.453125" blush:i="0.0.0"><path d="M774.280873,553.022356 C770.249873,530.258526 766.554873,507.433614 763.196873,484.559635 C761.602873,473.699928 760.047873,462.830207 758.649873,451.942461 C757.670873,444.31413 756.179873,435.591317 761.369873,429.941665 C768.672873,421.989896 775.306873,415.183678 776.200873,403.793252 C777.041873,393.075737 773.417873,381.392914 771.151873,370.989825 C766.399873,349.17428 760.483873,327.6281 753.946873,306.286196 C747.305873,284.602829 740.023873,263.12374 732.636873,241.685706 C725.730873,221.64156 719.091873,201.417169 710.096873,182.186124 C693.025873,145.690698 664.145873,118.664095 628.453873,100.617654 C619.576873,96.129576 601.471405,80.1078774 592.197405,76.5210196 C583.671405,73.2225525 583.701873,82.853596 575.310873,79.2256826 C568.602873,76.3257552 562.356873,72.4585177 558.600873,65.9817461 C554.522873,58.9492218 544.296197,49.1132125 542.739197,40.9271259 C539.440197,23.5756264 543.013873,8.80731346 530.629873,-4.25237356 C519.635873,-15.8490792 504.858873,-23.793839 489.568873,-28.0586149 C455.932873,-37.4403207 411.074873,-30.8814379 390.780873,0.373891891 C381.087873,15.3001068 377.700873,33.3415407 364.621873,45.5230384 C353.200873,56.1594435 355.756754,63.4312919 340.964754,68.9127155 C340.126754,69.2241373 317.419273,64.3534254 316.581273,64.6648472 C300.399273,61.2021576 284.932873,70.8954007 270.086873,76.5210196 C247.953873,84.9053748 226.881873,95.8191555 207.084873,108.789722 C167.165873,134.945145 132.975873,168.908142 104.788873,207.341192 C76.3688726,246.090672 54.3178726,289.523494 38.6168726,334.916971 C34.8038726,345.942904 31.3788726,357.103018 28.3578726,368.37228 C26.6668726,374.678821 24.8598726,381.220681 26.9188726,387.677426 C28.6028726,392.959579 32.3488726,396.892906 36.7478726,400.062199 C42.7108726,404.359018 54.6718726,407.1518 54.4388726,415.793504 C54.2608726,422.364403 52.0318726,429.278767 50.9438726,435.771561 C49.6488726,443.504033 48.5848726,451.281566 47.5208726,459.048085 C42.6808726,494.39796 38.9138726,529.947105 37.2478726,565.597387 C35.6078726,600.698925 34.2468726,636.518437 36.6818726,671.609962 C36.8428726,673.924096 37.5328726,676.047972 38.6458726,677.843404 C37.6068726,678.240942 37.5268726,680.177565 38.8198726,680.451937 C39.7258726,680.644197 40.6298726,680.835456 41.5358726,681.027717 C43.4178726,682.451645 45.7648726,683.324828 48.4658726,683.409943 C50.2968726,683.468022 52.1268726,683.550133 53.9558726,683.64426 C73.2568726,687.678724 92.5548726,691.489886 112.107873,694.375794 C135.875873,697.883545 159.713873,700.743418 183.625873,703.068567 C232.760873,707.845036 281.508873,706.26089 330.708873,703.686404 C379.832873,701.114921 428.927873,700.514107 478.102873,701.792839 C527.320873,703.073574 576.520873,705.214473 625.749873,706.09066 C680.748873,707.067983 735.663873,705.565949 790.503873,701.194028 C798.022873,700.595217 802.674873,694.613116 801.191873,687.145001 C792.306873,642.402405 782.237873,597.958214 774.280873,553.022356 Z" id="Skin" fill="#ffdbb4" blush:color="Skin-500" blush:i="0.0.0.0"/><path d="M270.087176,76.5206669 L271.161463,76.1071512 C285.67896,70.4355425 300.789503,61.2852431 316.581576,64.6644944 C317.140163,64.4569094 327.415753,66.5518395 334.454186,67.8797015 L327.773643,74.8529034 L315.983873,77.1211472 C356.657086,144.248775 404.76189,177.81259 460.298283,177.81259 C515.834676,177.81259 557.976231,144.248775 586.722947,77.1211472 L590.645523,76.0356804 C591.130159,76.1479377 591.646021,76.3072349 592.197708,76.5206669 C601.471708,80.1075246 619.577176,96.1292232 628.454176,100.617301 C664.146176,118.663742 693.026176,145.690345 710.097176,182.185771 C718.792342,200.775782 725.285958,220.294018 731.947369,239.680381 L732.637176,241.685353 C740.024176,263.123387 747.306176,284.602477 753.947176,306.285843 C760.199958,326.699838 765.884567,347.300732 770.525793,368.145489 L771.152176,370.989473 C773.418176,381.392562 777.042176,393.075384 776.201176,403.792899 C775.88268,407.850846 774.835659,411.326961 773.289406,414.480326 L692.843034,443.426842 L731.168798,704.82113 C696.062043,706.326317 660.923287,706.715328 625.750176,706.090307 C576.521176,705.21412 527.321176,703.073221 478.103176,701.792486 C430.418327,700.552504 382.808704,701.079881 335.174917,703.457706 L323.078205,704.076848 C276.465244,706.407398 230.21971,707.597624 183.626176,703.068214 L180.451256,702.756297 L180.451256,702.756297 L180.450753,664.520156 L196.817732,451.608897 L113.872966,435.996047 L32.4512554,396.449888 C29.9911475,393.990841 28.0169968,391.120576 26.9191757,387.677073 C25.0121558,381.696917 26.4214802,375.643748 27.9834299,369.772151 L28.3581757,368.371928 C31.3791757,357.102665 34.8041757,345.942551 38.6171757,334.916618 C54.3181757,289.523141 76.3691757,246.090319 104.789176,207.34084 C132.976176,168.907789 167.166176,134.944792 207.085176,108.789369 C226.882176,95.8188027 247.954176,84.905022 270.087176,76.5206669 Z" id="Top" fill="#EC7495" blush:i="0.0.0.1"/><path d="M301.235273,63.5638472 C306.321273,63.3428472 311.507273,64.1658472 316.581273,64.6648472 C317.023273,64.7078472 317.191273,65.3898472 316.693273,65.4938472 C307.612523,67.3908472 298.631304,69.9860972 289.712771,72.6217339 L285.894273,73.7518472 C275.837273,76.7268472 266.075273,79.7958472 256.339273,83.7638472 C236.935273,91.6718472 218.506273,102.345847 201.545273,114.608847 C136.233273,161.829847 88.9632726,233.323847 59.1332726,307.344847 C51.0322726,327.446847 44.1682726,348.048847 38.6082726,368.997847 C37.2562726,374.094847 35.9842726,379.211847 34.7782726,384.344847 C34.4242726,385.849847 32.8812726,389.703847 33.7272726,391.243847 C34.4752726,392.604847 37.3832726,393.445847 38.7342726,394.153847 L43.2953887,396.518847 C52.1922649,401.104281 67.0121236,408.641486 68.4982726,409.375847 L70.8160844,410.517139 C108.72673,429.102218 149.233913,444.862107 191.895273,445.952847 L192.229273,442.309847 L192.229273,442.309847 C194.131273,422.168847 196.627273,401.920847 202.075273,382.398847 C202.368273,381.349847 203.703273,381.703847 203.825273,382.635847 C206.860273,405.746847 205.890273,429.037847 204.831273,452.255847 C202.956273,493.377847 200.466273,534.476847 198.253273,575.582847 C197.145273,596.145847 195.713273,616.694847 194.420273,637.246847 C193.125273,657.839847 192.706273,678.927847 189.749273,699.350847 C189.090273,703.902847 183.758273,706.378847 179.720273,705.898847 C175.252273,705.366847 171.815273,701.431847 171.794273,696.920847 C171.740273,685.022847 173.235273,672.984847 174.066273,661.116847 C174.855273,649.840847 175.702273,638.570847 176.570273,627.300847 C179.742273,586.169847 183.391273,545.086847 186.766273,503.973847 C187.962273,489.391847 189.254273,474.822847 190.584273,460.254847 C145.391273,458.797847 103.170273,442.058847 62.8922726,422.500847 C62.3092726,435.737847 60.9012726,448.950847 59.5382726,462.132847 C55.7332726,498.918847 52.3782726,535.690847 49.8672726,572.590847 C48.5992726,591.227847 47.6762726,609.887847 46.8722726,628.549847 C46.4772726,637.721847 46.1552726,646.895847 45.9082726,656.072847 C45.8256059,659.131514 45.7509392,662.190625 45.6848652,665.249884 L45.5474697,672.258299 C45.4350542,676.698784 44.9836421,680.812086 41.2472726,684.044847 C37.4522726,687.327847 32.3262726,687.502847 28.5702726,684.044847 C23.5422726,679.414847 24.4312726,673.106847 24.5802726,666.888847 C24.7042726,661.643847 24.8532726,656.399847 25.0262726,651.156847 C25.3732726,640.669847 25.8162726,630.185847 26.3552726,619.706847 C28.2414016,583.071041 32.0099448,546.581332 36.9349446,510.238628 L38.8574912,496.209519 C42.4477639,470.129404 46.3893902,443.456083 54.4152726,418.332847 C51.2902726,416.778847 48.1742726,415.213847 45.0702726,413.641847 C39.5642726,410.853847 33.8712726,408.237847 28.5192726,405.160847 C24.2732726,402.719847 20.6112726,399.371847 19.4292726,394.430847 C18.111044,388.925761 20.1268138,382.904486 21.4659697,377.534912 L21.5822726,377.062847 C22.8952726,371.654847 24.3092726,366.270847 25.8012726,360.909847 C31.8512726,339.170847 39.3322726,317.855847 48.0872726,297.060847 C65.6172726,255.428847 88.2442726,215.877847 115.883273,180.116847 C140.762273,147.926847 170.152273,118.734847 204.598273,96.8408472 C221.438273,86.1368472 239.384273,77.3478472 258.363273,71.1338472 C267.234273,68.2298472 276.886273,65.7038472 286.174273,64.6638472 C291.184273,64.1038472 296.201273,63.7828472 301.235273,63.5638472 Z M391.348873,-2.40585279 C397.392873,-8.89585279 409.400873,-2.17985279 406.498873,6.41414721 C399.672873,26.6331472 388.802873,45.0761472 371.838873,58.3621472 C355.892873,70.8521472 336.877873,78.9631472 316.399873,77.2321472 C316.241873,77.2181472 316.104873,77.1781472 315.983873,77.1211472 L317.748602,79.5148009 C331.603367,98.2558261 346.219505,116.737984 363.835873,132.056147 C399.728873,163.267147 448.598873,180.101147 495.788873,168.126147 C532.916873,158.705147 565.626873,129.346147 575.246873,91.9301472 C573.867873,92.5481472 572.228873,92.7591472 570.429873,92.3681472 C562.732873,90.6971472 555.112873,82.6021472 550.148873,76.7981472 C544.778873,70.5191472 540.584873,63.7391472 537.510873,56.0751472 C531.884873,42.0491472 530.080873,23.9901472 537.762873,10.4031472 C538.710873,8.72814721 540.896873,9.66714721 541.082873,11.3021472 L541.375349,13.8542751 C542.856357,26.5876199 544.701123,38.9050222 550.704873,50.5131472 C553.642873,56.1931472 557.164873,61.7371472 561.451873,66.4941472 C563.745873,69.0391472 566.232873,71.4711472 568.917873,73.6051472 C571.534343,75.684206 574.700904,77.1874863 577.046107,79.5731407 L577.475873,80.0311472 L577.487873,79.9491472 C578.080873,74.9081472 581.615873,72.6871472 585.074873,72.8261472 C588.422292,72.9606633 592.354065,74.4340581 593.876738,75.1398165 L594.020864,75.2077555 C617.372849,86.4175089 638.880184,101.028712 659.119873,117.239147 C700.975873,150.763147 732.336873,194.588147 747.531873,246.196147 C754.98971,271.524796 759.26917,297.623879 763.786505,323.601244 L766.567525,339.517427 C770.78393,363.499138 775.493769,387.952527 785.011873,410.261147 C787.473873,416.032147 785.575873,421.444147 779.538873,423.713147 C772.000873,426.547147 764.434873,429.291147 756.856873,432.001147 C760.577873,447.964147 762.846873,464.480147 765.634873,480.522147 C771.560873,514.621147 778.821873,548.502147 785.047873,582.556147 C788.230873,599.968147 791.102873,617.438147 794.282873,634.852147 C795.813873,643.238147 797.411873,651.612147 798.965873,659.994147 C799.802873,664.514147 800.561873,669.048147 801.360873,673.574147 L801.499925,674.325251 C801.957603,676.712973 802.53273,679.182671 801.875873,681.572147 C801.126873,684.297147 798.999873,686.222147 797.100873,688.176147 C795.537873,689.785147 793.278873,689.795147 791.363873,688.917147 L790.734,688.625743 C787.313714,687.026037 784.63433,685.430319 783.420873,681.572147 C782.652873,679.129147 782.375873,676.377147 781.873873,673.860147 C780.910873,669.035147 779.997873,664.204147 779.135873,659.359147 C777.411873,649.666147 775.727873,639.966147 774.083873,630.258147 L772.548323,621.167998 C767.277991,589.83889 762.27302,558.319265 759.742873,526.659147 C758.620473,512.613547 757.430873,498.580107 756.230393,484.543979 L755.328873,474.016147 C754.188873,460.691147 752.795873,447.029147 752.598873,433.524147 L748.067498,435.132897 L748.067498,435.132897 L725.956873,442.949147 L725.956873,442.949147 C720.474873,444.886147 713.494873,448.856147 707.594873,448.134147 C704.706873,447.780147 702.504873,446.871147 700.804873,445.219147 C702.840873,473.952147 705.596873,502.635147 709.269873,531.172147 C712.611873,557.138147 716.316873,583.069147 720.692873,608.882147 C722.859873,621.664147 725.086873,634.434147 727.505873,647.170147 C728.714873,653.539147 729.962873,659.899147 731.248873,666.253147 C731.889873,669.423147 732.652873,672.596147 733.152873,675.792147 C733.724873,679.452147 732.716873,681.704147 730.671873,684.715147 C728.992873,687.188147 725.633873,688.458147 722.910873,686.751147 C719.304873,684.488147 717.423873,682.528147 716.362873,678.407147 C715.398873,674.664147 714.812873,670.756147 714.066873,666.965147 C712.689873,659.967147 711.358873,652.961147 710.073873,645.945147 C707.386873,631.273147 704.909873,616.565147 702.697873,601.813147 C694.902873,549.844147 689.956873,497.440147 687.458873,444.951147 C686.225873,419.054147 685.844873,393.134147 686.063873,367.210147 C686.175873,353.922147 686.609873,340.596147 687.549873,327.341147 C688.501873,313.924147 690.481873,300.775147 692.249873,287.487147 C692.311873,287.019147 692.971873,286.992147 692.999873,287.487147 C693.836873,302.385147 695.148873,317.266147 695.791873,332.203147 C696.405873,346.456147 696.674873,360.731147 697.162873,374.989147 C697.803873,393.731147 698.692873,412.484147 699.869873,431.224147 C702.000873,428.893147 705.212873,427.549147 708.426873,428.074147 C713.082873,427.097147 718.094873,424.654147 722.533873,423.171147 L739.267873,417.581147 L739.267873,417.581147 C748.064873,414.643147 756.861873,411.725147 765.689873,408.895147 C757.797049,382.341794 752.390273,355.392784 747.773454,328.050859 L745.714439,315.754273 C741.638738,291.550238 737.244254,267.334766 729.861873,243.896147 C722.100873,219.254147 710.486873,196.344147 695.079873,175.597147 C679.892873,155.150147 661.415873,137.146147 642.391873,120.306147 C626.104873,105.890147 608.681873,92.8741472 592.069873,78.8541472 C592.243873,79.7831472 592.280873,80.8061472 592.127873,81.9301472 C588.595873,107.780147 575.110873,131.853147 556.317873,149.758147 C518.562873,185.729147 462.675873,193.192147 414.353873,176.324147 C367.610873,160.008147 326.283873,121.366147 311.682873,73.5491472 C311.432873,72.7311472 312.528873,72.4061472 312.968873,73.0071472 C313.778873,74.1171472 314.592873,75.2271472 315.407873,76.3371472 C315.352873,75.8961472 315.581873,75.4161472 316.125873,75.2061472 C333.161873,68.6281472 349.890873,59.2991472 362.660873,46.1021472 C368.884873,39.6691472 374.316873,32.3811472 378.604873,24.5211472 C380.658873,20.7561472 382.503873,16.8571472 383.975873,12.8281472 L384.349969,11.7857802 C386.133882,6.73883399 387.624711,1.59240527 391.348873,-2.40585279 Z" id="Ink" fill="#000" blush:i="0.0.0.2"/></g></g><g id="Head" transform="translate(372.000000, 180.000000) scale(0.9978902953586498 1)" blush:width="473" blush:height="567" blush:component="Head" blush:i="0.1" blush:value="Pomp" blush:viewBox="35.72009569377991 0 459.2583732057415 501.79500000000013"><g id="Head/Pomp" stroke="none" stroke-width="1" fill="none" fill-rule="evenodd" blush:viewBox="35.72009569377991 0 459.2583732057415 501.79500000000013" blush:i="0.1.0"><path d="M385.414655,173.221564 C381.553655,149.862425 394.225655,145.015818 385.414655,122.81092 C365.832655,81.6673118 312.467655,83.4400723 273.307655,80.2766375 C229.629655,78.6026407 185.421655,84.3688512 145.155655,101.874987 C135.537655,106.055988 126.286655,110.973229 117.418655,116.559869 C109.750655,121.391315 110.804655,130.577347 115.639655,135.588364 C80.7746553,184.960294 100.715655,251.231811 72.8966553,303.201529 C67.7576553,312.491313 60.9606553,320.821392 56.4936553,330.487277 C49.7036553,345.18014 49.2686553,366.232794 64.6666553,375.99046 C86.3536553,387.630623 98.4556553,364.583738 109.111655,397.992843 C162.329655,514.483264 269.328655,521.043576 370.904655,460.309816 C379.692655,455.421506 388.661655,449.896718 395.297655,442.217084 C410.360655,425.265622 408.586655,401.427629 408.919655,380.259251 C409.105655,367.853918 409.136655,355.446589 409.015655,343.03926 C408.541655,292.781448 391.884655,223.065366 385.414655,173.221564 Z" id="Skin" fill="#ffdbb4" blush:color="Skin-500" blush:i="0.1.0.0"/><path d="M169.0666,33.5077 C230.3966,5.6877 299.9576,-4.8623 366.8576,2.0577 C399.878278,5.46790339 432.464081,12.784251 463.474997,24.6688994 L466.193261,25.7193843 C473.848458,28.6657097 482.100367,31.5902581 487.9176,37.5877 C494.6886,44.5577 496.5876,55.0977 491.7476,63.7077 C487.9876,70.3977 481.2276,75.1967 474.0176,77.7577 C476.5576,79.8377 478.9676,82.1577 481.2276,84.7477 C485.0376,89.0877 485.3276,95.2767 481.2276,99.5577 C473.3276,107.8077 463.0776,113.7767 452.0376,116.6377 C453.2776,122.6277 452.6076,129.2577 449.9476,135.2277 C442.3147,152.3646 420.813385,154.40698 404.267456,153.389458 L403.7676,153.3577 L402.8476,163.8877 C402.3576,169.4977 398.9976,173.8477 393.2976,174.7077 C393.0976,174.7377 392.8966,174.7577 392.6976,174.7767 C401.7176,207.3977 407.1676,241.0267 412.1976,274.4577 C414.8256,291.9087 417.1782,309.4002 419.43036,326.90304 L420.1776,332.7377 C422.5776,351.6077 425.5776,370.6677 426.6176,389.6777 C427.5476,406.9277 424.2576,423.3977 413.6276,437.3177 C404.0876,449.7977 391.0776,459.1477 377.0876,466.0877 C345.4776,481.7767 312.2076,493.4577 277.2476,498.8777 L274.916235,499.236444 C261.421445,501.296219 247.517418,503.032245 234.1676,499.2977 C222.4386,496.0177 210.1376,487.5577 212.7876,473.9677 C213.6776,469.3777 220.0976,469.1777 222.2976,472.7277 L222.80543,473.541144 C225.443517,477.726861 228.33463,481.617033 232.9386,483.7767 C238.3276,486.3177 244.5776,487.0267 250.4676,487.0977 C266.9176,487.2877 284.0476,483.1877 299.8876,479.0777 C329.4676,471.3987 359.8476,458.8777 384.0776,439.9077 C394.3876,431.8477 402.6676,421.7677 405.5876,408.7977 C409.1976,392.8077 405.8776,375.3277 404.2376,359.2577 C400.8626,326.098325 396.845998,293.000473 392.608022,259.939426 L391.7576,253.3277 C388.1886,225.6877 384.4386,198.0377 382.6576,170.2377 C381.9176,169.2277 381.4176,168.0777 381.2176,166.8177 L380.9386,165.0077 L380.9386,165.0077 C380.6976,163.4577 380.6576,162.0377 380.8276,160.7277 C380.8376,155.7077 380.9776,150.7177 381.2676,145.6967 C381.3166,144.7977 381.3576,143.8977 381.3876,143.0077 C376.1676,144.1577 370.9076,145.0877 365.6276,145.8777 C328.5076,151.4677 290.8076,152.8677 253.3876,150.0877 C234.7176,148.6967 216.1886,146.3077 197.7176,143.3177 C188.3166,141.7977 178.9476,140.1177 169.6076,138.2377 C162.8576,136.8877 156.2476,135.0577 149.6076,133.3377 C142.7576,143.3077 139.0576,155.5777 139.7776,167.6277 C140.5876,181.3777 149.7476,193.8477 147.1776,207.8977 C144.7656,221.0467 133.5003,225.1237 122.378289,228.380251 L117.647948,229.746916 C114.008809,230.809438 111.366323,231.834509 110.7076,236.2077 C109.5776,243.7177 110.9676,252.1677 111.2576,259.7177 C111.6076,268.6477 112.0666,277.5777 112.2776,286.5077 C112.3876,291.1277 112.5666,295.7677 112.5576,300.3877 C112.5476,303.6677 112.0576,305.9077 110.7876,308.0267 C111.7676,309.2577 112.6466,310.5877 113.4276,311.9977 C113.6776,312.4577 113.0576,312.9467 112.6886,312.5677 C111.6976,311.5377 110.6466,310.6077 109.5376,309.7767 C108.9776,310.4677 108.3276,311.1677 107.5666,311.9177 L107.5076,311.8377 L107.5076,311.8377 C105.1276,314.2077 101.3476,314.4377 98.3966,311.9177 L97.622266,311.246807 C95.462361,309.353484 93.9782897,307.776666 93.3776,304.6477 C93.3476,304.4877 93.3166,304.3277 93.2976,304.1677 C87.8076,303.9777 82.2276,305.2767 77.2876,308.0077 C69.4576,312.3377 63.9476,318.5077 60.6886,326.1277 C61.9876,327.6477 63.5076,329.0077 65.2776,330.1477 C65.5276,330.3177 65.3076,330.6877 65.0376,330.5577 C63.2276,329.7077 61.6076,328.6577 60.1576,327.4277 C58.9876,330.4277 58.1676,333.6477 57.6676,337.0577 C55.9076,349.0977 59.0476,363.8077 69.9276,370.6677 C74.6376,373.6377 80.0176,375.2477 85.5976,375.2677 C88.3166,375.2767 90.6676,374.8177 93.3076,374.1677 C95.0976,373.7277 96.8776,373.0877 98.7476,373.0877 C100.3476,373.0877 101.8276,373.4877 103.1976,374.2877 L102.817638,374.320971 C101.894271,374.407638 102.071886,374.4467 103.3576,374.4467 C107.3576,374.6177 109.6466,378.6777 107.8076,382.2077 L107.566306,382.753053 C107.515498,382.863292 107.472457,382.954271 107.4386,383.0267 L107.293288,383.963052 C107.2788,384.0521 107.2636,384.1437 107.2476,384.2377 L107.192044,384.42733 C107.182044,384.4577 107.170933,384.4877 107.1576,384.5177 L113.156638,393.666016 C120.511886,404.857394 128.031171,416.005557 136.5876,426.2277 C142.5876,433.3977 148.9476,440.4277 155.6676,446.9377 C161.7076,452.7877 168.9476,455.6077 175.7876,460.2077 C179.4386,462.6477 180.5076,467.7577 177.1886,471.0477 C167.4476,480.7177 153.6576,473.0377 145.6676,465.1777 C138.1076,457.7277 131.5776,448.7677 125.9476,439.7977 C115.9576,423.8477 108.0076,406.8877 104.5276,388.4777 C103.0776,389.8077 101.2276,390.6377 99.3576,391.2877 C95.6076,392.5877 91.4776,393.1277 87.5176,393.2677 C79.9276,393.5177 72.3276,391.6777 65.4976,388.4177 C37.7076,375.1677 33.6276,335.4877 50.6176,312.0877 C48.3266909,305.444064 47.0471661,298.23551 45.65706,292.088454 L45.0246343,289.340608 C37.9999759,258.647793 33.2818,226.33292 45.7376,196.2577 C47.3376,192.3777 49.1376,188.5977 51.2676,184.9777 C52.9776,182.0677 55.9176,178.9677 56.7276,175.6577 C58.5276,168.3877 47.4176,160.7477 44.1776,154.9777 C40.3676,148.2077 39.8276,140.2177 45.0176,134.0267 C45.6776,133.2477 46.3966,132.5267 47.1776,131.8977 C42.2576,122.9777 42.0276,111.7577 48.5076,102.9577 C52.7676,97.1577 59.2676,93.0977 66.3676,91.8677 C70.7076,91.1177 75.9276,91.3977 80.6976,92.7377 C106.8166,68.4877 136.6176,48.2277 169.0666,33.5077 Z M68.7671,336.9378 C75.7381,330.7878 83.4381,327.5678 92.9381,328.3778 C102.4881,329.1968 113.9881,333.1478 119.5971,341.3378 C124.0281,347.8078 114.9981,357.2978 108.4981,352.4378 C102.5781,348.0078 98.6271,343.0078 91.2781,340.6278 C84.6771,338.4978 76.5071,337.1278 69.5971,338.3478 C68.8371,338.4778 68.0781,337.5378 68.7671,336.9378 Z" id="Ink" fill="#000" blush:i="0.1.0.1"/></g></g><g id="Face" transform="translate(531.000000, 366.000000) scale(1 1)" fill="#000" blush:width="289" blush:height="293" blush:component="Face" blush:i="0.2" blush:value="Cheeky" blush:viewBox="52.90517241379308 55.670000000000016 184.65517241379308 205.10000000000002"><g id="Face/Cheeky" stroke="none" stroke-width="1" fill="none" fill-rule="evenodd" blush:viewBox="52.90517241379308 55.670000000000016 184.65517241379308 205.10000000000002" blush:i="0.2.0"><path d="M166.9438,221.352 C168.4778,218.685 172.0098,216.214 175.2418,216.593 C189.7208,218.291 189.6958,235.845 184.1048,246.093 C179.1478,255.18 168.8888,260.514 158.6208,259.735 C147.8338,258.916 138.6428,252.574 134.5978,242.483 C131.9228,235.808 130.6868,223.485 137.8028,219 C137.9348,218.916 138.1528,218.937 138.2578,219.058 C141.6698,223.027 141.8038,228.986 144.7908,233.405 C147.5688,237.515 151.8848,240.909 156.9408,241.433 C160.7168,241.825 164.5368,240.463 166.0138,237.073 C166.812891,235.239364 166.721899,234.243744 166.421516,232.981708 L166.148563,231.885055 C165.202801,228.043565 164.778057,225.118714 166.9438,221.352 Z M170.814304,144.367155 C178.365682,148.9572 189.871664,159.660291 181.748119,171.039573 C172.185929,181.073062 158.418535,169.568982 151.634201,164.366134 C145.343449,160.333898 138.275437,170.704507 144.112,175.412823 C193.135736,211.708059 213.030606,145.567387 174.633685,138.970386 C170.406047,138.243425 168.835891,142.947174 170.814304,144.367155 Z M91.0715,112.8926 C95.7065,105.9386 106.2865,106.9626 108.8395,115.2146 C110.2225,119.6846 108.3125,123.7026 108.4115,128.1666 C108.4945,131.9376 108.2475,136.1396 107.0915,139.7916 C104.4555,148.1196 96.9655,154.0016 88.1045,153.7576 C79.2725,153.5146 71.4935,147.9246 67.7945,140.0516 C64.0825,132.1486 64.8685,123.9696 67.5785,115.9336 C67.7085,115.5476 68.2145,115.3606 68.5195,115.6856 C71.7228333,119.089767 74.0678333,122.683517 76.4943148,126.495785 L78.9809333,130.40279 C80.8812656,133.344819 83.6431037,137.103142 87.1914615,136.867072 L87.7238987,136.814547 C88.7099852,136.729908 88.5588846,136.9256 89.3195,135.5816 C89.6715,134.9596 89.6075,133.8036 89.7775,133.0696 L89.8365,132.8216 L89.8365,132.8216 L89.8043384,132.68798 C89.7292832,132.332503 89.6547866,131.66266 89.5942529,130.500284 L89.5815,130.2436 C89.3245,124.8066 87.7875,117.8196 91.0715,112.8926 Z M208.5632,117.5221 C207.7322,108.6281 220.2362,106.6531 224.3932,113.2341 C226.561303,116.665997 227.192546,120.977055 227.67203,125.0615 L227.8962,127.0001 C228.3882,131.1951 228.5832,135.5591 226.7622,139.4721 C223.8942,145.6351 217.6572,148.8931 210.9292,148.3771 C204.5042,147.8831 198.6422,144.1581 195.5522,138.5031 C192.7972,133.4571 190.0582,123.6051 193.4042,118.3421 C193.6062,118.0231 194.0102,117.9821 194.2872,118.2281 C197.4492,121.0351 197.9642,126.1551 199.8442,129.8121 C201.7832,133.5841 204.7242,137.2601 209.1812,137.8331 C213.4452,138.3811 215.0742,136.0521 213.9862,131.9871 C212.5832,126.7391 209.0912,123.1691 208.5632,117.5221 Z M94.4489,60.0159 L96.4937284,59.2327124 C103.499922,56.5860716 113.118768,53.5268605 118.8149,59.2239 C122.3289,62.7369 122.9979,67.9119 120.4899,72.1989 C117.4509,77.3919 111.9999,77.5199 106.7359,78.2849 C100.7489,79.1549 94.6599,80.8089 89.0859,83.1669 C82.8069,85.8239 76.9799,89.1359 71.2709,92.8349 C65.8449,96.3499 60.4379,102.0949 53.9429,103.1779 C53.6779,103.2219 53.3769,103.1079 53.3079,102.8169 C51.8329,96.4669 55.9319,90.2179 59.5899,85.2639 C64.0159,79.2659 69.3789,74.3429 75.3729,69.9289 C81.1579,65.6679 87.7679,62.5889 94.4489,60.0159 Z M221.7162,82.5925 L222.340762,82.4830541 C226.589355,81.7757704 230.439386,81.9386395 233.6412,85.3035 C236.0852,87.8705 237.0272,91.1975 235.8622,94.5915 C234.7872,97.7225 232.3832,100.9035 228.8942,101.5595 C217.1152,103.7755 204.0682,103.4095 192.2302,101.7315 C186.814067,100.963367 181.349151,100.023624 176.073673,98.5415284 L173.646557,97.8379125 C169.242357,96.5798884 164.200291,95.2655909 161.0012,92.0265 C159.8512,90.8625 160.5142,89.1965 161.8902,88.6575 C167.4722,86.4715 175.1232,87.6345 181.0752,87.4635 C187.9992,87.2655 194.9342,86.7465 201.8252,86.0315 C208.5592,85.3315 215.0752,83.8105 221.7162,82.5925 Z" id="Ink" fill="#000" blush:i="0.2.0.0"/></g></g><g id="Beard" transform="translate(494.999934, 517.999659) scale(1 1)" fill="#000" blush:width="280" blush:height="230" blush:component="Beard" blush:i="0.3" blush:value="None" blush:viewBox="490 402.5 0 0"><g id="Beard/None" stroke="none" stroke-width="1" fill="none" fill-rule="evenodd" fill-opacity="0" blush:viewBox="490 402.5 0 0" blush:i="0.3.0"/></g><g id="Mask" transform="translate(400.000000, 480.000000) scale(1 1)" fill="#000" blush:width="397" blush:height="228" blush:component="Mask" blush:i="0.4" blush:value="None" blush:viewBox="694.75 399 0 0"><g id="Mask/None" stroke="none" stroke-width="1" fill="none" fill-rule="evenodd" fill-opacity="0" blush:viewBox="694.75 399 0 0" blush:i="0.4.0"/></g><g id="Accessories" transform="translate(419.000000, 421.000000) scale(1 1)" fill="#000" blush:width="392" blush:height="138" blush:component="Accessories" blush:i="0.5" blush:value="None" blush:viewBox="686 241.5 0 0"><g id="Accessories/None" stroke="none" stroke-width="1" fill="none" fill-rule="evenodd" fill-opacity="0" blush:viewBox="686 241.5 0 0" blush:i="0.5.0"/></g></g></svg>