<svg viewBox="165.0270270270271 210.7874999999999 805.9459459459459 1130.5875" xmlns="http://www.w3.org/2000/svg" xmlns:blush="http://design.blush" overflow="visible" xmlns:xlink="http://www.w3.org/1999/xlink" width="805.9459459459459px" height="1130.5875px"><g id="Master/Character/Bust" stroke="none" stroke-width="1" fill="none" fill-rule="evenodd" blush:has-customizable-colors="true" blush:viewBox="166.11320754716974 76.65000000000009 788.4636118598385 1272.3900000000003" blush:i="0"><g id="Body" transform="translate(147.000000, 639.000000) scale(1 1)" blush:width="818" blush:height="733" blush:component="Body" blush:i="0.0" blush:value="Coffee" blush:viewBox="20.450000000000045 -17.997767857142776 789.3699999999998 719.9107142857142"><g id="Body/Coffee" stroke="none" stroke-width="1" fill="none" fill-rule="evenodd" blush:viewBox="20.450000000000045 -17.997767857142776 789.3699999999998 719.9107142857142" blush:i="0.0.0"><rect id="Cup" fill="#FDEA6B" x="461" y="279" width="229" height="282" blush:i="0.0.0.0"/><path d="M394.207017,3.17338772 C418.892017,-15.6236123 480.865017,-24.0766123 507.211017,-5.97761228 C533.233017,12.1973877 536.069855,41.5888511 548.195855,68.6268511 C559.636855,63.2318511 578.530447,70.9583877 581.847447,81.5743877 C585.961447,86.5813877 586.146216,100.648748 588.983216,107.379748 C712.425216,127.028748 731.166017,223.267388 746.024017,332.525388 C765.680017,443.394388 810.301017,554.021388 790.930017,668.107388 C793.454017,671.759388 795.444017,675.309388 797.284017,679.525388 C801.693017,687.027388 796.014017,697.646388 787.121017,697.235388 C775.610017,696.224388 764.213017,694.844388 752.648017,694.413388 C720.588278,693.299996 688.499261,693.432745 656.42735,693.840212 L652.054017,693.897388 C490.421017,695.909388 328.797017,699.874388 167.157017,700.92591 C161.293017,700.934388 158.422017,695.675388 159.205017,690.487388 C160.782017,680.042388 162.245017,669.592388 163.772017,659.142388 C125.540017,669.240388 84.8960175,671.781388 46.7720175,660.204388 C44.1050175,657.487388 52.9860175,658.960388 54.3950175,658.547388 C19.3090175,634.572388 29.7870175,584.065388 32.8950175,547.687388 C52.2210175,423.036388 59.0340175,285.118388 133.703017,178.751388 C166.006017,135.343388 213.365017,100.975388 267.784017,93.2423877 L269.293764,93.0356767 C285.205828,90.9140296 302.939679,90.2305877 316.852017,81.5743877 C332.49923,69.08308 339.167105,46.00245 355.628632,45.7863847 C361.06431,45.7150388 368.458807,52.5915618 376.416017,57.2603877 C377.01004,46.9897486 382.545009,38.3222537 383.767065,30.358889 L383.86599,29.6778754 C385.14118,20.3936924 383.394763,12.0408852 394.207017,3.17338772 Z M659.495297,335.818614 C624.804565,311.719109 535.1916,323.828161 533.140143,325.177637 C528.623143,328.148637 526.678017,328.411388 524.235017,332.269388 C521.823017,332.589388 519.413017,332.921388 517.005017,333.263388 C512.174017,334.841388 515.754017,340.783388 521.334017,338.663388 C517.977768,353.137685 527.854893,363.431367 531.787017,377.740773 C533.063751,382.386936 531.833098,390.743134 531.787017,395.490388 C532.168342,401.543287 538.860548,408.693008 537.745186,414.765623 C533.779882,436.354816 512.261842,457.414706 521.334017,478.351576 C527.344017,490.176576 545.420017,496.206388 557.438017,500.226388 C582.337017,509.782388 625.721229,499.866576 640.188229,478.351576 C647.904711,466.875795 656.844613,437.928116 661.445613,428.949116 L662.465404,414.705533 C664.980344,379.298715 667.217404,341.183129 659.495297,335.818614 Z" id="Skin" fill="#d08b5b" blush:color="Skin-500" blush:i="0.0.0.1"/><path d="M354.34521,45.8506711 L364.273041,51.9428436 L421.931257,80.4449923 C433.109106,83.5746757 438.69803,87.3255981 438.69803,91.6977595 L438.69803,136.216897 C438.69803,142.174517 449.187526,155.676664 470.166517,176.723337 L489.548223,157.401666 L489.114881,154.872008 C487.270547,143.971712 486.34838,136.680179 486.34838,132.997409 C486.34838,129.036695 505.310106,114.001208 543.233559,87.8909498 L559.824515,72.2711686 L558.055625,66.8913501 C568.28536,67.3748239 579.379133,73.6745929 581.847447,81.5743877 C585.961447,86.5813877 586.146216,100.648748 588.983216,107.379748 C712.425216,127.028748 731.166017,223.267388 746.024017,332.525388 C765.680017,443.394388 810.301017,554.021388 790.930017,668.107388 C793.454017,671.759388 795.444017,675.309388 797.284017,679.525388 C801.693017,687.027388 796.014017,697.646388 787.121017,697.235388 C775.610017,696.224388 764.213017,694.844388 752.648017,694.413388 C720.588278,693.299996 688.499261,693.432745 656.42735,693.840212 L652.054017,693.897388 C490.421017,695.909388 328.797017,699.874388 167.157017,700.92592 C161.293017,700.934388 158.422017,695.675388 159.205017,690.487388 C160.782017,680.042388 162.245017,669.592388 163.772017,659.142388 C125.540017,669.240388 84.8960175,671.781388 46.7720175,660.204388 C44.1050175,657.487388 52.9860175,658.960388 54.3950175,658.547388 C19.3090175,634.572388 29.7870175,584.065388 32.8950175,547.687388 C52.2210175,423.036388 59.0340175,285.118388 133.703017,178.751388 C166.006017,135.343388 213.365017,100.975388 267.784017,93.2423877 L269.293764,93.0356767 L270.814526,92.8376623 C286.327935,90.8626014 303.381341,89.9557877 316.852017,81.5743877 C332.086209,69.4127984 338.808841,47.2135369 354.34521,45.8506711 Z M492.502284,307.156233 C486.847075,307.156233 475.265223,315.938335 457.756729,333.50254 L456.214298,334.215475 C435.049475,344.046356 421.028345,352.574236 414.150907,359.799118 L413.905436,360.059691 C406.957776,367.51318 393.19938,387.333028 372.630249,419.519233 L342.843581,437.134242 L331.573175,437.134242 L323.549046,495.337988 L342.843581,536.897302 L386.547386,522.175978 L457.756729,503.406604 L498.618679,461.951208 L521.668835,454.213052 C518.872405,462.292506 517.858643,470.331068 521.334017,478.351576 C527.344017,490.176576 545.420017,496.206388 557.438017,500.226388 C582.337017,509.782388 625.721229,499.866576 640.188229,478.351576 C647.904711,466.875795 656.844613,437.928116 661.445613,428.949116 L662.765244,410.445982 C665.143374,376.30187 666.90852,340.968548 659.495297,335.818614 C624.804565,311.719109 535.1916,323.828161 533.140143,325.177637 C528.623143,328.148637 526.678017,328.411388 524.235017,332.269388 L522.970432,332.438671 L530.082173,322.793608 L527.564018,321.449107 C509.596157,311.920524 497.908912,307.156233 492.502284,307.156233 Z M521.334017,338.663388 C518.120877,352.520508 527.036641,362.54593 531.253086,375.931601 L520.479517,355.307747 L520.479408,338.930764 C520.75825,338.862334 521.043421,338.773793 521.334017,338.663388 Z" id="Top" fill="#9DDADB" blush:i="0.0.0.2"/><path d="M349.584517,43.6984877 C351.979517,41.5774877 355.523517,44.2424877 354.001517,47.1074877 C350.581517,53.5464877 347.073517,59.6474877 342.483517,65.3394877 C339.700517,68.7904877 336.719517,72.0544877 333.698517,75.2824877 C341.451517,81.9894877 348.100517,90.3164877 354.379517,98.1204877 C362.408517,108.101488 369.999517,118.505488 379.012517,127.638488 C387.901283,136.645679 397.729749,142.942015 409.613561,147.140633 L412.013721,147.974286 C423.951928,152.165365 436.711387,157.82527 443.440517,169.128488 C444.767517,171.357488 442.095517,174.111488 439.849517,172.720488 C428.156517,165.480488 414.417517,164.024488 401.689517,159.240488 C389.394517,154.619488 378.676517,147.507488 369.206517,138.430488 C359.752517,129.368488 351.814517,119.058488 343.534517,108.966488 C335.346517,98.9874877 326.530517,90.4644877 316.845517,82.0214877 C301.899991,92.0758737 284.840037,96.4508198 267.492975,100.74777 L265.599517,101.216488 C248.231517,105.516488 230.956517,110.510488 214.662517,117.998488 C200.296517,124.599488 186.166517,132.482488 174.464517,143.224488 C162.042517,154.624488 152.374517,169.184488 143.525517,183.423488 C123.731517,215.279488 109.815517,250.179488 97.5645175,285.503488 C84.8225175,322.245488 74.1645175,359.723488 65.5605175,397.646488 C61.1845175,416.936488 57.6305175,436.363488 54.7095175,455.926488 C53.3035175,465.348488 52.0545175,474.790488 50.9575175,484.253488 C49.7865175,494.358488 49.5175175,504.754488 46.4175175,514.470488 C45.0885175,518.634488 41.9505175,520.362488 38.8095175,520.215488 L38.1715415,528.194256 C37.3255575,538.832208 36.5369175,549.473488 36.2705175,560.177488 C35.8286044,577.975488 36.0289749,595.722251 37.3092061,613.48254 L37.4905175,615.904488 C38.4965175,628.866488 40.7445175,643.430488 50.4915175,652.921488 C60.5855175,662.751488 76.1085175,665.842488 89.7135175,666.019488 C121.400517,666.432488 151.902517,651.460488 179.942517,638.325488 C208.820517,624.798488 236.909517,609.783488 264.325517,593.499488 C278.287517,585.206488 292.098517,576.637488 305.733517,567.818488 C312.424517,563.489488 319.068517,559.087488 325.662517,554.614488 C329.439517,552.052488 333.018517,549.243488 336.863517,546.970488 C334.979517,545.216488 334.138517,542.458488 335.716517,540.050488 C324.601517,530.402488 319.975517,513.185488 319.434517,499.254488 C318.997517,488.009488 320.652517,476.796488 321.958517,465.657488 C322.617517,460.040488 323.431517,454.433488 324.276517,448.841488 C324.610517,446.632488 324.865517,444.269488 325.255517,441.937488 C295.242517,458.430488 264.388517,473.118488 232.717517,486.167488 C216.483517,492.856488 200.041517,498.870488 183.372517,504.381488 L179.993972,505.493103 C164.200055,510.662985 148.028251,515.546621 131.700517,518.502488 C130.827517,518.660488 130.118517,517.371488 131.050517,516.960488 C146.962517,509.939488 163.425517,504.017488 179.576517,497.551488 L182.230517,496.470488 L182.230517,496.470488 C181.925517,496.453488 181.609517,496.411488 181.279517,496.332488 C171.807517,494.046488 162.409517,490.523488 153.119517,487.557488 C144.497517,484.804488 134.810517,483.075488 126.751517,478.919488 C126.131517,478.599488 126.478517,477.737488 127.082517,477.696488 C136.140517,477.068488 145.973517,479.708488 154.854517,481.261488 L158.190814,481.84589 C163.779795,482.831377 169.492851,483.890821 175.054517,485.272488 C175.255517,483.409488 176.296517,481.538488 177.777517,480.441488 C194.074517,468.372488 192.419517,443.996488 194.162517,426.021488 L195.455006,412.676462 C197.728429,389.321229 200.133517,365.969128 203.787517,342.788488 C203.982517,341.550488 205.897517,341.905488 205.905517,343.074488 C206.093979,371.809103 203.924822,400.411507 202.837574,429.101281 L202.669216,433.807744 C202.068138,451.510533 201.597052,469.892813 190.447517,483.514488 C192.006517,482.603488 194.114517,482.603488 195.377517,484.105488 C196.929517,485.952488 197.825517,488.026488 197.797517,490.061488 C207.872517,485.837488 217.903517,481.503488 227.885517,477.081488 C259.978517,462.863488 291.398517,446.952488 321.987517,429.736488 C325.279517,427.883488 328.408517,429.339488 330.036517,431.782488 L330.27148,431.748784 C330.31074,431.743488 330.350517,431.739488 330.391517,431.738488 L330.624517,431.728488 C330.633517,431.728488 330.642517,431.729488 330.650517,431.729488 C334.956517,429.363488 340.822517,431.048488 344.517517,434.499488 C344.626517,434.603488 344.719517,434.715488 344.816517,434.825488 C349.494517,432.725488 353.862517,429.890488 357.826517,426.297488 C365.938517,418.945488 372.809517,409.854488 378.799517,400.738488 C389.830517,383.948488 399.200517,365.277488 414.101517,351.456488 C426.208517,340.227488 441.218517,333.236488 456.965517,328.847488 C456.899517,328.387488 457.075517,327.897488 457.393517,327.571488 C458.202517,326.742488 458.779517,326.455488 459.824517,326.958488 C459.907517,326.999488 459.957517,327.055488 459.991517,327.115488 L461.528134,324.490015 C462.366879,323.065413 463.228138,321.630419 463.526517,321.253488 C465.314517,319.002488 467.154517,316.768488 469.022517,314.581488 C472.189517,310.878488 475.798517,307.224488 479.977517,304.656488 C489.127517,299.035488 498.746517,302.216488 508.153517,305.288488 C513.837517,307.145488 519.502517,309.062488 525.176517,310.947488 L525.761817,311.138618 C529.992678,312.497968 534.943517,313.686977 536.835517,318.169488 C537.584517,319.943488 537.700517,321.784488 537.351517,323.570488 C577.535517,313.351488 622.167517,318.046488 661.380517,330.042488 C662.885517,330.502488 664.388517,331.740488 664.705517,333.366488 C669.198517,356.407488 671.199517,380.036488 669.166517,403.470488 C667.412517,423.698488 662.930517,443.521488 654.484517,462.040488 L654.00433,463.086094 C646.066795,480.248597 633.486417,501.405268 614.273517,506.784488 C602.672517,510.032488 589.841517,508.117488 578.009517,507.522488 C566.510517,506.943488 554.756517,506.859488 543.366517,505.051488 C533.222517,503.441488 524.334517,498.894488 518.065517,490.646488 C512.657517,483.530488 509.809517,474.930488 507.476517,466.375488 C506.408517,466.715488 505.347517,467.076488 504.303517,467.485488 C499.896517,469.206488 496.162517,471.984488 492.786517,475.253488 C485.657517,482.157488 480.127517,490.542488 472.668517,497.130488 C465.916517,503.094488 458.222517,507.732488 449.969517,511.298488 C432.868222,518.687647 414.522481,521.640543 396.43313,525.556641 L395.171517,525.831488 C381.553517,528.819488 367.653517,532.488488 355.633517,539.578488 C355.398517,541.665488 354.447517,543.629488 352.923517,544.915488 C355.043517,546.906488 355.941517,550.059488 354.078517,553.017488 C348.874645,561.275956 339.911017,565.974869 331.863977,571.256186 L331.340517,571.601488 C323.424517,576.849488 315.439517,581.993488 307.389517,587.032488 C291.024517,597.278488 274.317517,606.960488 257.374517,616.216488 C230.123517,631.103488 202.287517,645.146488 173.947517,657.884488 C175.648517,666.252988 175.026978,674.882079 176.305491,683.306449 L176.501517,684.508488 C177.047684,687.634688 176.309924,690.250681 174.156356,692.293237 L173.928517,692.502488 L173.932517,692.474488 L173.730517,692.659488 L173.663,692.716038 L173.685517,692.698488 C173.437267,692.925738 173.181142,693.137238 172.920096,693.318644 L172.587517,693.532488 L172.587517,693.532488 C170.513295,694.793006 167.842821,694.77849 165.719074,693.665745 L165.476517,693.532488 L165.068517,693.298488 C162.262517,691.684488 160.327517,687.685488 161.491517,684.508488 C164.352517,676.700488 165.433517,668.367488 168.075517,660.507488 L165.979517,661.444488 L165.979517,661.444488 L163.216955,662.648558 C133.339024,675.568296 100.150687,686.448088 67.5965175,677.640488 C53.2125175,673.747488 39.7685175,665.513488 32.5715175,652.092488 C25.4895175,638.886488 24.4885175,623.552488 24.1125175,608.862488 C23.6485175,590.731488 24.6205175,572.323488 27.0115175,554.348488 C28.6165175,542.282488 30.5575175,529.988488 33.5515175,518.047488 C32.0115175,516.688488 30.8795175,514.739488 30.5805175,512.325488 C29.1675175,500.920488 31.6405175,489.063488 33.1545175,477.717488 C34.6335175,466.639488 36.2675175,455.583488 38.1155175,444.561488 C41.8465175,422.302488 46.1815175,400.090488 51.2285175,378.092488 C60.2105175,338.941488 72.0715175,300.486488 86.3515175,262.950488 L87.6020569,259.680864 C100.79753,225.372121 116.075902,191.794657 137.350517,161.654488 C147.527517,147.234488 158.285517,134.160488 172.665517,123.769488 C186.137517,114.033488 201.333517,107.023488 217.015517,101.665488 C232.714517,96.3034877 248.850517,92.7104877 265.271517,90.4754877 C281.948517,88.2054877 299.551517,86.8134877 315.108517,79.9734877 C313.140517,76.4454877 314.829517,71.6824877 318.141517,69.4944877 C329.287517,62.1304877 339.594517,52.5504877 349.584517,43.6984877 Z M706.390217,363.919788 C706.857217,363.210788 707.966217,363.658788 707.761217,364.497788 C702.340217,386.706788 697.251217,408.960788 693.928217,431.593788 C687.929641,472.443483 689.033057,513.826624 689.523439,554.978455 L689.548217,557.106788 C689.800217,579.272788 690.150217,601.440788 690.883217,623.597788 C691.253217,634.795788 691.985217,646.103788 691.587217,657.307788 C691.370217,663.385788 689.750217,669.134788 689.176217,675.139788 C688.673217,680.390788 689.121217,685.722788 689.372217,690.980788 C689.540217,694.476788 684.380217,694.327788 684.029217,690.980788 L683.580418,686.65163 C682.997365,681.17297 682.276717,675.727788 680.481217,670.483788 C678.322217,664.176788 677.286217,657.982788 676.537217,651.360788 C675.389967,641.213475 674.879768,630.964499 674.436987,620.745807 L674.134217,613.677788 C672.285241,570.973555 672.350047,528.068976 675.343411,485.409472 L675.562217,482.362788 C678.526217,442.038788 683.669217,398.469788 706.390217,363.919788 Z M590.835317,109.773088 C589.419317,109.191088 589.915317,107.050088 591.483317,107.423088 L594.334869,108.103285 C615.229442,113.107995 635.744796,118.530392 655.247317,127.843088 C674.762317,137.161088 691.284317,151.072088 704.412317,168.178088 C729.932317,201.429088 740.537317,241.839088 748.909317,282.211088 C758.213317,327.072088 766.684317,372.097088 776.069317,416.944088 L777.812091,425.297826 C786.496103,467.067431 794.695067,508.860713 800.736317,551.125088 L801.170284,554.190421 C807.26247,597.651926 810.926904,642.618375 804.279317,686.193088 C802.964317,694.814088 788.618317,692.667088 789.179317,684.150088 C790.799317,659.527088 791.959317,635.033088 790.838317,610.355088 C789.716317,585.672088 787.401317,561.097088 783.950317,536.630088 C781.046167,516.039788 776.71697,495.705798 772.885817,475.279166 L772.285317,472.053088 C769.077317,454.679488 765.770117,437.323168 762.470213,419.965696 L757.538852,393.977767 C750.147827,355.064728 742.612217,316.117588 734.097317,277.449088 L733.592008,275.173709 C725.259184,237.971574 712.974217,199.002188 687.979317,169.460088 C662.614317,139.479088 626.303317,124.380088 590.835317,109.773088 Z M498.668317,504.370788 C499.278317,503.011788 501.412317,503.160788 502.068317,504.370788 C504.638684,509.113254 504.924334,515.166747 505.410236,520.520527 L505.461317,521.071788 C506.079317,527.604788 506.626317,534.159788 506.961317,540.713788 C507.596317,553.152788 507.900317,565.575788 507.861317,578.030788 C507.821317,590.794788 507.564317,603.543788 506.876317,616.288788 L506.689611,619.703854 C506.06153,630.779499 505.00811,643.133373 499.745317,652.815788 C497.832317,656.336788 492.629317,655.301788 491.521317,651.741788 C487.891317,640.085788 489.755317,626.265788 490.686317,614.327788 L491.409255,605.012647 C492.12513,595.696475 492.807817,586.376788 493.349317,577.049788 C494.091317,564.288788 494.703317,551.516788 495.292317,538.749788 C495.483651,534.603121 495.69054,530.455121 495.909132,526.308454 L496.245317,520.089788 C496.532317,514.887788 496.508317,509.179788 498.668317,504.370788 Z M90.5205365,520.890299 L92.1274775,519.338025 C97.0604764,514.510543 103.294284,507.075588 110.586817,507.536688 C113.494817,507.720688 115.347817,510.134688 114.744817,512.995688 C113.456817,519.111688 107.217817,522.285688 102.726817,526.019688 C97.8068175,530.108688 93.1698175,534.479688 88.5418175,538.892688 C84.4360397,542.805577 80.4874965,546.829873 76.6336803,550.979623 L75.1928175,552.541688 C73.8114021,554.049134 63.9742916,562.94683 65.0379029,565.255355 L65.0958175,565.358688 C65.3918175,565.800688 64.8988175,566.408688 64.4078175,566.253688 C60.1598175,564.911688 60.4248175,561.270688 62.0308175,557.581688 C65.1168175,550.493688 70.5208175,543.936688 75.2398175,537.883688 C79.9460675,531.84525 85.0399151,526.222535 90.5205365,520.890299 L90.5205365,520.890299 Z M514.061517,343.137488 C510.776517,335.373488 498.675517,335.536488 491.805517,336.000488 C474.505517,337.169488 455.787517,341.546488 440.394517,349.632488 C424.435871,358.015503 413.686174,371.447505 404.067576,386.300239 L403.617517,386.997488 C394.242517,401.570488 385.213517,418.821488 370.533517,428.841488 C363.056517,433.946488 354.325517,438.607488 345.253517,440.626488 C344.630517,441.721488 343.621517,442.588488 342.298517,442.903488 L341.683508,443.044224 C339.099701,443.614713 335.085594,444.246026 331.618517,443.868488 C331.641517,445.564488 331.623517,447.247488 331.666517,448.854488 C331.788517,453.459488 331.840517,458.084488 331.840517,462.692488 C331.842517,472.347488 331.323517,482.021488 331.726517,491.675488 C332.083517,500.214488 333.289517,509.136488 337.389517,516.769488 C340.396517,522.369488 344.365517,526.075488 349.156517,529.613488 C360.942517,522.430488 374.269517,518.052488 387.795517,514.760488 C404.153517,510.779488 420.902517,508.122488 436.888517,502.724488 C444.582517,500.125488 451.979517,496.724488 458.681517,492.105488 C465.794517,487.200488 471.227517,480.564488 476.817517,474.073488 L477.691264,473.065009 C483.396131,466.522234 489.620981,460.261585 497.683517,456.714488 C504.626517,453.658488 513.777517,453.114488 519.848517,448.386488 C523.022517,445.912488 523.288517,442.322488 523.622517,438.646488 C519.734517,439.202488 515.618517,438.311488 511.743517,437.857488 L509.73583,437.621835 C506.071618,437.186482 502.491671,436.707949 498.884517,435.775488 C498.214517,435.602488 498.214517,434.592488 498.884517,434.419488 C503.147517,433.318488 507.372517,432.849488 511.743517,432.337488 L512.770172,432.209455 C516.724458,431.690867 520.880797,430.908168 524.759517,431.778488 C525.455517,429.130488 526.460517,426.602488 527.870517,424.070488 C529.849517,420.513488 533.594517,416.480488 534.100517,412.325488 C534.251517,411.084488 533.962517,409.621488 533.377517,408.524488 L533.175877,408.150556 C532.930061,407.708932 532.63874,407.264821 532.212517,406.989488 C532.165517,407.044488 532.065517,407.107488 531.848517,407.175488 C528.863517,408.115488 526.259517,406.654488 524.877517,404.402488 C519.010517,405.130488 512.607517,404.885488 507.105517,405.128488 L501.542543,405.397555 C495.598418,405.670072 489.384242,405.789384 483.798517,404.588488 C483.018517,404.421488 482.782517,403.123488 483.563517,402.789488 C490.430517,399.852488 498.760517,398.915488 506.112517,397.787488 C510.218517,397.156488 514.354517,396.676488 518.472517,396.121488 C521.214517,395.751488 524.124517,395.140488 526.965517,394.993488 C534.088517,386.126488 530.250517,372.138488 520.337517,368.320488 C516.726517,369.907488 513.479517,368.984488 509.534517,368.645488 C505.596517,368.307488 501.648517,368.078488 497.694517,368.095488 C489.771517,368.130488 481.375517,370.214488 473.529517,369.317488 C472.253517,369.170488 471.067517,367.472488 472.336517,366.436488 C478.342496,361.535422 486.949832,359.937391 494.573457,358.892943 L496.153517,358.681488 C498.709517,358.346488 501.817517,357.857488 505.041517,357.566488 C505.770517,356.144488 507.078517,355.069488 509.043517,354.802488 C509.627517,354.722488 510.214517,354.675488 510.800517,354.625488 L510.791517,354.567488 L510.791517,354.567488 C515.583517,354.337488 515.375517,346.243488 514.061517,343.137488 Z M185.992517,494.562488 C185.907851,494.693154 185.815184,494.817599 185.716592,494.937303 L185.564517,495.113488 L186.352517,494.793488 L185.992517,494.562488 L185.992517,494.562488 Z M597.683517,325.788488 C577.513517,323.621488 557.314517,324.078488 537.084517,324.660488 C535.466517,329.952488 529.834517,334.462488 524.377517,334.632488 C528.651517,341.137488 529.092517,349.941488 526.095517,356.840488 C532.458517,359.373488 537.940517,363.923488 541.268517,370.403488 C545.883517,379.386488 545.279517,389.382488 540.718517,397.684488 C544.611517,401.208488 546.908517,406.931488 546.678517,412.325488 C546.421517,418.340488 542.836517,423.478488 539.857517,428.458488 C536.638517,433.844488 536.530517,438.586488 535.541517,444.618488 C534.094517,453.446488 528.140517,458.800488 520.479517,462.144488 L520.886789,463.746442 C522.861903,471.43454 525.319365,479.546705 530.964517,485.168488 C538.22639,492.400837 549.492067,492.333557 559.086594,492.791868 L559.549517,492.814488 C568.335117,493.253688 577.116877,493.768408 585.899405,494.265976 L592.486517,494.634488 C602.598517,495.190488 612.309517,495.257488 620.564517,488.572488 C634.041517,477.660488 643.280517,459.601488 649.128517,443.614488 C661.402517,410.058488 661.549517,373.233488 655.915517,338.285488 C637.020517,332.195488 617.415517,327.908488 597.683517,325.788488 Z M429.944732,381.459854 L430.093017,381.470688 C434.246017,381.944688 437.099017,385.307688 438.115017,389.296688 C439.591017,395.094688 438.867017,400.336688 442.418017,405.570688 C446.071017,410.952688 448.317017,415.261688 448.848017,421.910688 C449.066017,424.646688 448.966017,427.375688 449.575017,430.053688 L450.016608,431.929954 C450.48555,433.930615 450.869253,435.857629 450.636017,438.005688 C450.423017,439.964688 449.469017,441.490688 447.504017,442.118688 C441.101017,444.166688 436.157017,439.448688 434.503017,433.481688 C433.074017,428.327688 434.982017,422.185688 432.966017,417.345688 C431.849017,414.662688 429.789017,412.418688 428.625017,409.717688 C427.472017,407.040688 426.893017,404.243688 426.708017,401.333688 C426.357017,395.829688 431.225017,389.216688 428.509017,384.229688 C427.930673,383.165688 428.58566,381.42769 429.944732,381.459854 Z M344.892017,324.661788 C349.228017,323.780788 354.147017,321.761788 358.423017,323.439788 C360.621017,324.303788 361.707017,326.983788 359.850017,328.846788 C356.625846,332.078731 351.939924,332.258833 347.597257,333.02094 L347.215017,333.089788 C342.080017,334.039788 336.936017,334.940788 331.785017,335.794788 C322.094017,337.399788 312.380017,338.818788 302.632017,340.024788 C292.620017,341.263788 282.580017,342.366788 272.526017,343.196788 L268.633799,343.516126 C260.141013,344.195339 251.304017,344.707654 242.971017,343.406788 C241.760017,343.217788 241.955017,341.454788 242.971017,341.145788 C252.100017,338.382788 262.114017,337.641788 271.552017,336.472788 C281.586017,335.227788 291.603017,333.912788 301.594017,332.352788 C311.569017,330.794788 321.531017,329.122788 331.456017,327.274788 C335.942017,326.440788 340.421017,325.569788 344.892017,324.661788 Z M501.346517,315.790488 C497.541517,314.443488 493.355517,312.447488 489.232517,313.115488 C482.122517,314.267488 475.794517,321.194488 470.166517,325.756488 L472.992403,325.207213 C487.451736,322.428152 506.599705,319.434363 518.737517,328.627488 C518.768517,328.574488 518.792517,328.521488 518.827517,328.468488 C519.807517,326.980488 520.942517,325.819488 522.181517,324.546488 C522.299851,324.434821 522.414406,324.319488 522.527073,324.202265 L523.195517,323.490488 L521.66661,322.960847 C518.391849,321.803308 514.512301,320.308533 513.89901,320.090349 L513.856517,320.075488 C509.681517,318.661488 505.501517,317.263488 501.346517,315.790488 Z M382.544817,12.7161877 C381.949817,5.06318772 393.860817,5.12618772 394.450817,12.7161877 C395.737817,29.2861877 392.008817,45.6991877 383.982817,60.2261877 C383.923817,60.3321877 383.858817,60.4261877 383.796817,60.5261877 C388.816817,63.1381877 393.893817,65.6441877 399.083817,67.8841877 C405.722817,70.7501877 412.486817,73.3601877 419.371817,75.5741877 C425.599817,77.5781877 433.272817,78.3691877 438.508817,82.5391877 C449.549817,91.3311877 445.401817,109.577188 443.277817,121.404188 L442.946452,123.271221 C441.888878,129.35725 441.12398,135.601257 443.689817,141.442188 C446.429817,147.681188 451.970817,152.309188 456.913817,156.773188 L457.912177,157.678409 C462.291215,161.667647 467.294889,166.515188 470.506817,171.923188 C473.438817,165.861188 477.435817,160.907188 481.661817,155.330188 C484.676817,151.350188 482.530817,150.038188 480.364817,146.150188 C478.279817,142.408188 477.261817,138.419188 477.913817,134.150188 C479.116817,126.266188 485.417817,120.571188 491.689817,116.292188 C499.096817,111.241188 507.363817,107.499188 515.020817,102.800188 C530.754817,93.1461877 546.077817,82.1081877 559.882817,69.8491877 C560.263817,69.5101877 560.923817,69.9541877 560.618817,70.4171877 C549.713817,87.0041877 536.926817,101.337188 521.211817,113.503188 C514.83963,118.436313 508.145763,122.528324 501.407071,126.829791 L499.469717,128.072992 C496.764036,129.825707 493.389197,132.168222 492.165817,135.152188 C490.934817,138.153188 493.559817,140.419188 494.972817,142.905188 C499.459787,150.799733 497.295001,158.165669 491.975557,164.860665 L491.727817,165.169188 C486.441817,171.683188 482.435817,177.741188 480.519817,186.063188 C476.402986,203.939967 482.137211,222.561031 488.139757,239.343676 L488.376817,240.005188 C491.623817,249.051188 495.074817,258.031188 497.895817,267.222188 L498.672014,269.763136 C501.228032,278.219808 503.32109,286.560551 500.453817,295.254188 C499.478817,298.211188 495.445817,298.910188 493.770817,296.127188 C487.861817,286.313188 486.388817,274.503188 482.684817,263.713188 C479.074817,253.197188 474.929817,242.871188 471.442817,232.312188 C466.952817,218.717188 463.947817,204.083188 465.578817,189.823188 C465.530817,189.740188 465.477817,189.662188 465.437817,189.574188 L464.294841,187.074065 C461.178094,180.30434 458.16779,174.392134 452.499817,168.996188 C446.587817,163.367188 440.170817,158.384188 435.518817,151.570188 C425.414182,136.76899 431.663442,120.304003 432.883971,104.120161 L433.02363,102.135607 C433.245343,98.7754127 433.366845,94.2088093 431.171817,91.8831877 C428.702817,89.2651877 422.912817,88.5971877 419.636817,87.4381877 C411.170817,84.4421877 402.827817,80.9511877 394.881817,76.7591877 C387.317817,72.7691877 379.990817,68.3611877 373.168817,63.1971877 L369.711068,60.5959551 C364.255451,56.479596 358.598288,51.9844818 354.941817,46.3811877 C354.519817,45.7361877 355.236817,44.6951877 356.000817,45.0041877 C362.104817,47.4811877 367.681817,51.4211877 373.392817,54.8491877 C373.481817,54.6401877 373.584817,54.4291877 373.701817,54.2171877 C380.767817,41.4291877 383.673817,27.2611877 382.544817,12.7161877 Z M577.528217,100.331388 C579.960217,93.6623877 591.044217,94.1773877 590.602217,102.101388 C590.263321,108.188974 587.678698,113.683666 585.315462,119.211018 L585.063217,119.803388 C582.623217,125.562388 579.805217,130.969388 576.433217,136.247388 C569.990217,146.337388 562.443217,155.701388 554.382217,164.538388 C547.074217,172.550388 537.482217,177.449388 526.429217,176.635388 C521.772217,176.292388 517.071217,175.107388 512.990217,172.781388 C508.143217,170.017388 502.879217,161.718388 496.695217,163.728388 C496.097217,163.922388 495.539217,163.046388 496.056217,162.631388 C503.195217,156.882388 511.298217,165.796388 518.133217,167.944388 C528.432217,171.179388 539.001217,167.602388 545.630217,159.276388 C552.551217,150.583388 558.921217,140.850388 564.738217,131.385388 C567.692217,126.579388 570.387217,121.591388 572.715217,116.450388 C575.064217,111.261388 575.598217,105.622388 577.528217,100.331388 Z M560.926917,59.2889877 C560.626917,58.3679877 561.770917,57.4919877 562.579917,58.0179877 C567.270917,61.0719877 571.335917,65.1069877 575.662917,68.6439877 C580.463917,72.5679877 585.299917,76.4119877 590.210917,80.1969877 C597.369917,85.7159877 589.066917,95.8759877 582.764917,89.8469877 C574.140917,81.5999877 564.695917,70.8159877 560.926917,59.2889877 Z M535.171817,27.0094877 C537.077567,19.6607177 548.349153,22.6912067 546.706569,29.9541106 L546.652817,30.1754877 C543.541757,42.1721865 547.972626,54.3855681 557.431522,62.1629374 L557.779817,62.4454877 C563.763817,67.2344877 555.285817,75.6064877 549.360817,70.8634877 C536.425817,60.5114877 531.044817,42.9264877 535.171817,27.0094877 Z" id="Ink" fill="#000" blush:i="0.0.0.3"/></g></g><g id="Head" transform="translate(372.000000, 180.000000) scale(0.9978902953586498 1)" blush:width="473" blush:height="567" blush:component="Head" blush:i="0.1" blush:value="Medium Bangs 2" blush:viewBox="-57.83253588516749 48.19500000000005 481.9377990430622 484.78500000000014"><g id="Head/Medium Bangs 2" stroke="none" stroke-width="1" fill="none" fill-rule="evenodd" blush:viewBox="-57.83253588516749 48.19500000000005 481.9377990430622 484.78500000000014" blush:i="0.1.0"><path d="M407.868,144.4632 C405.647,138.8582 401.719,131.8132 395.154,131.5322 C390.076,116.0072 377.45,100.1962 359.888,100.6162 C308.34,47.9022 243.444,50.3872 175.594,61.5462 C139.798,68.1852 103.451,81.1852 76.753,106.8392 C44.777,137.0412 32.326,189.7402 57.366,227.9312 C35.725,239.5282 35.305,267.0482 44.56,286.9072 C33.435,294.6002 32.759,313.2722 45.286,319.1402 C44.62,321.8682 45.091,324.6882 46.361,327.1122 C40.15,332.2822 32.066,336.1012 25.383,339.3842 C22.429,340.8352 20.725,343.2052 20.017,345.8762 C-1.927,360.2722 -56.645,395.4542 -55.993,423.4552 C-56.315,438.0632 -45.479,447.6772 -32.311,451.5052 C-40.146,467.1682 -46.093,485.4632 -38.593,502.3592 C-36.52,507.4642 -20.9878002,522.467374 -20.2058002,522.744374 C-18.8388002,523.916374 3.444,513.6862 14.274,508.4682 C16.374,522.1282 30.981,529.2852 43.572,524.6042 C55.511,521.0052 62.85,510.8982 70.38,501.7042 C80.375,523.5072 109.782,523.7582 128.788,514.3582 C145.857,506.4732 158.832,492.0212 166.06,474.6062 C204.442,493.3952 249.348,498.8722 291.048,491.3672 C293.724,496.1032 299.648,499.2842 304.925,497.4522 C327.099,490.7862 351.616,490.4122 370.412,475.1392 C409.591,447.0182 412.89,395.1742 410.158,350.9812 C407.735,306.9182 409.856,262.4882 401.846,218.9012 C405.322,206.0682 411.104,194.7232 416.454,182.6672 C422.266,170.0252 422.144,151.2322 407.868,144.4632 Z" id="Skin" fill="#d08b5b" blush:color="Skin-500" blush:i="0.1.0.0"/><path d="M229.999719,57 L231.522739,57.0059899 C234.0404,57.0225872 236.554245,57.072333 239.061499,57.1549689 C252.311364,57.5910358 266.129295,59.3098962 281.688115,62.2521267 L284.053237,62.7065651 C287.923175,63.4641535 291.389668,64.2243719 296.91867,65.5159368 L307.891865,68.1018568 C313.479175,69.4037016 317.591162,70.3044518 321.385326,71.0291372 L321.882,71.123 C341.37659,80.4668745 354.271833,88.212465 360.567728,94.3597714 L361.510077,95.287052 L361.911,95.688 L366.017066,95.8176 L366.057,96.336 L366.091988,96.3412685 C370.168631,96.9755355 373.85647,99.0870047 377.286134,102.374236 L377.652616,102.730925 L378.005037,103.0842 C380.678038,105.80199 382.808174,108.698072 385.743705,113.28817 L386.409851,114.336693 L387.603224,116.230182 L388.569745,117.750596 C389.197522,118.745164 389.80104,119.728967 390.380445,120.70372 L390.951818,121.675518 L391.363,122.39 L401.964386,128.5739 C403.492,129.464997 404.881938,130.618095 406.153643,131.999109 L406.497555,132.381374 L406.835692,132.774787 L409.724288,136.211824 L409.142,136.818 L409.423395,137.188256 L409.928071,137.879026 L410.419908,138.579178 L410.898822,139.288558 L411.105081,139.600264 L411.416466,140.27319 L411.56812,140.60944 L411.689,140.886 L412.050826,141.072236 L412.7873,142.400983 C416.609274,149.296583 418.667611,157.12769 418.807083,165.174969 C418.903228,170.725597 418.218233,175.766775 416.592556,180.629773 C415.467733,183.992254 413.960213,186.634452 411.353898,190.27217 L409.294389,193.096933 L408.87385,193.679785 L408.371297,194.388956 C408.291737,194.50263 408.213892,194.6146 408.137188,194.725703 C404.787746,199.57615 376.165893,208.756978 358.573886,209.200891 L358.044208,209.211656 L357.367534,209.218249 C355.688883,209.2255 354.066405,209.16534 352.503083,209.034614 C345.7355,208.468703 339.408732,207.044787 332.058555,204.716087 L330.533406,204.223394 L322.435293,201.502888 C322.177255,201.417418 321.969361,201.349363 321.825289,201.303486 L321.085816,201.072191 C319.302509,200.525158 318.006243,200.210726 317.122959,200.096758 L316.943,200.075 L316.924634,200.410001 L316.918191,200.725638 L316.919249,200.982487 C316.971073,204.709607 314.707541,207.42664 311.196204,209.158121 C308.960239,210.260701 306.079581,211.048121 302.462832,211.63921 L301.885636,211.730925 C295.974999,212.644044 288.925633,213.034122 277.133464,213.301414 C276.68403,213.311601 276.231595,213.305884 275.775108,213.284988 C273.242867,213.169076 271.253098,212.737523 267.554273,211.675525 L265.805313,211.173762 L264.85748,210.911722 C263.098362,210.436564 262.11827,210.246743 261.192695,210.194969 L260.923616,210.183647 L260.65636,210.179185 C259.544928,210.177521 258.742281,210.425039 257.951352,211.028093 L257.546985,211.35176 L252.110447,215.906211 C251.402725,216.495431 250.767816,217.018143 250.302514,217.388662 L250.113765,217.537889 C242.652114,223.388384 235.53744,226.730447 227.155902,227.048259 L226.595238,227.06496 L226.011295,227.071603 C225.58526,227.072403 225.158027,227.064691 224.729598,227.048387 C221.200284,226.914082 217.536397,225.605833 212.533802,223.08305 L211.49661,222.552726 L210.771088,222.174098 C210.400474,221.979279 210.014262,221.774223 209.595268,221.550039 L205.863,219.552975 L203.955497,218.556395 C201.676543,217.384762 200.405758,216.818928 199.550719,216.585836 L199.411,216.549 L199.331216,216.626205 C197.351443,218.558973 195.6532,220.991088 193.825125,224.348847 L193.549889,224.859507 L193.149918,225.620474 L190.553623,230.788767 L190.062891,231.750047 C188.13557,235.480541 186.611293,237.864844 184.615974,239.95681 C181.720393,242.992644 178.213465,244.7541 173.917026,245.036877 L173.484743,245.060218 L172.9728,245.072846 C170.949047,245.092542 168.805154,244.781964 166.480083,244.136174 L165.940285,243.981193 L165.414076,243.819917 C161.950242,242.726075 156.474637,243.407026 152.126403,245.714933 C147.403704,248.221595 144.802606,252.046006 144.918332,256.933651 C144.975814,259.361398 145.255278,261.964045 145.745975,264.785045 L145.885031,265.559855 C146.529837,269.047156 147.403417,272.545892 148.749578,277.213334 L151.643599,286.976142 L151.970198,288.115384 L152.297791,289.28758 C152.76763,290.994813 153.142614,292.482138 153.45148,293.882735 C154.632403,299.237798 154.829531,303.259006 153.645488,306.68517 C148.424997,321.791264 139.365828,329.81579 129.05338,330.154544 L128.697285,330.163178 L128.256099,330.16383 C120.333684,330.078371 113.154663,324.9163 113.241453,318.228383 C113.250542,317.528023 113.383123,316.875434 113.615644,316.284695 L113.721345,316.035349 L113.772,315.929 L113.69022,315.728902 C111.255294,309.900143 105.624001,305.645363 99.0115243,304.810882 L98.6362002,304.767312 L98.2657474,304.731714 C97.9025574,304.700343 97.540194,304.678636 97.1970298,304.666717 L96.8609459,304.658064 L96.4591916,304.654971 C87.6462889,304.668275 78.9257995,310.535121 72.0659894,320.131449 C70.6357511,322.132748 69.3081733,324.317497 68.1150828,326.62607 L67.7224106,327.400099 L65.815,331.302 L64.5265607,335.07563 C57.4282431,355.854268 61.0225175,377.597817 74.8772663,388.839195 L75.3002474,389.176616 C80.2919646,393.090695 86.1623725,395.469691 92.4296168,396.110196 C93.1507851,396.183934 93.8765676,396.230583 94.5748517,396.2493 L95.0929071,396.258087 L95.6881194,396.256394 C97.7304145,396.22952 99.6836169,395.975716 101.438069,395.502019 C102.86927,395.115711 103.865135,394.647351 104.558319,394.048922 C104.740603,393.892198 104.887168,393.74999 105.01363,393.608126 L105.12,393.481 L105.16,393.427 L114.629098,394.831041 C116.240049,405.055098 120.892651,415.648923 128.461973,427.797947 L128.938852,428.559296 L129.770648,429.869367 L130.616934,431.180835 C139.522947,444.87891 149.455919,456.413499 160.374031,465.264876 L161.137358,465.878054 L162.160186,466.689433 L163.099205,467.424625 C164.92368,468.840835 166.443752,469.942881 167.965019,470.926478 L168.345538,471.170022 L171.936102,473.444693 L170.269192,477.35464 C166.380035,486.477147 161.013359,494.770415 154.398471,501.831394 L153.774675,502.489739 L149.176801,507.231023 L145.640642,502.72924 C145.614018,502.695346 145.534601,502.652039 145.440589,502.634356 L145.376,502.627 L145.34,502.627 L145.292123,502.631742 L145.235347,502.646903 L145.177771,502.672961 C142.530422,504.107894 141.076727,505.205133 138.987879,507.352364 L138.684954,507.666403 L138.332079,508.037771 L137.846085,508.544043 C135.675793,510.767562 133.356597,512.661251 130.828637,514.237581 C124.990139,517.876143 118.509435,519.898356 111.798773,520.080797 L111.168988,520.092504 L110.534886,520.09268 C110.307383,520.090684 110.079792,520.086544 109.851575,520.080243 C95.8502832,519.692097 83.3036345,510.722667 77.1370232,497.575728 C76.8920652,497.05327 76.6668289,496.883481 76.2517572,496.849267 L76.1336917,496.843134 L75.985775,496.841252 C74.9573375,496.847428 73.696831,497.459794 72.9940936,498.28201 L72.8690595,498.438538 L70.5084563,501.60984 L69.6035199,502.806999 C61.1836149,513.861187 54.2705818,519.907109 44.9855679,521.74348 C44.2546518,521.887782 43.4810827,521.97606 42.6599182,522.012527 L42.1614685,522.033011 L41.8703508,522.033011 C37.8768232,522.043757 33.275133,520.886779 29.6881051,518.849458 C24.9438129,516.154846 22.010409,512.010467 22.3819929,506.875353 L22.4102138,506.546239 L22.4759585,505.996765 C22.785723,503.255124 20.5913604,501.765087 18.9117514,503.11084 L18.7980658,503.207009 L18.6592714,503.333443 C11.741533,509.820367 3.78480781,514.798261 -4.78527693,517.87044 L-5.54304181,518.136559 L-6.66912397,518.520544 C-12.0737148,520.344237 -15.8847915,521.248643 -19.8977291,521.319421 C-23.3707614,521.379262 -26.258549,520.126539 -28.3471354,517.718377 C-29.7401971,516.112163 -30.5914268,514.327244 -31.4412203,511.722476 L-31.5829319,511.280647 L-31.8931095,510.26776 L-32.0855674,509.608738 C-34.5718139,500.860842 -34.6257792,491.50565 -32.6736971,481.184387 C-31.2155517,473.47472 -28.8942013,466.026212 -24.9907182,455.586659 L-24.2330219,453.573933 L-22.6695264,449.468141 C-22.5123778,449.056168 -23.451418,447.618428 -24.0325855,447.456429 L-24.101,447.444 L-24.6314247,447.500556 C-25.0034493,447.535627 -25.3782,447.560468 -25.762396,447.57515 L-26.3466138,447.589565 L-26.7298447,447.589579 C-39.4093676,447.459857 -49.0938454,435.025812 -49.0069584,421.854542 C-48.906496,409.516043 -42.7013487,398.907095 -30.8540223,386.314038 L-29.8247305,385.229687 L-28.7112094,384.075914 L-27.610769,382.949645 C-17.0832713,372.231141 -6.32122266,362.874484 4.88621911,354.849589 L5.81436373,354.187778 L6.84740936,353.458893 C10.6215386,350.81149 14.2907788,348.410657 19.3686084,345.254929 L22.358,343.409 L34.4733668,329.113166 C34.7640608,328.948313 35.0505037,328.783818 35.3326981,328.619654 L35.4865034,323.660282 L47.1591661,323.900818 C44.1970989,322.381395 41.7430819,320.53736 39.7498426,318.17475 C33.1244681,310.318834 33.9559964,299.404992 42.0116601,294.042391 L42.2956016,293.857589 L45.6917502,291.760986 L48.4703941,294.198619 C50.8906743,296.321869 53.4582985,297.729902 56.1352097,298.379646 L56.5587826,298.475929 L58.6534241,298.919902 L59.061,299.58 L59.297,299.238 C59.295545,299.20395 59.2890258,299.170023 59.2776674,299.137088 L59.2570286,299.088536 L59.2128004,299.020118 L58.9490767,298.695826 L58.6577628,298.347867 C57.7259536,297.252313 56.679722,296.188757 54.78017,294.359659 L53.4474616,293.079017 L52.4101558,292.069656 C49.6879955,289.395994 48.2382961,287.740151 46.6966514,285.440042 C42.8609954,279.717268 40.6945674,273.265041 40.604511,266.711437 C40.4159569,253.083809 48.8922145,240.199645 61.4529243,234.319003 C61.8924765,234.113207 62.2171435,232.649514 61.6897441,231.682037 C49.5280526,209.367631 46.1533349,182.619393 52.2622773,157.736937 C57.9627382,134.521782 72.1443775,114.030417 92.447715,98.333673 C127.302216,71.3854505 175.652016,57.4889798 226.951653,57.0103951 L228.50708,57 L229.999719,57 Z" id="hair" fill="#ECDCBF" blush:i="0.1.0.1"/><path d="M43.6094,331.4958 C45.9184,330.9158 47.1584,334.0188 45.1984,335.2658 C32.7544,343.1808 19.8994,350.2498 7.8784,358.8618 C-3.55513571,367.048586 -14.1155452,376.374434 -23.9633265,386.400889 L-25.0546,387.5178 C-33.9576,396.6768 -43.8176,408.3288 -43.9176,421.8398 C-43.9946,432.3418 -35.8976,443.8048 -24.6006,442.4248 C-20.3446,441.9048 -16.4326,447.3048 -17.9176,451.1978 L-19.4800821,455.300934 C-25.765693,471.905778 -32.1608833,490.719646 -27.1957747,508.189456 L-27.0136,508.8128 C-25.8126,512.8128 -24.5466,516.3478 -19.9036,516.2678 C-15.5946,516.1918 -11.1106,514.7388 -7.0766,513.3518 C1.2944,510.4728 8.8804,505.6718 15.3194,499.6338 C21.0148105,494.293611 28.2914,499.719145 27.5246144,506.505755 L27.4974,506.7228 C26.4484,514.3388 38.5814,517.8748 44.0974,516.7858 C54.9884,514.6318 62.7534,503.7198 68.9384,495.4008 C71.9114,491.4038 79.1324,489.8298 81.7444,495.4008 C86.9204,506.4358 97.5894,514.6838 110.0704,515.0298 C116.5534,515.2088 122.7734,513.3638 128.2644,509.9418 C130.505631,508.544262 132.509986,506.882581 134.348253,504.999231 L134.8044,504.5238 C137.5244,501.6408 139.4014,500.1078 142.8754,498.2248 C146.2984,496.3698 150.7264,498.6698 150.705548,502.7168 C150.6774,507.9588 149.1414,511.4438 145.5264,515.2458 C142.5354,518.3948 138.9814,521.1588 135.2454,523.3678 C127.7374,527.8038 118.8114,530.2998 110.0704,530.0108 C96.2924,529.5548 83.1414,522.6878 74.6164,512.0078 C65.9124,522.4148 55.1154,531.9768 41.0844,531.7198 C30.5804,531.5278 20.7914,526.0598 16.1014,517.5878 C9.4804,522.1528 2.2134,525.7218 -5.5606,528.0528 L-6.25331276,528.257519 C-17.257271,531.459806 -29.9207134,532.732821 -37.0036,521.8088 C-43.6536,511.5528 -44.1496,497.3498 -42.6256,485.6268 C-41.2646,475.1548 -38.0426,465.2098 -34.3426,455.4008 C-44.8746,452.2558 -53.0496,442.3628 -55.8576,431.6988 C-60.1056,415.5728 -51.8646,399.9338 -41.6766,387.9518 C-30.6096,374.9358 -16.6806,363.9268 -2.6476,354.2908 C11.3484,344.6818 27.0274,335.6518 43.6094,331.4958 Z M403.4792,205.3635 C403.5052,204.9155 404.2392,204.7585 404.3072,205.2505 C409.1412,240.3285 411.9402,275.3355 414.2572,310.6545 C415.4322,328.5475 416.7662,346.4225 418.2262,364.2935 C419.6272,381.4305 421.9592,399.0235 421.4322,416.2305 C420.6072,443.1745 407.5232,465.0825 386.0692,480.8485 C365.5122,495.9575 340.0102,503.4275 314.9892,506.5835 C300.4582,508.4165 285.7252,508.5045 271.1782,506.7825 C263.622887,505.888125 256.077243,504.697559 248.677222,502.91005 L245.477655,502.109612 C239.650051,500.62131 233.143109,498.601227 232.3122,491.6985 C231.9092,488.3555 233.6852,485.8895 236.5532,484.2115 C240.2922,482.0235 244.5792,483.3115 248.4322,484.3085 C254.9252,485.9885 261.4872,487.4305 268.1232,488.4275 C282.3762,490.5715 297.0282,490.6985 311.3542,489.2145 C335.4522,486.7165 360.8722,478.9005 379.4522,462.7585 C387.5272,455.7445 394.5482,447.1975 398.2412,437.0435 C402.9892,423.9895 402.2862,409.7485 402.1272,396.0785 C401.7582,364.2935 402.0832,332.5085 401.6412,300.7205 C401.1972,268.8355 401.5842,237.2015 403.4792,205.3635 Z M161.1453,56.8189 C189.3033,49.5569 217.8803,47.6699 246.8043,49.8559 C274.0813,51.9159 305.1543,58.0189 327.4323,74.7959 C328.5133,75.6099 327.8663,77.1509 326.5283,76.9379 C311.6343,74.5639 297.1163,70.2459 282.2863,67.3889 C268.0223,64.6409 253.5013,62.5779 238.9773,62.0999 C189.8553,60.4809 135.1963,71.6119 95.5863,102.2369 C77.0133,116.5959 62.8393,135.9039 57.1983,158.8769 C51.4133,182.4399 54.5433,207.9219 66.1603,229.2369 C67.8333,232.3059 67.1433,237.1609 63.6533,238.7949 C53.0633,243.7529 45.5203,254.7369 45.6843,266.5899 C45.7633,272.3389 47.7453,277.8519 50.9303,282.6039 C54.2983,287.6289 59.4253,291.1449 63.1923,295.8379 C64.6753,297.6859 64.7323,300.2309 63.5573,301.9329 C65.7603,302.8979 68.1363,303.4159 70.3043,304.5559 C72.1423,305.5229 72.1943,308.5419 70.3043,309.4939 C65.5243,311.9009 60.3563,309.3459 57.1303,305.4649 C56.5543,304.7719 56.0563,304.0509 55.6023,303.3149 C51.7383,302.4959 48.2763,300.5569 45.2533,297.9049 C39.4933,301.3539 38.7043,309.0319 43.6523,314.8989 C46.1792231,317.894092 49.7693858,319.742835 53.3977754,321.07187 L53.8333,321.2289 C57.3643,322.4829 60.5983,323.1829 62.8923,326.0079 C64.4053,322.8539 66.1423,319.8809 68.0783,317.1719 C75.1173,307.3249 85.9373,298.5889 98.7763,299.6979 C108.8333,300.5649 117.5463,307.7649 119.6073,317.6989 C119.7593,318.4339 118.6513,319.0079 118.3213,318.2409 C113.4963,306.9899 98.2293,306.5769 89.1353,312.4399 C78.4403,319.3359 72.5953,332.3309 70.2503,344.4339 C67.9423,356.3559 69.2763,370.8559 78.1993,379.9239 C81.8503,383.6349 86.8173,386.2009 92.0013,386.8769 C94.5353625,387.208775 96.7705969,386.882349 99.1939721,386.394479 L100.799972,386.058931 C101.91405,385.828587 103.0218,385.6424 104.1903,385.7459 L105.9313,385.9799 L105.9313,385.9799 L106.920693,386.442598 C107.778564,386.828167 107.700945,386.722577 106.6883,386.1249 C109.6463,385.8829 111.1753,388.0689 111.3373,390.4659 C111.4313,390.5259 111.5223,390.5909 111.5983,390.6839 C122.8243,404.4219 131.1593,420.2129 143.0723,433.5009 L146.559673,437.393567 C155.524917,447.366424 165.759885,458.1785 177.938844,463.352119 L179.388203,463.951735 C182.931451,465.448238 186.489567,467.496967 186.9413,471.7679 C187.3463,475.5939 184.3303,478.4729 180.8533,479.3659 C172.9353,481.3969 163.9093,474.3599 158.1103,469.7429 C145.6403,459.8179 135.1603,447.1659 126.5053,433.8539 L125.649742,432.528118 C118.534982,421.416922 111.848185,408.7444 109.7703,395.5569 L109.395534,396.164541 C109.367487,396.207775 109.34555,396.2404 109.3313,396.2599 C108.9073,396.8359 108.4403,397.3219 107.8983,397.7879 C106.4423,399.0449 104.6663,399.7789 102.8213,400.2769 C99.3583,401.2119 95.5613,401.3959 92.0013,401.0319 C84.7703,400.2929 78.0113,397.5409 72.2953,393.0589 C54.8913,379.4099 52.8363,354.0119 59.8753,333.4069 C54.0993,334.7859 47.5203,330.8989 43.0103,327.5679 C37.8383,323.7459 33.5733,318.2289 32.5543,311.7389 C31.5423,305.2989 35.6483,296.7709 41.7383,294.2859 C35.4193,286.6989 31.7403,275.9319 31.3603,267.3109 C30.7003,252.3149 38.6673,238.1409 50.8993,229.9589 C39.3963,205.3079 37.1803,176.7089 44.9253,150.5349 C60.2943,98.5959 111.7783,69.5509 161.1453,56.8189 Z M117.3245,451.4424 L117.468186,450.986222 C118.6935,446.969425 120.275386,438.979476 126.2765,442.0214 C132.0095,444.9264 128.3495,453.5254 126.3445,457.7114 C123.9455,462.7204 119.8025,466.7364 114.2385,467.8124 C109.7125,468.6874 104.7425,467.5634 101.5765,464.0664 C100.6535,463.0474 100.1325,461.9294 99.5855,460.6954 C99.3725,460.2154 99.2765,459.8864 99.2365,459.6724 C99.1845,459.9074 99.0365,460.2574 98.6585,460.6694 C96.1325,463.4294 93.7465,466.6424 91.9135,469.9074 C91.4795,470.6794 90.1115,470.1384 90.4575,469.2934 C92.5925,464.0714 92.2335,455.9964 96.9925,452.2194 C101.187178,448.889807 105.128662,451.51027 107.347287,455.387744 L107.4605,455.5894 C110.7035,461.4774 115.8715,455.8854 117.3245,451.4424 Z M71.6954,432.5743 L72.1335359,431.965996 C76.6186633,425.836182 84.1826903,418.462332 91.7514,424.1633 C94.1584,425.9763 94.2474,429.0023 91.7514,430.8013 L90.8070147,431.47564 C87.500451,433.819582 84.2080957,436.033474 81.7794,439.3953 C79.1404,443.0503 76.7704,446.9203 73.2224,449.7873 C66.9474,454.8573 56.8064,455.8573 51.3614,449.0223 L50.825801,448.343988 C50.37029,447.75757 49.8476,447.0512 49.4234,446.3463 L49.092848,446.804004 C49.060584,446.849892 49.030272,446.893716 49.002376,446.935068 L48.9264,447.0513 C46.6884,450.6273 43.8614,453.5723 40.3404,455.8963 C33.6484,460.3113 26.1074,460.9253 18.5364,458.5883 C17.7954,458.3583 17.9944,457.3653 18.7114,457.2993 C27.6824,456.4613 36.4234,450.0883 40.0724,441.8813 L40.4844946,440.960214 C41.9610653,437.695587 43.6154,434.593129 47.2634,433.3113 C50.8144,432.0633 54.5424,433.3813 56.9774,436.0673 C59.0134,438.3123 59.5374,442.7753 63.2104,441.7913 C67.2324,440.7133 69.4964,435.6763 71.6954,432.5743 Z M46.0004,378.051 C47.9874,376.541 51.0994,378.161 51.6464,380.349 C54.1254,390.255 43.8294,401.928 33.9354,402.235 C31.3884,402.313 28.9384,401.697 26.6824,400.518 C24.9324,399.604 22.8614,397.268 20.9404,396.881 C18.4594,396.382 16.2614,399.686 14.5144,401.382 C12.3474,403.487 10.2034,405.441 7.7754,407.235 C6.8054,407.952 5.3004,406.748 5.7104,405.647 L6.53169186,403.457912 C9.5046028,395.666224 14.6251,384.29177 24.2074,387.525 C28.9024,389.109 32.4364,394.451 37.3804,390.221 C41.3394,386.834 41.7084,381.312 46.0004,378.051 Z M88.2791,338.1718 C97.2121,327.9178 118.2111,333.3338 122.1931,345.8088 C123.0731,348.5638 122.1551,352.1448 120.0031,354.0948 C117.1681,356.6638 113.1241,357.4418 109.6821,355.4268 C106.7201,353.6938 105.5041,350.8578 103.3271,348.4248 C100.1341,344.8598 95.7911,342.8808 91.3161,341.4628 C90.1971,342.0508 89.1561,342.8238 88.2221,343.7558 C87.7441,344.2328 86.8411,343.5788 87.2651,343.0168 C87.8411,342.2528 88.5451,341.5338 89.3461,340.8708 L88.9611,340.7578 L88.9611,340.7578 C87.7831,340.4298 87.5281,339.0358 88.2791,338.1718 Z M146.3364,224.957413 C148.3384,224.9605 150.6704,226.8405 150.4144,229.0355 L150.337087,229.64496 C149.76096,233.82381 148.418218,236.189955 144.2354,238.1315 C140.6864,239.7765 136.9584,240.6855 133.0684,241.0455 C131.5964,241.1815 130.0384,241.1895 128.4594,241.0725 L128.126872,242.990797 C127.466033,246.827194 126.855257,250.666214 126.7404,254.5765 C126.5264,261.8255 129.2314,267.7995 132.1324,274.2715 C137.7014,286.7035 138.3274,299.1135 132.2644,311.5275 C131.3774,313.3425 128.8664,314.8225 126.8404,314.6385 C124.2134,314.4005 122.9444,313.6405 121.4164,311.5275 C120.132936,309.753214 120.426492,307.245279 121.31525,305.389898 L121.4164,305.1865 C124.4714,299.2675 125.4344,292.5805 123.8744,286.0745 C122.4084,279.9595 119.0874,274.4635 117.6044,268.3675 C115.1884,258.4375 117.7614,248.5875 122.7894,240.0685 C118.9944,238.9755 115.4844,237.0275 113.1424,234.0565 L113.1524,234.0525 L113.1524,234.0525 C112.2584,233.0975 112.7464,231.1025 114.3154,231.2225 L116.089802,231.365795 C121.165463,231.790032 125.837641,232.231259 130.9704,230.8165 C133.601467,230.090367 135.872764,228.879896 138.13146,227.414363 L138.6154,227.0965 C141.4414,225.2185 143.0084,224.9535 146.3364,224.957413 Z M158.4838,151.5647 C171.2078,150.8417 182.0708,159.2387 187.3518,170.4167 C193.088129,182.552152 190.681229,196.476566 185.618279,208.416367 L184.179802,211.758133 C181.662011,217.54789 178.356404,224.433096 173.1998,227.5397 C167.4078,231.0297 162.4008,226.9827 164.1088,220.5497 C165.1268,216.7187 167.8818,213.7637 170.1108,210.6017 C172.1908,207.6487 174.1318,204.5927 175.8338,201.4047 C179.1678,195.1527 181.6568,188.1867 181.6298,181.0237 C181.5828,167.9497 172.9448,152.9667 158.4838,153.1587 C157.4508,153.1707 157.4678,151.6217 158.4838,151.5647 Z M222.8367,130.4691 C222.0437,129.8671 222.7527,128.5281 223.6397,129.0931 C238.3947,138.4771 249.4117,156.1041 251.6297,173.4211 C252.8607,183.0291 251.9207,193.2971 247.8287,202.1641 C245.4817,207.2521 241.4537,212.1091 235.8217,213.5041 C230.6437,214.7851 225.3067,211.8281 223.6997,206.7741 C223.0767,204.8131 224.1487,202.7621 225.7677,201.6911 C231.0177,198.2201 235.2447,193.8401 237.7177,187.9481 C240.2907,181.8221 241.3167,175.3211 241.3477,168.7131 C241.4237,153.2381 235.2477,139.9011 222.8367,130.4691 Z M403.0771,137.1762 C402.3941,136.4192 403.2531,135.3032 404.1571,135.7772 C414.8241,141.3872 421.6021,152.1332 423.5441,163.9022 C425.4471,175.4242 422.8871,191.1102 413.9681,199.4432 C408.9351,204.1472 399.9191,197.8912 404.1031,191.8322 C407.0531,187.5592 410.2421,184.0402 411.9311,178.9912 C413.4371,174.4862 413.9701,169.9432 413.8881,165.2092 C413.7091,154.8812 410.0191,144.8762 403.0771,137.1762 Z M272.6596,122.748 C290.8846,121.88 301.9296,142.685 304.4596,158.192 C306.0216,167.773 304.8476,177.641 299.5576,185.951 L299.244641,186.434778 C294.879853,193.07325 286.944052,200.716333 278.3936,197.573 C274.7746,196.244 273.8116,192.367 276.2426,189.426 C279.9626,184.924 285.7126,183.089 289.2106,178.282 C293.1346,172.891 294.4206,166.137 294.1936,159.581 L294.162765,158.856818 C293.554729,146.797451 287.80256,123.65136 272.6596,124.061 C271.8106,124.083 271.8206,122.787 272.6596,122.748 Z M329.6664,119.2912 C347.2944,117.0382 358.0294,137.7762 361.3404,152.0622 C363.4084,160.9932 363.8604,170.9562 361.2154,179.8202 L361.018248,180.451634 C358.865189,187.067079 352.512989,198.401958 344.2204,195.0212 C341.9484,194.0952 339.6294,191.5722 340.7174,188.8522 C342.1064,185.3752 344.1114,184.4732 346.7834,182.2482 C348.8414,180.5352 350.2784,178.0762 351.3364,175.6542 C354.1544,169.1992 354.7824,161.6582 354.3974,154.7022 L354.344363,153.878913 C353.348433,140.292148 345.98144,120.0438 329.6664,120.4162 C328.9214,120.4332 328.9724,119.3792 329.6664,119.2912 Z M361.9394,99.795 C371.7504,96.059 379.7884,105.44 385.4284,112.135 C392.4934,120.524 398.9024,129.561 402.5254,140.004 C405.7524,149.309 406.3204,159.655 403.4134,169.127 C401.9744,173.817 399.7324,178.166 396.6724,181.994 L396.281728,182.476828 C393.096987,186.360081 390.022459,188.746255 384.8054,187.356 C382.6824,186.789 381.7854,184.69 382.1524,182.684 C382.9384,178.398 385.1474,177.285 388.0084,174.293 C390.5314,171.654 392.4034,168.404 393.6624,164.987 C396.2584,157.938 396.3934,150.301 394.6504,143.039 C392.700633,134.909333 388.862354,127.402007 384.421857,120.367073 L383.463946,118.860251 C378.759332,111.422735 372.050952,99.9691034 362.1264,101.176 C361.2764,101.28 361.2654,100.051 361.9394,99.795 Z" id="Ink" fill="#000" blush:i="0.1.0.2"/></g></g><g id="Face" transform="translate(531.000000, 366.000000) scale(1 1)" fill="#000" blush:width="289" blush:height="293" blush:component="Face" blush:i="0.2" blush:value="Cheeky" blush:viewBox="52.90517241379308 55.670000000000016 184.65517241379308 205.10000000000002"><g id="Face/Cheeky" stroke="none" stroke-width="1" fill="none" fill-rule="evenodd" blush:viewBox="52.90517241379308 55.670000000000016 184.65517241379308 205.10000000000002" blush:i="0.2.0"><path d="M166.9438,221.352 C168.4778,218.685 172.0098,216.214 175.2418,216.593 C189.7208,218.291 189.6958,235.845 184.1048,246.093 C179.1478,255.18 168.8888,260.514 158.6208,259.735 C147.8338,258.916 138.6428,252.574 134.5978,242.483 C131.9228,235.808 130.6868,223.485 137.8028,219 C137.9348,218.916 138.1528,218.937 138.2578,219.058 C141.6698,223.027 141.8038,228.986 144.7908,233.405 C147.5688,237.515 151.8848,240.909 156.9408,241.433 C160.7168,241.825 164.5368,240.463 166.0138,237.073 C166.812891,235.239364 166.721899,234.243744 166.421516,232.981708 L166.148563,231.885055 C165.202801,228.043565 164.778057,225.118714 166.9438,221.352 Z M170.814304,144.367155 C178.365682,148.9572 189.871664,159.660291 181.748119,171.039573 C172.185929,181.073062 158.418535,169.568982 151.634201,164.366134 C145.343449,160.333898 138.275437,170.704507 144.112,175.412823 C193.135736,211.708059 213.030606,145.567387 174.633685,138.970386 C170.406047,138.243425 168.835891,142.947174 170.814304,144.367155 Z M91.0715,112.8926 C95.7065,105.9386 106.2865,106.9626 108.8395,115.2146 C110.2225,119.6846 108.3125,123.7026 108.4115,128.1666 C108.4945,131.9376 108.2475,136.1396 107.0915,139.7916 C104.4555,148.1196 96.9655,154.0016 88.1045,153.7576 C79.2725,153.5146 71.4935,147.9246 67.7945,140.0516 C64.0825,132.1486 64.8685,123.9696 67.5785,115.9336 C67.7085,115.5476 68.2145,115.3606 68.5195,115.6856 C71.7228333,119.089767 74.0678333,122.683517 76.4943148,126.495785 L78.9809333,130.40279 C80.8812656,133.344819 83.6431037,137.103142 87.1914615,136.867072 L87.7238987,136.814547 C88.7099852,136.729908 88.5588846,136.9256 89.3195,135.5816 C89.6715,134.9596 89.6075,133.8036 89.7775,133.0696 L89.8365,132.8216 L89.8365,132.8216 L89.8043384,132.68798 C89.7292832,132.332503 89.6547866,131.66266 89.5942529,130.500284 L89.5815,130.2436 C89.3245,124.8066 87.7875,117.8196 91.0715,112.8926 Z M208.5632,117.5221 C207.7322,108.6281 220.2362,106.6531 224.3932,113.2341 C226.561303,116.665997 227.192546,120.977055 227.67203,125.0615 L227.8962,127.0001 C228.3882,131.1951 228.5832,135.5591 226.7622,139.4721 C223.8942,145.6351 217.6572,148.8931 210.9292,148.3771 C204.5042,147.8831 198.6422,144.1581 195.5522,138.5031 C192.7972,133.4571 190.0582,123.6051 193.4042,118.3421 C193.6062,118.0231 194.0102,117.9821 194.2872,118.2281 C197.4492,121.0351 197.9642,126.1551 199.8442,129.8121 C201.7832,133.5841 204.7242,137.2601 209.1812,137.8331 C213.4452,138.3811 215.0742,136.0521 213.9862,131.9871 C212.5832,126.7391 209.0912,123.1691 208.5632,117.5221 Z M94.4489,60.0159 L96.4937284,59.2327124 C103.499922,56.5860716 113.118768,53.5268605 118.8149,59.2239 C122.3289,62.7369 122.9979,67.9119 120.4899,72.1989 C117.4509,77.3919 111.9999,77.5199 106.7359,78.2849 C100.7489,79.1549 94.6599,80.8089 89.0859,83.1669 C82.8069,85.8239 76.9799,89.1359 71.2709,92.8349 C65.8449,96.3499 60.4379,102.0949 53.9429,103.1779 C53.6779,103.2219 53.3769,103.1079 53.3079,102.8169 C51.8329,96.4669 55.9319,90.2179 59.5899,85.2639 C64.0159,79.2659 69.3789,74.3429 75.3729,69.9289 C81.1579,65.6679 87.7679,62.5889 94.4489,60.0159 Z M221.7162,82.5925 L222.340762,82.4830541 C226.589355,81.7757704 230.439386,81.9386395 233.6412,85.3035 C236.0852,87.8705 237.0272,91.1975 235.8622,94.5915 C234.7872,97.7225 232.3832,100.9035 228.8942,101.5595 C217.1152,103.7755 204.0682,103.4095 192.2302,101.7315 C186.814067,100.963367 181.349151,100.023624 176.073673,98.5415284 L173.646557,97.8379125 C169.242357,96.5798884 164.200291,95.2655909 161.0012,92.0265 C159.8512,90.8625 160.5142,89.1965 161.8902,88.6575 C167.4722,86.4715 175.1232,87.6345 181.0752,87.4635 C187.9992,87.2655 194.9342,86.7465 201.8252,86.0315 C208.5592,85.3315 215.0752,83.8105 221.7162,82.5925 Z" id="Ink" fill="#000" blush:i="0.2.0.0"/></g></g><g id="Beard" transform="translate(494.999934, 517.999659) scale(1 1)" fill="#000" blush:width="280" blush:height="230" blush:component="Beard" blush:i="0.3" blush:value="None" blush:viewBox="490 402.5 0 0"><g id="Beard/None" stroke="none" stroke-width="1" fill="none" fill-rule="evenodd" fill-opacity="0" blush:viewBox="490 402.5 0 0" blush:i="0.3.0"/></g><g id="Mask" transform="translate(400.000000, 480.000000) scale(1 1)" fill="#000" blush:width="397" blush:height="228" blush:component="Mask" blush:i="0.4" blush:value="None" blush:viewBox="694.75 399 0 0"><g id="Mask/None" stroke="none" stroke-width="1" fill="none" fill-rule="evenodd" fill-opacity="0" blush:viewBox="694.75 399 0 0" blush:i="0.4.0"/></g><g id="Accessories" transform="translate(419.000000, 421.000000) scale(1 1)" fill="#000" blush:width="392" blush:height="138" blush:component="Accessories" blush:i="0.5" blush:value="Glasses 4" blush:viewBox="-11.760000000000048 6.272727272727266 415.5199999999999 125.45454545454542"><g id="Accessories/Glasses 4" stroke="none" stroke-width="1" fill="none" fill-rule="evenodd" blush:viewBox="-11.760000000000048 6.272727272727266 415.5199999999999 125.45454545454542" blush:i="0.5.0"><path d="M370.267229,94.0812186 C361.087518,105.550169 325.150885,118.280642 306.024457,104.460924 C286.89803,90.6412047 279.339478,81.010236 276.782894,63.7418278 C276.51029,61.9005247 273.181038,60.6757933 271.773574,61.9830996 C263.892542,69.3032997 258.790943,78.6267129 253.736631,87.9739798 C248.036181,98.5161913 242.421537,109.123108 232.062291,116.259689 C213.713905,126.095013 180.520036,127.495741 170.713277,123.157318 C151.927276,114.846558 137.066708,97.0725316 133.687387,72.6128057 C131.395829,65.3796109 129.246349,61.0020129 127.238947,59.4800116 C124.384546,57.3158209 108.631937,55.3878277 106.906249,55.0676312 C75.8071363,49.2972786 36.4749058,45.6190335 8.77600719,65.9200219 C5.02749548,68.1858834 -7.80539205,76.6985178 -7.99790561,74.60536 C-8.12928599,66.4063563 1.16220359,47.8487707 22.2939084,39.0185659 C48.4257396,28.098982 87.2707875,27.4603638 109.774665,29.8701917 C110.906452,29.9913891 114.764588,29.0433611 115.037186,28.9253388 C149.130646,14.1644408 188.359486,18.0847288 224.839489,24.2887991 C230.066858,25.3031978 276.863504,36.8905006 295.477887,29.8701917 C326.25407,17.3061158 359.067147,8.2038606 392.30185,11.7849229 C392.579752,11.8148671 396.775316,37.2812197 393.50699,39.0185659 C390.906064,40.4011413 386.480238,43.9439017 384.907987,45.8827637 C383.502453,47.6160336 382.61672,49.7708648 382.69528,52.7561081 C383.327324,70.0252897 378.399915,83.920401 370.267229,94.0812186 Z M243.72836,78.6720803 C247.630761,73.0270335 248.862219,60.3460528 247.228404,51.0948644 C246.401153,46.4106974 244.794863,42.6821957 242.779067,40.8261969 C241.439156,39.5925037 239.910346,39.0117383 238.243089,39.0979354 C237.328973,39.1451951 236.338477,39.4051824 235.290511,39.9705735 C221.097217,32.2929564 203.902812,29.5286089 187.604096,30.323616 C174.629301,30.3211866 165.372072,33.3837093 159.0944,38.1509351 C151.540713,43.8871592 148.137536,52.1332968 147.940635,61.0762046 C147.706992,71.6878578 152.06617,83.2970102 159.216953,92.4828862 C166.061287,101.275098 175.424043,107.793236 185.581316,109.297105 C197.111926,111.586016 208.862264,109.37159 219.07862,103.95477 C229.556845,98.3991036 238.407944,89.4765185 243.72836,78.6720803 Z M357.507438,84.6585403 C364.084035,76.8869454 368.457047,66.7766474 369.122697,56.7593194 C369.728486,47.6428312 367.287306,38.6124814 360.537606,31.1497224 C354.418516,25.8975011 343.605727,25.8104772 332.231167,28.7352865 C317.523167,32.5172431 302.307464,40.969058 297.23517,46.4275624 C296.040378,47.0540173 294.931407,48.1449237 293.965307,50.4849258 L293.958397,51.3191347 C292.421839,58.4056844 293.333557,65.5970212 295.991544,72.2310611 C298.878802,79.4373326 303.830659,85.9791775 309.868491,90.9705601 C317.890232,97.5784779 326.26399,99.6013328 334.1016,98.5342588 C342.979407,97.325564 351.234778,92.0709712 357.507438,84.6585403 Z" id="Background" fill="#FFF" blush:i="0.5.0.0"/><path d="M294.4196,27.0634 C325.5846,14.3394 358.8976,5.1684 392.6236,8.8024 C395.4126,7.7414 398.8746,8.6354 400.1106,12.5794 C412.1236,49.1744 385.3346,38.9974 385.6946,52.6774 C388.5026,129.3804 285.4076,142.4794 273.8156,64.1814 L273.6026,64.3074 L273.6026,64.3074 C256.9246,79.8704 253.4116,105.1954 233.7646,118.7304 C194.1316,147.7154 137.9496,124.7504 130.7336,73.1504 L130.576211,72.452332 C128.153961,61.9216159 125.257898,59.3105277 113.3116,59.3624 L111.424306,58.9874342 C80.385228,52.872048 39.05216,47.3766 10.4636,68.4074 C4.2456,72.0234 3.9536,81.3194 -1.3004,85.3584 C-7.0564,86.4764 -10.6024,79.5534 -10.9924,74.7624 C-11.9044,26.9994 73.5656,23.5634 111.8436,27.6624 C112.5746,26.9054 114.1356,26.9994 114.6616,27.9424 C149.2796,12.9544 188.2806,15.0284 225.3466,21.3314 C248.3076,25.7764 270.9856,35.9014 294.4196,27.0634 Z M389.5206,17.6204 C370.8196,16.6854 353.5216,17.7084 335.1656,22.2034 C325.4916,24.5374 318.0676,27.4884 308.8076,31.0374 C251.0496,56.6264 244.3876,11.1414 114.9196,28.9714 C116.5946,36.1454 116.9026,43.2484 116.9926,49.9884 C143.42758,48.92316 137.203668,74.1647841 147.107497,91.894471 L147.4126,92.4294 C161.8466,118.2974 195.9066,130.3634 223.3816,113.2054 C246.3036,99.8454 248.5396,65.9604 271.3616,52.5124 C291.1446,51.7344 283.2426,78.4344 294.0086,89.4084 C309.1626,109.6294 341.3736,112.4564 360.3756,93.4364 C369.2906,84.2844 374.0286,72.6644 374.2906,60.1804 C374.7876,52.2044 373.4196,44.0994 379.4496,38.4894 C383.6766,34.1954 391.1866,35.6284 392.0486,29.1374 C392.5966,25.2994 391.0006,21.1364 389.5206,17.6204 Z M186.28,28.0747 C204.857,27.1597 224.513,30.3857 240.464,39.4967 C252.271,30.1007 255.164,67.4427 247.327,78.2437 C236.036,101.3457 209.749,116.5347 184.438,111.4907 C144.952,105.7687 117.44,28.0057 186.28,28.0747 Z M239.33,42.0007 L238.319634,41.8530365 C221.207242,39.24197 174.61224,27.14534 156.641,46.2377 C139.2,77.9067 183.447,131.1007 229.492,88.7307 C242.307,75.6837 247.274,59.8627 239.33,42.0007 Z M293.5595,46.0482 C302.4215,35.5552 347.5865,14.3012 363.3295,27.9402 C392.0625,60.1412 346.4955,125.2742 308.3295,93.5412 C295.6175,82.9342 287.2545,66.0342 290.9145,49.6692 L290.92013,48.9832 C290.928056,48.7345333 290.9745,48.7912 291.2405,48.4812 C291.7115,47.2442 292.5595,46.4542 293.5595,46.0482 Z M362.9285,65.5652 C372.6185,13.0082 332.1195,32.9882 298.8595,47.0162 C300.6445,48.6472 300.6365,50.8742 300.1235,52.7042 C296.6155,91.7002 344.0125,113.7982 362.9285,65.5652 Z M111.1716,30.2164 C97.2986,34.9144 5.5376,26.5124 -2.9394,69.5264 C6.0086,55.0294 24.5406,49.2764 41.2006,46.1544 C63.8616,41.9074 86.3986,44.3664 108.7416,48.8354 L109.203057,44.2113617 C109.698597,39.3065938 110.221071,34.7182235 111.1716,30.2164 Z" id="Ink" fill="#000" blush:i="0.5.0.1"/></g></g></g></svg>