<svg width="257" height="263" viewBox="0 0 257 263" fill="none" xmlns="http://www.w3.org/2000/svg">
<path d="M171.549 109.975C171.372 107.197 171.894 104.166 173.64 102.201C175.376 100.224 178.337 99.3128 181.397 98.9398C184.457 98.5667 187.601 98.7612 189.475 100.388C191.337 102.023 191.913 105.119 192.583 108.017C193.241 110.924 194.001 113.644 193.371 116.125C192.731 118.594 190.689 120.832 188.121 122.252C185.549 123.694 182.451 124.317 179.919 123.45C177.378 122.572 175.404 120.205 173.995 117.757C172.577 115.296 171.726 112.753 171.549 109.975Z" fill="#9093D1"/>
<path d="M49.5847 149.316C49.2313 143.76 50.275 137.698 53.7659 133.768C57.2392 129.814 63.1596 127.992 69.2795 127.246C75.3995 126.5 81.6887 126.889 85.4364 130.142C89.1602 133.412 90.312 139.605 91.6517 145.401C92.9674 151.214 94.4886 156.655 93.2277 161.617C91.949 166.555 87.8643 171.031 82.7274 173.872C77.5841 176.754 71.3886 178 66.3248 176.268C61.2433 174.511 57.2934 169.777 54.476 164.88C51.6408 159.958 49.9382 154.872 49.5847 149.316Z" fill="#F7859C"/>
<path d="M119.586 218.317C119.232 212.761 120.276 206.699 123.767 202.769C127.24 198.815 133.161 196.993 139.281 196.247C145.4 195.501 151.69 195.89 155.437 199.142C159.161 202.412 160.313 208.605 161.653 214.401C162.968 220.215 164.49 225.656 163.229 230.618C161.95 235.555 157.865 240.032 152.728 242.872C147.585 245.754 141.39 247 136.326 245.268C131.244 243.512 127.294 238.778 124.477 233.88C121.642 228.958 119.939 223.873 119.586 218.317Z" fill="#F7859C"/>
<path d="M85.3289 65.3226C84.7902 56.6459 86.437 47.1756 91.9045 41.029C97.3443 34.8448 106.605 31.9843 116.175 30.8037C125.744 29.6232 135.576 30.2152 141.427 35.286C147.24 40.3842 149.026 50.0536 151.106 59.1026C153.148 68.1791 155.513 76.6727 153.529 84.4253C151.518 92.1404 145.121 99.1421 137.083 103.591C129.035 108.105 119.346 110.067 111.433 107.374C103.493 104.644 97.3297 97.2598 92.9371 89.6175C88.5169 81.9376 85.8676 73.9994 85.3289 65.3226Z" fill="#9FD8E5"/>
<path d="M116.585 149.317C116.231 143.761 117.275 137.699 120.766 133.769C124.239 129.815 130.16 127.993 136.28 127.247C142.399 126.501 148.689 126.89 152.436 130.142C156.16 133.413 157.312 139.606 158.652 145.402C159.967 151.215 161.489 156.656 160.228 161.618C158.949 166.555 154.864 171.032 149.727 173.872C144.584 176.754 138.389 178 133.325 176.268C128.243 174.512 124.293 169.778 121.476 164.88C118.641 159.959 116.938 154.873 116.585 149.317Z" fill="#FFDBB4"/>
</svg>
