<svg width="243" height="181" viewBox="0 0 243 181" fill="none" xmlns="http://www.w3.org/2000/svg">
<path d="M73.566 115.048C76.7377 119.624 78.9742 125.354 78.0141 130.522C77.0817 135.702 72.9526 140.319 68.0971 144.118C63.2415 147.918 57.6547 150.832 52.7658 149.982C47.8883 149.104 43.7039 144.396 39.5636 140.124C35.4349 135.825 31.3227 131.951 29.8403 127.051C28.3854 122.162 29.5718 116.22 32.5041 111.135C35.4203 106.011 40.0824 101.744 45.3133 100.613C50.5717 99.4926 56.3988 101.507 61.3407 104.246C66.3101 106.997 70.3942 110.473 73.566 115.048Z" fill="#9FD8E5"/>
<path d="M81.4449 31.7689C86.3868 38.9211 89.8668 47.8814 88.3588 55.9684C86.8938 64.0733 80.4407 71.3049 72.8552 77.2576C65.2697 83.2103 56.5446 87.7802 48.9157 86.4593C41.3046 85.0954 34.7824 77.7369 28.3284 71.0619C21.8923 64.3439 15.4813 58.2915 13.1767 50.6281C10.9151 42.9826 12.7778 33.6833 17.3639 25.7226C21.9249 17.701 29.2093 11.0181 37.3756 9.23791C45.5849 7.47571 54.676 10.6163 62.384 14.8926C70.135 19.1868 76.503 24.6167 81.4449 31.7689Z" fill="#9093D1"/>
<path d="M127.03 122.464C128.616 124.751 129.734 127.616 129.254 130.2C128.788 132.79 126.723 135.099 124.296 136.999C121.868 138.898 119.074 140.356 116.63 139.93C114.191 139.492 112.099 137.137 110.029 135.002C107.964 132.852 105.908 130.915 105.167 128.465C104.44 126.021 105.033 123.049 106.499 120.507C107.957 117.945 110.288 115.812 112.904 115.246C115.533 114.686 118.446 115.693 120.917 117.063C123.402 118.438 125.444 120.176 127.03 122.464Z" fill="#9093D1"/>
<path d="M158.039 16.4009C160.596 20.0889 162.399 24.7076 161.625 28.8733C160.873 33.0482 157.545 36.7702 153.631 39.8325C149.718 42.8948 145.214 45.244 141.274 44.5587C137.342 43.8514 133.97 40.0561 130.632 36.613C127.304 33.1479 123.99 30.0256 122.795 26.0758C121.622 22.1353 122.579 17.3452 124.942 13.2465C127.293 9.11641 131.051 5.67765 135.267 4.76548C139.505 3.86258 144.202 5.48627 148.185 7.69422C152.191 9.91145 155.483 12.7129 158.039 16.4009Z" fill="#9093D1"/>
<path d="M142.062 67.7897C145.234 72.3652 147.47 78.0953 146.51 83.2634C145.578 88.4431 141.449 93.0607 136.593 96.8599C131.738 100.659 126.151 103.574 121.262 102.723C116.384 101.846 112.2 97.1373 108.06 92.8657C103.931 88.5667 99.8188 84.693 98.3364 79.7928C96.8815 74.904 98.0679 68.9613 101 63.8762C103.916 58.7523 108.579 54.486 113.809 53.3543C119.068 52.2342 124.895 54.2486 129.837 56.9878C134.806 59.7386 138.89 63.2143 142.062 67.7897Z" fill="#F7859C"/>
<path d="M223.922 116.179C228.864 123.331 232.344 132.292 230.836 140.379C229.371 148.483 222.918 155.715 215.333 161.668C207.747 167.62 199.022 172.19 191.393 170.869C183.782 169.506 177.26 162.147 170.806 155.472C164.37 148.754 157.959 142.702 155.654 135.038C153.393 127.393 155.255 118.093 159.841 110.133C164.402 102.111 171.687 95.4282 179.853 93.6481C188.062 91.8859 197.154 95.0265 204.862 99.3028C212.613 103.597 218.981 109.027 223.922 116.179Z" fill="#FFDBB4"/>
</svg>
