<svg viewBox="168.44318181818176 187.5 1466.079545454546 2312.499999999999" xmlns="http://www.w3.org/2000/svg" xmlns:blush="http://design.blush" overflow="visible" xmlns:xlink="http://www.w3.org/1999/xlink" width="1466.079545454546px" height="2312.499999999999px"><g id="Master/Character/Sitting" stroke="none" stroke-width="1" fill="none" fill-rule="evenodd" blush:has-customizable-colors="true" blush:viewBox="191.48252279635244 75 1426.7325227963524 2424.9999999999995" blush:i="0"><g id="Sitting" transform="translate(-81.000000, 637.000000) scale(1 1)" blush:width="1534" blush:height="1856" blush:component="Sitting" blush:i="0.0" blush:value="Crossed Legs" blush:viewBox="270.21428571428555 -37.12000000000012 1430 1893.1199999999997"><g id="Sitting/Crossed Legs" stroke="none" stroke-width="1" fill="none" fill-rule="evenodd" blush:viewBox="270.21428571428555 -37.12000000000012 1430 1893.1199999999997" blush:i="0.0.0"><path d="M1677.94359,728.294355 C1670.31006,726.101116 1660.77304,725.537317 1652.4217,725.136669 C1622.90385,723.399839 1592.80555,737.474155 1563.86297,743.817407 C1551.19343,746.949278 1537.7782,750.637719 1524.22043,753.385463 C1512.18401,755.019034 1499.74065,756.244728 1487.23016,757.02434 C1477.11787,757.326891 1465.35101,756.552443 1461.89831,767.184076 C1441.57251,771.125504 1423.57983,772.764237 1404.20422,769.414488 C1406.01888,763.240582 1407.05273,756.786842 1405.1761,750.136909 C1406.12319,748.561164 1407.41215,746.429881 1408.10103,744.993536 L1405.77204,744.993536 C1371.7635,731.379759 1334.98806,722.082243 1300.80084,707.976949 C1256.1791,691.894229 1190.46108,660.820245 1138.90295,639.601381 C1142.398,620.459072 1143.69315,601.010081 1142.21106,582.102172 L1144.28288,580.427297 C1144.96351,576.712008 1146.02111,572.26564 1147.93802,568.898336 C1150.3703,562.444596 1150.4271,553.635499 1151.39278,546.341224 C1153.40677,532.073812 1154.7515,510.591635 1151.08604,493.651859 C1149.48517,470.679642 1134.00018,452.97058 1117.30369,438.765124 C1096.80334,418.490054 1076.27718,398.708567 1056.26432,377.650788 C945.502133,264.73099 936.742828,122.508115 763.350736,79.2835467 L763.266046,78.6123577 C761.899631,77.0882425 761.340878,75.8790698 759.784426,78.2881218 C754.059532,76.0938502 746.920714,76.2776528 742.126387,72.5685593 C733.614958,64.804452 727.576088,55.8414979 723.627636,45.2047019 C720.585996,25.0979459 722.738382,-5.89136451 705.123721,-18.7565079 C685.559105,-30.4764997 581.608335,-38.8209273 572.6435,-13.1969982 C567.081791,-7.97308287 564.551394,-1.33657299 562.813166,6.78894378 C557.021139,17.7448127 553.367039,29.8933329 547.532667,41.0175154 C535.128558,65.9681904 527.088093,60.438626 505.188282,66.1406343 C502.810742,60.842372 495.594463,61.9100787 490.335369,62.6793645 C426.64786,71.6299274 348.999791,96.0560424 321.731407,155.919902 L324.052143,155.623546 C276.983662,244.059403 307.508511,356.52589 315.926987,450.243487 C322.736336,533.548363 314.948911,617.249756 296.44293,694.953818 C273.728229,777.38718 272.424816,869.595119 317.492734,944.211712 C322.073269,952.752333 327.65047,964.822376 337.519018,959.464223 C342.926838,963.553312 349.001856,966.377469 357.392446,968.837118 C359.705952,970.515091 362.10105,973.334084 364.523001,974.538094 C364.636611,974.701245 368.535488,972.453278 368.739985,972.393387 C376.109121,982.910402 780.667947,1018.05076 822.650846,1023.50598 C859.639052,1027.96577 908.512894,1039.3543 938.655602,1012.67299 C963.565036,1005.55528 989.63019,987.026339 1009.53667,968.628534 C1021.61647,1143.82228 1028.29672,1502.61821 1039.07518,1505.11813 C1043.79204,1506.71659 1050.15935,1508.63206 1055.49797,1510.16237 C1055.52999,1522.74871 1056.46675,1537.0502 1055.47731,1549.42383 C1053.82274,1563.40005 1049.62952,1579.90097 1047.73223,1594.59175 C1039.57816,1594.04653 1037.17996,1602.22575 1036.23081,1607.78216 C1029.19217,1653.68012 1029.4008,1690.68432 1029.90585,1741.13295 C1112.67565,1789.88811 1209.68177,1816.70056 1302.81587,1848.2103 C1311.73629,1854.91393 1331.06646,1847.66303 1341.36672,1845.85082 C1377.12691,1838.80953 1417.76095,1817.98202 1408.73415,1779.79446 C1402.12517,1751.04176 1374.37549,1734.49747 1351.01631,1717.58144 C1325.46034,1699.06592 1298.51936,1680.56486 1275.01662,1658.51888 C1256.16154,1640.75509 1242.08014,1626.97506 1226.35553,1606.92923 C1219.38093,1597.60693 1211.94363,1582.2904 1202.56154,1575.41846 C1212.47347,1563.66026 1192.44615,1574.68118 1184.86425,1575.36063 C1180.40353,1554.36481 1174.88106,1534.20642 1168.25865,1514.06559 L1174.69619,1514.35679 C1195.83172,1494.61763 1207.68017,1399.85505 1209.15193,1371.74256 C1219.74655,1188.47493 1219.49454,977.244535 1176.9942,822.902053 C1209.2769,842.782669 1244.67767,859.387884 1276.78273,879.04959 C1297.02694,890.910015 1317.56756,907.377895 1340.26058,913.128435 C1341.73854,917.37448 1347.14945,919.024572 1350.10227,914.867331 C1354.16433,915.368141 1359.39761,913.68294 1359.84482,911.831491 C1363.9988,903.336304 1370.01804,894.181287 1369.29404,884.949857 C1369.29301,884.949857 1363.71994,872.01966 1363.71994,872.01966 C1376.20667,877.096947 1389.78303,887.778144 1403.11254,888.757048 C1430.03596,978.664357 1483.08238,928.299371 1534.12719,893.308741 C1564.93297,871.782163 1598.63063,848.010715 1631.05069,825.059151 C1658.55662,803.177358 1712.25681,782.413869 1685.93242,739.071584" id="Skin" fill="#ffdbb4" blush:color="Skin-500" blush:i="0.0.0.0"/><path d="M497.618553,67.9981431 C500.014371,68.4959787 501.574652,71.0192307 502.868743,73.6288423 L503.132875,74.1693581 L503.677274,75.3155539 C516.515098,114.119667 557.255755,135.76923 593.987516,150.173324 L596.231119,151.046238 L598.508494,151.918828 C658.512643,178.562951 758.086818,166.139962 767.381811,88.2863428 C907.985222,125.65641 946.077459,283.863309 1035.61259,380.210077 C1056.59572,403.753096 1078.64385,426.302647 1100.1213,449.380397 C1106.89518,456.028274 1113.09013,466.013502 1122.55643,468.362542 C1128.23229,477.281056 1132.30136,487.373574 1133.00001,497.918981 C1102.59565,484.326998 1068.27873,490.783344 1036.09616,501.074427 C1026.70526,504.077373 930.126369,551.820564 873.882407,540.470798 C871.008678,539.890893 876.436304,653.639958 870.825423,655.169221 C822.165549,668.431627 673.636431,681.633135 643.862608,673.759708 C542.294957,646.901029 388.09808,1018.54899 331.436018,951.506312 C317.166657,934.622772 280.469957,867.047307 281,793.111499 C281.577462,712.561201 320.114498,622.80307 321.000007,540.470798 C322.336247,416.230912 305.401271,342.518806 304.678562,332.732017 C292.340276,241.69406 307.135693,121.558743 409.744904,91.931121 C437.50295,79.208957 467.416791,70.9754513 497.618553,67.9981431 Z M1127.97375,515.998143 C1136.00546,521.721011 1137.69957,530.575644 1136.77087,540.470798 C1136.40348,544.316647 1135.92382,548.162496 1135.43396,551.998143 C1125.3438,541.51234 1110.37442,537.798086 1096.00001,536.655553 C1096.55416,535.668078 1097.16751,534.322541 1097.13281,533.064734 C1108.05267,528.566009 1118.3602,522.863544 1127.97375,515.998143 Z" id="Top" fill="#E86BBB" fill-rule="nonzero" blush:i="0.0.0.1"/><path d="M1203.7402,1578.77116 L1205.09819,1580.67678 C1254.63048,1650.18409 1309.43302,1702.50601 1367.58933,1729.30082 L1369.54379,1730.19122 L1369.72484,1730.29699 C1386.30721,1739.98407 1400.0693,1755.3436 1405.46738,1771.11484 C1411.78571,1789.57473 1406.44082,1806.97841 1388.49638,1819.70251 L1387.94875,1820.08665 L1387.85696,1820.14849 C1365.27053,1834.9135 1338.61478,1844.09286 1312.43093,1845.92569 L1311.46138,1845.99021 L1310.19162,1846.07032 L1309.10889,1845.40216 C1302.16297,1841.11581 1295.48435,1838.65149 1281.21237,1834.55679 L1275.20022,1832.83521 L1272.71785,1832.10916 L1271.48481,1831.74233 C1266.27729,1830.18246 1262.78532,1828.9919 1259.12775,1827.5092 L1257.96701,1827.03114 L1254.08096,1825.71966 C1184.24565,1802.0647 1115.25935,1774.96029 1047.37086,1744.54084 L1043.37869,1742.74763 L1037.26188,1739.98437 L1037.12006,1737.57116 C1034.01372,1684.71355 1034.14113,1642.52171 1038.56435,1602.77433 L1038.71011,1601.47908 L1046.67321,1602.23116 C1045.50821,1617.7283 1061.01517,1630.84121 1075.66079,1625.89586 L1076.10432,1625.74046 L1076.31052,1625.67185 L1076.91988,1625.48168 C1081.04726,1624.1541 1084.47944,1622.22439 1090.57935,1618.07421 L1095.09866,1614.97678 L1096.24771,1614.20444 L1097.08074,1613.65511 C1097.48498,1613.39118 1097.87542,1613.14035 1098.27272,1612.88913 L1098.83101,1612.53863 C1123.91083,1596.83733 1150.90642,1586.25635 1178.31946,1581.75814 C1180.58203,1581.34328 1182.91781,1580.99084 1185.47082,1580.66988 L1188.29498,1580.33577 L1191.19873,1580.02985 L1200.20833,1579.14827 L1203.7402,1578.77116 Z M1666.66825,726.345905 L1668.46325,728.26808 C1674.40433,734.630079 1678.91086,740.862344 1681.76189,747.292814 C1685.31877,755.315326 1686.07079,763.259684 1683.41989,770.941581 L1683.2075,771.537448 L1683.15815,771.65071 C1678.69782,781.886909 1668.24303,790.937536 1648.22937,804.142344 L1645.18857,806.130283 C1641.98163,808.206841 1633.32853,813.794711 1630.71387,815.527852 L1629.56186,816.294706 C1624.85603,819.441099 1621.31594,821.986967 1618.48631,824.303604 L1618.0196,824.688718 L1611.32981,829.340043 L1597.564,838.923026 L1587.3505,846.043754 L1580.32258,850.949 C1553.46408,869.704016 1527.53712,887.909025 1502.20936,905.802793 L1500.92268,906.674985 L1499.90992,907.372932 L1498.45645,908.38881 L1496.40472,909.84284 L1496.40472,909.84284 L1489.59018,914.720498 L1488.2286,915.68533 L1486.88487,916.628669 L1485.52627,917.571361 L1484.15063,918.513487 L1482.79861,919.426193 C1468.94683,928.705992 1458.73984,933.29728 1447.86819,933.933336 C1440.12983,934.386076 1432.8359,932.477042 1426.05164,927.966958 L1425.56792,927.640382 L1425.35673,927.495608 L1424.62734,926.840607 L1424.0178,926.282148 L1423.42048,925.723603 L1422.83259,925.162055 C1419.71735,922.153929 1416.88571,918.893057 1412.43786,913.386412 L1408.6931,908.723773 L1407.1971,906.879824 L1406.09359,905.537068 L1405.30495,904.589903 C1402.87194,901.686795 1401.02151,899.666524 1398.93237,897.631058 L1398.24068,896.964736 L1393.5143,892.461215 L1399.673,890.295394 C1424.51267,881.560058 1444.82076,853.785794 1453.16571,821.996525 L1453.46048,820.852793 L1453.52238,820.678552 C1455.03047,816.433597 1455.57404,812.08627 1455.7222,804.985795 L1455.79421,799.571213 L1455.829,797.788307 L1455.86094,796.585165 L1455.90056,795.403095 C1456.2185,786.903913 1457.15659,782.066515 1459.84295,776.705905 L1460.18373,776.040827 L1460.29656,775.825266 L1460.43469,775.62497 C1460.60232,775.381895 1460.62114,775.343732 1460.55191,775.217331 L1459.13716,772.818201 L1460.81451,770.670499 C1461.55684,769.720012 1462.37348,768.785635 1463.32617,767.780517 L1463.74298,767.345168 L1464.67282,766.383226 L1465.99428,766.174278 C1507.55054,759.60348 1550.20562,749.915841 1601.03059,736.061879 L1606.1469,734.662872 L1608.69352,733.976794 L1610.41376,733.519909 L1612.11672,733.073631 C1628.92529,728.700828 1639.1921,727.01769 1650.93241,727.167777 L1651.92868,727.184815 C1653.01631,727.204398 1653.93971,727.264948 1655.51211,727.407059 L1657.13715,727.556025 L1657.88493,727.618511 L1658.60299,727.67148 C1661.24498,727.850614 1662.65035,727.752243 1664.02558,727.289808 L1664.19205,727.232025 L1666.66825,726.345905 Z" id="Shoes" fill="#FFF" blush:i="0.0.0.2"/><path d="M520.831666,60.6489207 C546.833347,54.3290853 551.276208,-8.01643648 566.976934,0.861894571 C576.052593,8.75626824 561.206582,23.6498518 558.579471,32.5601899 L557.426867,34.8233734 C552.100048,45.2014059 546.076016,55.5448266 535.577548,61.5285972 C528.829643,68.634153 508.659217,61.6576577 511.62491,72.9747163 C521.981608,107.081797 576.9455,130.698839 609.338956,141.318971 C659.688631,160.235113 741.140401,153.834744 752.970138,90.425763 C725.352965,85.3686558 704.934797,35.5275493 721.955787,14.7766832 C722.535919,34.9338709 728.042011,55.7363612 743.861447,69.3930288 L744.734371,70.1945539 C747.517913,72.7351333 751.122689,75.7684924 754.715696,75.2038495 C758.219197,70.323297 765.02078,73.0996468 767.023371,78.2507102 C924.265978,105.438082 959.295834,275.065933 1058.32085,374.910246 C1078.10108,395.739581 1098.77938,415.683044 1119.19136,435.879466 C1140.03791,452.422959 1154.78999,475.48659 1155.81812,502.566584 C1157.68136,517.628462 1156.75852,532.703763 1154.76522,547.789389 L1154.62687,549.152307 C1153.70317,558.501324 1153.15464,568.543496 1148.70583,576.843492 C1147.93783,579.655979 1148.24854,583.210822 1145.81549,585.196289 C1146.87872,602.407799 1145.86711,619.929055 1142.95612,637.088941 L1150.54291,640.475504 C1234.02624,677.664506 1318.47331,712.717584 1405.52262,740.595475 C1412.96214,739.243954 1412.35517,747.896171 1408.75361,751.828903 C1409.70329,756.454432 1409.80651,761.265808 1408.69167,765.839712 C1424.63188,768.130795 1440.82293,766.225862 1456.55772,763.320451 C1461.53529,752.356502 1474.76065,752.941921 1484.98625,752.63424 C1497.69032,751.837163 1510.37167,750.597149 1522.98386,748.834699 C1554.05912,741.891243 1584.57489,732.754791 1615.35079,724.726194 C1635.94547,718.930861 1658.15462,719.205502 1678.81433,724.540347 C1682.32403,728.474112 1685.56534,732.676322 1688.30083,737.136654 C1707.18609,766.424098 1688.57748,793.262491 1662.21554,808.646505 C1619.92165,838.630876 1577.6164,868.577046 1535.1336,898.285744 L1532.04726,900.487746 C1481.50295,936.669994 1424.64047,982.47066 1397.64645,894.404637 C1388.57389,893.340145 1380.6234,887.249522 1372.17019,883.656477 C1374.44427,894.224984 1367.65404,904.899838 1362.97273,913.959886 C1360.95672,919.120242 1355.4465,920.822808 1350.35847,920.774281 C1346.00232,925.048766 1337.82679,923.365816 1334.97775,918.296319 C1311.87156,911.681194 1292.78192,896.235231 1272.32969,884.2357 C1243.2498,866.570929 1212.74435,851.511116 1183.24536,834.592831 C1232.25,1037.51829 1220.26439,1248.89464 1207.22381,1455.45651 L1207.13137,1457.32285 C1205.51531,1487.47932 1198.60086,1501.74627 1173.59163,1520.23147 C1177.94779,1533.52367 1181.84561,1546.86853 1184.8175,1560.54172 C1185.86731,1563.71351 1190.69727,1560.7286 1190.7365,1565.08361 C1199.62119,1563.00419 1217.67857,1565.22919 1211.37867,1577.52195 C1229.21721,1592.494 1241.29469,1612.77715 1256.93141,1629.84721 C1284.47117,1662.86193 1320.47032,1687.43402 1355.76753,1711.64577 C1436.90962,1752.99779 1441.55997,1824.65942 1346.62374,1849.14065 L1345.672,1849.36342 C1332.59858,1852.51017 1316.85383,1859.70392 1304.18017,1853.64744 C1285.22162,1849.99658 1266.40656,1842.60606 1247.85782,1836.97592 C1173.17047,1812.25825 1100.12132,1783.31359 1029.34109,1750.04902 C1026.77489,1748.84204 1025.32249,1746.08015 1025.2554,1743.31722 C1026.04508,1720.49313 1019.8484,1595.42006 1043.51097,1592.72734 C1048.79513,1567.17543 1049.62507,1540.79752 1048.66506,1514.71904 C1040.98915,1512.30406 1033.22756,1509.97477 1025.27707,1508.46528 C1017.55781,1506.03378 1005.48652,1505.48863 1000.31798,1499.23384 C998.459904,1498.56273 997.097316,1496.90043 997.376027,1494.27792 C1001.55669,1455.08482 1004.72574,1415.78847 1007.03801,1376.4405 C1014.9565,1244.4818 1012.26849,1112.11114 1003.24961,980.296991 C984.664737,996.370704 963.486823,1010.4445 939.909929,1017.93104 C926.896185,1030.97235 906.030014,1033.76934 888.265795,1035.34905 C865.421807,1036.76355 842.980403,1032.19997 820.435772,1029.36064 C782.153847,1024.54077 744.138139,1028.80753 706.134719,1033.5344 L693.147382,1035.15494 C600.10536,1045.36104 499.553623,1047.47144 412.836278,1007.69912 C396.508969,1009.14976 376.239447,991.501509 366.054104,979.708475 C361.556533,982.485858 357.137414,977.060154 353.553396,974.205335 C347.638527,972.408813 340.928815,969.827602 335.561046,966.059035 C321.943428,970.515237 314.597842,952.833946 309.425171,943.219454 C227.326172,802.610602 318.756831,662.647053 311.879893,513.54189 C316.044043,396.644037 262.73074,274.856338 314.257196,162.739919 C324.680991,115.295208 385.64543,82.5055773 431.533663,70.4471951 C446.320836,68.0053701 502.301508,47.7624862 508.466184,64.7850521 C511.38336,60.9535035 516.364031,60.6664729 520.831666,60.6489207 Z M1201.84069,1582.99814 C1194.1472,1583.82433 1186.64458,1584.29836 1179.04086,1585.69255 C1151.28364,1590.24795 1124.80678,1600.99564 1100.95357,1615.92901 C1093.22913,1620.7457 1086.33419,1626.81612 1077.46971,1629.5002 C1059.25275,1636.11591 1041.34943,1619.69024 1042.68447,1601.9313 C1037.60637,1646.55998 1038.47714,1692.48164 1041.11317,1737.33649 C1112.36638,1769.57439 1185.21566,1798.31855 1259.38863,1823.29012 C1276.09207,1830.29001 1295.87001,1832.53208 1311.20952,1841.99814 C1337.36758,1840.34783 1363.69794,1831.16267 1385.66827,1816.8004 C1422.11148,1791.51075 1397.91781,1751.39926 1367.70718,1733.75083 C1301.20294,1703.73537 1244.59489,1642.99394 1201.84069,1582.99814 Z M1056.13258,1516.99814 C1054.74125,1530.22814 1064.79197,1550.83597 1063.37374,1577.20385 C1062.28343,1585.43766 1059.71592,1594.06273 1060.60762,1602.32863 C1064.69991,1632.98886 1097.89648,1594.02547 1111.61433,1589.75589 C1131.08787,1579.04313 1152.25067,1571.75017 1174.00001,1567.76213 C1173.8676,1560.69067 1169.18671,1557.86809 1168.57224,1550.88151 C1167.68986,1540.58691 1167.73434,1530.69702 1167.26987,1520.30306 C1138.98177,1533.16872 1086.13787,1524.07167 1056.13258,1516.99814 Z M1208.54805,1580.99814 C1208.05492,1581.32773 1207.53433,1581.60678 1207.00001,1581.85739 C1210.93137,1586.61906 1214.33686,1591.90302 1219.00001,1595.99814 L1217.01474,1592.91535 C1214.35908,1588.80147 1211.64246,1584.70471 1208.54805,1580.99814 Z M329.976327,483.998143 C328.551146,489.791502 325.955207,495.239158 322.066471,499.872607 C342.148279,662.714082 238.82889,798.466908 333.821625,949.872329 C335.022376,950.431645 336.117635,951.127179 337.172558,951.998143 C337.731047,951.626642 338.289535,951.234501 338.837682,950.842361 C383.361648,872.0469 446.74185,804.077612 497.241647,728.674166 C506.93453,709.747199 522.890761,690.696397 529.000007,668.828377 C427.515357,628.751624 386.977346,570.27523 329.976327,483.998143 Z M1665.53977,730.998143 C1661.23671,732.538009 1656.44866,731.266844 1651.85668,731.184167 C1635.55357,730.835889 1619.62092,735.090671 1604.02777,739.389893 C1558.67545,751.795628 1513.08372,762.778279 1466.61899,770.125194 C1465.67996,771.096652 1464.7822,772.088781 1463.96699,773.132582 C1464.77188,774.496758 1464.89571,776.201978 1463.72759,777.89583 C1456.71784,791.287492 1462.38405,807.683442 1457.29158,822.017626 C1449.91345,851.037371 1430.2876,883.76933 1401.00001,894.068859 C1410.76907,903.377294 1417.76747,915.358274 1427.8296,924.341167 C1452.55822,941.293122 1479.79232,916.027961 1499.98056,902.481279 C1538.41704,875.324873 1576.95465,848.358626 1615.59752,821.500892 C1632.90983,807.151207 1671.207,789.064505 1679.49115,770.052851 C1684.79825,755.476836 1675.13857,741.277003 1665.53977,730.998143 Z M1400.64969,767.998143 C1384.1053,801.744236 1374.55421,837.622095 1365.00001,873.853873 C1374.9372,876.587199 1384.09081,880.870337 1393.85928,883.74915 C1407.61712,886.844649 1427.04123,860.254317 1433.9393,849.698667 C1441.0506,837.894499 1446.02955,824.924361 1448.33891,811.335122 C1450.28805,798.026542 1448.21159,784.205141 1454.00001,771.877835 C1436.07683,773.709338 1417.89487,774.09318 1400.64969,767.998143 Z M417.064755,698.370709 C432.601328,694.017787 397.257879,729.169238 395.222181,732.920865 C372.241349,760.057712 351.186067,788.71873 330.291825,817.468546 L323.957715,826.194812 C323.349255,827.078968 319.154584,833.278956 322.187757,832.490597 C322.465399,832.418152 322.594897,832.782447 322.374233,832.934582 C303.051159,836.352961 407.747163,700.760366 417.064755,698.370709 Z M795.827096,681.77769 C797.083965,677.992176 791.118987,676.372761 789.862118,680.137645 L785.901615,692.065948 C770.955854,737.136924 756.101788,782.269575 738.237762,826.287358 C736.743942,829.980039 742.719222,831.589141 744.20274,827.937719 C763.632701,780.036013 779.508401,730.814019 795.827096,681.77769 Z M969.559527,665.998143 C964.111571,691.855154 950.34522,715.167889 942.000007,739.88415 C957.673453,736.428923 969.747245,721.821752 978.883556,709.258039 L979.157754,708.839772 C983.467799,702.204719 988.477731,691.839353 998.265984,696.521205 C1013.12461,705.153605 1002.48036,735.76941 1002.20291,750.280746 C1000.31851,770.17226 993.852542,788.779786 989.445288,808.102471 C1000.77233,800.360413 1004.02749,785.095791 1009.54765,773.199834 L1030.79488,722.220551 L1030.79488,722.220551 C1046.41469,700.81628 1039.16072,764.913679 1038.35415,770.963675 C1037.08344,784.25079 1031.48593,797.618284 1033.68285,810.998143 C1042.49117,801.517651 1048.04021,789.605207 1052.70222,777.51758 C1059.17025,760.706195 1065.07306,743.678407 1071.22651,726.75573 C1073.35433,721.334331 1081.42106,723.236612 1080.25143,729.208292 C1079.85454,748.414119 1079.5395,767.619287 1079.23291,786.824851 L1079.00341,801.229115 C1078.96215,803.959908 1077.611,811.935887 1082.32768,809.731673 C1107.09617,783.730394 1113.44662,731.740201 1110.22447,696.809741 C1061.5353,697.985528 1011.86009,691.669666 969.559527,665.998143 Z M1402.83001,762.998143 C1402.63001,763.632758 1402.40001,764.267374 1402.17001,764.901989 C1402.31001,764.930835 1402.46001,764.959682 1402.60001,764.998143 C1402.69001,764.325066 1402.77001,763.661605 1402.83001,762.998143 Z M322.231919,762.998143 C316.831237,759.008179 407.6069,642.438391 401.725951,676.089123 C376.400894,706.05793 346.868076,732.319918 322.231919,762.998143 Z M1123.90635,505.409408 C1039.01252,485.464394 964.253591,559.976405 879.000007,548.719172 C879.987241,575.406541 881.357997,602.274712 880.819412,628.974479 C994.034971,638.31418 981.153379,686.507658 1111.48271,681.655972 C1128.32461,670.373944 1135.24145,601.229162 1133.81901,580.355343 C1134.90755,555.67539 1113.67324,544.596893 1092.52162,540.267983 C1084.87806,544.883076 1071.16533,531.113216 1082.5149,526.268762 C1097.45262,521.774548 1111.42896,514.707783 1123.90635,505.409408 Z M497.618553,67.9981431 C467.416791,70.9754513 437.50295,79.208957 409.744904,91.931121 C307.135693,121.558743 292.340276,241.69406 304.678562,332.732017 C309.790963,401.963203 329.530569,469.672723 371.032449,525.970259 C481.521816,694.503857 664.523894,667.817437 837.86566,645.525795 C844.114264,641.17744 854.702321,644.265133 860.723892,638.520971 C860.094387,638.304327 859.526801,638.005152 859.041774,637.633762 C861.93543,635.375506 864.173782,631.414014 864.841469,627.203898 L866.090158,627.327695 L866.090158,627.327695 C867.315112,601.190106 866.335768,575.565241 866.731015,549.632948 C809.773254,534.009817 748.688627,526.024936 690.964109,510.463703 C684.402816,515.041082 676.837412,509.773537 670.427819,507.286257 C653.812715,500.217471 637.049885,493.502934 620.16368,487.110189 L615.939573,485.518688 C604.931847,481.392134 593.932274,477.159615 583.02783,472.748675 L578.943292,471.086067 C572.696751,468.530699 556.921991,459.072639 550.107865,464.977737 L550.657765,466.163105 C554.698195,474.981601 568.617666,507.608953 551.50619,501.156262 C537.611687,491.396963 530.407474,423.34494 516.645064,422.743494 C511.912429,435.413045 508.521362,448.563339 507.746349,462.106687 C507.467716,465.154147 503.462623,467.723958 501.056059,464.876636 C484.733321,443.376261 509.389252,419.957039 510.047652,397.263059 C511.602837,370.874782 499.930175,346.184581 494.115,320.92698 L493.757332,319.185054 C490.347712,302.799081 485.041596,282.931988 486.449494,268.236051 L489.835757,280.993049 C493.233436,293.757688 496.713253,306.524792 500.70622,319.110264 C510.615238,350.544285 528.506577,382.929476 518.564536,416.563981 C538.509505,417.228356 541.881997,448.717053 549.374131,463.098092 C561.495702,447.364575 646.794575,485.089526 666.258643,491.141117 L670.012659,486.880866 C730.9729,417.741874 774.979701,370.95102 869.462651,425.641367 C853.140944,372.975197 851.564087,317.036671 848.77982,262.347459 C849.734397,251.943387 843.722114,224.498712 852.200815,218.819543 C853.671379,219.034123 855.102727,219.47876 856.453582,220.07092 L856.451946,225.461661 C856.492548,235.904076 856.979584,253.219945 861.357524,257.15316 L863.366149,277.830266 C868.62754,331.595787 874.593721,385.320673 890.644956,437.132786 C929.175783,458.679585 964.334118,485.658991 997.408896,514.765635 L1001.17644,513.390362 C1042.04407,498.424119 1091.21663,479.240116 1133.00001,497.918981 C1132.30136,487.373574 1128.23229,477.281056 1122.55643,468.362542 C1113.09013,466.013502 1106.89518,456.028274 1100.1213,449.380397 C1078.64385,426.302647 1056.59572,403.753096 1035.61259,380.210077 C946.077459,283.863309 907.985222,125.65641 767.381811,88.2863428 C758.086818,166.139962 658.512643,178.562951 598.508494,151.918828 L596.231119,151.046238 C558.93026,136.64574 516.777095,114.911587 503.677274,75.3155539 L503.132875,74.1693581 C501.785889,71.3768989 500.1796,68.5303121 497.618553,67.9981431 Z M519.749215,511.040417 C519.858507,510.920026 520.069941,511.081577 519.976991,511.215345 C502.49437,533.15951 488.269057,563.089638 505.643407,589.303068 C508.854751,595.204305 501.349359,600.874021 496.5446,596.375292 C472.4299,568.981615 499.18497,531.852697 519.749215,511.040417 Z M1127.97375,515.998143 C1118.3602,522.863544 1108.05267,528.566009 1097.13281,533.064734 C1097.16751,534.322541 1096.55416,535.668078 1096.00001,536.655553 C1110.37442,537.798086 1125.3438,541.51234 1135.43396,551.998143 C1135.92382,548.162496 1136.40348,544.316647 1136.77087,540.470798 C1137.69957,530.575644 1136.00546,521.721011 1127.97375,515.998143 Z M466.926228,418.992426 L467.037734,418.46369 C467.115686,417.863853 468.02649,417.822414 468.000007,418.46369 C467.665451,426.308187 461.959588,431.888016 457.12658,437.474061 C449.955019,445.760925 442.782432,454.045717 435.607795,462.329473 C423.612457,476.765958 405.941,491.279107 409.914488,512.193623 C409.989363,519.621653 400.682334,521.213966 396.906803,515.751204 C381.889809,487.104078 429.160364,462.7304 445.094317,444.248383 C452.576426,436.249304 464.367166,430.363386 466.926228,418.992426 L466.926228,418.992426 Z M692.000007,504.998143 C692.224007,505.354579 692.384007,505.740717 692.469341,506.136757 C694.986674,506.404084 697.493341,506.691212 700.000007,506.998143 L692.000007,504.998143 L692.000007,504.998143 Z M316.000007,437.998143 C316.448623,440.991385 316.868681,443.991532 317.270695,446.995132 L317.666893,449.998143 L317.72863,449.736154 C317.933757,448.956586 318.320948,448.279373 318.827006,447.738137 L319.000007,447.562807 C317.957854,444.390273 316.958161,441.202392 316.000007,437.998143 Z M1006.13321,407.013574 C1012.15706,406.370933 984.863302,426.000974 983.355562,428.430198 C981.154911,430.343885 978.583421,426.943582 980.931392,425.286138 C989.410908,419.301034 997.768504,413.158321 1006.13321,407.013574 Z M953.033219,349.267358 C957.224557,347.550386 960.070821,354.53219 956.095563,356.476996 C941.61508,363.56348 926.303359,368.575847 912.961174,377.898602 C912.376,378.307063 911.641947,377.354672 912.197139,376.916449 L913.800342,375.648288 C926.089474,365.885424 938.365431,355.274706 953.033219,349.267358 Z M321.000007,260.998143 C325.046933,280.061922 346.943455,286.323126 363.93683,291.401404 L369.246416,293.424188 C384.252677,299.169134 399.798652,305.631806 410.594597,317.771304 C414.826177,331.464186 384.632581,307.611634 380.417506,306.403805 C359.799124,293.61472 322.544297,291.441873 321.000007,260.998143 Z M768.000007,82.9981431 C768.113752,83.9675308 768.170624,84.9573267 768.19906,85.9471227 C769.469202,85.9471227 770.729865,85.9573267 772.000007,85.9981431 C770.521334,85.1307961 769.165884,84.1410002 768.000007,82.9981431 Z" id="Ink" fill="#000" blush:i="0.0.0.3"/></g></g><g id="Head" transform="translate(345.000000, 180.000000) scale(0.9978902953586498 1)" blush:width="473" blush:height="567" blush:component="Head" blush:i="0.1" blush:value="Long" blush:viewBox="-86.18181818181819 31.185000000000002 601.0047846889952 671.895"><g id="Head/Long" stroke="none" stroke-width="1" fill="none" fill-rule="evenodd" blush:viewBox="-86.18181818181819 31.185000000000002 601.0047846889952 671.895" blush:i="0.1.0"><path d="M431.9006,270.053 C428.1106,207.851 407.9266,137.33 348.5226,106.79 C217.5636,54.232 45.3796,186.588 36.2636,321.8 C33.0856,368.084 58.7836,418.659 105.7446,431.527 C116.1856,445.36 131.9756,453.808 147.5606,461.14 C333.1876,557.447 453.0946,479.16 431.9006,270.053 L431.9006,270.053 Z" id="Skin" fill="#ffdbb4" blush:color="Skin-500" blush:i="0.1.0.0"/><path d="M474.1891,231.3601 C467.6291,213.1401 460.6991,195.0601 453.4091,177.1201 C446.3091,159.6601 439.896026,141.822713 431.0791,125.1901 C378.4191,25.8501 282.6591,25.8501 233.1591,38.8301 C207.4891,27.7701 159.408421,30.8898441 132.6791,40.8701 C89.4071,57.0271 36.6581,120.5851 18.6231,149.1411 C-21.1959,212.1901 -46.0459,296.1071 -19.5959,368.9631 C-16.1389,378.4851 -11.7299,387.3041 -6.7659,395.8031 C-9.8929,400.0411 -13.4919,404.0551 -17.4789,407.9991 C-29.3269,419.7211 -41.1749,431.0571 -51.4099,444.2781 C-61.5809,457.4171 -70.0129,471.3891 -76.2899,486.7941 C-88.1259,515.8461 -88.6959,548.7421 -73.0479,576.4631 C-59.4339,600.5831 -35.3169,618.5441 -8.1459,620.2571 C-6.7509,620.4511 -5.3539,620.6291 -3.9509,620.7701 C-0.3509,626.7001 4.0391,632.1601 9.0491,636.9201 C24.3991,651.5201 60.9891,659.0101 81.8591,659.4901 C82.9291,660.3501 84.0091,661.2101 85.0891,662.0601 C97.8591,672.1101 111.2591,682.2501 125.9191,689.4001 C135.8491,694.2501 148.8691,698.3001 159.2291,694.8001 C163.9291,697.9401 171.6391,697.2801 176.2991,694.7101 C183.9591,690.4901 190.1891,682.8901 193.9791,675.1101 C203.1691,656.2201 200.9591,635.5501 198.5991,615.3701 C195.9991,593.0801 193.4991,570.7801 190.9591,548.4901 C188.9691,531.0601 186.8891,513.3401 181.5891,496.5501 C178.8491,487.8501 175.2591,479.4901 170.6191,471.6301 C170.7391,470.9701 170.7191,470.3101 170.5291,469.6901 C169.0091,464.7501 165.8691,462.1601 162.1491,458.8001 C161.6691,458.3701 161.1891,457.9301 160.7191,457.4801 C158.8591,455.3601 156.8691,453.3901 154.7391,451.7201 C153.9191,450.8901 153.1091,450.0501 152.2991,449.2101 C145.5691,442.1601 139.2091,434.7501 133.5591,426.8101 C128.0791,419.1101 123.1291,411.0701 118.4191,402.8801 C113.6291,394.5501 110.4591,385.3601 105.6791,377.0901 C105.2691,376.3801 104.2291,376.2401 103.6491,376.8301 C102.1691,378.3601 101.2191,380.0601 101.3991,381.8501 L100.6591,381.9601 C100.3791,379.2601 97.8891,377.0601 94.5091,377.6501 C89.4491,378.5301 85.2891,378.8601 80.9091,377.1801 C81.6791,372.0701 82.3891,366.9501 83.0891,361.8201 C84.3691,352.3801 85.5591,342.9101 86.5791,333.4401 C89.0491,334.0301 91.4991,334.8801 93.8991,335.9601 C97.3191,337.4901 100.5491,339.5501 103.3091,342.0801 C106.0291,344.5801 107.9091,347.9501 111.2291,349.6901 C115.0491,351.6801 119.6591,348.3901 118.5391,344.0701 C116.2691,335.3401 103.4191,330.3401 95.4691,328.6901 C92.7391,328.1201 89.9491,327.8801 87.1591,327.9401 C87.7891,321.8601 88.3491,315.7801 88.8091,309.6901 C89.0291,306.8101 89.2291,303.9301 89.4191,301.0401 C95.5991,299.1701 102.2191,298.6101 108.6491,299.4901 C110.7691,301.1801 112.8891,302.8501 114.9391,304.5401 C121.4491,309.9201 127.9291,315.3301 134.3291,320.8401 C134.9091,321.3301 135.4791,321.8201 136.0591,322.3201 C139.8591,325.5901 144.5991,322.3501 143.9591,317.7201 C138.7391,279.7801 161.9791,249.6001 189.1891,226.2201 C219.3091,200.3301 274.0691,197.315396 309.8891,152.4701 C326.3862,155.827691 363.2191,165.8001 378.4191,190.0201 C399.6991,223.9601 396.9191,254.3701 398.5391,292.8701 C400.1591,331.4001 404.2791,371.5901 395.5291,409.5801 C387.4591,444.6101 365.6091,474.5401 331.7091,488.3001 C330.8691,488.6401 330.0191,488.9701 329.1691,489.2901 C311.6391,495.9001 292.5091,497.7701 274.0691,494.2901 C253.6591,490.4301 236.6191,481.0901 219.6391,469.6001 C218.6591,468.9501 217.2291,470.2901 217.9691,471.2701 C240.3491,500.9301 284.3091,510.8401 319.1791,503.0101 C320.8091,502.6401 322.4291,502.2401 324.0391,501.8001 C316.2391,524.2301 317.8091,548.8501 327.9691,570.6901 C334.0791,583.8301 343.3991,595.2001 354.7491,604.1701 C367.2591,614.0501 382.7791,622.0301 391.4591,635.9001 C399.4091,648.6101 397.0491,662.8901 383.4391,670.2301 C380.0091,672.0901 378.6891,678.1001 382.0891,680.7401 C383.3891,681.7401 384.6891,682.7601 386.0191,683.7601 C393.6391,689.5101 414.5691,700.3101 417.9591,700.7101 C448.0591,704.2801 468.2991,682.1801 481.2691,656.1101 C496.4991,625.5101 492.5391,588.2201 475.7591,559.0801 C462.2991,535.7001 435.7891,512.6601 446.3291,483.0701 C450.0891,472.5001 457.7791,463.4901 465.2491,455.3501 C473.7691,446.0801 482.9291,437.4001 491.0991,427.8001 C499.2191,418.2701 506.4191,407.9001 510.4391,395.9401 C516.3091,378.4601 513.3891,359.5601 508.9791,342.1101 C499.5291,304.6501 487.2591,267.6901 474.1891,231.3601 Z" id="Ink" fill="#000" blush:i="0.1.0.1"/></g></g><g id="Face" transform="translate(504.000000, 366.000000) scale(1 1)" fill="#000" blush:width="289" blush:height="293" blush:component="Face" blush:i="0.2" blush:value="Cheeky" blush:viewBox="52.90517241379308 55.670000000000016 184.65517241379308 205.10000000000002"><g id="Face/Cheeky" stroke="none" stroke-width="1" fill="none" fill-rule="evenodd" blush:viewBox="52.90517241379308 55.670000000000016 184.65517241379308 205.10000000000002" blush:i="0.2.0"><path d="M166.9438,221.352 C168.4778,218.685 172.0098,216.214 175.2418,216.593 C189.7208,218.291 189.6958,235.845 184.1048,246.093 C179.1478,255.18 168.8888,260.514 158.6208,259.735 C147.8338,258.916 138.6428,252.574 134.5978,242.483 C131.9228,235.808 130.6868,223.485 137.8028,219 C137.9348,218.916 138.1528,218.937 138.2578,219.058 C141.6698,223.027 141.8038,228.986 144.7908,233.405 C147.5688,237.515 151.8848,240.909 156.9408,241.433 C160.7168,241.825 164.5368,240.463 166.0138,237.073 C166.812891,235.239364 166.721899,234.243744 166.421516,232.981708 L166.148563,231.885055 C165.202801,228.043565 164.778057,225.118714 166.9438,221.352 Z M170.814304,144.367155 C178.365682,148.9572 189.871664,159.660291 181.748119,171.039573 C172.185929,181.073062 158.418535,169.568982 151.634201,164.366134 C145.343449,160.333898 138.275437,170.704507 144.112,175.412823 C193.135736,211.708059 213.030606,145.567387 174.633685,138.970386 C170.406047,138.243425 168.835891,142.947174 170.814304,144.367155 Z M91.0715,112.8926 C95.7065,105.9386 106.2865,106.9626 108.8395,115.2146 C110.2225,119.6846 108.3125,123.7026 108.4115,128.1666 C108.4945,131.9376 108.2475,136.1396 107.0915,139.7916 C104.4555,148.1196 96.9655,154.0016 88.1045,153.7576 C79.2725,153.5146 71.4935,147.9246 67.7945,140.0516 C64.0825,132.1486 64.8685,123.9696 67.5785,115.9336 C67.7085,115.5476 68.2145,115.3606 68.5195,115.6856 C71.7228333,119.089767 74.0678333,122.683517 76.4943148,126.495785 L78.9809333,130.40279 C80.8812656,133.344819 83.6431037,137.103142 87.1914615,136.867072 L87.7238987,136.814547 C88.7099852,136.729908 88.5588846,136.9256 89.3195,135.5816 C89.6715,134.9596 89.6075,133.8036 89.7775,133.0696 L89.8365,132.8216 L89.8365,132.8216 L89.8043384,132.68798 C89.7292832,132.332503 89.6547866,131.66266 89.5942529,130.500284 L89.5815,130.2436 C89.3245,124.8066 87.7875,117.8196 91.0715,112.8926 Z M208.5632,117.5221 C207.7322,108.6281 220.2362,106.6531 224.3932,113.2341 C226.561303,116.665997 227.192546,120.977055 227.67203,125.0615 L227.8962,127.0001 C228.3882,131.1951 228.5832,135.5591 226.7622,139.4721 C223.8942,145.6351 217.6572,148.8931 210.9292,148.3771 C204.5042,147.8831 198.6422,144.1581 195.5522,138.5031 C192.7972,133.4571 190.0582,123.6051 193.4042,118.3421 C193.6062,118.0231 194.0102,117.9821 194.2872,118.2281 C197.4492,121.0351 197.9642,126.1551 199.8442,129.8121 C201.7832,133.5841 204.7242,137.2601 209.1812,137.8331 C213.4452,138.3811 215.0742,136.0521 213.9862,131.9871 C212.5832,126.7391 209.0912,123.1691 208.5632,117.5221 Z M94.4489,60.0159 L96.4937284,59.2327124 C103.499922,56.5860716 113.118768,53.5268605 118.8149,59.2239 C122.3289,62.7369 122.9979,67.9119 120.4899,72.1989 C117.4509,77.3919 111.9999,77.5199 106.7359,78.2849 C100.7489,79.1549 94.6599,80.8089 89.0859,83.1669 C82.8069,85.8239 76.9799,89.1359 71.2709,92.8349 C65.8449,96.3499 60.4379,102.0949 53.9429,103.1779 C53.6779,103.2219 53.3769,103.1079 53.3079,102.8169 C51.8329,96.4669 55.9319,90.2179 59.5899,85.2639 C64.0159,79.2659 69.3789,74.3429 75.3729,69.9289 C81.1579,65.6679 87.7679,62.5889 94.4489,60.0159 Z M221.7162,82.5925 L222.340762,82.4830541 C226.589355,81.7757704 230.439386,81.9386395 233.6412,85.3035 C236.0852,87.8705 237.0272,91.1975 235.8622,94.5915 C234.7872,97.7225 232.3832,100.9035 228.8942,101.5595 C217.1152,103.7755 204.0682,103.4095 192.2302,101.7315 C186.814067,100.963367 181.349151,100.023624 176.073673,98.5415284 L173.646557,97.8379125 C169.242357,96.5798884 164.200291,95.2655909 161.0012,92.0265 C159.8512,90.8625 160.5142,89.1965 161.8902,88.6575 C167.4722,86.4715 175.1232,87.6345 181.0752,87.4635 C187.9992,87.2655 194.9342,86.7465 201.8252,86.0315 C208.5592,85.3315 215.0752,83.8105 221.7162,82.5925 Z" id="Ink" fill="#000" blush:i="0.2.0.0"/></g></g><g id="Beard" transform="translate(468.000000, 518.000000) scale(1 1)" fill="#000" blush:width="280" blush:height="230" blush:component="Beard" blush:i="0.3" blush:value="None" blush:viewBox="490 402.5 0 0"><g id="Beard/None" stroke="none" stroke-width="1" fill="none" fill-rule="evenodd" fill-opacity="0" blush:viewBox="490 402.5 0 0" blush:i="0.3.0"/></g><g id="Mask" transform="translate(370.000000, 480.000000) scale(1 1)" fill="#000" blush:width="397" blush:height="228" blush:component="Mask" blush:i="0.4" blush:value="None" blush:viewBox="694.75 399 0 0"><g id="Mask/None" stroke="none" stroke-width="1" fill="none" fill-rule="evenodd" fill-opacity="0" blush:viewBox="694.75 399 0 0" blush:i="0.4.0"/></g><g id="Accessories" transform="translate(392.000000, 421.000000) scale(1 1)" fill="#000" blush:width="392" blush:height="138" blush:component="Accessories" blush:i="0.5" blush:value="None" blush:viewBox="686 241.5 0 0"><g id="Accessories/None" stroke="none" stroke-width="1" fill="none" fill-rule="evenodd" fill-opacity="0" blush:viewBox="686 241.5 0 0" blush:i="0.5.0"/></g></g></svg>