<svg width="414" height="55" viewBox="0 0 414 55" fill="none" xmlns="http://www.w3.org/2000/svg">
<g clip-path="url(#clip0_88_32)">
<path d="M-1155.18 -133L-1081.12 -115.078C-1007.05 -97.825 -858.918 -60.975 -710.786 -16.9225C-562.653 27.8 -414.52 81.4 -266.388 81.4C-118.255 81.4 29.8775 27.8 178.01 9.8775C326.143 -7.375 474.275 9.37499 622.408 27.8C770.541 46.225 918.673 62.975 1066.81 36.6775C1214.94 9.37501 1363.07 -60.975 1511.2 -34.6775C1659.34 -7.375 1807.47 116.575 1955.6 143.878C2103.73 170.175 2251.87 99.825 2325.93 63.4775L2400 27.8V403H2325.93C2251.87 403 2103.73 403 1955.6 403C1807.47 403 1659.34 403 1511.2 403C1363.07 403 1214.94 403 1066.81 403C918.673 403 770.541 403 622.408 403C474.275 403 326.143 403 178.01 403C29.8775 403 -118.255 403 -266.388 403C-414.52 403 -562.653 403 -710.786 403C-858.918 403 -1007.05 403 -1081.12 403H-1155.18V-133Z" fill="#FDDBE2"/>
</g>
<defs>
<clipPath id="clip0_88_32">
<rect width="2949" height="55" fill="white" transform="translate(-549)"/>
</clipPath>
</defs>
</svg>
