<svg width="414" height="56" viewBox="0 0 414 56" fill="none" xmlns="http://www.w3.org/2000/svg">
<g clip-path="url(#clip0_78_3)">
<path d="M-972.855 -131L-921.067 -113.078C-869.278 -95.825 -765.701 -58.975 -662.124 -14.9225C-558.546 29.8 -454.969 83.4 -351.392 83.4C-247.814 83.4 -144.237 29.8 -40.6596 11.8775C62.9177 -5.375 166.495 11.375 270.072 29.8C373.65 48.225 477.227 64.975 580.804 38.6775C684.382 11.375 787.959 -58.975 891.536 -32.6775C995.113 -5.375 1098.69 118.575 1202.27 145.878C1305.85 172.175 1409.42 101.825 1461.21 65.4775L1513 29.8V405H1461.21C1409.42 405 1305.85 405 1202.27 405C1098.69 405 995.113 405 891.536 405C787.959 405 684.382 405 580.804 405C477.227 405 373.65 405 270.072 405C166.495 405 62.9177 405 -40.6596 405C-144.237 405 -247.814 405 -351.392 405C-454.969 405 -558.546 405 -662.124 405C-765.701 405 -869.278 405 -921.067 405H-972.855V-131Z" fill="#FBF1E6"/>
<rect x="-549" y="55.791" width="1436" height="106.985" fill="#FBF1E6"/>
</g>
<defs>
<clipPath id="clip0_78_3">
<rect width="2062" height="56" fill="white" transform="translate(-549)"/>
</clipPath>
</defs>
</svg>
