<svg width="414" height="40" viewBox="0 0 414 40" fill="none" xmlns="http://www.w3.org/2000/svg">
<g clip-path="url(#clip0_95_14)">
<path d="M-1347.18 -130L-1273.12 -112.078C-1199.05 -94.825 -1050.92 -57.975 -902.786 -13.9225C-754.653 30.8 -606.52 84.4 -458.388 84.4C-310.255 84.4 -162.122 30.8 -13.9898 12.8775C134.143 -4.375 282.275 12.375 430.408 30.8C578.541 49.225 726.673 65.975 874.806 39.6775C1022.94 12.375 1171.07 -57.975 1319.2 -31.6775C1467.34 -4.375 1615.47 119.575 1763.6 146.878C1911.73 173.175 2059.87 102.825 2133.93 66.4775L2208 30.8V406H2133.93C2059.87 406 1911.73 406 1763.6 406C1615.47 406 1467.34 406 1319.2 406C1171.07 406 1022.94 406 874.806 406C726.673 406 578.541 406 430.408 406C282.275 406 134.143 406 -13.9898 406C-162.122 406 -310.255 406 -458.388 406C-606.52 406 -754.653 406 -902.786 406C-1050.92 406 -1199.05 406 -1273.12 406H-1347.18V-130Z" fill="#D3D4ED"/>
<rect x="-741" y="39.8508" width="2053.72" height="76.4179" fill="#D3D4ED"/>
<rect x="-192" y="39.7014" width="1439" height="31.4925" fill="#D3D4ED"/>
</g>
<defs>
<clipPath id="clip0_95_14">
<rect width="2949" height="40" fill="white" transform="translate(-741)"/>
</clipPath>
</defs>
</svg>
