<svg width="256" height="256" viewBox="0 0 256 256" fill="none" xmlns="http://www.w3.org/2000/svg">
<g clip-path="url(#clip0_110_16)">
<path d="M69.3981 47.0141C87.7406 30.3212 111.751 17.074 135.19 18.2621C158.663 19.3218 181.564 34.8168 201.279 54.0001C220.995 73.1833 237.234 96.1145 236.401 118.187C235.439 140.225 217.115 161.465 200.696 182.251C184.15 203.004 169.475 223.432 148.684 232.863C127.928 242.165 100.927 240.435 76.6743 230.496C52.2595 220.651 30.5937 202.597 22.4547 180.184C14.3501 157.644 19.7723 130.745 28.9315 107.325C38.1251 83.7767 51.0556 63.7069 69.3981 47.0141Z" fill="#FFDBB4"/>
<path fill-rule="evenodd" clip-rule="evenodd" d="M125.398 51.9607C144.996 51.9607 165.267 67.2824 172.451 77.0595C180.758 88.3648 187.31 142.636 184.236 161.052C181.162 179.467 165.893 199.539 139.386 199.539C112.879 199.539 96.7472 196.246 96.1004 191.463C95.6692 188.274 89.8414 177.805 78.617 160.055C67.1372 156.798 61.3748 151.281 61.3296 143.501C61.285 135.722 64.361 130.418 70.5575 127.587C68.3481 96.8876 70.0256 77.5414 75.5899 69.5486C83.9363 57.5595 105.8 51.9607 125.398 51.9607Z" fill="#EDB98A"/>
<path fill-rule="evenodd" clip-rule="evenodd" d="M115.42 47.3449L115.77 47.3465C137.454 47.4878 159.507 57.5517 172.408 75.132L172.796 75.667C172.817 75.6948 173.203 76.2744 173.294 76.4396C173.829 77.4074 174.459 78.313 174.942 79.2973C175.35 80.1328 175.621 81.0661 175.921 81.956L176.012 82.2216C176.782 84.4426 177.431 86.6845 178.004 88.9647C179.115 93.4033 179.981 97.9115 180.824 102.409C183.834 118.515 185.802 134.851 186.794 151.208L186.989 154.497C187.189 157.908 187.341 161.334 186.961 164.734C186.522 168.692 185.394 172.407 183.685 175.992C182.111 179.299 180.082 182.363 177.759 185.179C176.516 186.687 175.198 188.152 173.576 189.255C172.285 190.133 170.776 190.711 169.323 191.268C166.959 193.649 163.925 195.449 160.96 196.887C156.073 199.25 150.775 200.556 145.415 201.21C139.934 201.875 134.397 201.715 128.961 200.765C123.767 199.86 118.199 197.545 115 193.134C114.724 192.754 115.238 192.396 115.576 192.552C124.861 196.887 135.295 198.018 145.415 196.65C150.136 196.013 154.782 194.697 159.093 192.653C162.731 190.93 165.799 188.424 169.064 186.154C169.7 185.301 170.341 184.462 171.073 183.682L172.215 182.474C173.069 181.567 173.907 180.647 174.67 179.654C177.024 176.594 178.974 173.124 180.261 169.472C182.766 162.363 182.088 154.647 181.646 147.239L181.607 146.586C181.152 138.663 180.409 130.767 179.381 122.9C178.352 115.022 177.044 107.175 175.498 99.3841C174.735 95.5443 173.879 91.7288 173.124 87.889C172.733 85.9082 172.461 83.8995 172.164 81.8978C171.984 80.6794 171.988 79.5062 171.984 78.3156C171.95 78.3713 171.908 78.4235 171.867 78.4757C171.992 78.7716 171.905 79.1511 171.601 79.3252C170.452 79.9866 169.127 79.7638 167.832 79.7673C166.458 79.7742 165.085 79.7777 163.711 79.7812C162.28 79.7864 160.85 79.7864 159.419 79.7843L155.127 79.7742L137.959 79.722C126.716 79.688 115.282 80.1389 104.075 79.0699L103.22 78.9847C102.339 78.8824 92.4004 77.6566 89.7128 77.34L89.6312 77.3304C84.7193 76.7595 79.8772 75.9135 75.1037 74.6464C76.6635 75.2765 78.1652 76.1259 79.7112 76.7699C81.7065 77.5985 83.7529 78.3226 85.8 79.0153C90.0005 80.4392 94.2076 81.8212 98.3908 83.2903C99.5902 83.7108 102.316 94.0737 103.003 95.7131L103.023 95.7601C103.371 96.5503 103.851 97.4172 103.585 98.3153C102.999 100.3 99.8888 101.769 98.3463 102.89L96.7602 104.044L94.686 105.558C93.8352 106.172 93.0497 106.643 91.9365 106.291C91.933 106.287 91.9299 106.287 91.9265 106.287C92.8791 110.747 93.3416 125.17 93.4831 127.7C93.607 129.904 94.249 132.727 93.2273 134.736C92.9857 135.213 92.3579 135.589 91.8226 135.551C89.4893 135.373 87.1565 135.199 84.8232 135.025C84.1982 134.976 83.6287 134.618 83.4561 133.977L83.4492 133.942C83.3736 133.963 83.2873 133.949 83.2148 133.873C83.0871 133.744 82.956 133.619 82.821 133.497C79.7495 130.733 74.945 130.05 71.1548 131.488C69.1671 132.24 66.9064 133.507 65.5047 135.15C63.9481 136.974 63.6136 139.523 63.6098 141.852C63.6029 146.343 65.2117 150.889 68.4937 154.005C71.5096 156.865 75.4011 157.697 79.3162 158.516L79.7357 158.603C80.6293 158.791 80.9127 160.135 80.2396 160.699C82.0309 162.468 83.5772 164.577 85.0855 166.523C87.0883 169.105 89.0037 171.789 90.867 174.479L91.7665 175.78C94.972 180.394 99.6118 186.749 97.5939 192.518C97.3247 193.294 96.1995 193.572 95.7608 192.758C94.3215 190.077 93.5173 187.125 92.1505 184.413C90.8082 181.754 89.1376 179.289 87.4806 176.824L86.5248 175.396C84.9336 173.01 83.3571 170.599 81.896 168.142L80.8786 166.441C79.9226 164.834 78.9764 163.174 78.2719 161.448C73.5606 162.593 68.4385 160.045 65.1285 156.65C60.9663 152.376 59.0093 146.078 59.5474 140.156C59.8307 137.058 60.7385 134.061 62.9885 131.833C63.2163 131.61 63.4548 131.398 63.6999 131.185C63.6136 131.14 63.5411 131.07 63.5063 130.987C61.9979 127.373 61.677 123.067 61.5492 119.175C61.415 115.151 61.5013 111.116 61.8047 107.098C62.3607 99.7322 63.6788 92.4042 65.7708 85.3233C68.8665 74.8587 74.1856 64.6134 82.6833 57.5918C91.7449 50.1027 103.885 47.3255 115.42 47.3449ZM70.3131 138.875C71.5928 138.289 73.5893 139.333 74.7285 139.998L74.8032 140.041C78.1684 142.015 80.5641 145.378 81.6717 149.103C82.3828 151.505 78.3893 152.463 78.0511 150.109C77.7753 148.191 77.1399 146.395 76.0944 144.79C75.8456 144.873 75.604 144.981 75.3869 145.121C74.555 145.664 74.0715 146.597 72.9156 146.457C72.0592 146.356 71.1826 145.758 71.2412 144.769C71.3348 143.136 72.6391 142.485 74.0373 142.402C73.8377 142.222 73.6364 142.043 73.4303 141.872L73.2046 141.689C72.9487 141.502 70.2136 139.6 70.1349 140.089L70.1333 140.118C70.1367 140.313 69.8779 140.424 69.7467 140.278C69.2186 139.707 69.7091 139.154 70.3131 138.875Z" fill="black"/>
<path fill-rule="evenodd" clip-rule="evenodd" d="M140.485 158.846C142.42 155.643 146.544 163.49 146.982 164.839C147.37 166.035 147.627 167.259 147.757 168.498C149.257 168.836 150.815 168.837 152.352 168.54C154.636 168.099 156.032 166.863 158.018 165.802C159.389 165.068 161.118 165.928 161.831 167.145C162.67 168.576 162.135 170.062 161.032 171.13C158.94 173.154 154.823 173.618 152.092 173.081C150.527 172.773 149.093 172.183 147.827 171.324C147.818 171.484 147.813 171.645 147.8 171.805L147.776 172.082C147.566 174.327 146.953 177.149 145.221 178.61C142.38 181.006 138.873 176.398 141.634 174.005L141.719 173.933C143.435 172.537 143.81 168.793 143.717 166.731C143.657 165.385 143.413 164.022 142.991 162.74L142.904 162.485C142.777 162.123 141.391 158.688 140.89 159.125L140.867 159.15C140.66 159.398 140.326 159.109 140.485 158.846ZM155.934 140.77C158.545 142.368 162.525 146.094 159.715 150.055C156.408 153.548 151.646 149.543 149.3 147.732C147.124 146.328 144.679 149.938 146.698 151.577C163.654 164.213 170.535 141.188 157.255 138.891C155.792 138.638 155.249 140.275 155.934 140.77ZM128.043 126C130.596 125.544 133.211 126.183 135.323 127.686L135.483 127.802C137.518 129.3 139.795 131.93 138.627 134.512C138.158 135.549 136.755 135.712 135.864 135.242C134.381 134.459 134.113 132.534 132.79 131.468C131.705 130.594 130.244 130.065 128.846 130.192C125.563 130.492 123.544 133.751 122.525 136.56C122.394 136.919 121.87 137.058 121.665 136.673C119.261 132.15 123.517 126.808 128.043 126ZM168.93 124.293C173.82 123.888 179.543 128.99 178.256 134.184C177.638 136.677 173.965 136.606 173.312 134.184C172.952 132.852 172.988 131.673 172.035 130.567C171.249 129.654 170.131 129.123 168.93 129.204C167.606 129.294 166.385 129.96 165.457 130.896C164.619 131.742 164.117 132.978 163.249 133.727C163.036 133.91 162.75 133.922 162.539 133.727C161.044 132.34 161.941 129.453 162.889 128.006C164.244 125.934 166.452 124.499 168.93 124.293ZM118.732 116.787C121.868 113.992 127.568 111.293 131.798 112.668C134.23 113.459 135.29 117.403 132.575 118.653C129.432 120.101 125.807 119.512 122.607 121.012C121.264 121.642 120 122.43 119.064 123.586C118.327 124.496 117.577 125.695 116.511 126.22C116.231 126.358 115.851 126.361 115.627 126.105C113.29 123.445 116.691 118.604 118.732 116.787ZM163.539 112.53C165.477 111.982 167.628 111.993 169.597 112.337C171.566 112.681 173.565 113.502 175.172 114.7L175.359 114.841C177.114 116.171 179.208 118.108 179.095 120.465C179.002 122.434 176.944 123.765 175.168 122.734C173.719 121.892 173.038 120.207 171.812 119.084C170.8 118.158 169.612 117.428 168.344 116.916C166.935 116.347 165.524 116.081 164.013 116.056C162.849 116.036 161.678 116.42 160.536 116.543C160.63 116.738 159.727 116.647 159.21 116.475C158.827 116.31 158.825 115.823 158.957 115.506C159.616 113.939 162.014 112.96 163.539 112.53Z" fill="black"/>
<path fill-rule="evenodd" clip-rule="evenodd" d="M196.098 114.265C195.813 114.217 195.528 114.172 195.243 114.13C195.021 114.003 194.76 113.905 194.456 113.847C193.763 113.669 193.074 113.55 192.386 113.486C182.518 111.25 159.687 114.424 158.745 122.9C155.602 123.956 152.883 123.011 149.24 123.105C146.468 111.441 98.5343 113.087 96.229 120.119C96.2203 120.117 96.2117 120.115 96.2027 120.112C93.9876 119.422 90.7222 119.588 88.1868 119.479C82.7734 119.365 77.3538 119.85 72.0573 121C62.1391 122.586 48.603 124.443 55.501 136.909C55.5024 136.911 55.5034 136.913 55.5051 136.915L55.5062 136.914C56.695 138.141 58.7125 137.153 58.7875 135.493C56.4684 129.587 61.7064 128.878 65.7367 127.181C75.7648 123.555 85.9746 123.052 96.3462 124.174C97.1265 125.099 98.3105 125.905 99.5619 126.327C106.496 127.485 102.842 132.663 107.225 133.416C106.42 151.463 128.19 161.314 140.804 149.451C145.841 144.495 147.041 137.153 148.209 130.536C148.826 130.396 149.219 130.056 149.448 129.607C150.933 128.114 151.866 126.737 154.802 126.327C157.738 125.917 159.999 126.739 160.304 126.991C160.381 127.147 160.464 127.304 160.56 127.461C160.694 127.694 160.877 127.881 161.085 128.027C158.185 145.999 172.047 157.364 186.041 148.043C192.122 142.286 193.407 133.472 193.661 125.606C194.485 125.105 195.007 124.135 194.721 122.915C194.328 121.233 195.25 119.778 196.719 119.047C198.627 118.097 198.289 114.63 196.098 114.265ZM135.967 122.791C134.23 122.406 133.488 125.102 135.231 125.487C136.465 125.761 137.511 126.387 138.217 127.448L138.292 127.563C139.24 129.082 141.637 127.68 140.682 126.152C139.608 124.432 137.939 123.227 135.967 122.791ZM186.842 121.12C186.229 120.686 185.303 121.008 184.947 121.621C184.556 122.297 184.812 123.049 185.386 123.491L185.444 123.534C185.97 123.907 186.483 124.576 186.547 125.262L186.553 125.347C186.622 127.141 189.391 127.15 189.322 125.347C189.254 123.584 188.24 122.11 186.842 121.12Z" fill="black"/>
</g>
<defs>
<clipPath id="clip0_110_16">
<rect width="256" height="256" fill="white"/>
</clipPath>
</defs>
</svg>
